<svg xmlns="http://www.w3.org/2000/svg" viewBox="0 0 663 644"><defs><style>.cls-1{fill:#00a400;}.cls-2,.cls-3,.cls-4{fill:none;}.cls-2,.cls-3{stroke:#ed1c24;stroke-miterlimit:10;}.cls-2{stroke-width:22px;}.cls-3{stroke-width:24px;}.cls-5{fill:#333;}.cls-6{fill:#fff;}</style></defs><g id="Layer_2" data-name="Layer 2"><g id="Layer_4" data-name="Layer 4"><path id="path2390" class="cls-1" d="M333.45576,491.73205c-.44415-2.65412,40.95589,18.31546,40.59223,15.57625,2.04409-2.42349,14.87213,6.33324,16.13483,2.74615,17.81946,2.45926,29.30443,2.14,52.07429,10.12072-3.945-7.02113-24.46565-20.65348-29.90314-27.168,4.61369-4.99476-13.99212-3.59924-10.21813-7.80052,1.763-5.07192-15.06093-.49509-13.65564-4.30122,1.344-3.09079-10.53028-1.767-13.11934-1.18126-2.05639.71134-2.47923.68114-2.12377-.1599,3.2292-3.008-21.34757-.16586-26.30435.24859,20.45141-8.37431,44.06636-16.41654,63.15243-24.1609,2.86573-7.713,13.97469-3.16169,18.57335-13.25122,10.4265-2.53078,13.49959-4.62812,11.862-10.13884,4.22081-.952,17.78091-3.14584,12.99652-8.25921-3.26005-4.1167,18.14418-4.51913,14.83827-13.43759,3.21614-1.44747,13.65438-5.12249,10.60213-9.21942-3.37064-.59537,9.19306-4.923,10.24172-7.24172,4.37993-4.31085-5.732-2.26511,3.89989-7.34362,13.184-12.80883,23.82656-23.47208,40.66908-35.29449-13.79967,1.42091-34.68483,17.8046-42.826,15.04545-4.60337.53167-10.96819,10.75466-12.66064,4.4673-3.70567.86715-8.67788,10.042-10.83664,7.17379-2.03944-4.92986-10.06056,7.00436-13.33394,9.159-1.39421-11.7462-12.17422,5.82307-16.2583,9.37855-1.3649-14.38439-12.83307,12.376-14.92774,7.42176-1.55238-6.67069-11.53441,8.28-12.56487,9.43068-3.41428-8.35794-10.77476,6.8163-14.84015,11.49408-1.57514-13.12513-11.51672,12.56-13.59193,9.036-1.29357-6.293-10.34244,9.81882-13.07825,12.93934-9.28242,1.42408-19.97933,21.44222-32.23,28.331,11.51348-22.57406,38.88884-37.67672,47.833-56.70487,7.5403-6.63506,17.51951-10.69391,12.90847-15.47461,2.29306-2.49731,21.34911-13.40535,11.45923-13.43425.45573-4.37724,21.15515-13.00213,9.66925-15.49262,1.90252-3.36837,15.20787-9.58508,9.69985-12.41515-2.85709-.485-2.78972-1.08439.34906-2.91514,4.5779-3.86411,16.35545-10.37425,7.16521-12.79329,5.30344-4.46828,19.92937-11.94667,7.13467-12.96975,2.74847-4.26288,21.84133-16.57919,8.90519-17.118,20.78545-17.9906.90986-8.76315,10.70685-18.78152,9.49446-10.0336-.147-5.88271,2.566-10.48947,3.50179-3.62019,10.071-10.81462,2.18875-9.47459,2.08378-3.00048,10.06857-10.54581,6.17007-13.25005-1.37479.07233-1.30974-.246,1.01356-4.97851,2.54168-5.181,3.35948-8.6961,1.782-7.66688-.30669-7.23671,11.54859-27.94377,13.94864-34.31757-7.8567,9.44908-30.71983,37.42546-35.97348,50.59223-3.12837-6.6907-5.03459.86807-6.66826,4.6376-3.61569,7.7371-8.95877,1.34965-10.47069,15.02913-6.15787-7.74216-8.65805,9.73546-10.33634,14.25574-5.91987-8.5802-7.29827,6.19975-8.02234,11.97427-3.717-4.88159-5.74069-2.00126-6.596,2.72171-.96171,4.82436-1.71445,5.68629-3.529,4.04838-5.21764-1.97513-5.54861,12.15494-8.26006,15.98258-9.07993-9.97559-4.33841,15.1558-9.8313,11.55238-3.57315-7.16183-4.52547,15.90656-7.65767,13.43557-2.869-4.89111-5.98867,11.79793-7.37294,15.75465l-.67038,4.09869c-7.22645-8.09115-9.32106,15.53157-11.68124,21.11754-2.40324-1.641-4.26287-4.68825-4.81578-.10345a560.03,560.03,0,0,1-25.30837,62.7593c-1.81468-10.84188,18.86686-57.97751,10.67787-55.53373,1.01678-5.0208,10.59973-17.50122,5.89452-20.23412-3.28026.4292-1.44519-.89216.09258-4.31629,2.53085-6.67924,7.70378-13.63587.90294-16.06737,1.83821-6.93964,12.02734-19.45741,1.209-16.9837,2.31722-6.33662,10.13464-16.46166,2.18024-17.54567.82617-4.08782,9.75951-18.205,2.5794-15.78248-8.58312,2.4763,12.08953-24.397-2.71284-17.57295.85464-2.87692,8.0182-14.50917,2.0339-13.65938-2.01531.50722-2.29179.398-1.81783-.71716,4.55142-10.93883,4.03707-11.91706-1.89582-10.67555a37.69523,37.69523,0,0,0,3.25-14.33481c-1.19752-.08489-6.75552,1.46853-5.213-.68988.05353-3.58146,5.05062-17.50568-.65607-15.03668-6.08045,2.48867,3.50955-11.601-3.2203-11.30033-1.04689.4508-1.20023-.15324-1.00043-3.94952-4.20692-16.30289-7.877-42.74082-9.12357-61.5232-3.524,24.45111-4.97948,45.99521-10.87859,61.54443-4.441-.54871,1.17012,13.40763-2.95079,12.09083-4.35356-1.2771-1.33341,10.92158-1.10617,14.12631,2.04136,2.71744-3.11347.82639-4.52929.90728a36.56468,36.56468,0,0,0,1.87752,14.79452c.53434,1.41486-.0674,1.4288-4.089.08826-2.55654,1.56078.15335,12.50153,1.24245,15.92359-13.74158-4.20419,1.86108,12.73606-4.28223,14.13944-9.31826-.15568,7.62746,21.13507-.3926,18.71475-5.08459-2.33442-.94347,8.683.05355,11.47421,3.86031,9.07992-9.80676-.7992,1.93957,21.30145-9.96837-1.78683-.31041,14.37377-.053,17.78445-8.73914-.64381,1.42366,13.337,1.42408,16.33241-7.43348-2.86625.7115,12.45355,1.46233,15.33914-.638.36347-4.32022-1.08574-3.83551,1.18343-2.58657,6.59435.38374-10.43-3.88892-5.03578-6.64387,3.96447,2.63745-24.34346-6.8846-15.57849-.73635-4.97881,1.96664-22.02936-4.12286-16.12957-3.37277.093,1.84624-22.9157-7.17188-13.89361-.98346-6.16681,2.07316-23.93983-6.81769-13.9777-1.01265-4.66334,1.00444-22.03682-6.97687-14.7297.43686-2.259-.044-16.31572-3.00358-12.52727-5.37333,5.69664-2.44244-12.73541-4.72034-12.19414-8.782,9.36851-1.54193-18.0511-8.92605-11.34112-5.25384,5.18538-.86684-14.022-7.25762-9.58553-3.58936,3.80664-.29936-12.57623-5.37062-8.03614-3.51865,3.8466-1.68736-10.34509-5.39337-8.5242-8.2289-5.34179-15.58785-27.57313-24.05129-38.30434,2.72422,12.16561,9.68316,38.20064,8.36437,46.08123-1.9482.10121-1.48819,2.09,2.66588,11.562-8.4176-.42134-.12857,11.10348,1.30047,15.60343-9.05081-.91081-1.612,9.56408,1.41947,14.86674,2.5009,5.98663-10.43786,1.68633,1.65075,13.10406,9.956,8.63067-9.81713.0402,4.97213,14.71042,8.452,6.66086-6.80549,2.3061,4.14689,12.05361,7.2505,5.5337-5.511,5.84546,9.45052,15.53072-11.75773,1.97791,6.24418,10.12608,4.15075,13.67717-6.25075-.88628,13.47717,14.76816,9.44076,14.90509-3.78862,1.765,3.35169,7.09788,5.0474,8.9017,10.89172,9.24468-4.82283,2.19812,8.75659,14.64862,9.7055,8.82873,1.75468,3.75756,4.37332,9.31436,7.18928,6.00738,35.5396,43.04137,33.094,44.6926-19.04386-19.98169-31.63088-35.95888-45.8627-53.773-.60657-1.08213-.77849-1.05657-1.82862.27235-2.05532,2.93868-4.44946-6.95546-6.7103-8.27469-2.20419-2.59137-2.51784-2.55651-4.2487.60316-1.13733.94061-7.90844-12.0147-9.26351-12.77488-.48837-.31332-3.02986,2.46055-3.69119,3.103-2.97789-5.41766-9.11948-17.69073-11.46316-6.633-21.18164-29.41439.82368,8.69539-26.04425-18.68107-3.0301,8.70516-10.92337-5.48327-15.5332-5.26227-2.415,7.27513-7.836-3.01982-13.61593-3.08268-2.17444,4.11693-34.79275-12.84966-34.95813-10.37656,13.67236,10.46563,17.36628,18.282,28.0016,25.90948,5.49006,1.813-2.85873,2.614.41754,4.81848,15.7244,6.12145,1.2328,5.962,13.04415,11.70361,11.33876,4.92572-4.77786,6.18629,13.37846,11.31248-1.67545,6.07373,5.75429,8.47817,12.53659,10.465-1.55521,3.458-4.31616,7.24515,8.58038,9.51871,9.2143,1.85787-5.86206,4.792,9.71538,8.52742,18.70078,4.10511-2.05667,8.25923,16.66734,10.593,16.32642,7.93021,50.90912,21.50709,64.896,28.76577-2.67752.109-26.00284-6.73554-23.22374-3.35195-.05929,1.11336-.23353,1.13659-1.71115.23283-3.48727-.38273-12.32156-4.84326-13.49664-.62663-.838,4.13409-13.52133-5.8626-14.93586-.51638-1.29472,3.031-7.7196-1.39484-10.96306.01574-.9809,4.60086-7.5971.3082-11.94764.94,3.905,7.74088-10.32173.862-9.87441,5.1455-12.36221,5.76805-34.95138,10.11353-47.4358,20.05732,6.461,1.01148,31.13492-2.211,31.069.1112,37.51605,12.9907,66.18763,1.18673,110.63979-14.11629,13.24624,3.81881-13.89036,47.96634.66027,37.7809M322.468,411.12216a21.34828,21.34828,0,0,1-1.09535-6.45226C322.56582,405.67674,325.33411,415.59422,322.468,411.12216Zm-3.16626-14.969c-1.62169,2.45572-.86946-7.40187-.51445-6.79765,1.8485,2.15863,3.79034,10.47491,1.63135,7.91878C320.31235,395.8046,320.163,395.6654,319.3017,396.15312Z"/><circle class="cls-2" cx="329.4328" cy="372" r="261"/><line class="cls-3" x1="530.4328" y1="205" x2="145.4328" y2="558"/><rect class="cls-4" width="663" height="568"/><path class="cls-5" d="M118.19793,613.06055H101.48114v-9.749h3.57177V582.08594h-3.57177v-9.749h19.29345l14.81348,21.28418V582.08594H132.28v-9.749h16.42432v9.749H145.1618v31.50195H131.75311l-17.15625-24.62207v14.3457h3.60107Z"/><path class="cls-5" d="M153.30047,598.71484a13.16474,13.16474,0,0,1,5.27-10.56836q5.26977-4.30371,14.228-4.30371,9.01758,0,14.668,4.15723a12.85662,12.85662,0,0,1,5.6499,10.832,13.22686,13.22686,0,0,1-5.38672,10.74414q-5.387,4.30371-14.22851,4.30371-9.5442,0-14.87208-4.30371A13.33339,13.33339,0,0,1,153.30047,598.71484Zm14.90186.0586q0,6.79248,4.85986,6.792,5.15259,0,5.15283-6.85059a8.13662,8.13662,0,0,0-1.25879-4.85937,4.2665,4.2665,0,0,0-3.63037-1.72754,4.58779,4.58779,0,0,0-3.71826,1.69824A7.58761,7.58761,0,0,0,168.20233,598.77344Z"/><path class="cls-5" d="M212.87811,593.5918v-8.92969h18.15137v1.90332a20.67712,20.67712,0,0,1,9.63183-2.42969,15.65,15.65,0,0,1,10.86182,4.09864,13.95989,13.95989,0,0,1,4.5083,10.80273q0,6.73389-4.42041,10.62695-4.45093,3.92432-11.56445,3.92383a16.67293,16.67293,0,0,1-9.01709-2.34277v5.91406H234.777v8.92969H212.81951v-8.92969h3.48389V593.5918Zm18.06347,5.38672a6.68942,6.68942,0,0,0,1.40528,4.626,4.41908,4.41908,0,0,0,3.48388,1.58106q5.00612,0,5.00635-6.38282,0-6.23583-4.80127-6.23535a4.77454,4.77454,0,0,0-3.63037,1.52246Q230.94135,595.64111,230.94158,598.97852Z"/><path class="cls-5" d="M281.092,613.06055H260.74481v-8.92969h3.01562V581.2666h-3.01562v-8.92969h17.7417v31.79395H281.092Z"/><path class="cls-5" d="M296.98944,592.59668l-11.53467-1.17188a11.02363,11.02363,0,0,1,6.14795-5.88378q4.18652-1.69776,12.35449-1.69825,3.01538,0,5.40137.19043a36.08978,36.08978,0,0,1,4.25976.57032,13.01023,13.01023,0,0,1,5.76758,2.25488,8.68145,8.68145,0,0,1,2.60547,3.33691,16.04291,16.04291,0,0,1,.76123,5.73828v8.19727H326.383v8.92969H308.02655v-1.93262q-3.80566,2.45947-10.188,2.46-6.0022,0-9.04639-2.63476a7.9809,7.9809,0,0,1-3.07422-6.23633,7.61843,7.61843,0,0,1,3.77686-6.52832,17.07153,17.07153,0,0,1,9.77832-2.54785,22.05443,22.05443,0,0,1,8.75342,1.43457v-.84864a12.25,12.25,0,0,0-.38038-3.68847,3.76255,3.76255,0,0,0-1.81494-1.90332,7.269,7.269,0,0,0-3.39648-.76075A6.24186,6.24186,0,0,0,296.98944,592.59668Zm11.03711,13.20312v-5.18164a8.6506,8.6506,0,0,0-4.15723-1.05371,4.35143,4.35143,0,0,0-3.07373,1.05371,3.92209,3.92209,0,0,0,.0293,5.5625,3.92868,3.92868,0,0,0,2.752,1.11231A6.494,6.494,0,0,0,308.02655,605.7998Z"/><path class="cls-5" d="M352.58514,613.06055H330.10076v-8.92969h3.65967V593.5918h-3.65967v-8.92969h18.38575v3.60156a18.8146,18.8146,0,0,1,11.62256-4.12793q5.44556,0,8.19726,3.01563,2.72314,3.01464,2.72315,9.69043v7.28906h3.36669v8.92969H356.3034V600.44238q0-4.12793-.70264-5.44531a3.08283,3.08283,0,0,0-2.89843-1.28809,7.73745,7.73745,0,0,0-4.21582,1.49317v8.92871h4.09863Z"/><path class="cls-5" d="M401.36,602.69629v8.72461a14.17253,14.17253,0,0,1-4.15722,1.69824,21.48225,21.48225,0,0,1-5.50391.76074,13.59605,13.59605,0,0,1-5.67969-1.083,8.413,8.413,0,0,1-3.65967-2.98633,10.62505,10.62505,0,0,1-.99511-1.97559,9.57162,9.57162,0,0,1-.46875-2.00586q-.20508-1.93212-.20508-7.46582V593.5918h-3.62988v-8.92969h3.62988V580.2998l14.72607-6.99707v11.35938H401.36v8.92969h-5.94336v5.5039a8.56112,8.56112,0,0,0,.49805,3.60059,2.02354,2.02354,0,0,0,1.99072.9082A8.73089,8.73089,0,0,0,401.36,602.69629Z"/><path class="cls-5" d="M416.2326,613.41211h-9.105v-9.01758h8.51953a9.7678,9.7678,0,0,0,7.17285,3.45508q3.92212,0,3.92285-1.61035a1.3702,1.3702,0,0,0-.84912-1.25879,26.77176,26.77176,0,0,0-4.65478-1.376q-3.04542-.82031-6.73389-1.90332a15.534,15.534,0,0,1-5.03515-2.2832,7.84817,7.84817,0,0,1-2.54737-2.69336,7.34365,7.34365,0,0,1-.70263-3.45508q0-4.7124,3.3374-6.93848a14.89764,14.89764,0,0,1,8.40234-2.19531,17.95253,17.95253,0,0,1,8.8418,1.99024v-1.46387h8.98779V592.918h-8.31445a10.33152,10.33152,0,0,0-7.37793-2.95606q-3.36694,0-3.3667,1.78516,0,.84961.9956,1.11231.84888.26367,5.6211,1.25976a61.0694,61.0694,0,0,1,8.46094,2.2832,10.45773,10.45773,0,0,1,4.53759,3.01563,7.14143,7.14143,0,0,1,1.49317,4.5957q0,4.91895-3.65967,7.26074a16.349,16.349,0,0,1-8.9585,2.31348,19.17461,19.17461,0,0,1-8.98779-1.93262Z"/><path class="cls-5" d="M477.80047,613.06055H457.4533v-8.92969h3.01563V581.2666H457.4533v-8.92969H475.195v31.79395h2.60547Z"/><path class="cls-5" d="M506.19842,604.07227l12.1499,1.49316a11.2506,11.2506,0,0,1-2.28369,3.41113,14.07168,14.07168,0,0,1-3.57178,2.62012,21.16177,21.16177,0,0,1-10.15869,2.2832q-9.925,0-14.93115-4.12793a13.21525,13.21525,0,0,1-5.00635-10.74414,13.80476,13.80476,0,0,1,4.94776-10.832q4.8889-4.333,13.2622-4.333,8.05079,0,13.11621,4.09864,4.97608,4.06934,5.29883,12.38379H496.65448q.08789,6.90966,5.15283,6.90918A4.55318,4.55318,0,0,0,506.19842,604.07227Zm-9.36816-7.43555h8.28515c.03858-.58594.0586-.917.0586-.99609a6.108,6.108,0,0,0-1.17139-3.835,3.749,3.749,0,0,0-3.103-1.49316,3.40372,3.40372,0,0,0-3.04492,1.63965,7.52672,7.52672,0,0,0-1.05371,4.09863A5.21946,5.21946,0,0,0,496.83026,596.63672Z"/><path class="cls-5" d="M546.77606,613.06055H523.79412v-8.92969h3.60108V593.5918h-3.60108v-8.92969h3.60108v-.67285a12.13547,12.13547,0,0,1,1.90283-7.14356,11.66461,11.66461,0,0,1,4.977-3.98144q3.074-1.34619,10.12988-1.34668,3.16115,0,6.23584.11719v7.93359q-2.07935-.20508-3.65966-.20508a7.48933,7.48933,0,0,0-3.13282.52735,2.784,2.784,0,0,0-1.49316,1.49316,9.425,9.425,0,0,0-.38037,3.27832h5.44531v8.92969h-5.44531v10.53906h4.80127Z"/><path class="cls-5" d="M574.35418,602.69629v8.72461a14.17253,14.17253,0,0,1-4.15722,1.69824,21.48225,21.48225,0,0,1-5.50391.76074,13.59605,13.59605,0,0,1-5.67969-1.083,8.413,8.413,0,0,1-3.65967-2.98633,10.62567,10.62567,0,0,1-.99511-1.97559,9.57162,9.57162,0,0,1-.46875-2.00586q-.20508-1.93212-.20508-7.46582V593.5918h-3.62988v-8.92969h3.62988V580.2998l14.72607-6.99707v11.35938h5.94336v8.92969h-5.94336v5.5039a8.56112,8.56112,0,0,0,.49805,3.60059,2.02354,2.02354,0,0,0,1.99072.9082A8.73089,8.73089,0,0,0,574.35418,602.69629Z"/><path class="cls-6" d="M123.05145,613.06055h-16.7168v-9.749h3.57178V582.08594h-3.57178v-9.749h19.29346l14.81347,21.28418V582.08594h-3.3081v-9.749H153.5578v9.749h-3.54248v31.50195h-13.4087l-17.15625-24.62207v14.3457h3.60108Z"/><path class="cls-6" d="M158.154,598.71484a13.16471,13.16471,0,0,1,5.27-10.56836q5.26977-4.30371,14.228-4.30371,9.01758,0,14.668,4.15723a12.85663,12.85663,0,0,1,5.64991,10.832,13.22686,13.22686,0,0,1-5.38672,10.74414q-5.387,4.30371-14.22852,4.30371-9.54418,0-14.87207-4.30371A13.33339,13.33339,0,0,1,158.154,598.71484Zm14.90185.0586q0,6.79248,4.85987,6.792,5.15258,0,5.15283-6.85059a8.13662,8.13662,0,0,0-1.25879-4.85937,4.26653,4.26653,0,0,0-3.63037-1.72754,4.58779,4.58779,0,0,0-3.71826,1.69824A7.58756,7.58756,0,0,0,173.05584,598.77344Z"/><path class="cls-6" d="M217.73162,593.5918v-8.92969H235.883v1.90332a20.67719,20.67719,0,0,1,9.63184-2.42969,15.64994,15.64994,0,0,1,10.86181,4.09864,13.95989,13.95989,0,0,1,4.5083,10.80273q0,6.73389-4.42041,10.62695-4.45092,3.92432-11.56445,3.92383a16.673,16.673,0,0,1-9.01709-2.34277v5.91406h3.74756v8.92969H217.673v-8.92969h3.48389V593.5918Zm18.06348,5.38672a6.68942,6.68942,0,0,0,1.40527,4.626,4.41911,4.41911,0,0,0,3.48389,1.58106q5.0061,0,5.00635-6.38282,0-6.23583-4.80127-6.23535a4.77451,4.77451,0,0,0-3.63037,1.52246Q235.79485,595.64111,235.7951,598.97852Z"/><path class="cls-6" d="M285.94549,613.06055H265.59832v-8.92969H268.614V581.2666h-3.01563v-8.92969H283.34v31.79395h2.60547Z"/><path class="cls-6" d="M301.84295,592.59668l-11.53467-1.17188a11.02369,11.02369,0,0,1,6.14795-5.88378q4.18653-1.69776,12.3545-1.69825,3.01538,0,5.40136.19043a36.09025,36.09025,0,0,1,4.25977.57032,13.01034,13.01034,0,0,1,5.76758,2.25488,8.68155,8.68155,0,0,1,2.60547,3.33691,16.04291,16.04291,0,0,1,.76123,5.73828v8.19727h3.63037v8.92969H312.88006v-1.93262q-3.80567,2.45947-10.188,2.46-6.00219,0-9.04638-2.63476a7.9809,7.9809,0,0,1-3.07422-6.23633,7.61844,7.61844,0,0,1,3.77685-6.52832,17.07158,17.07158,0,0,1,9.77832-2.54785,22.05436,22.05436,0,0,1,8.75342,1.43457v-.84864a12.25012,12.25012,0,0,0-.38037-3.68847,3.76263,3.76263,0,0,0-1.81494-1.90332,7.269,7.269,0,0,0-3.39649-.76075A6.24189,6.24189,0,0,0,301.84295,592.59668Zm11.03711,13.20312v-5.18164a8.6506,8.6506,0,0,0-4.15723-1.05371,4.35145,4.35145,0,0,0-3.07373,1.05371,3.92209,3.92209,0,0,0,.0293,5.5625,3.92871,3.92871,0,0,0,2.75195,1.11231A6.49393,6.49393,0,0,0,312.88006,605.7998Z"/><path class="cls-6" d="M357.43866,613.06055H334.95428v-8.92969H338.614V593.5918h-3.65967v-8.92969H353.34v3.60156a18.81462,18.81462,0,0,1,11.62256-4.12793q5.44555,0,8.19727,3.01563,2.72314,3.01464,2.72314,9.69043v7.28906h3.3667v8.92969H361.15692V600.44238q0-4.12793-.70264-5.44531a3.08284,3.08284,0,0,0-2.89844-1.28809,7.73748,7.73748,0,0,0-4.21582,1.49317v8.92871h4.09864Z"/><path class="cls-6" d="M406.21356,602.69629v8.72461a14.17272,14.17272,0,0,1-4.15723,1.69824,21.48225,21.48225,0,0,1-5.50391.76074,13.596,13.596,0,0,1-5.67968-1.083,8.41291,8.41291,0,0,1-3.65967-2.98633,10.62578,10.62578,0,0,1-.99512-1.97559,9.57287,9.57287,0,0,1-.46875-2.00586q-.20508-1.93212-.20508-7.46582V593.5918h-3.62988v-8.92969h3.62988V580.2998l14.72608-6.99707v11.35938h5.94336v8.92969H400.2702v5.5039a8.56117,8.56117,0,0,0,.498,3.60059,2.02356,2.02356,0,0,0,1.99073.9082A8.73093,8.73093,0,0,0,406.21356,602.69629Z"/><path class="cls-6" d="M421.08612,613.41211h-9.105v-9.01758h8.51953a9.76778,9.76778,0,0,0,7.17285,3.45508q3.92211,0,3.92285-1.61035a1.3702,1.3702,0,0,0-.84912-1.25879,26.772,26.772,0,0,0-4.65479-1.376q-3.04541-.82031-6.73388-1.90332a15.534,15.534,0,0,1-5.03516-2.2832,7.84822,7.84822,0,0,1-2.54736-2.69336,7.34364,7.34364,0,0,1-.70264-3.45508q0-4.7124,3.3374-6.93848a14.89768,14.89768,0,0,1,8.40235-2.19531A17.95246,17.95246,0,0,1,431.655,586.126v-1.46387h8.9878V592.918H432.3283a10.3315,10.3315,0,0,0-7.37793-2.95606q-3.36695,0-3.3667,1.78516,0,.84961.99561,1.11231.84888.26367,5.62109,1.25976a61.06861,61.06861,0,0,1,8.46094,2.2832,10.45777,10.45777,0,0,1,4.5376,3.01563,7.14148,7.14148,0,0,1,1.49316,4.5957q0,4.91895-3.65966,7.26074a16.34907,16.34907,0,0,1-8.9585,2.31348,19.17458,19.17458,0,0,1-8.98779-1.93262Z"/><path class="cls-6" d="M482.654,613.06055H462.30682v-8.92969h3.01562V581.2666h-3.01562v-8.92969h17.7417v31.79395H482.654Z"/><path class="cls-6" d="M511.05194,604.07227l12.1499,1.49316a11.251,11.251,0,0,1-2.28369,3.41113,14.072,14.072,0,0,1-3.57178,2.62012,21.16183,21.16183,0,0,1-10.15869,2.2832q-9.925,0-14.93115-4.12793a13.21522,13.21522,0,0,1-5.00635-10.74414,13.80475,13.80475,0,0,1,4.94775-10.832q4.88892-4.333,13.26221-4.333,8.05079,0,13.11621,4.09864,4.97607,4.06934,5.29883,12.38379H501.508q.08788,6.90966,5.15283,6.90918A4.55318,4.55318,0,0,0,511.05194,604.07227Zm-9.36817-7.43555h8.28516c.03857-.58594.05859-.917.05859-.99609a6.108,6.108,0,0,0-1.17138-3.835,3.74907,3.74907,0,0,0-3.103-1.49316,3.40369,3.40369,0,0,0-3.04492,1.63965,7.52672,7.52672,0,0,0-1.05371,4.09863A5.21961,5.21961,0,0,0,501.68377,596.63672Z"/><path class="cls-6" d="M551.62957,613.06055H528.64764v-8.92969h3.60107V593.5918h-3.60107v-8.92969h3.60107v-.67285a12.1354,12.1354,0,0,1,1.90284-7.14356,11.66461,11.66461,0,0,1,4.977-3.98144q3.074-1.34619,10.12988-1.34668,3.16113,0,6.23584.11719v7.93359q-2.07935-.20508-3.65967-.20508a7.48928,7.48928,0,0,0-3.13281.52735,2.7841,2.7841,0,0,0-1.49317,1.49316,9.4252,9.4252,0,0,0-.38037,3.27832h5.44532v8.92969H546.8283v10.53906h4.80127Z"/><path class="cls-6" d="M579.2077,602.69629v8.72461a14.1726,14.1726,0,0,1-4.15723,1.69824,21.48217,21.48217,0,0,1-5.5039.76074,13.596,13.596,0,0,1-5.67969-1.083,8.41291,8.41291,0,0,1-3.65967-2.98633,10.62578,10.62578,0,0,1-.99512-1.97559,9.57287,9.57287,0,0,1-.46875-2.00586q-.20508-1.93212-.20508-7.46582V593.5918h-3.62988v-8.92969h3.62988V580.2998l14.72608-6.99707v11.35938h5.94336v8.92969h-5.94336v5.5039a8.561,8.561,0,0,0,.49805,3.60059,2.02353,2.02353,0,0,0,1.99072.9082A8.73093,8.73093,0,0,0,579.2077,602.69629Z"/><path class="cls-5" d="M145.42938,148.91016H106.48114V131.84473h5.73974V120.519L94.23309,94.69043H89.36444V77.625h37.25732V94.69043h-4.25391l7.585,14.5542,9.17334-14.5542h-4.35645V77.625h27.41748V94.69043h-4.4585L139.79217,120.519v11.32569h5.63721Z"/><path class="cls-5" d="M155.42254,123.79883q0-10.96582,9.22461-18.50049,9.22413-7.533,24.90625-7.5332,15.78369,0,25.67481,7.27734,9.88989,7.27734,9.89111,18.96143,0,11.2749-9.42969,18.80761-9.42993,7.53369-24.90625,7.53369-16.70727,0-26.03369-7.53369Q155.42156,135.32984,155.42254,123.79883Zm26.085.10254q0,11.89014,8.50733,11.88965,9.019,0,9.01953-11.99219,0-5.48292-2.20362-8.50684a7.46715,7.46715,0,0,0-6.355-3.02392,8.0286,8.0286,0,0,0-6.5083,2.97265Q181.50727,118.2129,181.5075,123.90137Z"/><path class="cls-5" d="M238.03387,114.83057h-5.99609V99.2002h31.77343v23.67626q0,5.99562,1.12745,8.0459,1.07592,2.10206,4.6123,2.10108a14.80413,14.80413,0,0,0,7.99463-2.30615V114.83057h-6.81592V99.2002h32.59326v34.07959h5.9961v15.63037H277.54559v-6.30323q-10.199,7.22535-20.85791,7.22559a19.08375,19.08375,0,0,1-13.11914-4.86865q-5.53491-4.86768-5.53467-18.34619Z"/><path class="cls-5" d="M378.09344,148.91016H342.47625V133.27979h5.27832V93.25537h-5.27832V77.625h31.05616v55.65479h4.561Z"/><path class="cls-5" d="M386.08758,123.79883q0-10.96582,9.22461-18.50049,9.22411-7.533,24.90625-7.5332,15.78369,0,25.6748,7.27734,9.8899,7.27734,9.89112,18.96143,0,11.2749-9.42969,18.80761-9.42993,7.53369-24.90625,7.53369-16.70727,0-26.03369-7.53369Q386.08661,135.32984,386.08758,123.79883Zm26.085.10254q0,11.89014,8.50733,11.88965,9.019,0,9.01953-11.99219,0-5.48292-2.20362-8.50684a7.46715,7.46715,0,0,0-6.355-3.02392,8.02858,8.02858,0,0,0-6.5083,2.97265Q412.17231,118.2129,412.17254,123.90137Z"/><path class="cls-5" d="M482.43328,149.5249h-15.938V133.74072h14.91259q5.73927,6.04761,12.55567,6.04737,6.86718,0,6.86718-2.81836a2.39828,2.39828,0,0,0-1.48583-2.2041,47.07658,47.07658,0,0,0-8.14844-2.40821q-5.33056-1.43408-11.78711-3.33105a27.17843,27.17843,0,0,1-8.81445-3.99756,13.73046,13.73046,0,0,1-4.4585-4.71485,12.84464,12.84464,0,0,1-1.23-6.04736q0-8.25,5.84228-12.14551,5.79054-3.84375,14.708-3.84326,9.22413,0,15.47656,3.48487V99.2002h15.73291v14.45166H502.112a18.08291,18.08291,0,0,0-12.91406-5.17579q-5.89453,0-5.89355,3.126,0,1.48681,1.74219,1.94727,1.48608.46142,9.83984,2.20361a107.11248,107.11248,0,0,1,14.81055,3.99756,18.31652,18.31652,0,0,1,7.94336,5.27832,12.50665,12.50665,0,0,1,2.61328,8.0459q0,8.60961-6.40577,12.70947-6.35522,4.04883-15.68164,4.04834-9.27612,0-15.73291-3.38232Z"/><path class="cls-5" d="M569.04119,130.76855v15.272a24.83976,24.83976,0,0,1-7.27685,2.97217,37.56655,37.56655,0,0,1-9.63477,1.33251,23.791,23.791,0,0,1-9.94189-1.89648,14.73334,14.73334,0,0,1-6.40625-5.22705,18.657,18.657,0,0,1-1.74219-3.459,16.74307,16.74307,0,0,1-.81982-3.51075q-.35962-3.38232-.35889-13.06787v-8.35351H526.506V99.2002h6.35449V91.564l25.77734-12.248V99.2002h10.40332v15.63037H558.63787v9.63476q0,4.71534.87159,6.30322.81884,1.58937,3.48437,1.58887A15.28463,15.28463,0,0,0,569.04119,130.76855Z"/><path class="cls-6" d="M152.92645,148.91016H113.97821V131.84473H119.718V120.519L101.73016,94.69043H96.86151V77.625h37.25732V94.69043h-4.25391l7.585,14.5542,9.17334-14.5542h-4.35645V77.625h27.41748V94.69043h-4.4585L147.28924,120.519v11.32569h5.63721Z"/><path class="cls-6" d="M162.91961,123.79883q0-10.96582,9.22461-18.50049,9.22413-7.533,24.90625-7.5332,15.78369,0,25.67481,7.27734,9.88989,7.27734,9.89111,18.96143,0,11.2749-9.42969,18.80761-9.42993,7.53369-24.90625,7.53369-16.70727,0-26.03369-7.53369Q162.91864,135.32984,162.91961,123.79883Zm26.085.10254q0,11.89014,8.50733,11.88965,9.019,0,9.01953-11.99219,0-5.48292-2.20361-8.50684a7.46718,7.46718,0,0,0-6.355-3.02392,8.0286,8.0286,0,0,0-6.5083,2.97265Q189.00434,118.2129,189.00457,123.90137Z"/><path class="cls-6" d="M245.53094,114.83057h-5.99609V99.2002h31.77343v23.67626q0,5.99562,1.12745,8.0459,1.07592,2.10206,4.6123,2.10108a14.80413,14.80413,0,0,0,7.99463-2.30615V114.83057h-6.81592V99.2002H310.82v34.07959h5.9961v15.63037H285.04266v-6.30323q-10.199,7.22535-20.85791,7.22559a19.08375,19.08375,0,0,1-13.11914-4.86865q-5.53491-4.86768-5.53467-18.34619Z"/><path class="cls-6" d="M385.59051,148.91016H349.97332V133.27979h5.27832V93.25537h-5.27832V77.625h31.05616v55.65479h4.561Z"/><path class="cls-6" d="M393.58465,123.79883q0-10.96582,9.22461-18.50049,9.22411-7.533,24.90625-7.5332,15.78369,0,25.67481,7.27734,9.88989,7.27734,9.89111,18.96143,0,11.2749-9.42969,18.80761-9.42993,7.53369-24.90625,7.53369-16.70727,0-26.03369-7.53369Q393.58368,135.32984,393.58465,123.79883Zm26.085.10254q0,11.89014,8.50733,11.88965,9.019,0,9.01953-11.99219,0-5.48292-2.20362-8.50684a7.46715,7.46715,0,0,0-6.355-3.02392,8.0286,8.0286,0,0,0-6.5083,2.97265Q419.66938,118.2129,419.66961,123.90137Z"/><path class="cls-6" d="M489.93035,149.5249h-15.938V133.74072H488.905q5.73927,6.04761,12.55567,6.04737,6.86718,0,6.86719-2.81836a2.39829,2.39829,0,0,0-1.48584-2.2041,47.07658,47.07658,0,0,0-8.14844-2.40821q-5.33056-1.43408-11.78711-3.33105a27.17843,27.17843,0,0,1-8.81445-3.99756,13.73046,13.73046,0,0,1-4.4585-4.71485,12.84476,12.84476,0,0,1-1.23-6.04736q0-8.25,5.84228-12.14551,5.79054-3.84375,14.708-3.84326,9.22413,0,15.47656,3.48487V99.2002h15.73291v14.45166H509.60907a18.083,18.083,0,0,0-12.91407-5.17579q-5.89452,0-5.89355,3.126,0,1.48681,1.74219,1.94727,1.48608.46142,9.83984,2.20361a107.11208,107.11208,0,0,1,14.81055,3.99756,18.31652,18.31652,0,0,1,7.94336,5.27832,12.50665,12.50665,0,0,1,2.61328,8.0459q0,8.60961-6.40576,12.70947-6.35523,4.04883-15.68165,4.04834-9.27612,0-15.73291-3.38232Z"/><path class="cls-6" d="M576.53826,130.76855v15.272a24.83964,24.83964,0,0,1-7.27685,2.97217,37.56655,37.56655,0,0,1-9.63477,1.33251,23.791,23.791,0,0,1-9.94189-1.89648,14.73334,14.73334,0,0,1-6.40625-5.22705,18.657,18.657,0,0,1-1.74219-3.459,16.74307,16.74307,0,0,1-.81982-3.51075q-.35963-3.38232-.35889-13.06787v-8.35351h-6.35449V99.2002h6.35449V91.564l25.77734-12.248V99.2002h10.40332v15.63037H566.13494v9.63476q0,4.71534.87159,6.30322.81883,1.58937,3.48437,1.58887A15.28463,15.28463,0,0,0,576.53826,130.76855Z"/></g></g></svg>