<svg xmlns="http://www.w3.org/2000/svg" preserveAspectRatio="none" viewBox="0 0 614.66867 749.09513"><defs><style>.cls-1,.cls-3{fill:#5b5b5b;}.cls-2{fill:#303030;}.cls-3,.cls-4{stroke:#303030;stroke-width:10px;}.cls-3{stroke-miterlimit:10;}.cls-4{fill:none;stroke-linecap:square;stroke-linejoin:bevel;}</style></defs><g id="Layer_2" data-name="Layer 2"><g id="Layer_4" data-name="Layer 4"><path class="cls-1" d="M9.59421,3.5531H605.07468a6.09424,6.09424,0,0,1,6.09424,6.09424V739.45886a6.09424,6.09424,0,0,1-6.09424,6.09424H9.5947A6.09473,6.09473,0,0,1,3.5,739.45837V9.64734A6.09424,6.09424,0,0,1,9.59421,3.5531Z"/><path class="cls-2" d="M605.07431,7.0531a2.5943,2.5943,0,0,1,2.59436,2.59433V739.45874a2.59424,2.59424,0,0,1-2.59436,2.59436H9.59433A2.59429,2.59429,0,0,1,7,739.45874V9.64743A2.59435,2.59435,0,0,1,9.59433,7.0531h595.48m0-7H9.59433A9.60519,9.60519,0,0,0,0,9.64743V739.45874a9.60521,9.60521,0,0,0,9.59433,9.59436h595.48a9.60524,9.60524,0,0,0,9.59436-9.59436V9.64743A9.60522,9.60522,0,0,0,605.07431.0531Z"/><rect class="cls-3" x="19.34958" y="22.0531" width="575" height="704"/><line class="cls-4" x1="7.34958" y1="7.0531" x2="19.34958" y2="22.0531"/><line class="cls-4" x1="594.34958" y1="22.0531" x2="607.34958" y2="7.0531"/><line class="cls-4" x1="592.34958" y1="724.0531" x2="607.34958" y2="742.0531"/><line class="cls-4" x1="19.34958" y1="726.0531" x2="7.34958" y2="742.0531"/></g></g></svg>