<svg xmlns="http://www.w3.org/2000/svg" width="883.429" height="474.158" viewBox="0 0 883.429 474.158"><g transform="translate(-2729.221 1551.603)"><g transform="translate(2359 -2319)"><g transform="translate(22)"><g transform="translate(367.892 953.537) rotate(14)"><path d="M 22.22725296020508 27.73321151733398 C 17.5848388671875 27.73321151733398 12.95298671722412 27.30379867553711 8.832399368286133 26.49142456054688 C 4.62782621383667 25.66247940063477 0.9387596249580383 24.42915916442871 -1.835947036743164 22.92478561401367 C -3.720773696899414 21.90290451049805 -4.846760272979736 20.50333213806152 -5.379520416259766 18.5202522277832 C -6.157320499420166 15.62506484985352 -5.611173629760742 11.56811904907227 -3.80016040802002 6.787998676300049 C -2.924900531768799 4.477797508239746 -1.938324928283691 2.502219676971436 -1.277933955192566 1.273037314414978 C 3.289616584777832 0.5267184376716614 16.80845642089844 -1.500001430511475 28.89835929870605 -1.500001430511475 C 39.19206619262695 -1.500001430511475 44.03791809082031 -0.04421475529670715 46.29045486450195 1.177051901817322 C 51.25856018066406 3.870598554611206 54.10790634155273 7.833971977233887 54.10790634155273 12.05091857910156 C 54.10790634155273 16.26786613464355 51.25856018066406 20.23123931884766 46.29045486450195 22.92478561401367 C 43.5157470703125 24.42915916442871 39.82667922973633 25.66247940063477 35.62210464477539 26.49142456054688 C 31.50152015686035 27.30379867553711 26.86966705322266 27.73321151733398 22.22725296020508 27.73321151733398 Z" stroke="none"/><path d="M 28.89835357666016 2.000001907348633 C 18.32233238220215 2.000001907348633 6.581478118896484 3.592842102050781 1.012805938720703 4.452999114990234 C -0.8502998352050781 8.302751541137695 -2.935596466064453 14.11218452453613 -2.000782012939453 17.60695266723633 C -1.719982147216797 18.65668487548828 -1.206047058105469 19.28498458862305 -0.1677627563476563 19.84791946411133 C 4.896934509277344 22.59385108947754 13.2689037322998 24.23320198059082 22.22725296020508 24.23320198059082 C 31.18558502197266 24.23320198059082 39.55755233764648 22.59383583068848 44.62226867675781 19.84791946411133 C 48.42623519897461 17.78553581237793 50.60790252685547 14.94363498687744 50.60790252685547 12.05091857910156 C 50.60790252685547 9.158202171325684 48.42623519897461 6.316301345825195 44.62225341796875 4.253917694091797 C 43.06966781616211 3.412151336669922 38.96236801147461 2.000001907348633 28.89835357666016 2.000001907348633 M 28.89834976196289 -5.000001907348633 C 36.52350997924805 -5.000001907348633 43.66954803466797 -4.225242614746094 47.95863723754883 -1.899831771850586 C 60.82433700561523 5.075534820556641 60.82433700561523 19.02630233764648 47.95863723754883 26.00166893005371 C 41.52578735351563 29.48936080932617 31.87651443481445 31.23320579528809 22.22724723815918 31.23320579528809 C 12.57797813415527 31.23320579528809 2.9287109375 29.48936080932617 -3.504131317138672 26.00166893005371 C -16.36983108520508 19.02630233764648 -3.504131317138672 -1.899831771850586 -3.504131317138672 -1.899831771850586 C -3.504131317138672 -1.899831771850586 13.65081977844238 -5.000001907348633 28.89834976196289 -5.000001907348633 Z" stroke="none"/></g><g transform="matrix(0.978, 0.208, -0.208, 0.978, 440.256, 953.257)"><path d="M 22.22725296020508 27.73321151733398 C 17.5848388671875 27.73321151733398 12.95298671722412 27.30379867553711 8.832399368286133 26.49142456054688 C 4.62782621383667 25.66247940063477 0.9387596249580383 24.42915916442871 -1.835947036743164 22.92478561401367 C -3.720773696899414 21.90290451049805 -4.846760272979736 20.50333213806152 -5.379520416259766 18.5202522277832 C -6.157320499420166 15.62506484985352 -5.611173629760742 11.56811904907227 -3.80016040802002 6.787998676300049 C -2.924900531768799 4.477797508239746 -1.938324928283691 2.502219676971436 -1.277933955192566 1.273037314414978 C 3.289616584777832 0.5267184376716614 16.80845642089844 -1.500001430511475 28.89835929870605 -1.500001430511475 C 39.19206619262695 -1.500001430511475 44.03791809082031 -0.04421475529670715 46.29045486450195 1.177051901817322 C 51.25856018066406 3.870598554611206 54.10790634155273 7.833971977233887 54.10790634155273 12.05091857910156 C 54.10790634155273 16.26786613464355 51.25856018066406 20.23123931884766 46.29045486450195 22.92478561401367 C 43.5157470703125 24.42915916442871 39.82667922973633 25.66247940063477 35.62210464477539 26.49142456054688 C 31.50152015686035 27.30379867553711 26.86966705322266 27.73321151733398 22.22725296020508 27.73321151733398 Z" stroke="none"/><path d="M 28.89835357666016 2.000001907348633 C 18.32233238220215 2.000001907348633 6.581478118896484 3.592842102050781 1.012805938720703 4.452999114990234 C -0.8502998352050781 8.302751541137695 -2.935596466064453 14.11218452453613 -2.000782012939453 17.60695266723633 C -1.719982147216797 18.65668487548828 -1.206047058105469 19.28498458862305 -0.1677627563476563 19.84791946411133 C 4.896934509277344 22.59385108947754 13.2689037322998 24.23320198059082 22.22725296020508 24.23320198059082 C 31.18558502197266 24.23320198059082 39.55755233764648 22.59383583068848 44.62226867675781 19.84791946411133 C 48.42623519897461 17.78553581237793 50.60790252685547 14.94363498687744 50.60790252685547 12.05091857910156 C 50.60790252685547 9.158202171325684 48.42623519897461 6.316301345825195 44.62225341796875 4.253917694091797 C 43.06966781616211 3.412151336669922 38.96236801147461 2.000001907348633 28.89835357666016 2.000001907348633 M 28.89834976196289 -5.000001907348633 C 36.52350997924805 -5.000001907348633 43.66954803466797 -4.225242614746094 47.95863723754883 -1.899831771850586 C 60.82433700561523 5.075534820556641 60.82433700561523 19.02630233764648 47.95863723754883 26.00166893005371 C 41.52578735351563 29.48936080932617 31.87651443481445 31.23320579528809 22.22724723815918 31.23320579528809 C 12.57797813415527 31.23320579528809 2.9287109375 29.48936080932617 -3.504131317138672 26.00166893005371 C -16.36983108520508 19.02630233764648 -3.504131317138672 -1.899831771850586 -3.504131317138672 -1.899831771850586 C -3.504131317138672 -1.899831771850586 13.65081977844238 -5.000001907348633 28.89834976196289 -5.000001907348633 Z" stroke="none"/></g><path d="M57.554.6c61.635-.844,75.2,116.4,60.72,164s-100.2,41-115.385,0S-4.081,1.441,57.554.6Z" transform="translate(362.276 770.999) rotate(3)" fill="#1a1a1a"/><path d="M57.554.6c61.635-.844,75.2,116.4,60.72,164s-100.2,41-115.385,0S-4.081,1.441,57.554.6Z" transform="translate(368.276 766.999) rotate(3)" fill="#303030"/></g><g transform="translate(171)"><g transform="translate(380.361 945.735) rotate(45)"><path d="M 22.22725296020508 27.73321151733398 C 17.5848388671875 27.73321151733398 12.95298671722412 27.30379867553711 8.832399368286133 26.49142456054688 C 4.62782621383667 25.66247940063477 0.9387596249580383 24.42915916442871 -1.835947036743164 22.92478561401367 C -3.720773696899414 21.90290451049805 -4.846760272979736 20.50333213806152 -5.379520416259766 18.5202522277832 C -6.157320499420166 15.62506484985352 -5.611173629760742 11.56811904907227 -3.80016040802002 6.787998676300049 C -2.924900531768799 4.477797508239746 -1.938324928283691 2.502219676971436 -1.277933955192566 1.273037314414978 C 3.289616584777832 0.5267184376716614 16.80845642089844 -1.500001430511475 28.89835929870605 -1.500001430511475 C 39.19206619262695 -1.500001430511475 44.03791809082031 -0.04421475529670715 46.29045486450195 1.177051901817322 C 51.25856018066406 3.870598554611206 54.10790634155273 7.833971977233887 54.10790634155273 12.05091857910156 C 54.10790634155273 16.26786613464355 51.25856018066406 20.23123931884766 46.29045486450195 22.92478561401367 C 43.5157470703125 24.42915916442871 39.82667922973633 25.66247940063477 35.62210464477539 26.49142456054688 C 31.50152015686035 27.30379867553711 26.86966705322266 27.73321151733398 22.22725296020508 27.73321151733398 Z" stroke="none"/><path d="M 28.89835357666016 2.000001907348633 C 18.32233238220215 2.000001907348633 6.581478118896484 3.592842102050781 1.012805938720703 4.452999114990234 C -0.8502998352050781 8.302751541137695 -2.935596466064453 14.11218452453613 -2.000782012939453 17.60695266723633 C -1.719982147216797 18.65668487548828 -1.206047058105469 19.28498458862305 -0.1677627563476563 19.84791946411133 C 4.896934509277344 22.59385108947754 13.2689037322998 24.23320198059082 22.22725296020508 24.23320198059082 C 31.18558502197266 24.23320198059082 39.55755233764648 22.59383583068848 44.62226867675781 19.84791946411133 C 48.42623519897461 17.78553581237793 50.60790252685547 14.94363498687744 50.60790252685547 12.05091857910156 C 50.60790252685547 9.158202171325684 48.42623519897461 6.316301345825195 44.62225341796875 4.253917694091797 C 43.06966781616211 3.412151336669922 38.96236801147461 2.000001907348633 28.89835357666016 2.000001907348633 M 28.89834976196289 -5.000001907348633 C 36.52350997924805 -5.000001907348633 43.66954803466797 -4.225242614746094 47.95863723754883 -1.899831771850586 C 60.82433700561523 5.075534820556641 60.82433700561523 19.02630233764648 47.95863723754883 26.00166893005371 C 41.52578735351563 29.48936080932617 31.87651443481445 31.23320579528809 22.22724723815918 31.23320579528809 C 12.57797813415527 31.23320579528809 2.9287109375 29.48936080932617 -3.504131317138672 26.00166893005371 C -16.36983108520508 19.02630233764648 -3.504131317138672 -1.899831771850586 -3.504131317138672 -1.899831771850586 C -3.504131317138672 -1.899831771850586 13.65081977844238 -5.000001907348633 28.89834976196289 -5.000001907348633 Z" stroke="none"/></g><g transform="translate(451.54 945.345) rotate(41)"><path d="M 22.22725296020508 27.73321151733398 C 17.5848388671875 27.73321151733398 12.95298671722412 27.30379867553711 8.832399368286133 26.49142456054688 C 4.62782621383667 25.66247940063477 0.9387596249580383 24.42915916442871 -1.835947036743164 22.92478561401367 C -3.720773696899414 21.90290451049805 -4.846760272979736 20.50333213806152 -5.379520416259766 18.5202522277832 C -6.157320499420166 15.62506484985352 -5.611173629760742 11.56811904907227 -3.80016040802002 6.787998676300049 C -2.924900531768799 4.477797508239746 -1.938324928283691 2.502219676971436 -1.277933955192566 1.273037314414978 C 3.289616584777832 0.5267184376716614 16.80845642089844 -1.500001430511475 28.89835929870605 -1.500001430511475 C 39.19206619262695 -1.500001430511475 44.03791809082031 -0.04421475529670715 46.29045486450195 1.177051901817322 C 51.25856018066406 3.870598554611206 54.10790634155273 7.833971977233887 54.10790634155273 12.05091857910156 C 54.10790634155273 16.26786613464355 51.25856018066406 20.23123931884766 46.29045486450195 22.92478561401367 C 43.5157470703125 24.42915916442871 39.82667922973633 25.66247940063477 35.62210464477539 26.49142456054688 C 31.50152015686035 27.30379867553711 26.86966705322266 27.73321151733398 22.22725296020508 27.73321151733398 Z" stroke="none"/><path d="M 28.89835357666016 2.000001907348633 C 18.32233238220215 2.000001907348633 6.581478118896484 3.592842102050781 1.012805938720703 4.452999114990234 C -0.8502998352050781 8.302751541137695 -2.935596466064453 14.11218452453613 -2.000782012939453 17.60695266723633 C -1.719982147216797 18.65668487548828 -1.206047058105469 19.28498458862305 -0.1677627563476563 19.84791946411133 C 4.896934509277344 22.59385108947754 13.2689037322998 24.23320198059082 22.22725296020508 24.23320198059082 C 31.18558502197266 24.23320198059082 39.55755233764648 22.59383583068848 44.62226867675781 19.84791946411133 C 48.42623519897461 17.78553581237793 50.60790252685547 14.94363498687744 50.60790252685547 12.05091857910156 C 50.60790252685547 9.158202171325684 48.42623519897461 6.316301345825195 44.62225341796875 4.253917694091797 C 43.06966781616211 3.412151336669922 38.96236801147461 2.000001907348633 28.89835357666016 2.000001907348633 M 28.89834976196289 -5.000001907348633 C 36.52350997924805 -5.000001907348633 43.66954803466797 -4.225242614746094 47.95863723754883 -1.899831771850586 C 60.82433700561523 5.075534820556641 60.82433700561523 19.02630233764648 47.95863723754883 26.00166893005371 C 41.52578735351563 29.48936080932617 31.87651443481445 31.23320579528809 22.22724723815918 31.23320579528809 C 12.57797813415527 31.23320579528809 2.9287109375 29.48936080932617 -3.504131317138672 26.00166893005371 C -16.36983108520508 19.02630233764648 -3.504131317138672 -1.899831771850586 -3.504131317138672 -1.899831771850586 C -3.504131317138672 -1.899831771850586 13.65081977844238 -5.000001907348633 28.89834976196289 -5.000001907348633 Z" stroke="none"/></g><path d="M57.554.6c61.635-.844,75.2,116.4,60.72,164s-100.2,41-115.385,0S-4.081,1.441,57.554.6Z" transform="translate(362.276 770.999) rotate(3)" fill="#1a1a1a"/><path d="M57.554.6c61.635-.844,75.2,116.4,60.72,164s-100.2,41-115.385,0S-4.081,1.441,57.554.6Z" transform="translate(368.276 766.999) rotate(3)" fill="#303030"/></g><g transform="translate(321)"><g transform="translate(367.892 953.537) rotate(14)"><path d="M 22.22725296020508 27.73321151733398 C 17.5848388671875 27.73321151733398 12.95298671722412 27.30379867553711 8.832399368286133 26.49142456054688 C 4.62782621383667 25.66247940063477 0.9387596249580383 24.42915916442871 -1.835947036743164 22.92478561401367 C -3.720773696899414 21.90290451049805 -4.846760272979736 20.50333213806152 -5.379520416259766 18.5202522277832 C -6.157320499420166 15.62506484985352 -5.611173629760742 11.56811904907227 -3.80016040802002 6.787998676300049 C -2.924900531768799 4.477797508239746 -1.938324928283691 2.502219676971436 -1.277933955192566 1.273037314414978 C 3.289616584777832 0.5267184376716614 16.80845642089844 -1.500001430511475 28.89835929870605 -1.500001430511475 C 39.19206619262695 -1.500001430511475 44.03791809082031 -0.04421475529670715 46.29045486450195 1.177051901817322 C 51.25856018066406 3.870598554611206 54.10790634155273 7.833971977233887 54.10790634155273 12.05091857910156 C 54.10790634155273 16.26786613464355 51.25856018066406 20.23123931884766 46.29045486450195 22.92478561401367 C 43.5157470703125 24.42915916442871 39.82667922973633 25.66247940063477 35.62210464477539 26.49142456054688 C 31.50152015686035 27.30379867553711 26.86966705322266 27.73321151733398 22.22725296020508 27.73321151733398 Z" stroke="none"/><path d="M 28.89835357666016 2.000001907348633 C 18.32233238220215 2.000001907348633 6.581478118896484 3.592842102050781 1.012805938720703 4.452999114990234 C -0.8502998352050781 8.302751541137695 -2.935596466064453 14.11218452453613 -2.000782012939453 17.60695266723633 C -1.719982147216797 18.65668487548828 -1.206047058105469 19.28498458862305 -0.1677627563476563 19.84791946411133 C 4.896934509277344 22.59385108947754 13.2689037322998 24.23320198059082 22.22725296020508 24.23320198059082 C 31.18558502197266 24.23320198059082 39.55755233764648 22.59383583068848 44.62226867675781 19.84791946411133 C 48.42623519897461 17.78553581237793 50.60790252685547 14.94363498687744 50.60790252685547 12.05091857910156 C 50.60790252685547 9.158202171325684 48.42623519897461 6.316301345825195 44.62225341796875 4.253917694091797 C 43.06966781616211 3.412151336669922 38.96236801147461 2.000001907348633 28.89835357666016 2.000001907348633 M 28.89834976196289 -5.000001907348633 C 36.52350997924805 -5.000001907348633 43.66954803466797 -4.225242614746094 47.95863723754883 -1.899831771850586 C 60.82433700561523 5.075534820556641 60.82433700561523 19.02630233764648 47.95863723754883 26.00166893005371 C 41.52578735351563 29.48936080932617 31.87651443481445 31.23320579528809 22.22724723815918 31.23320579528809 C 12.57797813415527 31.23320579528809 2.9287109375 29.48936080932617 -3.504131317138672 26.00166893005371 C -16.36983108520508 19.02630233764648 -3.504131317138672 -1.899831771850586 -3.504131317138672 -1.899831771850586 C -3.504131317138672 -1.899831771850586 13.65081977844238 -5.000001907348633 28.89834976196289 -5.000001907348633 Z" stroke="none"/></g><g transform="matrix(0.978, 0.208, -0.208, 0.978, 440.256, 953.257)"><path d="M 22.22725296020508 27.73321151733398 C 17.5848388671875 27.73321151733398 12.95298671722412 27.30379867553711 8.832399368286133 26.49142456054688 C 4.62782621383667 25.66247940063477 0.9387596249580383 24.42915916442871 -1.835947036743164 22.92478561401367 C -3.720773696899414 21.90290451049805 -4.846760272979736 20.50333213806152 -5.379520416259766 18.5202522277832 C -6.157320499420166 15.62506484985352 -5.611173629760742 11.56811904907227 -3.80016040802002 6.787998676300049 C -2.924900531768799 4.477797508239746 -1.938324928283691 2.502219676971436 -1.277933955192566 1.273037314414978 C 3.289616584777832 0.5267184376716614 16.80845642089844 -1.500001430511475 28.89835929870605 -1.500001430511475 C 39.19206619262695 -1.500001430511475 44.03791809082031 -0.04421475529670715 46.29045486450195 1.177051901817322 C 51.25856018066406 3.870598554611206 54.10790634155273 7.833971977233887 54.10790634155273 12.05091857910156 C 54.10790634155273 16.26786613464355 51.25856018066406 20.23123931884766 46.29045486450195 22.92478561401367 C 43.5157470703125 24.42915916442871 39.82667922973633 25.66247940063477 35.62210464477539 26.49142456054688 C 31.50152015686035 27.30379867553711 26.86966705322266 27.73321151733398 22.22725296020508 27.73321151733398 Z" stroke="none"/><path d="M 28.89835357666016 2.000001907348633 C 18.32233238220215 2.000001907348633 6.581478118896484 3.592842102050781 1.012805938720703 4.452999114990234 C -0.8502998352050781 8.302751541137695 -2.935596466064453 14.11218452453613 -2.000782012939453 17.60695266723633 C -1.719982147216797 18.65668487548828 -1.206047058105469 19.28498458862305 -0.1677627563476563 19.84791946411133 C 4.896934509277344 22.59385108947754 13.2689037322998 24.23320198059082 22.22725296020508 24.23320198059082 C 31.18558502197266 24.23320198059082 39.55755233764648 22.59383583068848 44.62226867675781 19.84791946411133 C 48.42623519897461 17.78553581237793 50.60790252685547 14.94363498687744 50.60790252685547 12.05091857910156 C 50.60790252685547 9.158202171325684 48.42623519897461 6.316301345825195 44.62225341796875 4.253917694091797 C 43.06966781616211 3.412151336669922 38.96236801147461 2.000001907348633 28.89835357666016 2.000001907348633 M 28.89834976196289 -5.000001907348633 C 36.52350997924805 -5.000001907348633 43.66954803466797 -4.225242614746094 47.95863723754883 -1.899831771850586 C 60.82433700561523 5.075534820556641 60.82433700561523 19.02630233764648 47.95863723754883 26.00166893005371 C 41.52578735351563 29.48936080932617 31.87651443481445 31.23320579528809 22.22724723815918 31.23320579528809 C 12.57797813415527 31.23320579528809 2.9287109375 29.48936080932617 -3.504131317138672 26.00166893005371 C -16.36983108520508 19.02630233764648 -3.504131317138672 -1.899831771850586 -3.504131317138672 -1.899831771850586 C -3.504131317138672 -1.899831771850586 13.65081977844238 -5.000001907348633 28.89834976196289 -5.000001907348633 Z" stroke="none"/></g><path d="M57.554.6c61.635-.844,75.2,116.4,60.72,164s-100.2,41-115.385,0S-4.081,1.441,57.554.6Z" transform="translate(362.276 770.999) rotate(3)" fill="#1a1a1a"/><path d="M57.554.6c61.635-.844,75.2,116.4,60.72,164s-100.2,41-115.385,0S-4.081,1.441,57.554.6Z" transform="translate(368.276 766.999) rotate(3)" fill="#303030"/></g><g transform="translate(619)"><g transform="translate(405 962)"><path d="M 22.22725296020508 27.73321151733398 C 17.5848388671875 27.73321151733398 12.95298671722412 27.30379867553711 8.832399368286133 26.49142456054688 C 4.62782621383667 25.66247940063477 0.9387596249580383 24.42915916442871 -1.835947036743164 22.92478561401367 C -3.720773696899414 21.90290451049805 -4.846760272979736 20.50333213806152 -5.379520416259766 18.5202522277832 C -6.157320499420166 15.62506484985352 -5.611173629760742 11.56811904907227 -3.80016040802002 6.787998676300049 C -2.924900531768799 4.477797508239746 -1.938324928283691 2.502219676971436 -1.277933955192566 1.273037314414978 C 3.289616584777832 0.5267184376716614 16.80845642089844 -1.500001430511475 28.89835929870605 -1.500001430511475 C 39.19206619262695 -1.500001430511475 44.03791809082031 -0.04421475529670715 46.29045486450195 1.177051901817322 C 51.25856018066406 3.870598554611206 54.10790634155273 7.833971977233887 54.10790634155273 12.05091857910156 C 54.10790634155273 16.26786613464355 51.25856018066406 20.23123931884766 46.29045486450195 22.92478561401367 C 43.5157470703125 24.42915916442871 39.82667922973633 25.66247940063477 35.62210464477539 26.49142456054688 C 31.50152015686035 27.30379867553711 26.86966705322266 27.73321151733398 22.22725296020508 27.73321151733398 Z" stroke="none"/><path d="M 28.89835357666016 2.000001907348633 C 18.32233238220215 2.000001907348633 6.581478118896484 3.592842102050781 1.012805938720703 4.452999114990234 C -0.8502998352050781 8.302751541137695 -2.935596466064453 14.11218452453613 -2.000782012939453 17.60695266723633 C -1.719982147216797 18.65668487548828 -1.206047058105469 19.28498458862305 -0.1677627563476563 19.84791946411133 C 4.896934509277344 22.59385108947754 13.2689037322998 24.23320198059082 22.22725296020508 24.23320198059082 C 31.18558502197266 24.23320198059082 39.55755233764648 22.59383583068848 44.62226867675781 19.84791946411133 C 48.42623519897461 17.78553581237793 50.60790252685547 14.94363498687744 50.60790252685547 12.05091857910156 C 50.60790252685547 9.158202171325684 48.42623519897461 6.316301345825195 44.62225341796875 4.253917694091797 C 43.06966781616211 3.412151336669922 38.96236801147461 2.000001907348633 28.89835357666016 2.000001907348633 M 28.89834976196289 -5.000001907348633 C 36.52350997924805 -5.000001907348633 43.66954803466797 -4.225242614746094 47.95863723754883 -1.899831771850586 C 60.82433700561523 5.075534820556641 60.82433700561523 19.02630233764648 47.95863723754883 26.00166893005371 C 41.52578735351563 29.48936080932617 31.87651443481445 31.23320579528809 22.22724723815918 31.23320579528809 C 12.57797813415527 31.23320579528809 2.9287109375 29.48936080932617 -3.504131317138672 26.00166893005371 C -16.36983108520508 19.02630233764648 -3.504131317138672 -1.899831771850586 -3.504131317138672 -1.899831771850586 C -3.504131317138672 -1.899831771850586 13.65081977844238 -5.000001907348633 28.89834976196289 -5.000001907348633 Z" stroke="none"/></g><g transform="translate(380.061 962.761) rotate(8)"><path d="M 22.22725296020508 27.73321151733398 C 17.5848388671875 27.73321151733398 12.95298671722412 27.30379867553711 8.832399368286133 26.49142456054688 C 4.62782621383667 25.66247940063477 0.9387596249580383 24.42915916442871 -1.835947036743164 22.92478561401367 C -3.720773696899414 21.90290451049805 -4.846760272979736 20.50333213806152 -5.379520416259766 18.5202522277832 C -6.157320499420166 15.62506484985352 -5.611173629760742 11.56811904907227 -3.80016040802002 6.787998676300049 C -2.924900531768799 4.477797508239746 -1.938324928283691 2.502219676971436 -1.277933955192566 1.273037314414978 C 3.289616584777832 0.5267184376716614 16.80845642089844 -1.500001430511475 28.89835929870605 -1.500001430511475 C 39.19206619262695 -1.500001430511475 44.03791809082031 -0.04421475529670715 46.29045486450195 1.177051901817322 C 51.25856018066406 3.870598554611206 54.10790634155273 7.833971977233887 54.10790634155273 12.05091857910156 C 54.10790634155273 16.26786613464355 51.25856018066406 20.23123931884766 46.29045486450195 22.92478561401367 C 43.5157470703125 24.42915916442871 39.82667922973633 25.66247940063477 35.62210464477539 26.49142456054688 C 31.50152015686035 27.30379867553711 26.86966705322266 27.73321151733398 22.22725296020508 27.73321151733398 Z" stroke="none"/><path d="M 28.89835357666016 2.000001907348633 C 18.32233238220215 2.000001907348633 6.581478118896484 3.592842102050781 1.012805938720703 4.452999114990234 C -0.8502998352050781 8.302751541137695 -2.935596466064453 14.11218452453613 -2.000782012939453 17.60695266723633 C -1.719982147216797 18.65668487548828 -1.206047058105469 19.28498458862305 -0.1677627563476563 19.84791946411133 C 4.896934509277344 22.59385108947754 13.2689037322998 24.23320198059082 22.22725296020508 24.23320198059082 C 31.18558502197266 24.23320198059082 39.55755233764648 22.59383583068848 44.62226867675781 19.84791946411133 C 48.42623519897461 17.78553581237793 50.60790252685547 14.94363498687744 50.60790252685547 12.05091857910156 C 50.60790252685547 9.158202171325684 48.42623519897461 6.316301345825195 44.62225341796875 4.253917694091797 C 43.06966781616211 3.412151336669922 38.96236801147461 2.000001907348633 28.89835357666016 2.000001907348633 M 28.89834976196289 -5.000001907348633 C 36.52350997924805 -5.000001907348633 43.66954803466797 -4.225242614746094 47.95863723754883 -1.899831771850586 C 60.82433700561523 5.075534820556641 60.82433700561523 19.02630233764648 47.95863723754883 26.00166893005371 C 41.52578735351563 29.48936080932617 31.87651443481445 31.23320579528809 22.22724723815918 31.23320579528809 C 12.57797813415527 31.23320579528809 2.9287109375 29.48936080932617 -3.504131317138672 26.00166893005371 C -16.36983108520508 19.02630233764648 -3.504131317138672 -1.899831771850586 -3.504131317138672 -1.899831771850586 C -3.504131317138672 -1.899831771850586 13.65081977844238 -5.000001907348633 28.89834976196289 -5.000001907348633 Z" stroke="none"/></g><path d="M57.554.6c61.635-.844,75.2,116.4,60.72,164s-100.2,41-115.385,0S-4.081,1.441,57.554.6Z" transform="translate(362.276 770.999) rotate(3)" fill="#1a1a1a"/><path d="M57.554.6c61.635-.844,75.2,116.4,60.72,164s-100.2,41-115.385,0S-4.081,1.441,57.554.6Z" transform="translate(368.276 766.999) rotate(3)" fill="#303030"/></g><g transform="translate(762)"><g transform="matrix(0.966, 0.259, -0.259, 0.966, 372.219, 957.185)"><path d="M 22.22725296020508 27.73321151733398 C 17.5848388671875 27.73321151733398 12.95298671722412 27.30379867553711 8.832399368286133 26.49142456054688 C 4.62782621383667 25.66247940063477 0.9387596249580383 24.42915916442871 -1.835947036743164 22.92478561401367 C -3.720773696899414 21.90290451049805 -4.846760272979736 20.50333213806152 -5.379520416259766 18.5202522277832 C -6.157320499420166 15.62506484985352 -5.611173629760742 11.56811904907227 -3.80016040802002 6.787998676300049 C -2.924900531768799 4.477797508239746 -1.938324928283691 2.502219676971436 -1.277933955192566 1.273037314414978 C 3.289616584777832 0.5267184376716614 16.80845642089844 -1.500001430511475 28.89835929870605 -1.500001430511475 C 39.19206619262695 -1.500001430511475 44.03791809082031 -0.04421475529670715 46.29045486450195 1.177051901817322 C 51.25856018066406 3.870598554611206 54.10790634155273 7.833971977233887 54.10790634155273 12.05091857910156 C 54.10790634155273 16.26786613464355 51.25856018066406 20.23123931884766 46.29045486450195 22.92478561401367 C 43.5157470703125 24.42915916442871 39.82667922973633 25.66247940063477 35.62210464477539 26.49142456054688 C 31.50152015686035 27.30379867553711 26.86966705322266 27.73321151733398 22.22725296020508 27.73321151733398 Z" stroke="none"/><path d="M 28.89835357666016 2.000001907348633 C 18.32233238220215 2.000001907348633 6.581478118896484 3.592842102050781 1.012805938720703 4.452999114990234 C -0.8502998352050781 8.302751541137695 -2.935596466064453 14.11218452453613 -2.000782012939453 17.60695266723633 C -1.719982147216797 18.65668487548828 -1.206047058105469 19.28498458862305 -0.1677627563476563 19.84791946411133 C 4.896934509277344 22.59385108947754 13.2689037322998 24.23320198059082 22.22725296020508 24.23320198059082 C 31.18558502197266 24.23320198059082 39.55755233764648 22.59383583068848 44.62226867675781 19.84791946411133 C 48.42623519897461 17.78553581237793 50.60790252685547 14.94363498687744 50.60790252685547 12.05091857910156 C 50.60790252685547 9.158202171325684 48.42623519897461 6.316301345825195 44.62225341796875 4.253917694091797 C 43.06966781616211 3.412151336669922 38.96236801147461 2.000001907348633 28.89835357666016 2.000001907348633 M 28.89834976196289 -5.000001907348633 C 36.52350997924805 -5.000001907348633 43.66954803466797 -4.225242614746094 47.95863723754883 -1.899831771850586 C 60.82433700561523 5.075534820556641 60.82433700561523 19.02630233764648 47.95863723754883 26.00166893005371 C 41.52578735351563 29.48936080932617 31.87651443481445 31.23320579528809 22.22724723815918 31.23320579528809 C 12.57797813415527 31.23320579528809 2.9287109375 29.48936080932617 -3.504131317138672 26.00166893005371 C -16.36983108520508 19.02630233764648 -3.504131317138672 -1.899831771850586 -3.504131317138672 -1.899831771850586 C -3.504131317138672 -1.899831771850586 13.65081977844238 -5.000001907348633 28.89834976196289 -5.000001907348633 Z" stroke="none"/></g><g transform="translate(426.061 959.761) rotate(8)"><path d="M 22.22725296020508 27.73321151733398 C 17.5848388671875 27.73321151733398 12.95298671722412 27.30379867553711 8.832399368286133 26.49142456054688 C 4.62782621383667 25.66247940063477 0.9387596249580383 24.42915916442871 -1.835947036743164 22.92478561401367 C -3.720773696899414 21.90290451049805 -4.846760272979736 20.50333213806152 -5.379520416259766 18.5202522277832 C -6.157320499420166 15.62506484985352 -5.611173629760742 11.56811904907227 -3.80016040802002 6.787998676300049 C -2.924900531768799 4.477797508239746 -1.938324928283691 2.502219676971436 -1.277933955192566 1.273037314414978 C 3.289616584777832 0.5267184376716614 16.80845642089844 -1.500001430511475 28.89835929870605 -1.500001430511475 C 39.19206619262695 -1.500001430511475 44.03791809082031 -0.04421475529670715 46.29045486450195 1.177051901817322 C 51.25856018066406 3.870598554611206 54.10790634155273 7.833971977233887 54.10790634155273 12.05091857910156 C 54.10790634155273 16.26786613464355 51.25856018066406 20.23123931884766 46.29045486450195 22.92478561401367 C 43.5157470703125 24.42915916442871 39.82667922973633 25.66247940063477 35.62210464477539 26.49142456054688 C 31.50152015686035 27.30379867553711 26.86966705322266 27.73321151733398 22.22725296020508 27.73321151733398 Z" stroke="none"/><path d="M 28.89835357666016 2.000001907348633 C 18.32233238220215 2.000001907348633 6.581478118896484 3.592842102050781 1.012805938720703 4.452999114990234 C -0.8502998352050781 8.302751541137695 -2.935596466064453 14.11218452453613 -2.000782012939453 17.60695266723633 C -1.719982147216797 18.65668487548828 -1.206047058105469 19.28498458862305 -0.1677627563476563 19.84791946411133 C 4.896934509277344 22.59385108947754 13.2689037322998 24.23320198059082 22.22725296020508 24.23320198059082 C 31.18558502197266 24.23320198059082 39.55755233764648 22.59383583068848 44.62226867675781 19.84791946411133 C 48.42623519897461 17.78553581237793 50.60790252685547 14.94363498687744 50.60790252685547 12.05091857910156 C 50.60790252685547 9.158202171325684 48.42623519897461 6.316301345825195 44.62225341796875 4.253917694091797 C 43.06966781616211 3.412151336669922 38.96236801147461 2.000001907348633 28.89835357666016 2.000001907348633 M 28.89834976196289 -5.000001907348633 C 36.52350997924805 -5.000001907348633 43.66954803466797 -4.225242614746094 47.95863723754883 -1.899831771850586 C 60.82433700561523 5.075534820556641 60.82433700561523 19.02630233764648 47.95863723754883 26.00166893005371 C 41.52578735351563 29.48936080932617 31.87651443481445 31.23320579528809 22.22724723815918 31.23320579528809 C 12.57797813415527 31.23320579528809 2.9287109375 29.48936080932617 -3.504131317138672 26.00166893005371 C -16.36983108520508 19.02630233764648 -3.504131317138672 -1.899831771850586 -3.504131317138672 -1.899831771850586 C -3.504131317138672 -1.899831771850586 13.65081977844238 -5.000001907348633 28.89834976196289 -5.000001907348633 Z" stroke="none"/></g><path d="M57.554.6c61.635-.844,75.2,116.4,60.72,164s-100.2,41-115.385,0S-4.081,1.441,57.554.6Z" transform="translate(362.276 770.999) rotate(3)" fill="#1a1a1a"/><path d="M57.554.6c61.635-.844,75.2,116.4,60.72,164s-100.2,41-115.385,0S-4.081,1.441,57.554.6Z" transform="translate(368.276 766.999) rotate(3)" fill="#303030"/></g><g transform="translate(470)"><g transform="translate(374.211 948.413) rotate(31)"><path d="M 22.22725296020508 27.73321151733398 C 17.5848388671875 27.73321151733398 12.95298671722412 27.30379867553711 8.832399368286133 26.49142456054688 C 4.62782621383667 25.66247940063477 0.9387596249580383 24.42915916442871 -1.835947036743164 22.92478561401367 C -3.720773696899414 21.90290451049805 -4.846760272979736 20.50333213806152 -5.379520416259766 18.5202522277832 C -6.157320499420166 15.62506484985352 -5.611173629760742 11.56811904907227 -3.80016040802002 6.787998676300049 C -2.924900531768799 4.477797508239746 -1.938324928283691 2.502219676971436 -1.277933955192566 1.273037314414978 C 3.289616584777832 0.5267184376716614 16.80845642089844 -1.500001430511475 28.89835929870605 -1.500001430511475 C 39.19206619262695 -1.500001430511475 44.03791809082031 -0.04421475529670715 46.29045486450195 1.177051901817322 C 51.25856018066406 3.870598554611206 54.10790634155273 7.833971977233887 54.10790634155273 12.05091857910156 C 54.10790634155273 16.26786613464355 51.25856018066406 20.23123931884766 46.29045486450195 22.92478561401367 C 43.5157470703125 24.42915916442871 39.82667922973633 25.66247940063477 35.62210464477539 26.49142456054688 C 31.50152015686035 27.30379867553711 26.86966705322266 27.73321151733398 22.22725296020508 27.73321151733398 Z" stroke="none"/><path d="M 28.89835357666016 2.000001907348633 C 18.32233238220215 2.000001907348633 6.581478118896484 3.592842102050781 1.012805938720703 4.452999114990234 C -0.8502998352050781 8.302751541137695 -2.935596466064453 14.11218452453613 -2.000782012939453 17.60695266723633 C -1.719982147216797 18.65668487548828 -1.206047058105469 19.28498458862305 -0.1677627563476563 19.84791946411133 C 4.896934509277344 22.59385108947754 13.2689037322998 24.23320198059082 22.22725296020508 24.23320198059082 C 31.18558502197266 24.23320198059082 39.55755233764648 22.59383583068848 44.62226867675781 19.84791946411133 C 48.42623519897461 17.78553581237793 50.60790252685547 14.94363498687744 50.60790252685547 12.05091857910156 C 50.60790252685547 9.158202171325684 48.42623519897461 6.316301345825195 44.62225341796875 4.253917694091797 C 43.06966781616211 3.412151336669922 38.96236801147461 2.000001907348633 28.89835357666016 2.000001907348633 M 28.89834976196289 -5.000001907348633 C 36.52350997924805 -5.000001907348633 43.66954803466797 -4.225242614746094 47.95863723754883 -1.899831771850586 C 60.82433700561523 5.075534820556641 60.82433700561523 19.02630233764648 47.95863723754883 26.00166893005371 C 41.52578735351563 29.48936080932617 31.87651443481445 31.23320579528809 22.22724723815918 31.23320579528809 C 12.57797813415527 31.23320579528809 2.9287109375 29.48936080932617 -3.504131317138672 26.00166893005371 C -16.36983108520508 19.02630233764648 -3.504131317138672 -1.899831771850586 -3.504131317138672 -1.899831771850586 C -3.504131317138672 -1.899831771850586 13.65081977844238 -5.000001907348633 28.89834976196289 -5.000001907348633 Z" stroke="none"/></g><g transform="translate(435.09 962.4) rotate(-10)"><path d="M 22.22725296020508 27.73321151733398 C 17.5848388671875 27.73321151733398 12.95298671722412 27.30379867553711 8.832399368286133 26.49142456054688 C 4.62782621383667 25.66247940063477 0.9387596249580383 24.42915916442871 -1.835947036743164 22.92478561401367 C -3.720773696899414 21.90290451049805 -4.846760272979736 20.50333213806152 -5.379520416259766 18.5202522277832 C -6.157320499420166 15.62506484985352 -5.611173629760742 11.56811904907227 -3.80016040802002 6.787998676300049 C -2.924900531768799 4.477797508239746 -1.938324928283691 2.502219676971436 -1.277933955192566 1.273037314414978 C 3.289616584777832 0.5267184376716614 16.80845642089844 -1.500001430511475 28.89835929870605 -1.500001430511475 C 39.19206619262695 -1.500001430511475 44.03791809082031 -0.04421475529670715 46.29045486450195 1.177051901817322 C 51.25856018066406 3.870598554611206 54.10790634155273 7.833971977233887 54.10790634155273 12.05091857910156 C 54.10790634155273 16.26786613464355 51.25856018066406 20.23123931884766 46.29045486450195 22.92478561401367 C 43.5157470703125 24.42915916442871 39.82667922973633 25.66247940063477 35.62210464477539 26.49142456054688 C 31.50152015686035 27.30379867553711 26.86966705322266 27.73321151733398 22.22725296020508 27.73321151733398 Z" stroke="none"/><path d="M 28.89835357666016 2.000001907348633 C 18.32233238220215 2.000001907348633 6.581478118896484 3.592842102050781 1.012805938720703 4.452999114990234 C -0.8502998352050781 8.302751541137695 -2.935596466064453 14.11218452453613 -2.000782012939453 17.60695266723633 C -1.719982147216797 18.65668487548828 -1.206047058105469 19.28498458862305 -0.1677627563476563 19.84791946411133 C 4.896934509277344 22.59385108947754 13.2689037322998 24.23320198059082 22.22725296020508 24.23320198059082 C 31.18558502197266 24.23320198059082 39.55755233764648 22.59383583068848 44.62226867675781 19.84791946411133 C 48.42623519897461 17.78553581237793 50.60790252685547 14.94363498687744 50.60790252685547 12.05091857910156 C 50.60790252685547 9.158202171325684 48.42623519897461 6.316301345825195 44.62225341796875 4.253917694091797 C 43.06966781616211 3.412151336669922 38.96236801147461 2.000001907348633 28.89835357666016 2.000001907348633 M 28.89834976196289 -5.000001907348633 C 36.52350997924805 -5.000001907348633 43.66954803466797 -4.225242614746094 47.95863723754883 -1.899831771850586 C 60.82433700561523 5.075534820556641 60.82433700561523 19.02630233764648 47.95863723754883 26.00166893005371 C 41.52578735351563 29.48936080932617 31.87651443481445 31.23320579528809 22.22724723815918 31.23320579528809 C 12.57797813415527 31.23320579528809 2.9287109375 29.48936080932617 -3.504131317138672 26.00166893005371 C -16.36983108520508 19.02630233764648 -3.504131317138672 -1.899831771850586 -3.504131317138672 -1.899831771850586 C -3.504131317138672 -1.899831771850586 13.65081977844238 -5.000001907348633 28.89834976196289 -5.000001907348633 Z" stroke="none"/></g><path d="M57.554.6c61.635-.844,75.2,116.4,60.72,164s-100.2,41-115.385,0S-4.081,1.441,57.554.6Z" transform="translate(362.276 770.999) rotate(3)" fill="#1a1a1a"/><path d="M57.554.6c61.635-.844,75.2,116.4,60.72,164s-100.2,41-115.385,0S-4.081,1.441,57.554.6Z" transform="translate(368.276 766.999) rotate(3)" fill="#303030"/></g></g><g transform="translate(2359 -2086)"><g transform="translate(370.221 767.396)"><g transform="translate(146.257 214.215) rotate(166)"><path d="M 38.12353515625 32.73321151733398 C 38.12228012084961 32.73321151733398 38.12196350097656 32.73321151733398 38.12070846557617 32.73321151733398 C 26.03072929382324 32.73290634155273 12.51197719573975 30.70639419555664 7.944200038909912 29.96011924743652 C 7.284218788146973 28.73165893554688 6.297494888305664 26.75588798522949 5.422055244445801 24.44521331787109 C 3.611042022705078 19.66509246826172 3.064895391464233 15.60814666748047 3.842695236206055 12.71295928955078 C 4.375455379486084 10.72987937927246 5.501441955566406 9.330306053161621 7.386268615722656 8.308425903320313 C 10.16098880767822 6.804052829742432 13.85004234313965 5.570733070373535 18.05461502075195 4.741799831390381 C 22.1751880645752 3.929412841796875 26.80705451965332 3.500012874603271 31.4494686126709 3.500012874603271 C 36.09188079833984 3.500012874603271 40.72374725341797 3.929412841796875 44.84433364868164 4.741799831390381 C 49.04892349243164 5.570746421813965 52.73797607421875 6.804052829742432 55.5126953125 8.308425903320313 C 60.48080062866211 11.00197315216064 63.33014678955078 14.96534633636475 63.33014678955078 19.18230628967285 C 63.33014678955078 23.39925384521484 60.48080062866211 27.36262702941895 55.5126953125 30.05617332458496 C 53.26016998291016 31.27742385864258 48.41409683227539 32.73321151733398 38.12353515625 32.73321151733398 Z" stroke="none"/><path d="M 38.12369918823242 29.23320960998535 L 38.12353134155273 29.23320960998535 C 48.18499755859375 29.23320960998535 52.29191589355469 27.82106018066406 53.84451675415039 26.97929382324219 C 57.64846420288086 24.91691017150879 59.83014678955078 22.07501029968262 59.83014678955078 19.18231010437012 C 59.83016586303711 16.28957557678223 57.64848327636719 13.44767665863037 53.84451675415039 11.38529300689697 C 48.77980041503906 8.639376640319824 40.40781402587891 7.000009536743164 31.44946479797363 7.000009536743164 C 22.49113273620605 7.000009536743164 14.11916542053223 8.639376640319824 9.054449081420898 11.38529300689697 C 8.019098281860352 11.94662666320801 7.505981922149658 12.57192611694336 7.224331855773926 13.61549282073975 C 6.279140472412109 17.1176700592041 8.347542762756348 22.88837623596191 10.23757076263428 26.78151893615723 C 15.80039215087891 27.64182662963867 27.52257347106934 29.23295211791992 38.12369918823242 29.23320960998535 M 38.12058639526367 36.23321151733398 C 22.873046875 36.23283386230469 5.718081951141357 33.13304138183594 5.718081951141357 33.13304138183594 C 5.718081951141357 33.13304138183594 -7.147617816925049 12.2069091796875 5.718081951141357 5.231543064117432 C 12.15093231201172 1.74385130405426 21.80018997192383 1.168823200714542e-05 31.44946479797363 1.168823200714542e-05 C 41.09873962402344 1.168823200714542e-05 50.74803161621094 1.743859648704529 57.18088150024414 5.231543064117432 C 70.04658508300781 12.2069263458252 70.04658508300781 26.15767669677734 57.18088150024414 33.13304138183594 C 52.89179229736328 35.45845413208008 45.74575042724609 36.23340225219727 38.12058639526367 36.23321151733398 Z" stroke="none"/></g><g transform="matrix(-0.978, 0.208, -0.208, -0.978, 72.903, 214.493)"><path d="M 38.12352752685547 32.73321151733398 C 38.12226867675781 32.73321151733398 38.12195587158203 32.73321151733398 38.12070083618164 32.73321151733398 C 26.03072929382324 32.73290634155273 12.51198101043701 30.70639419555664 7.944203853607178 29.96011924743652 C 7.284222602844238 28.73165893554688 6.29749870300293 26.75588798522949 5.422059059143066 24.44521331787109 C 3.611045837402344 19.66509246826172 3.064899206161499 15.60814666748047 3.84269905090332 12.71295928955078 C 4.37545919418335 10.72987937927246 5.501445770263672 9.330306053161621 7.386272430419922 8.308425903320313 C 10.16099262237549 6.804052829742432 13.85004615783691 5.570733070373535 18.05461883544922 4.741799831390381 C 22.17519187927246 3.929412841796875 26.80705833435059 3.500012874603271 31.44947242736816 3.500012874603271 C 36.09188461303711 3.500012874603271 40.72375106811523 3.929412841796875 44.84433746337891 4.741799831390381 C 49.04892730712891 5.570746421813965 52.73797988891602 6.804052829742432 55.51269912719727 8.308425903320313 C 60.48080444335938 11.00197315216064 63.33016586303711 14.96534633636475 63.33016586303711 19.18230628967285 C 63.33016586303711 23.39925384521484 60.48080444335938 27.36262702941895 55.51269912719727 30.05617332458496 C 53.26017379760742 31.27742385864258 48.41410064697266 32.73321151733398 38.12352752685547 32.73321151733398 Z" stroke="none"/><path d="M 38.12370300292969 29.23320960998535 L 38.12353515625 29.23320960998535 C 48.18500137329102 29.23320960998535 52.29191970825195 27.82106018066406 53.84452056884766 26.97929382324219 C 57.64846801757813 24.91691017150879 59.83015060424805 22.07501029968262 59.83015060424805 19.18231010437012 C 59.83016967773438 16.28957557678223 57.64848709106445 13.44767665863037 53.84452056884766 11.38529300689697 C 48.77980422973633 8.639376640319824 40.40781784057617 7.000009536743164 31.4494686126709 7.000009536743164 C 22.49113655090332 7.000009536743164 14.11916923522949 8.639376640319824 9.054452896118164 11.38529300689697 C 8.019102096557617 11.94662666320801 7.505985736846924 12.57192611694336 7.224335670471191 13.61549282073975 C 6.279144287109375 17.1176700592041 8.347546577453613 22.88837623596191 10.23757457733154 26.78151893615723 C 15.80039596557617 27.64182662963867 27.5225772857666 29.23295211791992 38.12370300292969 29.23320960998535 M 38.12059020996094 36.23321151733398 C 22.87305068969727 36.23283386230469 5.718085765838623 33.13304138183594 5.718085765838623 33.13304138183594 C 5.718085765838623 33.13304138183594 -7.147614002227783 12.2069091796875 5.718085765838623 5.231543064117432 C 12.15093612670898 1.74385130405426 21.80019378662109 1.168823200714542e-05 31.4494686126709 1.168823200714542e-05 C 41.0987434387207 1.168823200714542e-05 50.7480354309082 1.743859648704529 57.18088531494141 5.231543064117432 C 70.04658508300781 12.2069263458252 70.04658508300781 26.15767669677734 57.18088531494141 33.13304138183594 C 52.89179611206055 35.45845413208008 45.74575424194336 36.23340225219727 38.12059020996094 36.23321151733398 Z" stroke="none"/></g><path d="M61.257,197.275c61.635.844,75.2-116.4,60.72-164s-100.2-41-115.385,0S-.378,196.43,61.257,197.275Z" transform="translate(149.423 201.009) rotate(177)" fill="#1a1a1a"/><path d="M61.257,197.275c61.635.844,75.2-116.4,60.72-164s-100.2-41-115.385,0S-.378,196.43,61.257,197.275Z" transform="translate(143.423 197.009) rotate(177)" fill="#303030"/></g><g transform="translate(519.221 767.396)"><g transform="translate(146.543 193.903) rotate(135)"><path d="M 38.12348175048828 32.73319625854492 C 38.12222671508789 32.73319625854492 38.12191009521484 32.73319625854492 38.12065505981445 32.73319625854492 C 26.01568984985352 32.7328987121582 12.50879859924316 30.70680809020996 7.944362640380859 29.96041679382324 C 7.284381866455078 28.73198318481445 6.297590255737305 26.75612258911133 5.42206859588623 24.44520950317383 C 3.611042022705078 19.66510200500488 3.064908504486084 15.60815620422363 3.842708587646484 12.71296882629395 C 4.375455379486084 10.72988891601563 5.501455307006836 9.330315589904785 7.386281967163086 8.308422088623047 C 10.16136169433594 6.803849220275879 13.85037517547607 5.570475578308105 18.05448150634766 4.741635799407959 C 22.17456245422363 3.92935585975647 26.80648231506348 3.500009059906006 31.44949531555176 3.500009059906006 C 36.0912971496582 3.500009059906006 40.72309494018555 3.929462432861328 44.84417343139648 4.741955757141113 C 49.04922866821289 5.570982456207275 52.73833465576172 6.804249286651611 55.51266860961914 8.308408737182617 C 60.48076248168945 11.00195598602295 63.33012008666992 14.96532917022705 63.33012008666992 19.18228912353516 C 63.33012008666992 23.39923667907715 60.48076248168945 27.36260986328125 55.51266860961914 30.05615615844727 C 53.2601432800293 31.27740669250488 48.41407012939453 32.73319625854492 38.12348175048828 32.73319625854492 Z" stroke="none"/><path d="M 38.12345123291016 29.23320579528809 L 38.12326812744141 29.23320579528809 C 48.18490219116211 29.23320579528809 52.29188537597656 27.8210563659668 53.84448623657227 26.97929000854492 C 57.64843368530273 24.91690635681152 59.83012008666992 22.07500648498535 59.83012008666992 19.18227195739746 C 59.83012008666992 16.28957176208496 57.64843368530273 13.44767284393311 53.84446716308594 11.38528919219971 C 48.77978515625 8.639355659484863 40.4078369140625 7.000005722045898 31.44948577880859 7.000005722045898 C 22.49113464355469 7.000005722045898 14.1191520690918 8.639355659484863 9.054451942443848 11.38528919219971 C 8.019102096557617 11.94662284851074 7.505985260009766 12.57192230224609 7.224335193634033 13.61548900604248 C 6.279156684875488 17.11767959594727 8.347546577453613 22.88837814331055 10.23757171630859 26.78151321411133 C 15.80037403106689 27.64181709289551 27.52249717712402 29.23293685913086 38.12345123291016 29.23320579528809 M 38.12056350708008 36.23320388793945 C 22.8730354309082 36.23282241821289 5.718085289001465 33.13303756713867 5.718085289001465 33.13303756713867 C 5.718085289001465 33.13303756713867 -7.147598266601563 12.20692253112793 5.718085289001465 5.231539249420166 C 12.15172100067139 1.743430018424988 21.79904556274414 7.873534741520416e-06 31.44949150085449 7.873534741520416e-06 C 41.09758377075195 7.873534741520416e-06 50.74879455566406 1.74427318572998 57.18085098266602 5.231539249420166 C 70.04653167724609 12.20690536499023 70.04653167724609 26.15765571594238 57.18085098266602 33.13303756713867 C 52.89176177978516 35.45844650268555 45.74572372436523 36.23339080810547 38.12056350708008 36.23320388793945 Z" stroke="none"/></g><g transform="translate(74.208 195.471) rotate(139)"><path d="M 38.12348175048828 32.73319625854492 C 38.12222671508789 32.73319625854492 38.12191009521484 32.73319625854492 38.12065505981445 32.73319625854492 C 26.01568984985352 32.7328987121582 12.50879859924316 30.70680809020996 7.944362640380859 29.96041679382324 C 7.284381866455078 28.73198318481445 6.297590255737305 26.75612258911133 5.42206859588623 24.44520950317383 C 3.611042022705078 19.66510200500488 3.064908504486084 15.60815620422363 3.842708587646484 12.71296882629395 C 4.375455379486084 10.72988891601563 5.501455307006836 9.330315589904785 7.386281967163086 8.308422088623047 C 10.16136169433594 6.803849220275879 13.85037517547607 5.570475578308105 18.05448150634766 4.741635799407959 C 22.17456245422363 3.92935585975647 26.80648231506348 3.500009059906006 31.44949531555176 3.500009059906006 C 36.0912971496582 3.500009059906006 40.72309494018555 3.929462432861328 44.84417343139648 4.741955757141113 C 49.04922866821289 5.570982456207275 52.73833465576172 6.804249286651611 55.51266860961914 8.308408737182617 C 60.48076248168945 11.00195598602295 63.33012008666992 14.96532917022705 63.33012008666992 19.18228912353516 C 63.33012008666992 23.39923667907715 60.48076248168945 27.36260986328125 55.51266860961914 30.05615615844727 C 53.2601432800293 31.27740669250488 48.41407012939453 32.73319625854492 38.12348175048828 32.73319625854492 Z" stroke="none"/><path d="M 38.12345123291016 29.23320579528809 L 38.12326812744141 29.23320579528809 C 48.18490219116211 29.23320579528809 52.29188537597656 27.8210563659668 53.84448623657227 26.97929000854492 C 57.64843368530273 24.91690635681152 59.83012008666992 22.07500648498535 59.83012008666992 19.18227195739746 C 59.83012008666992 16.28957176208496 57.64843368530273 13.44767284393311 53.84446716308594 11.38528919219971 C 48.77978515625 8.639355659484863 40.4078369140625 7.000005722045898 31.44948577880859 7.000005722045898 C 22.49113464355469 7.000005722045898 14.1191520690918 8.639355659484863 9.054451942443848 11.38528919219971 C 8.019102096557617 11.94662284851074 7.505985260009766 12.57192230224609 7.224335193634033 13.61548900604248 C 6.279156684875488 17.11767959594727 8.347546577453613 22.88837814331055 10.23757171630859 26.78151321411133 C 15.80037403106689 27.64181709289551 27.52249717712402 29.23293685913086 38.12345123291016 29.23320579528809 M 38.12056350708008 36.23320388793945 C 22.8730354309082 36.23282241821289 5.718085289001465 33.13303756713867 5.718085289001465 33.13303756713867 C 5.718085289001465 33.13303756713867 -7.147598266601563 12.20692253112793 5.718085289001465 5.231539249420166 C 12.15172100067139 1.743430018424988 21.79904556274414 7.873534741520416e-06 31.44949150085449 7.873534741520416e-06 C 41.09758377075195 7.873534741520416e-06 50.74879455566406 1.74427318572998 57.18085098266602 5.231539249420166 C 70.04653167724609 12.20690536499023 70.04653167724609 26.15765571594238 57.18085098266602 33.13303756713867 C 52.89176177978516 35.45844650268555 45.74572372436523 36.23339080810547 38.12056350708008 36.23320388793945 Z" stroke="none"/></g><path d="M61.257,197.275c61.635.844,75.2-116.4,60.72-164s-100.2-41-115.385,0S-.378,196.43,61.257,197.275Z" transform="translate(150.076 201.009) rotate(177)" fill="#1a1a1a"/><path d="M61.257,197.275c61.635.844,75.2-116.4,60.72-164s-100.2-41-115.385,0S-.378,196.43,61.257,197.275Z" transform="translate(144.076 197.009) rotate(177)" fill="#303030"/></g><g transform="translate(669.221 767.396)"><g transform="translate(146.257 214.215) rotate(166)"><path d="M 38.12353515625 32.73321151733398 C 38.12228012084961 32.73321151733398 38.12196350097656 32.73321151733398 38.12070846557617 32.73321151733398 C 26.03072929382324 32.73290634155273 12.51197719573975 30.70639419555664 7.944200038909912 29.96011924743652 C 7.284218788146973 28.73165893554688 6.297494888305664 26.75588798522949 5.422055244445801 24.44521331787109 C 3.611042022705078 19.66509246826172 3.064895391464233 15.60814666748047 3.842695236206055 12.71295928955078 C 4.375455379486084 10.72987937927246 5.501441955566406 9.330306053161621 7.386268615722656 8.308425903320313 C 10.16098880767822 6.804052829742432 13.85004234313965 5.570733070373535 18.05461502075195 4.741799831390381 C 22.1751880645752 3.929412841796875 26.80705451965332 3.500012874603271 31.4494686126709 3.500012874603271 C 36.09188079833984 3.500012874603271 40.72374725341797 3.929412841796875 44.84433364868164 4.741799831390381 C 49.04892349243164 5.570746421813965 52.73797607421875 6.804052829742432 55.5126953125 8.308425903320313 C 60.48080062866211 11.00197315216064 63.33014678955078 14.96534633636475 63.33014678955078 19.18230628967285 C 63.33014678955078 23.39925384521484 60.48080062866211 27.36262702941895 55.5126953125 30.05617332458496 C 53.26016998291016 31.27742385864258 48.41409683227539 32.73321151733398 38.12353515625 32.73321151733398 Z" stroke="none"/><path d="M 38.12369918823242 29.23320960998535 L 38.12353134155273 29.23320960998535 C 48.18499755859375 29.23320960998535 52.29191589355469 27.82106018066406 53.84451675415039 26.97929382324219 C 57.64846420288086 24.91691017150879 59.83014678955078 22.07501029968262 59.83014678955078 19.18231010437012 C 59.83016586303711 16.28957557678223 57.64848327636719 13.44767665863037 53.84451675415039 11.38529300689697 C 48.77980041503906 8.639376640319824 40.40781402587891 7.000009536743164 31.44946479797363 7.000009536743164 C 22.49113273620605 7.000009536743164 14.11916542053223 8.639376640319824 9.054449081420898 11.38529300689697 C 8.019098281860352 11.94662666320801 7.505981922149658 12.57192611694336 7.224331855773926 13.61549282073975 C 6.279140472412109 17.1176700592041 8.347542762756348 22.88837623596191 10.23757076263428 26.78151893615723 C 15.80039215087891 27.64182662963867 27.52257347106934 29.23295211791992 38.12369918823242 29.23320960998535 M 38.12058639526367 36.23321151733398 C 22.873046875 36.23283386230469 5.718081951141357 33.13304138183594 5.718081951141357 33.13304138183594 C 5.718081951141357 33.13304138183594 -7.147617816925049 12.2069091796875 5.718081951141357 5.231543064117432 C 12.15093231201172 1.74385130405426 21.80018997192383 1.168823200714542e-05 31.44946479797363 1.168823200714542e-05 C 41.09873962402344 1.168823200714542e-05 50.74803161621094 1.743859648704529 57.18088150024414 5.231543064117432 C 70.04658508300781 12.2069263458252 70.04658508300781 26.15767669677734 57.18088150024414 33.13304138183594 C 52.89179229736328 35.45845413208008 45.74575042724609 36.23340225219727 38.12058639526367 36.23321151733398 Z" stroke="none"/></g><g transform="matrix(-0.978, 0.208, -0.208, -0.978, 72.903, 214.493)"><path d="M 38.12352752685547 32.73321151733398 C 38.12226867675781 32.73321151733398 38.12195587158203 32.73321151733398 38.12070083618164 32.73321151733398 C 26.03072929382324 32.73290634155273 12.51198101043701 30.70639419555664 7.944203853607178 29.96011924743652 C 7.284222602844238 28.73165893554688 6.29749870300293 26.75588798522949 5.422059059143066 24.44521331787109 C 3.611045837402344 19.66509246826172 3.064899206161499 15.60814666748047 3.84269905090332 12.71295928955078 C 4.37545919418335 10.72987937927246 5.501445770263672 9.330306053161621 7.386272430419922 8.308425903320313 C 10.16099262237549 6.804052829742432 13.85004615783691 5.570733070373535 18.05461883544922 4.741799831390381 C 22.17519187927246 3.929412841796875 26.80705833435059 3.500012874603271 31.44947242736816 3.500012874603271 C 36.09188461303711 3.500012874603271 40.72375106811523 3.929412841796875 44.84433746337891 4.741799831390381 C 49.04892730712891 5.570746421813965 52.73797988891602 6.804052829742432 55.51269912719727 8.308425903320313 C 60.48080444335938 11.00197315216064 63.33016586303711 14.96534633636475 63.33016586303711 19.18230628967285 C 63.33016586303711 23.39925384521484 60.48080444335938 27.36262702941895 55.51269912719727 30.05617332458496 C 53.26017379760742 31.27742385864258 48.41410064697266 32.73321151733398 38.12352752685547 32.73321151733398 Z" stroke="none"/><path d="M 38.12370300292969 29.23320960998535 L 38.12353515625 29.23320960998535 C 48.18500137329102 29.23320960998535 52.29191970825195 27.82106018066406 53.84452056884766 26.97929382324219 C 57.64846801757813 24.91691017150879 59.83015060424805 22.07501029968262 59.83015060424805 19.18231010437012 C 59.83016967773438 16.28957557678223 57.64848709106445 13.44767665863037 53.84452056884766 11.38529300689697 C 48.77980422973633 8.639376640319824 40.40781784057617 7.000009536743164 31.4494686126709 7.000009536743164 C 22.49113655090332 7.000009536743164 14.11916923522949 8.639376640319824 9.054452896118164 11.38529300689697 C 8.019102096557617 11.94662666320801 7.505985736846924 12.57192611694336 7.224335670471191 13.61549282073975 C 6.279144287109375 17.1176700592041 8.347546577453613 22.88837623596191 10.23757457733154 26.78151893615723 C 15.80039596557617 27.64182662963867 27.5225772857666 29.23295211791992 38.12370300292969 29.23320960998535 M 38.12059020996094 36.23321151733398 C 22.87305068969727 36.23283386230469 5.718085765838623 33.13304138183594 5.718085765838623 33.13304138183594 C 5.718085765838623 33.13304138183594 -7.147614002227783 12.2069091796875 5.718085765838623 5.231543064117432 C 12.15093612670898 1.74385130405426 21.80019378662109 1.168823200714542e-05 31.4494686126709 1.168823200714542e-05 C 41.0987434387207 1.168823200714542e-05 50.7480354309082 1.743859648704529 57.18088531494141 5.231543064117432 C 70.04658508300781 12.2069263458252 70.04658508300781 26.15767669677734 57.18088531494141 33.13304138183594 C 52.89179611206055 35.45845413208008 45.74575424194336 36.23340225219727 38.12059020996094 36.23321151733398 Z" stroke="none"/></g><path d="M61.257,197.275c61.635.844,75.2-116.4,60.72-164s-100.2-41-115.385,0S-.378,196.43,61.257,197.275Z" transform="translate(149.423 201.009) rotate(177)" fill="#1a1a1a"/><path d="M61.257,197.275c61.635.844,75.2-116.4,60.72-164s-100.2-41-115.385,0S-.378,196.43,61.257,197.275Z" transform="translate(143.423 197.009) rotate(177)" fill="#303030"/></g><g transform="translate(967.221 767.396)"><g transform="translate(95.872 225.837) rotate(180)"><path d="M 38.12352752685547 32.73318481445313 C 38.12227249145508 32.73318481445313 38.12195587158203 32.73318481445313 38.12070083618164 32.73318481445313 C 26.01571464538574 32.73289108276367 12.50880718231201 30.7067985534668 7.944367408752441 29.96040534973145 C 7.284385204315186 28.73197364807129 6.297590732574463 26.75611305236816 5.422060966491699 24.44519996643066 C 3.611047744750977 19.66507911682129 3.064901113510132 15.60813331604004 3.842700958251953 12.71294593811035 C 4.375461101531982 10.72986602783203 5.501447677612305 9.330292701721191 7.386274337768555 8.308412551879883 C 10.16098117828369 6.804052829742432 13.85004806518555 5.570733070373535 18.05463409423828 4.741786479949951 C 22.17522048950195 3.929399490356445 26.80708694458008 3.499999523162842 31.44950103759766 3.499999523162842 C 36.09191513061523 3.499999523162842 40.72378158569336 3.929399490356445 44.84436798095703 4.741786479949951 C 49.04895401000977 5.570733070373535 52.73802185058594 6.804052829742432 55.51272583007813 8.308412551879883 C 60.4808349609375 11.00195980072021 63.33019256591797 14.96533298492432 63.33019256591797 19.18227958679199 C 63.33019256591797 23.39922714233398 60.4808349609375 27.36260032653809 55.51272583007813 30.0561466217041 C 53.26020431518555 31.27739715576172 48.41412734985352 32.73318481445313 38.12352752685547 32.73318481445313 Z" stroke="none"/><path d="M 38.12348556518555 29.23319625854492 L 38.1233024597168 29.23319625854492 C 48.18495178222656 29.23319625854492 52.29193496704102 27.82104682922363 53.84453582763672 26.97928047180176 C 57.64850234985352 24.91689682006836 59.83018493652344 22.07499694824219 59.83018493652344 19.18227958679199 C 59.83018493652344 16.2895622253418 57.64850234985352 13.44766330718994 53.84453582763672 11.38527965545654 C 48.77983474731445 8.639363288879395 40.40786743164063 7.000012874603271 31.44950103759766 7.000012874603271 C 22.49115180969238 7.000012874603271 14.11915111541748 8.639363288879395 9.054450988769531 11.38527965545654 C 8.019101142883301 11.94661331176758 7.505984306335449 12.57191276550293 7.224334239959717 13.61549663543701 C 6.279155731201172 17.11767387390137 8.347549438476563 22.88836479187012 10.23757362365723 26.78150367736816 C 15.80038166046143 27.64180755615234 27.52251815795898 29.2329273223877 38.12348556518555 29.23319625854492 M 38.12060165405273 36.23319244384766 C 22.87305641174316 36.23281478881836 5.718084335327148 33.13302993774414 5.718084335327148 33.13302993774414 C 5.718084335327148 33.13302993774414 -7.147615432739258 12.20691299438477 5.718084335327148 5.231529712677002 C 12.1509428024292 1.743846297264099 21.80022239685059 4.586791874316987e-06 31.44949913024902 4.586791874316987e-06 C 41.09877777099609 4.586791874316987e-06 50.74805068969727 1.743846297264099 57.18090057373047 5.231529712677002 C 70.04661560058594 12.20691299438477 70.04661560058594 26.15764617919922 57.18090057373047 33.13302993774414 C 52.89181137084961 35.45843505859375 45.74576950073242 36.23338317871094 38.12060165405273 36.23319244384766 Z" stroke="none"/></g><g transform="translate(125.068 225.01) rotate(172)"><path d="M 38.12352752685547 32.73320388793945 C 38.12226867675781 32.73320388793945 38.12195587158203 32.73320388793945 38.12070083618164 32.73320388793945 C 26.01571273803711 32.73290634155273 12.50880527496338 30.70681571960449 7.944365501403809 29.96042251586914 C 7.284383296966553 28.73199081420898 6.29758882522583 26.75613021850586 5.422059059143066 24.44521713256836 C 3.611045837402344 19.66509628295898 3.064899206161499 15.60815048217773 3.84269905090332 12.71294975280762 C 4.37545919418335 10.72988319396973 5.501445770263672 9.330309867858887 7.386272430419922 8.308416366577148 C 10.16097927093506 6.804056644439697 13.85004615783691 5.570736885070801 18.05461883544922 4.741803646087646 C 22.17520523071289 3.929416656494141 26.80707168579102 3.500016689300537 31.44948577880859 3.500016689300537 C 36.09189987182617 3.500016689300537 40.7237663269043 3.929416656494141 44.84435272216797 4.741803646087646 C 49.0489387512207 5.57075023651123 52.73800659179688 6.804056644439697 55.51271057128906 8.308429718017578 C 60.48083114624023 11.00197696685791 63.33019256591797 14.96536350250244 63.33019256591797 19.18231010437012 C 63.33017730712891 23.39925765991211 60.48083114624023 27.36263084411621 55.51272583007813 30.0561637878418 C 53.26020050048828 31.27741432189941 48.41412734985352 32.73320388793945 38.12352752685547 32.73320388793945 Z" stroke="none"/><path d="M 38.12373352050781 29.23321342468262 L 38.12356567382813 29.23321342468262 C 48.18501663208008 29.23321342468262 52.29195022583008 27.82106399536133 53.84454727172852 26.97929763793945 C 57.64849853515625 24.91691398620605 59.83018112182617 22.07501411437988 59.83018112182617 19.18231391906738 C 59.83018112182617 16.28959655761719 57.64849853515625 13.44769668579102 53.84453201293945 11.38529682159424 C 48.77981567382813 8.63938045501709 40.40783309936523 7.00001335144043 31.44946670532227 7.00001335144043 C 22.49113273620605 7.00001335144043 14.11916542053223 8.63938045501709 9.054449081420898 11.38529682159424 C 8.019099235534668 11.94663047790527 7.505982398986816 12.57192993164063 7.224332332611084 13.61549663543701 C 6.279153823852539 17.11767387390137 8.34754753112793 22.88837814331055 10.23758029937744 26.78152084350586 C 15.80040264129639 27.6418285369873 27.5225944519043 29.23295593261719 38.12373352050781 29.23321342468262 M 38.12060928344727 36.23321533203125 C 22.8730640411377 36.23283767700195 5.718099117279053 33.1330451965332 5.718099117279053 33.1330451965332 C 5.718099117279053 33.1330451965332 -7.147617340087891 12.20691299438477 5.718082427978516 5.231546878814697 C 12.15093231201172 1.743855118751526 21.80019378662109 1.550293018226512e-05 31.4494743347168 1.550293018226512e-05 C 41.09875106811523 1.550293018226512e-05 50.74805068969727 1.743863463401794 57.18090057373047 5.231546878814697 C 70.04661560058594 12.20693016052246 70.04661560058594 26.15768051147461 57.18091583251953 33.1330451965332 C 52.89181900024414 35.45845794677734 45.74577713012695 36.23340606689453 38.12060928344727 36.23321533203125 Z" stroke="none"/></g><path d="M61.257,197.275c61.635.844,75.2-116.4,60.72-164s-100.2-41-115.385,0S-.378,196.43,61.257,197.275Z" transform="translate(143.429 201.009) rotate(177)" fill="#1a1a1a"/><path d="M61.257,197.275c61.635.844,75.2-116.4,60.72-164s-100.2-41-115.385,0S-.378,196.43,61.257,197.275Z" transform="translate(137.429 197.009) rotate(177)" fill="#303030"/></g><g transform="translate(1110.221 767.396)"><g transform="matrix(-0.966, 0.259, -0.259, -0.966, 136.422, 217.571)"><path d="M 38.1235237121582 32.73322296142578 C 38.12226486206055 32.73322296142578 38.12195205688477 32.73322296142578 38.12069702148438 32.73322296142578 C 26.03071594238281 32.73292541503906 12.51198291778564 30.7064151763916 7.944211959838867 29.96014213562012 C 7.284228324890137 28.7316780090332 6.297500610351563 26.75589752197266 5.42206859588623 24.44522285461426 C 3.611042022705078 19.66510200500488 3.064908742904663 15.60815620422363 3.842695236206055 12.71295547485352 C 4.375455379486084 10.72988891601563 5.501441955566406 9.330315589904785 7.386268615722656 8.308422088623047 C 10.16098880767822 6.804062366485596 13.85004234313965 5.570742607116699 18.05462837219238 4.741796016693115 C 22.17520141601563 3.929409027099609 26.80706787109375 3.500009059906006 31.44948196411133 3.500009059906006 C 36.09189605712891 3.500009059906006 40.72376251220703 3.929422378540039 44.8443489074707 4.741796016693115 C 49.0489501953125 5.570742607116699 52.73800277709961 6.804062366485596 55.51272201538086 8.308435440063477 C 60.48082733154297 11.00198268890381 63.3301887512207 14.96535587310791 63.3301887512207 19.18231582641602 C 63.3301887512207 23.39926338195801 60.48082733154297 27.36263656616211 55.51272201538086 30.05618286132813 C 53.26019668579102 31.27743339538574 48.41412353515625 32.73322296142578 38.1235237121582 32.73322296142578 Z" stroke="none"/><path d="M 38.12352752685547 29.23323631286621 L 38.12334442138672 29.23323631286621 C 48.18496322631836 29.23323631286621 52.29194641113281 27.82108497619629 53.84454345703125 26.97931861877441 C 57.64849472045898 24.91693496704102 59.83019638061523 22.07503509521484 59.83019638061523 19.18231964111328 C 59.83019638061523 16.28958511352539 57.64849472045898 13.44768619537354 53.84454345703125 11.38530254364014 C 48.77982711791992 8.639386177062988 40.40784454345703 7.000019073486328 31.44949531555176 7.000019073486328 C 22.49116134643555 7.000019073486328 14.11917877197266 8.639386177062988 9.054445266723633 11.38530254364014 C 8.019095420837402 11.94663619995117 7.505978584289551 12.57193565368652 7.224328517913818 13.61550235748291 C 6.279223918914795 17.11740875244141 8.347148895263672 22.8873348236084 10.23706245422363 26.78046607971191 C 15.80708122253418 27.64064598083496 27.54718971252441 29.23296737670898 38.12352752685547 29.23323631286621 M 38.12064743041992 36.23322677612305 C 22.87310409545898 36.23284530639648 5.718095302581787 33.13305282592773 5.718095302581787 33.13305282592773 C 5.718095302581787 33.13305282592773 -7.147621154785156 12.20691871643066 5.71807861328125 5.231552600860596 C 12.1509370803833 1.743860840797424 21.80021667480469 1.497497578384355e-05 31.44949531555176 1.497497578384355e-05 C 41.09877395629883 1.497497578384355e-05 50.74805450439453 1.743860840797424 57.18091201782227 5.231552600860596 C 70.04661560058594 12.20693588256836 70.04661560058594 26.15768623352051 57.18091201782227 33.1330680847168 C 52.89182281494141 35.45847702026367 45.74581527709961 36.23342132568359 38.12064743041992 36.23322677612305 Z" stroke="none"/></g><g transform="translate(79.068 222.01) rotate(172)"><path d="M 38.12352752685547 32.73321533203125 C 38.12227249145508 32.73321533203125 38.12195587158203 32.73321533203125 38.12070083618164 32.73321533203125 C 26.01571464538574 32.7329216003418 12.50881004333496 30.70682907104492 7.944370269775391 29.9604377746582 C 7.284388065338135 28.73200035095215 6.297590732574463 26.75613021850586 5.422060966491699 24.44521713256836 C 3.611034393310547 19.66509628295898 3.064901113510132 15.6081371307373 3.842700958251953 12.71294975280762 C 4.375461101531982 10.7298698425293 5.501447677612305 9.330296516418457 7.386274337768555 8.308416366577148 C 10.16098117828369 6.804056644439697 13.85004806518555 5.570736885070801 18.05463409423828 4.741790294647217 C 22.17522048950195 3.929403305053711 26.80708694458008 3.500003337860107 31.44950103759766 3.500003337860107 C 36.09191513061523 3.500003337860107 40.72378158569336 3.929403305053711 44.84436798095703 4.741790294647217 C 49.04894256591797 5.570736885070801 52.73800659179688 6.804043292999268 55.51271438598633 8.308416366577148 C 60.4808349609375 11.00196361541748 63.33019256591797 14.96535015106201 63.33019256591797 19.18231010437012 C 63.33019256591797 23.39925765991211 60.4808349609375 27.36263084411621 55.51272583007813 30.05617713928223 C 53.26020431518555 31.27742767333984 48.41412734985352 32.73321533203125 38.12352752685547 32.73321533203125 Z" stroke="none"/><path d="M 38.12351608276367 29.23323059082031 L 38.12333297729492 29.23323059082031 C 48.18495178222656 29.23323059082031 52.29193496704102 27.82107925415039 53.84453582763672 26.97931289672852 C 57.64850234985352 24.91692924499512 59.83018493652344 22.07502937316895 59.83018493652344 19.18231391906738 C 59.83018493652344 16.28957939147949 57.64850234985352 13.44768047332764 53.84453582763672 11.38529682159424 C 48.77981948852539 8.63938045501709 40.40783309936523 7.00001335144043 31.44950103759766 7.00001335144043 C 22.49115180969238 7.00001335144043 14.11916732788086 8.63938045501709 9.054450988769531 11.38529682159424 C 8.019101142883301 11.94663047790527 7.505984306335449 12.57192993164063 7.224334239959717 13.61549663543701 C 6.279216289520264 17.11740303039551 8.347149848937988 22.8873291015625 10.23705863952637 26.78046226501465 C 15.80707836151123 27.6406421661377 27.54717826843262 29.23296165466309 38.12351608276367 29.23323059082031 M 38.12063598632813 36.23322296142578 C 22.87309265136719 36.23283767700195 5.718084335327148 33.1330451965332 5.718084335327148 33.1330451965332 C 5.718084335327148 33.1330451965332 -7.147615432739258 12.20691299438477 5.718084335327148 5.231546878814697 C 12.15093421936035 1.743855118751526 21.80021286010742 9.252929885406047e-06 31.44949340820313 9.252929885406047e-06 C 41.09877014160156 9.252929885406047e-06 50.74805068969727 1.743855118751526 57.18090057373047 5.231546878814697 C 70.04661560058594 12.20693016052246 70.04661560058594 26.15768051147461 57.18090057373047 33.13306427001953 C 52.89181137084961 35.45846939086914 45.74580383300781 36.23341369628906 38.12063598632813 36.23322296142578 Z" stroke="none"/></g><path d="M61.257,197.275c61.635.844,75.2-116.4,60.72-164s-100.2-41-115.385,0S-.378,196.43,61.257,197.275Z" transform="translate(143.429 201.009) rotate(177)" fill="#1a1a1a"/><path d="M61.257,197.275c61.635.844,75.2-116.4,60.72-164s-100.2-41-115.385,0S-.378,196.43,61.257,197.275Z" transform="translate(137.429 197.009) rotate(177)" fill="#303030"/></g><g transform="translate(818.221 767.396)"><g transform="translate(147.026 203.039) rotate(149)"><path d="M 38.1235237121582 32.73322296142578 C 38.12226486206055 32.73322296142578 38.12195205688477 32.73322296142578 38.12069702148438 32.73322296142578 C 26.03072547912598 32.73291778564453 12.5119800567627 30.70640563964844 7.944202899932861 29.96013069152832 C 7.284221649169922 28.73166847229004 6.297494888305664 26.75588607788086 5.422055244445801 24.44521141052246 C 3.611042022705078 19.66509056091309 3.064895391464233 15.60814476013184 3.842695236206055 12.71295738220215 C 4.375455379486084 10.72987747192383 5.501441955566406 9.330304145812988 7.386268615722656 8.30842399597168 C 10.16097545623779 6.804050922393799 13.85002899169922 5.570744514465332 18.05460166931152 4.741797924041748 C 22.17517471313477 3.929424285888672 26.80704116821289 3.500024318695068 31.44945526123047 3.500024318695068 C 36.09185409545898 3.500024318695068 40.72373580932617 3.929424285888672 44.84432220458984 4.741811275482178 C 49.04892349243164 5.570757865905762 52.73797607421875 6.804064273834229 55.5126953125 8.308437347412109 C 60.48080062866211 11.00198459625244 63.33014678955078 14.96535778045654 63.33014678955078 19.18231773376465 C 63.33014678955078 23.39926528930664 60.48080062866211 27.36263847351074 55.5126953125 30.05618476867676 C 53.26016998291016 31.27743530273438 48.41409683227539 32.73322296142578 38.1235237121582 32.73322296142578 Z" stroke="none"/><path d="M 38.12349700927734 29.23323822021484 L 38.12331390380859 29.23323822021484 C 48.18493270874023 29.23323822021484 52.29191589355469 27.82108688354492 53.84451675415039 26.97932052612305 C 57.64846420288086 24.91693687438965 59.83016586303711 22.07503700256348 59.83016586303711 19.18232154846191 C 59.83016586303711 16.28958702087402 57.64846420288086 13.44768810272217 53.84451675415039 11.38530445098877 C 48.77980041503906 8.639388084411621 40.40781402587891 7.000020980834961 31.44948196411133 7.000020980834961 C 22.49114799499512 7.000020980834961 14.11916542053223 8.639388084411621 9.054449081420898 11.38530445098877 C 8.019098281860352 11.9466381072998 7.505981922149658 12.57193756103516 7.224331855773926 13.61550426483154 C 6.279140472412109 17.1176815032959 8.347542762756348 22.88838768005371 10.23757076263428 26.78153038024902 C 15.80039024353027 27.64183807373047 27.52254486083984 29.23296928405762 38.12349700927734 29.23323822021484 M 38.12062072753906 36.23323059082031 C 22.87308311462402 36.23284530639648 5.718081951141357 33.13305282592773 5.718081951141357 33.13305282592773 C 5.718081951141357 33.13305282592773 -7.147617816925049 12.2069206237793 5.718081951141357 5.231554508209229 C 12.15093231201172 1.743862748146057 21.80020332336426 1.688232441665605e-05 31.44947624206543 1.688232441665605e-05 C 41.09874725341797 1.688232441665605e-05 50.74802398681641 1.743862748146057 57.18088150024414 5.231554508209229 C 70.04658508300781 12.20693778991699 70.04658508300781 26.15768814086914 57.18088150024414 33.13307189941406 C 52.89179229736328 35.45847702026367 45.74578857421875 36.23342132568359 38.12062072753906 36.23323059082031 Z" stroke="none"/></g><g transform="matrix(-0.985, -0.174, 0.174, -0.985, 65.815, 227.364)"><path d="M 38.12333679199219 32.73320388793945 C 38.1220817565918 32.73320388793945 38.12190628051758 32.73320388793945 38.12065124511719 32.73320388793945 C 26.01567459106445 32.73291015625 12.50880336761475 30.70681953430176 7.944374084472656 29.96042633056641 C 7.284392356872559 28.73199081420898 6.297594547271729 26.75611877441406 5.422064781188965 24.44520568847656 C 3.611051559448242 19.66508483886719 3.064904928207397 15.60813903808594 3.842704772949219 12.71295166015625 C 4.375464916229248 10.72987174987793 5.50145149230957 9.33029842376709 7.38627815246582 8.308418273925781 C 10.16098499298096 6.8040452003479 13.85005187988281 5.570738792419434 18.05462455749512 4.74179220199585 C 22.17521095275879 3.929405212402344 26.80707740783691 3.50000524520874 31.44949150085449 3.50000524520874 C 36.09189224243164 3.50000524520874 40.72375869750977 3.929405212402344 44.84434509277344 4.74179220199585 C 49.04893112182617 5.570738792419434 52.73799896240234 6.80405855178833 55.51270294189453 8.308418273925781 C 60.48081207275391 11.00196552276611 63.33016967773438 14.96533870697021 63.33016967773438 19.18228530883789 C 63.33016967773438 23.39923286437988 60.48081207275391 27.36260604858398 55.51270294189453 30.05615234375 C 53.26018142700195 31.27740287780762 48.4139518737793 32.73320388793945 38.12333679199219 32.73320388793945 Z" stroke="none"/><path d="M 38.12370681762695 29.23320198059082 L 38.12354278564453 29.23320198059082 C 48.18500900268555 29.23320198059082 52.29192352294922 27.82105255126953 53.84452438354492 26.97928619384766 C 57.64847564697266 24.91690254211426 59.83015823364258 22.07500267028809 59.83015823364258 19.18230247497559 C 59.83017349243164 16.2895679473877 57.64849090576172 13.44766902923584 53.84452438354492 11.38528537750244 C 48.77982330322266 8.639351844787598 40.40785980224609 7.000001907348633 31.44950866699219 7.000001907348633 C 22.49114227294922 7.000001907348633 14.1191577911377 8.639351844787598 9.054458618164063 11.38528537750244 C 8.019107818603516 11.94661903381348 7.505991458892822 12.57191848754883 7.22434139251709 13.61550235748291 C 6.279162883758545 17.11767959594727 8.347557067871094 22.88837242126465 10.23758125305176 26.7815113067627 C 15.80040264129639 27.64181900024414 27.5225830078125 29.23294448852539 38.12370681762695 29.23320198059082 M 38.1205940246582 36.23320388793945 C 22.87305641174316 36.23282623291016 5.718091487884521 33.13303375244141 5.718091487884521 33.13303375244141 C 5.718091487884521 33.13303375244141 -7.147608280181885 12.20691871643066 5.718091487884521 5.2315354347229 C 12.15172672271729 1.743426203727722 21.7990550994873 4.058837930642767e-06 31.44950866699219 4.058837930642767e-06 C 41.09760665893555 4.058837930642767e-06 50.74882507324219 1.744269371032715 57.18089294433594 5.2315354347229 C 70.04659271240234 12.20691871643066 70.04659271240234 26.15766906738281 57.18089294433594 33.13303375244141 C 52.89179992675781 35.45844650268555 45.74576187133789 36.23339462280273 38.1205940246582 36.23320388793945 Z" stroke="none"/></g><path d="M61.257,197.275c61.635.844,75.2-116.4,60.72-164s-100.2-41-115.385,0S-.378,196.43,61.257,197.275Z" transform="translate(149.025 201.009) rotate(177)" fill="#1a1a1a"/><path d="M61.257,197.275c61.635.844,75.2-116.4,60.72-164s-100.2-41-115.385,0S-.378,196.43,61.257,197.275Z" transform="translate(143.025 197.009) rotate(177)" fill="#303030"/></g></g></g></svg>