<svg xmlns="http://www.w3.org/2000/svg" width="149.423" height="230.382" viewBox="0 0 149.423 230.382">
  <g id="CharacterLowerFlipped" transform="translate(0 0)">
    <g id="Path_43" data-name="Path 43" transform="translate(146.257 214.215) rotate(166)">
      <path d="M 38.12353515625 32.73321151733398 C 38.12228012084961 32.73321151733398 38.12196350097656 32.73321151733398 38.12070846557617 32.73321151733398 C 26.03072929382324 32.73290634155273 12.51197719573975 30.70639419555664 7.944200038909912 29.96011924743652 C 7.284218788146973 28.73165893554688 6.297494888305664 26.75588798522949 5.422055244445801 24.44521331787109 C 3.611042022705078 19.66509246826172 3.064895391464233 15.60814666748047 3.842695236206055 12.71295928955078 C 4.375455379486084 10.72987937927246 5.501441955566406 9.330306053161621 7.386268615722656 8.308425903320313 C 10.16098880767822 6.804052829742432 13.85004234313965 5.570733070373535 18.05461502075195 4.741799831390381 C 22.1751880645752 3.929412841796875 26.80705451965332 3.500012874603271 31.4494686126709 3.500012874603271 C 36.09188079833984 3.500012874603271 40.72374725341797 3.929412841796875 44.84433364868164 4.741799831390381 C 49.04892349243164 5.570746421813965 52.73797607421875 6.804052829742432 55.5126953125 8.308425903320313 C 60.48080062866211 11.00197315216064 63.33014678955078 14.96534633636475 63.33014678955078 19.18230628967285 C 63.33014678955078 23.39925384521484 60.48080062866211 27.36262702941895 55.5126953125 30.05617332458496 C 53.26016998291016 31.27742385864258 48.41409683227539 32.73321151733398 38.12353515625 32.73321151733398 Z" stroke="none"/>
      <path d="M 38.12369918823242 29.23320960998535 L 38.12353134155273 29.23320960998535 C 48.18499755859375 29.23320960998535 52.29191589355469 27.82106018066406 53.84451675415039 26.97929382324219 C 57.64846420288086 24.91691017150879 59.83014678955078 22.07501029968262 59.83014678955078 19.18231010437012 C 59.83016586303711 16.28957557678223 57.64848327636719 13.44767665863037 53.84451675415039 11.38529300689697 C 48.77980041503906 8.639376640319824 40.40781402587891 7.000009536743164 31.44946479797363 7.000009536743164 C 22.49113273620605 7.000009536743164 14.11916542053223 8.639376640319824 9.054449081420898 11.38529300689697 C 8.019098281860352 11.94662666320801 7.505981922149658 12.57192611694336 7.224331855773926 13.61549282073975 C 6.279140472412109 17.1176700592041 8.347542762756348 22.88837623596191 10.23757076263428 26.78151893615723 C 15.80039215087891 27.64182662963867 27.52257347106934 29.23295211791992 38.12369918823242 29.23320960998535 M 38.12058639526367 36.23321151733398 C 22.873046875 36.23283386230469 5.718081951141357 33.13304138183594 5.718081951141357 33.13304138183594 C 5.718081951141357 33.13304138183594 -7.147617816925049 12.2069091796875 5.718081951141357 5.231543064117432 C 12.15093231201172 1.74385130405426 21.80018997192383 1.168823200714542e-05 31.44946479797363 1.168823200714542e-05 C 41.09873962402344 1.168823200714542e-05 50.74803161621094 1.743859648704529 57.18088150024414 5.231543064117432 C 70.04658508300781 12.2069263458252 70.04658508300781 26.15767669677734 57.18088150024414 33.13304138183594 C 52.89179229736328 35.45845413208008 45.74575042724609 36.23340225219727 38.12058639526367 36.23321151733398 Z" stroke="none"/>
    </g>
    <g id="Path_44" data-name="Path 44" transform="matrix(-0.978, 0.208, -0.208, -0.978, 72.903, 214.493)">
      <path d="M 38.12352752685547 32.73321151733398 C 38.12226867675781 32.73321151733398 38.12195587158203 32.73321151733398 38.12070083618164 32.73321151733398 C 26.03072929382324 32.73290634155273 12.51198101043701 30.70639419555664 7.944203853607178 29.96011924743652 C 7.284222602844238 28.73165893554688 6.29749870300293 26.75588798522949 5.422059059143066 24.44521331787109 C 3.611045837402344 19.66509246826172 3.064899206161499 15.60814666748047 3.84269905090332 12.71295928955078 C 4.37545919418335 10.72987937927246 5.501445770263672 9.330306053161621 7.386272430419922 8.308425903320313 C 10.16099262237549 6.804052829742432 13.85004615783691 5.570733070373535 18.05461883544922 4.741799831390381 C 22.17519187927246 3.929412841796875 26.80705833435059 3.500012874603271 31.44947242736816 3.500012874603271 C 36.09188461303711 3.500012874603271 40.72375106811523 3.929412841796875 44.84433746337891 4.741799831390381 C 49.04892730712891 5.570746421813965 52.73797988891602 6.804052829742432 55.51269912719727 8.308425903320313 C 60.48080444335938 11.00197315216064 63.33016586303711 14.96534633636475 63.33016586303711 19.18230628967285 C 63.33016586303711 23.39925384521484 60.48080444335938 27.36262702941895 55.51269912719727 30.05617332458496 C 53.26017379760742 31.27742385864258 48.41410064697266 32.73321151733398 38.12352752685547 32.73321151733398 Z" stroke="none"/>
      <path d="M 38.12370300292969 29.23320960998535 L 38.12353515625 29.23320960998535 C 48.18500137329102 29.23320960998535 52.29191970825195 27.82106018066406 53.84452056884766 26.97929382324219 C 57.64846801757813 24.91691017150879 59.83015060424805 22.07501029968262 59.83015060424805 19.18231010437012 C 59.83016967773438 16.28957557678223 57.64848709106445 13.44767665863037 53.84452056884766 11.38529300689697 C 48.77980422973633 8.639376640319824 40.40781784057617 7.000009536743164 31.4494686126709 7.000009536743164 C 22.49113655090332 7.000009536743164 14.11916923522949 8.639376640319824 9.054452896118164 11.38529300689697 C 8.019102096557617 11.94662666320801 7.505985736846924 12.57192611694336 7.224335670471191 13.61549282073975 C 6.279144287109375 17.1176700592041 8.347546577453613 22.88837623596191 10.23757457733154 26.78151893615723 C 15.80039596557617 27.64182662963867 27.5225772857666 29.23295211791992 38.12370300292969 29.23320960998535 M 38.12059020996094 36.23321151733398 C 22.87305068969727 36.23283386230469 5.718085765838623 33.13304138183594 5.718085765838623 33.13304138183594 C 5.718085765838623 33.13304138183594 -7.147614002227783 12.2069091796875 5.718085765838623 5.231543064117432 C 12.15093612670898 1.74385130405426 21.80019378662109 1.168823200714542e-05 31.4494686126709 1.168823200714542e-05 C 41.0987434387207 1.168823200714542e-05 50.7480354309082 1.743859648704529 57.18088531494141 5.231543064117432 C 70.04658508300781 12.2069263458252 70.04658508300781 26.15767669677734 57.18088531494141 33.13304138183594 C 52.89179611206055 35.45845413208008 45.74575424194336 36.23340225219727 38.12059020996094 36.23321151733398 Z" stroke="none"/>
    </g>
    <path id="Path_205" data-name="Path 205" d="M61.257,197.275c61.635.844,75.2-116.4,60.72-164s-100.2-41-115.385,0S-.378,196.43,61.257,197.275Z" transform="translate(149.423 201.009) rotate(177)" fill="#1a1a1a"/>
    <path id="Path_40" data-name="Path 40" d="M61.257,197.275c61.635.844,75.2-116.4,60.72-164s-100.2-41-115.385,0S-.378,196.43,61.257,197.275Z" transform="translate(143.423 197.009) rotate(177)" fill="#303030"/>
  </g>
</svg>
