<svg xmlns="http://www.w3.org/2000/svg" width="320.384" height="227.596" viewBox="0 0 320.384 227.596"><g transform="translate(455.384 -914.404) rotate(90)"><path d="M43.5,0,87,310H0Z" transform="translate(981.404 135)" fill="rgba(248,202,51,0.82)"/><path d="M29.5,0,59,172H0Z" transform="matrix(0.966, -0.259, 0.259, 0.966, 955.03, 244.587)" fill="rgba(248,202,51,0.82)"/><path d="M29.5,0,59,172H0Z" transform="matrix(0.966, 0.259, -0.259, 0.966, 1038.385, 229.317)" fill="rgba(248,202,51,0.82)"/><path d="M29.5,0,59,172H0Z" transform="matrix(0.819, -0.574, 0.574, 0.819, 919.29, 305.495)" fill="rgba(248,202,51,0.82)"/><path d="M29.5,0,59,172H0Z" transform="matrix(0.899, 0.438, -0.438, 0.899, 1074.807, 268.793)" fill="rgba(248,202,51,0.82)"/><path d="M21,0,42,123H0Z" transform="matrix(0.695, -0.719, 0.719, 0.695, 914.404, 369.941)" fill="rgba(248,202,51,0.82)"/><path d="M21,0,42,123H0Z" transform="matrix(0.695, 0.719, -0.719, 0.695, 1112.824, 339.729)" fill="rgba(248,202,51,0.82)"/><path d="M13,0,26,90H0Z" transform="translate(922.75 415.471) rotate(-64)" fill="rgba(248,202,51,0.82)"/><path d="M13,0,26,90H0Z" transform="matrix(0.438, 0.899, -0.899, 0.438, 1122.257, 392.102)" fill="rgba(248,202,51,0.82)"/></g></svg>