<svg xmlns="http://www.w3.org/2000/svg" width="59" height="75.116" viewBox="0 0 59 75.116"><g transform="translate(2167.572 2399.895)"><g transform="translate(-2167.573 -2383.778)" fill="#fff"><path d="M 29.5 57 C 25.78664016723633 57 22.1854190826416 56.27317810058594 18.7963695526123 54.83972930908203 C 15.52192974090576 53.45476150512695 12.58076000213623 51.47163009643555 10.0545597076416 48.94543838500977 C 7.528369903564453 46.41923904418945 5.545239925384521 43.47806930541992 4.160270214080811 40.20362854003906 C 2.72681999206543 36.81457901000977 2 33.21335983276367 2 29.5 C 2 25.78664016723633 2.72681999206543 22.1854190826416 4.160270214080811 18.7963695526123 C 5.545239925384521 15.52192974090576 7.528369903564453 12.58076000213623 10.0545597076416 10.0545597076416 C 12.58076000213623 7.528369903564453 15.52192974090576 5.545239925384521 18.7963695526123 4.160270214080811 C 22.1854190826416 2.72681999206543 25.78664016723633 2 29.5 2 C 33.21335983276367 2 36.81457901000977 2.72681999206543 40.20362854003906 4.160270214080811 C 43.47806930541992 5.545239925384521 46.41923904418945 7.528369903564453 48.94543838500977 10.0545597076416 C 51.47163009643555 12.58076000213623 53.45476150512695 15.52192974090576 54.83972930908203 18.7963695526123 C 56.27317810058594 22.1854190826416 57 25.78664016723633 57 29.5 C 57 33.21335983276367 56.27317810058594 36.81457901000977 54.83972930908203 40.20362854003906 C 53.45476150512695 43.47806930541992 51.47163009643555 46.41923904418945 48.94543838500977 48.94543838500977 C 46.41923904418945 51.47163009643555 43.47806930541992 53.45476150512695 40.20362854003906 54.83972930908203 C 36.81457901000977 56.27317810058594 33.21335983276367 57 29.5 57 Z" stroke="none"/><path d="M 29.5 4 C 26.05575561523438 4 22.71666717529297 4.673667907714844 19.57547760009766 6.002277374267578 C 16.53943252563477 7.286411285400391 13.81194305419922 9.1256103515625 11.46877670288086 11.46877670288086 C 9.1256103515625 13.81194305419922 7.286411285400391 16.53943252563477 6.002277374267578 19.57547760009766 C 4.673667907714844 22.71666717529297 4 26.05575561523438 4 29.5 C 4 32.94424438476563 4.673667907714844 36.28333282470703 6.002277374267578 39.42452239990234 C 7.286411285400391 42.46056747436523 9.1256103515625 45.18805694580078 11.46877670288086 47.53122329711914 C 13.81194305419922 49.8743896484375 16.53943252563477 51.71358871459961 19.57547760009766 52.99772262573242 C 22.71666717529297 54.32633209228516 26.05575561523438 55 29.5 55 C 32.94424438476563 55 36.28333282470703 54.32633209228516 39.42452239990234 52.99772262573242 C 42.46056747436523 51.71358871459961 45.18805694580078 49.8743896484375 47.53122329711914 47.53122329711914 C 49.8743896484375 45.18805694580078 51.71358871459961 42.46056747436523 52.99772262573242 39.42452239990234 C 54.32633209228516 36.28333282470703 55 32.94424438476563 55 29.5 C 55 26.05575561523438 54.32633209228516 22.71666717529297 52.99772262573242 19.57547760009766 C 51.71358871459961 16.53943252563477 49.8743896484375 13.81194305419922 47.53122329711914 11.46877670288086 C 45.18805694580078 9.1256103515625 42.46056747436523 7.286411285400391 39.42452239990234 6.002277374267578 C 36.28333282470703 4.673667907714844 32.94424438476563 4 29.5 4 M 29.5 0 C 45.79240036010742 0 59 13.20759963989258 59 29.5 C 59 45.79240036010742 45.79240036010742 59 29.5 59 C 13.20759963989258 59 0 45.79240036010742 0 29.5 C 0 13.20759963989258 13.20759963989258 0 29.5 0 Z" stroke="none" fill="#7e4707"/></g><g transform="translate(-763.572 -11.778)"><path d="M24.648,49H7.727a33.129,33.129,0,0,1-2.889-5.954c1.757-3.3,4.349-6.793,7.529-7.039A7.964,7.964,0,0,1,17.4,37.957c1.5-2.326,3.327-4.145,5.4-4.336,1.811-.166,3.829,1.11,5.774,2.989,1.5-3.21,3.417-5.884,5.693-6.265,3.845-.643,8.8,6.867,11.963,12.551A33.187,33.187,0,0,1,43.284,49Z" transform="translate(-1399 -2369)" fill="#7e4707"/><rect width="25" height="7" transform="translate(-1387 -2323)" fill="#7e4707"/></g><path d="M-1433.192-2367.931s3.726-7.9,9.517-8.2,5.392,5.872,5.392,5.872Z" transform="translate(-694.572 30.222)" fill="#7e4707"/><path d="M-1418.276-2367.931s-3.726-7.9-9.517-8.2-4.446,4.552-4.446,4.552Z" transform="translate(-728.572 34.222)" fill="#7e4707"/><path d="M-7.726,120.217c-1.566,28.854,15.8,24.376,15.8,24.376" transform="translate(-2146.588 -2490.846)" fill="none" stroke="#035e03" stroke-width="1"/><path d="M-8.017,120.228C-9.583,149.082,7.013,144.1,7.013,144.1" transform="translate(-2145.344 -2490.829)" fill="none" stroke="#019201" stroke-width="1"/><path d="M-2268.831-2408.525s8.9-3.735,16.019-.9,11.938,13.06,11.938,13.06-8.787,8.736-16.553,8.2-12.826-18.157-12.826-18.157Z" transform="translate(117.3 52.258)" fill="#925f07"/><path d="M-2271.321-2406.062s10.6-5.953,17.725-3.115,10.515,15.139,10.515,15.139-7.55,6.474-15.316,5.938-13.312-17.034-13.312-17.034Z" transform="translate(119.567 49.755)" fill="#e6960c"/><path d="M-2192.7-2382.916s8.7-4.42,13.966-1.665c5.558,1.951,8.6,12.348,8.6,12.348" transform="translate(43.889 28.081)" fill="none" stroke="#925f07" stroke-width="2"/><path d="M-2180.1-2378.37a16.089,16.089,0,0,1-6.534,1.187,5.092,5.092,0,0,1-1.906-.547c-3.317-1.164-6.511-6.91-6.511-6.91" transform="translate(48.889 35.081)" fill="none" stroke="#925f07" stroke-width="2"/><path d="M-2154.648-2367.9s-6.54-7.463-4.748-15.124,14.039-16.907,14.039-16.907,4.775,12.652,2.984,20.312S-2154.648-2367.9-2154.648-2367.9Z" transform="translate(0 0.031)" fill="#035e03"/><path d="M-2155.292-2368.633s-5.882-7.244-4.089-14.9,11.445-15.718,11.445-15.718,7.369,11.462,5.577,19.122S-2155.292-2368.633-2155.292-2368.633Z" transform="translate(2.395 0.55)" fill="#019201" stroke="#019201" stroke-width="1"/></g></svg>