<svg xmlns="http://www.w3.org/2000/svg" preserveAspectRatio="none" viewBox="0 0 410 149.58984"><defs><style>.cls-1{fill:#303030;}.cls-2{fill:#5b5b5b;}</style></defs><g id="Layer_2" data-name="Layer 2"><g id="Layer_4" data-name="Layer 4"><rect class="cls-1" x="3" y="2.99974" width="404" height="143.59036" rx="3.78889"/><path class="cls-1" d="M403.21094,149.58984H6.78906A6.79687,6.79687,0,0,1,0,142.80078V6.78906A6.79687,6.79687,0,0,1,6.78906,0H403.21094A6.79687,6.79687,0,0,1,410,6.78906V142.80078A6.79687,6.79687,0,0,1,403.21094,149.58984ZM6.78906,6A.78968.78968,0,0,0,6,6.78906V142.80078a.78968.78968,0,0,0,.78906.78906H403.21094A.78968.78968,0,0,0,404,142.80078V6.78906A.78968.78968,0,0,0,403.21094,6Z"/><rect class="cls-1" x="19.93481" y="18.79492" width="372" height="112" rx="3.73913"/><path class="cls-2" d="M394.93457,133.79492H16.93506l-.00049-.00049V15.79492h378Zm-371.26074-112a.7403.7403,0,0,0-.73926.73926V127.05566a.7403.7403,0,0,0,.73926.73926h364.522a.74019.74019,0,0,0,.73877-.73926V22.53418a.74019.74019,0,0,0-.73877-.73926Z"/><rect class="cls-2" x="8.00032" y="-0.51879" width="5.99936" height="22.62742" transform="translate(-4.41134 10.93993) rotate(-45)"/><rect class="cls-2" x="-0.31371" y="135.79524" width="22.62742" height="5.99936" transform="translate(-94.92101 48.43027) rotate(-45)"/><rect class="cls-2" x="387.68629" y="7.79524" width="22.62742" height="5.99936" transform="translate(109.23123 285.29737) rotate(-45)"/><rect class="cls-2" x="396.00032" y="127.48121" width="5.99936" height="22.62742" transform="translate(18.72156 322.7877) rotate(-45)"/></g></g></svg>