<svg xmlns="http://www.w3.org/2000/svg" viewBox="0 0 666.02392 568"><defs><style>.cls-1{fill:#00a400;}.cls-2,.cls-4{fill:#fff;}.cls-2{stroke:#383838;stroke-miterlimit:10;stroke-width:10px; stroke-dasharray: 30;
        animation: dash; animation-duration: 6s; animation-direction: normal; animation-iteration-count: infinite; animation-timing-function: linear;}.cls-3{fill:#333;}.cls-5{fill:none;}@keyframes dash {
    to {
        stroke-dashoffset: 1000;
    }
}</style></defs><g id="Layer_2" data-name="Layer 2"><g id="Layer_2-2" data-name="Layer 2"><path id="path2390" class="cls-1" d="M235.54774,325.8278c-1.19975-1.70067-12.55041,32.34962-13.8407,30.646-2.44214-.22022-4.73014,11.5724-7.37576,10.28742-8.45792,11.0462-14.9452,17.11883-23.12065,33.89348-1.651-6.00592,2.21334-24.66375,1.65837-31.20312-5.25355-.23578,5.73375-9.59069,1.37348-9.84709-3.72844-1.829,8.01-8.46573,5.16688-9.79354-2.42032-.96791,4.82749-6.70012,6.56941-7.78666,1.51744-.72769,1.73345-.97433,1.0805-1.24328-3.41159.10321,11.64509-11.70486,14.59543-14.17364-15.79853,6.52255-33.15548,14.94871-47.86074,21.07478-5.77143-2.681-9.4023,5.86455-17.41929,2.81987-7.10854,4.28107-9.93891,4.8-12.03667.87968-2.83822,1.77289-11.48606,7.944-11.63778,2.53016-.44745-4.03661-12.43285,7.38666-15.4674.68544-2.55546.954-10.293,4.61239-10.84389.69969,1.529-2.161-7.73191,2.295-9.56983,1.59081-4.753.013,1.91877-4.36358-6.139-1.91532-14.21594.13109-25.86755.05908-41.558,2.72279,8.35906-6.7263,28.75336-9.08186,31.72773-15.02767,2.81984-2.21208,11.88034-.05487,9.39022-4.43194,2.50886-1.53929,10.23358.79934,9.85993-1.9518-1.56085-3.81959,9.34112-1.62276,12.31278-2.21908-5.62382-7.21568,9.86041-3.422,14.03981-3.68932-7.07519-8.65,13.78758-.17812,12.24381-4.04117-2.77565-4.51159,10.84532-1.7233,12.03779-1.65134-2.67-6.45205,9.63143-2.11467,14.41112-1.75486-6.27454-8.07215,13.164.63914,12.38767-2.42706-2.71248-4.16319,11.02722-.22891,14.22882-.00184,5.87752-4.267,22.64832.918,33.13054-1.95972-18.61018-6.1459-41.8754.44472-57.14407-5.14968-7.75476.45466-15.44871,3.65237-15.51474-1.48424-2.61917-.12535-19.02905,4.24523-13.60805-1.151-2.63186-2.15836-18.70306,4.36137-13.74385-3.25637-2.87835-.81665-13.57471,3.00434-12.08644-1.54794,1.30677-1.82094.94364-2.11381-1.77781-1.41263-4.61877.3663-14.6349,3.19481-10.89881-3.13474-5.3463.42889-17.455,4.27473-10.978-3.24835-3.83-.84818-21.02629,2.76827-14.2081-4.56556-21.21369,1.41794-5.26757-4.32235-16.1035-4.49988-10.67792-.35048-3.11957-3.31383-7.11714-4.37038-3.89451-.08505-11.41977-.46616-6.35765-4.01769-2.77785-.51581-11.27217-.31973-10.60024-3.92722.7951-.70816.58618-.84774-3.26563-2.18541-4.21581-1.46536-6.57772-2.95282-5.15059-3.24525C22.56927,267.198,4.7869,262.26441,0,260.06626c9.4596.92014,37.248,3.86132,47.29914,8.24131-1.92018-5.38,3.2399-2.26176,6.1887-1.07831,6.19684,2.28625,5.65912-4.13188,13.93227,2.56556-.8268-7.60612,10.05592.64163,13.43768,2.21351-1.41356-7.93734,7.38488-.5623,10.92443,2.21819-.6124-4.70568,2.06706-4.22324,5.10666-2.0922,3.15326,2.12889,4.036,2.1932,4.14238.30566,1.79375-3.92432,9.66285,3.66329,13.23574,4.29235-.43552-10.42358,10.63011,5.97132,11.68934,1.00215-1.932-5.88094,11.14138,6.28227,11.51894,3.2199-1.08371-4.24961,9.71053,3.22762,12.62406,4.64966l2.59833,1.88845c-.42924-8.3793,13.57364,3.4672,17.91,5.254.42839-2.20951-.20713-4.89638,2.59108-2.67678a433.13442,433.13442,0,0,0,48.05547,20.732c-4.90071-6.94731-41.913-21.60767-36.08179-24.7193-3.2904-2.20691-15.3481-3.85433-14.24829-7.91645,2.03674-1.54861.3091-1.27666-2.39908-2.32241-5.025-2.2949-11.65326-3.30492-9.23746-8.34142-4.78587-2.81487-17.19711-4.153-9.90421-8.67867-4.72114-2.22277-14.52688-3.53588-10.74387-8.4592-2.67805-1.79772-15.2691-4.69835-10.00407-7.27278,6.06555-3.30817-19.9186-6.83466-8.06884-11.13617-2.03495-1.11657-12.30121-3.614-8.54918-6.40242,1.38381-.81756,1.47639-1.028.60916-1.3832-8.45306-3.53726-8.7025-4.35484-4.76562-6.9a29.1541,29.1541,0,0,1-9.58514-6.11214c.61213-.69815,4.51261-2.86789,2.49041-3.21526-1.97783-1.9397-12.3-6.87565-7.81971-8.623,4.6965-1.93984-8.24057-4.46809-4.3774-7.964.82074-.32172.57642-.7372-1.59869-2.71541-6.55657-11.25081-18.922-27.78108-28.45486-38.7844,15.2393,11.52428,27.76,22.5758,39.46212,27.91434,2.1428-2.71765,6.65088,8.0071,8.19987,5.04133,1.69849-3.07051,6.67466,5.27848,8.2932,7.16382.35617,2.6044,2.16114-1.23953,2.98345-1.9653a28.27956,28.27956,0,0,1,7.01651,9.15436c.476,1.06848.81435.74878,2.29586-2.176,2.25451-.53282,6.71688,6.95584,7.97987,9.42954,5.26691-9.787,5.90568,8.01383,10.0463,5.44317,5.03779-5.155,7.305,15.76805,10.39716,10.07441,1.52514-4.04945,5.24244,4.26,6.21285,6.3368,2.81761,7.09159,4.95624-5.77449,10.52234,12.76516,4.50779-6.40535,7.99037,7.73276,9.70436,9.74775,4.45388-5.10826,6.47308,8.10622,8.10242,9.75309,2.52707-5.61967,6.38395,7.23313,7.541,9.22787.54845-.14726,1.78427-2.94717,2.7523-1.43606,5.00942,2.21793-5.88515-5.52486-.60176-4.884,5.80909-1.43508-14.69339-11.9474-4.69049-12.30933-2.30381-3.13757-13.06569-11.0402-6.50848-11.10979,1.90471-1.78374-13.4817-11.593-3.61594-11.53938-2.81428-3.92509-14.1636-12.0325-3.85639-11.39292-1.98031-3.11447-12.54081-11.56778-4.178-11.89292-1.46909-1.00414-8.852-8.99311-5.164-8.52059,6.053.20835-5.58574-8.32975-4.039-9.27144,9.92444.37245-8.97266-10.762-1.263-11.09053,5.70916-.0077-7.15184-8.17985-1.22509-9.21776,4.04408.1399-6.67725-7.07634-1.41951-7.33944,4.02695.20033-4.70043-6.605-1.67252-7.62012,1.61756-7.41328-6.4315-23.6379-7.617-34.14147,5.12086,8.16981,15.45912,26.2678,20.47135,29.88251,1.126-1.00424,1.9551.33929,4.82456,7.80626,4.39816-4.811,6.11127,6.03393,7.7738,9.28511,4.48-5.42459,6.08925,4.38067,7.30759,8.94487,1.88208,4.65157,6.65538-4.75147,6.22151,8.10169-.77775,10.16085,5.4186-5.31868,5.26956,10.79169-1.02257,8.25975,4.99574-2.43465,4.27784,8.88221-.9753,6.98649,6.20965.21526,3.254,13.679,7.53957-5.30921,2.07627,8.96358,5.159,9.77683,2.954-3.8878.62553,15.45039,2.91895,13.32975,3.0429-1.09086,2.01893,5.72531,2.06808,7.63943-.9581,11.00743,3.84707-1.4154,3.15552,12.81655-.53229,10.13344,1.07963,3.02023,2.66315,7.49956-.684,7.21358,3.87864,42.99549,6.12138,42.57272-.40168-21.34484-2.17429-36.97561-4.042-54.511-.25527-.92486-.14685-1.00434,1.15341-.8451,2.72858.49732-1.338-6.24423-.81284-8.1994-.19808-2.62368-.00669-2.77516,2.66376-1.97984,1.13694-.10166-2.18886-10.9072-1.8575-12.06229.098-.43793,3.0042-.2957,3.71728-.3023-1.31032-4.59828-4.611-14.6863,2.693-9.88262-4.35813-27.69326,4.27774,5.22819,4.1542-24.43827,6.40156,3.137,3.02181-8.95691,5.67618-11.34329,5.28548,2.68548,2.66479-5.92308,5.808-9.10208,3.43507,1.08023,12.13593-25.992,13.57227-24.72245-1.82246,13.19137.39924,19.49786-1.29774,29.47676-2.03171,3.98341,2.9936-.11824,2.39185,2.876-5.31388,11.91963,2.56581,3.94817-.80362,13.53016-3.55349,8.8764,5.992.80148-1.20019,13.497,4.22531,2.4274,1.44907,7.79117-1.19843,12.57315,2.73619,1.05488,6.31427,1.63475.46158,9.90065-4.05461,6.03416,5.82953-.55482-.70165,9.97318-8.047,12.43043,5.62386,3.42143-3.39959,14.89075-4.66081,13.24147-16.28563,39.519-20.02567,51.11852,1.53118-1.39675,10.63013-17.849,10.94315-14.477.63829.57979.74671.49777,1.06733-.80292,1.70883-2.10757,4.13862-9.36574,7.07855-7.687,2.70973,1.81672,4.24362-10.5788,7.92971-8.40939,2.36067.96184,3.48484-4.96646,6.03525-5.95555,3.04222,1.99557,4.344-3.96361,7.07933-5.98309,2.06457,6.37979,6.14305-5.14147,8.22752-2.54334,9.93381-3.55453,24.71573-13.45484,36.98844-14.78035-3.00149,4.071-18.31854,15.72281-17.01893,16.9635-13.55626,27.55111-35.73946,36.66028-68.50125,52.431-5.20427,9.30562,40.9377,43.5611,27.99022,37.89077m-54.06868-66.10914a24.02473,24.02473,0,0,0-4.23142-6.02814C211.97428,283.71494,217.61058,293.83915,216.36312,287.99319Zm-9.31677-14.47993c3.24111.68059-5.1638-6.6089-4.96947-5.84457.23016,3.18992,5.26,11.37914,4.96357,7.62548C205.96207,274.03452,205.97138,273.80491,207.04635,273.51326Z"/><path id="path2390-2" data-name="path2390" class="cls-1" d="M427.68468,327.41676c1.19975-1.70067,12.55041,32.34962,13.84071,30.646,2.44213-.22022,4.73014,11.5724,7.37575,10.28742,8.45793,11.0462,14.94521,17.11883,23.12065,33.89348,1.651-6.00591-2.21334-24.66375-1.65837-31.20312,5.25355-.23578-5.73375-9.59069-1.37348-9.84709,3.72844-1.829-8.01-8.46573-5.16687-9.79354,2.42031-.9679-4.8275-6.70012-6.56941-7.78666-1.51745-.72769-1.73346-.97433-1.08051-1.24328,3.41159.10321-11.64509-11.70486-14.59543-14.17364,15.79853,6.52255,33.15548,14.94871,47.86074,21.07478,5.77144-2.681,9.40231,5.86455,17.41929,2.81987,7.10854,4.28107,9.93891,4.79995,12.03668.87969,2.83821,1.77288,11.48606,7.94395,11.63777,2.53015.44745-4.03661,12.43285,7.38666,15.4674.68544,2.55546.954,10.293,4.61239,10.84389.69969-1.529-2.161,7.73191,2.295,9.56983,1.59082,4.753.013-1.91876-4.36359,6.139-1.91533,14.21594.13109,25.86755.05908,41.558,2.72279-8.35905-6.7263-28.75336-9.08186-31.72773-15.02767-2.81983-2.21208-11.88034-.05487-9.39022-4.43193-2.50886-1.5393-10.23358.79933-9.85993-1.95181,1.56085-3.81959-9.34111-1.62275-12.31278-2.21908,5.62382-7.21568-9.86041-3.422-14.03981-3.68932,7.07519-8.65-13.78758-.17812-12.24381-4.04117,2.77565-4.51159-10.84532-1.7233-12.03779-1.65134,2.67-6.452-9.63143-2.11467-14.41112-1.75486,6.27454-8.07215-13.164.63914-12.38767-2.42706,2.71248-4.16319-11.02722-.22891-14.22881-.00184-5.87753-4.267-22.64832.918-33.13055-1.95972,18.61018-6.1459,41.8754.44472,57.14407-5.14968,7.75476.45466,15.44872,3.65237,15.51474-1.48424,2.61917-.12535,19.029,4.24523,13.608-1.151,2.63187-2.15836,18.70306,4.36137,13.74385-3.25636,2.87835-.81666,13.57472,3.00433,12.08645-1.548-1.30678-1.82094-.94364-2.11381,1.7778-1.41263,4.61877.3663,14.6349,3.19481,10.89881-3.13474,5.3463.42889,17.455,4.27473,10.978-3.24835,3.83-.84818,21.0263,2.76827,14.20811-4.56556,21.21368,1.418,5.26756-4.32235,16.10349-4.49988,10.67792-.35048,3.11957-3.31383,7.11714-4.37038,3.89451-.085,11.41977-.46616,6.35765-4.01769,2.77785-.51581,11.27217-.31973,10.60025-3.92722-.79511-.70816-.58619-.84774,3.26562-2.18541,4.21582-1.46536,6.57772-2.95282,5.15059-3.24525,3.76838-4.145,21.55075-9.07867,26.33764-11.27682-9.4596.92014-37.248,3.86132-47.29914,8.24131,1.92018-5.38-3.2399-2.26176-6.1887-1.07831-6.19683,2.28625-5.65912-4.13188-13.93227,2.56556.8268-7.60612-10.05592.64163-13.43768,2.21351,1.41356-7.93734-7.38488-.5623-10.92442,2.21819.61239-4.70568-2.06707-4.22324-5.10667-2.09219-3.15326,2.12888-4.036,2.19319-4.14238.30565-1.79375-3.92432-9.66284,3.66329-13.23574,4.29235.43552-10.42358-10.63011,5.97132-11.68934,1.00215,1.932-5.88094-11.14137,6.28227-11.51894,3.2199,1.08371-4.24961-9.71053,3.22762-12.62406,4.64966l-2.59832,1.88845c.42923-8.3793-13.57365,3.4672-17.91,5.25395-.42839-2.20951.20713-4.89638-2.59108-2.67678a433.13442,433.13442,0,0,1-48.05547,20.732c4.90071-6.94731,41.913-21.60767,36.08179-24.7193,3.2904-2.20691,15.3481-3.85433,14.24829-7.91645-2.03674-1.54861-.3091-1.27666,2.39908-2.32241,5.025-2.2949,11.65326-3.30492,9.23746-8.34142,4.78587-2.81487,17.19711-4.15305,9.90421-8.67867,4.72114-2.22277,14.52688-3.53588,10.74387-8.4592,2.678-1.79772,15.2691-4.69835,10.00407-7.27278-6.06555-3.30817,19.9186-6.83466,8.06884-11.13617,2.03495-1.11657,12.30121-3.61395,8.54918-6.40242-1.38381-.81756-1.47639-1.028-.60916-1.3832,8.45306-3.53726,8.7025-4.35484,4.76562-6.9a29.1541,29.1541,0,0,0,9.58514-6.11214c-.61213-.69815-4.51261-2.86789-2.49041-3.21526,1.97784-1.9397,12.3-6.87565,7.81971-8.623-4.69649-1.93984,8.24057-4.46809,4.37741-7.964-.82075-.32173-.57643-.73721,1.59868-2.71542,6.55657-11.25081,18.922-27.78108,28.45486-38.78439-15.2393,11.52427-27.76,22.57579-39.46212,27.91433-2.1428-2.71765-6.65087,8.0071-8.19987,5.04133-1.69849-3.07051-6.67465,5.27848-8.29319,7.16382-.35618,2.6044-2.16114-1.23952-2.98346-1.9653a28.27956,28.27956,0,0,0-7.01651,9.15436c-.476,1.06848-.81435.74878-2.29586-2.176-2.2545-.53282-6.71688,6.95585-7.97987,9.42954-5.26691-9.78695-5.90568,8.01383-10.0463,5.44317-5.03779-5.155-7.305,15.768-10.39716,10.07441-1.52514-4.04945-5.24244,4.26-6.21285,6.3368-2.81761,7.09159-4.95624-5.77449-10.52234,12.76516-4.50779-6.40535-7.99037,7.73276-9.70436,9.74775-4.45388-5.10826-6.47308,8.10622-8.10242,9.75309-2.52707-5.61967-6.38395,7.23313-7.541,9.22787-.54845-.14725-1.78427-2.94717-2.7523-1.43606-5.00941,2.21793,5.88515-5.52486.60176-4.884-5.80909-1.43508,14.69339-11.9474,4.69049-12.30932,2.30382-3.13758,13.06569-11.04021,6.50848-11.1098-1.90471-1.78374,13.48171-11.593,3.61594-11.53938,2.81428-3.92509,14.1636-12.0325,3.85639-11.39292,1.98031-3.11447,12.54081-11.56778,4.178-11.89292,1.46908-1.00414,8.852-8.99311,5.164-8.52059-6.053.20835,5.58574-8.32975,4.039-9.27144-9.92444.37245,8.97266-10.762,1.263-11.09053-5.70916-.0077,7.15184-8.17985,1.22509-9.21776-4.04408.1399,6.67725-7.07634,1.41951-7.33944-4.02695.20033,4.70043-6.605,1.67252-7.62012-1.61756-7.41328,6.4315-23.6379,7.617-34.14147-5.12085,8.16981-15.45912,26.2678-20.47135,29.88251-1.126-1.00424-1.95509.33929-4.82456,7.80626-4.39816-4.811-6.11127,6.03393-7.77379,9.28511-4.48-5.42458-6.08926,4.38067-7.3076,8.94487-1.88208,4.65157-6.65538-4.75147-6.22151,8.1017.77775,10.16084-5.4186-5.31869-5.26956,10.79168,1.02257,8.25975-4.99574-2.43465-4.27784,8.88221.9753,6.98649-6.20964.21526-3.254,13.679-7.53957-5.30921-2.07627,8.96358-5.159,9.77683-2.954-3.8878-.62553,15.45039-2.91895,13.32975-3.04289-1.09086-2.01893,5.72531-2.06808,7.63943.9581,11.00743-3.84707-1.4154-3.15552,12.81655.53229,10.13344-1.07963,3.02023-2.66315,7.49956.684,7.21358-3.87864,42.99549-6.12138,42.57272.40168-21.34484,2.17429-36.97561,4.042-54.511.25527-.92487.14685-1.00435-1.1534-.84511-2.72858.49732,1.338-6.24423.81283-8.1994.19808-2.62368.00669-2.77515-2.66376-1.97984-1.13694-.10166,2.18886-10.9072,1.8575-12.06229-.098-.43793-3.0042-.2957-3.71728-.3023,1.31033-4.59828,4.611-14.6863-2.69305-9.88262,4.35814-27.69326-4.27774,5.22819-4.15419-24.43827-6.40157,3.137-3.02182-8.95691-5.67619-11.34329-5.28548,2.68548-2.66478-5.92307-5.808-9.10208-3.43507,1.08023-12.13592-25.992-13.57227-24.72245,1.82247,13.19137-.39924,19.49786,1.29774,29.47676,2.03171,3.98341-2.99359-.11824-2.39184,2.876,5.31387,11.91963-2.56582,3.94817.80362,13.53016,3.55348,8.8764-5.992.80148,1.20019,13.497-4.22532,2.4274-1.44908,7.79117,1.19842,12.57315-2.73619,1.05488-6.31427,1.63475-.46158,9.90065,4.05461,6.03416-5.82952-.55482.70165,9.97318,8.047,12.43043-5.62386,3.42143,3.39959,14.89075,4.66081,13.24147,16.28563,39.519,20.02567,51.11852-1.53118-1.39675-10.63013-17.849-10.94315-14.477-.63829.57979-.74671.49777-1.06733-.80292-1.70883-2.10757-4.13862-9.36573-7.07855-7.687-2.70973,1.81672-4.24362-10.5788-7.92971-8.40939-2.36067.96184-3.48484-4.96646-6.03525-5.95555-3.04222,1.99557-4.344-3.96361-7.07933-5.98309-2.06457,6.37979-6.14305-5.14147-8.22752-2.54334-9.93381-3.55453-24.71573-13.45484-36.98844-14.78035,3.00149,4.071,18.31854,15.72281,17.01893,16.9635,13.55626,27.55111,35.73946,36.66028,68.50125,52.431,5.20427,9.30562-40.9377,43.5611-27.99022,37.89077m54.06868-66.10914a24.02473,24.02473,0,0,1,4.23142-6.02814C451.25814,285.3039,445.62184,295.42811,446.8693,289.58215Zm9.31677-14.47993c-3.24111.68059,5.1638-6.6089,4.96948-5.84457-.23017,3.18992-5.26,11.37914-4.96357,7.62548C457.27035,275.62348,457.261,275.39387,456.18607,275.10222Z"/><path id="path2390-3" data-name="path2390" class="cls-1" d="M332.47969,322.73205c-.44416-2.65412,40.95588,18.31546,40.59223,15.57625,2.04408-2.42349,14.87212,6.33324,16.13482,2.74615,17.81947,2.45926,29.30443,2.14,52.07429,10.12072-3.945-7.02113-24.46565-20.65348-29.90314-27.168,4.61369-4.99476-13.99211-3.59924-10.21812-7.80052,1.763-5.07192-15.06093-.49509-13.65564-4.30122,1.344-3.09079-10.53029-1.767-13.11935-1.18126-2.05639.71134-2.47923.68114-2.12377-.1599,3.22921-3.008-21.34757-.16586-26.30435.24859,20.45142-8.37431,44.06636-16.41654,63.15243-24.1609,2.86574-7.713,13.97469-3.16169,18.57335-13.25122,10.4265-2.53078,13.49959-4.62812,11.862-10.13884,4.22081-.952,17.78092-3.14584,12.99652-8.25921-3.26-4.1167,18.14418-4.51913,14.83828-13.43759,3.21614-1.44747,13.65437-5.12249,10.60212-9.21942-3.37064-.59537,9.19306-4.923,10.24172-7.24172,4.37993-4.31085-5.732-2.26511,3.8999-7.34362,13.184-12.80883,23.82655-23.47208,40.66908-35.29449-13.79968,1.42091-34.68484,17.8046-42.826,15.04545-4.60337.53167-10.96819,10.75466-12.66064,4.4673-3.70567.86715-8.67788,10.042-10.83663,7.17379-2.03945-4.92986-10.06057,7.00436-13.33395,9.159-1.3942-11.7462-12.17422,5.82307-16.25829,9.37855-1.36491-14.38439-12.83308,12.376-14.92775,7.42176-1.55237-6.67069-11.53441,8.28-12.56487,9.43068-3.41428-8.35794-10.77476,6.8163-14.84015,11.49408-1.57514-13.12513-11.51672,12.56-13.59193,9.036-1.29357-6.293-10.34244,9.81882-13.07825,12.93934-9.28242,1.42408-19.97933,21.44222-32.23,28.331,11.51348-22.57406,38.88885-37.67672,47.833-56.70487,7.54029-6.63506,17.5195-10.69391,12.90846-15.47461,2.29307-2.49731,21.34911-13.40535,11.45924-13.43425.45572-4.37724,21.15514-13.00213,9.66924-15.49262,1.90253-3.36837,15.20788-9.58508,9.69986-12.41515-2.8571-.485-2.78973-1.08439.349-2.91514,4.5779-3.86411,16.35545-10.37425,7.16521-12.79329,5.30344-4.46828,19.92938-11.94667,7.13467-12.96975,2.74847-4.26288,21.84133-16.57919,8.9052-17.118,20.78544-17.9906.90986-8.76315,10.70684-18.78152,9.49446-10.0336-.147-5.88271,2.566-10.48947,3.50179-3.62019,10.071-10.81462,2.18875-9.47459,2.08378-3.00048,10.06857-10.54581,6.17007-13.25005-1.37479.07233-1.30974-.246,1.01356-4.97851,2.54168-5.181,3.35948-8.6961,1.782-7.66688-.30669-7.23671,11.54858-27.94377,13.94863-34.31757-7.8567,9.44908-30.71983,37.42546-35.97348,50.59223-3.12837-6.6907-5.03459.86807-6.66826,4.6376-3.61569,7.7371-8.95877,1.34965-10.47069,15.02913-6.15787-7.74216-8.658,9.73546-10.33634,14.25574-5.91987-8.5802-7.29827,6.19975-8.02234,11.97427-3.717-4.88159-5.74069-2.00126-6.596,2.72171-.96171,4.82436-1.71445,5.68629-3.52895,4.04838-5.21764-1.97513-5.54861,12.15494-8.26006,15.98258-9.07993-9.97559-4.33841,15.1558-9.8313,11.55238-3.57314-7.16183-4.52546,15.90656-7.65766,13.43557-2.86905-4.89111-5.98868,11.79793-7.373,15.75465l-.67037,4.09869c-7.22646-8.09115-9.32107,15.53157-11.68124,21.11754-2.40324-1.641-4.26288-4.68825-4.81578-.10345a560.03017,560.03017,0,0,1-25.30838,62.7593c-1.81468-10.84188,18.86686-57.97751,10.67787-55.53373,1.01678-5.0208,10.59973-17.50122,5.89452-20.23412-3.28026.4292-1.44519-.89216.09258-4.31629,2.53085-6.67924,7.70378-13.63587.90294-16.06737,1.83821-6.93964,12.02734-19.45741,1.209-16.9837,2.31723-6.33662,10.13464-16.46166,2.18024-17.54567.82618-4.08782,9.75951-18.205,2.5794-15.78248-8.58312,2.4763,12.08953-24.39705-2.71284-17.573.85464-2.87692,8.0182-14.50917,2.0339-13.65938-2.01531.50722-2.29179.398-1.81783-.71716,4.55142-10.93883,4.03707-11.91706-1.89581-10.67555a37.69561,37.69561,0,0,0,3.25-14.33481c-1.19753-.08489-6.75553,1.46853-5.213-.68988.05353-3.58146,5.05062-17.50568-.65607-15.03668-6.08045,2.48867,3.50955-11.601-3.2203-11.30033-1.04688.4508-1.20023-.15324-1.00043-3.94952C340.04674,45.22031,336.37663,18.78238,335.1301,0c-3.524,24.45111-4.97948,45.99521-10.8786,61.54443-4.441-.54871,1.17012,13.40763-2.95079,12.09083-4.35356-1.2771-1.33341,10.92158-1.10617,14.12631,2.04136,2.71744-3.11347.82639-4.52929.90728a36.56468,36.56468,0,0,0,1.87752,14.79452c.53434,1.41486-.0674,1.4288-4.089.08826-2.55654,1.56078.15335,12.50153,1.24245,15.92359-13.74158-4.20419,1.86108,12.73606-4.28223,14.13944-9.31826-.15568,7.62746,21.13507-.3926,18.71475-5.08458-2.33442-.94347,8.683.05355,11.47421,3.86032,9.07992-9.80676-.7992,1.93958,21.30145-9.96838-1.78683-.31042,14.37377-.053,17.78445-8.73914-.64381,1.42367,13.337,1.42409,16.33241-7.43349-2.86625.7115,12.45355,1.46232,15.33914-.638.36347-4.32022-1.08574-3.83551,1.18343-2.58657,6.59435.38374-10.43-3.88892-5.03578-6.64387,3.96447,2.63745-24.34346-6.8846-15.57849-.73635-4.97881,1.96665-22.02936-4.12285-16.12957-3.37278.093,1.84623-22.9157-7.17189-13.89361-.98345-6.16681,2.07316-23.93983-6.81769-13.9777-1.01265-4.66334,1.00445-22.03682-6.97687-14.7297.43686-2.25895-.044-16.31572-3.00357-12.52727-5.37333,5.69664-2.44245-12.73541-4.72035-12.19414-8.782,9.36851-1.54193-18.0511-8.926-11.34112-5.25384,5.18538-.86684-14.022-7.25762-9.58553-3.58936,3.80664-.29936-12.57623-5.37062-8.03614-3.51865,3.8466-1.68736-10.34509-5.39337-8.5242-8.2289-5.34179-15.58784-27.57313-24.05128-38.30434,2.72421,12.16561,9.68315,38.20064,8.36436,46.08123-1.9482.10121-1.48819,2.09,2.66588,11.562-8.4176-.42134-.12856,11.10348,1.30047,15.60343-9.05081-.91081-1.612,9.56408,1.41947,14.86674,2.50091,5.98663-10.43786,1.68633,1.65075,13.10406,9.956,8.63067-9.81713.0402,4.97213,14.71042,8.452,6.66086-6.80549,2.3061,4.1469,12.05361,7.2505,5.5337-5.511,5.84546,9.45051,15.53072-11.75773,1.97791,6.24418,10.12608,4.15075,13.67717-6.25075-.88628,13.47717,14.76816,9.44076,14.90509-3.78862,1.765,3.35169,7.09788,5.04741,8.9017,10.89171,9.24468-4.82284,2.19812,8.75658,14.64862,9.7055,8.82873,1.75468,3.75756,4.37332,9.31436,7.18928,6.00738,35.5396,43.04137,33.094,44.6926-19.04387-19.98169-31.63089-35.95888-45.86271-53.773-.60657-1.08213-.77848-1.05657-1.82862.27235-2.05531,2.93868-4.44946-6.95546-6.7103-8.27469-2.20418-2.59137-2.51783-2.55651-4.2487.60316-1.13733.94061-7.90843-12.0147-9.26351-12.77488-.48837-.31332-3.02986,2.46055-3.69119,3.103-2.97789-5.41766-9.11948-17.69073-11.46316-6.633-21.18164-29.41439.82368,8.69539-26.04425-18.68107-3.03009,8.70516-10.92337-5.48327-15.5332-5.26227-2.415,7.27513-7.836-3.01982-13.61593-3.08268-2.17444,4.11693-34.79275-12.84966-34.95813-10.37656,13.67236,10.46563,17.36628,18.282,28.0016,25.90948,5.49007,1.813-2.85872,2.614.41755,4.81848,15.72439,6.12145,1.23279,5.962,13.04414,11.70361,11.33876,4.92572-4.77786,6.18629,13.37846,11.31248-1.67545,6.07373,5.75429,8.47817,12.53659,10.465-1.55521,3.458-4.31616,7.24515,8.58038,9.51871,9.2143,1.85787-5.86206,4.792,9.71538,8.52742,18.70078,4.10511-2.05667,8.25923,16.66734,10.593,16.32642,7.93021,50.90912,21.50709,64.896,28.76577-2.67752.109-26.00284-6.73554-23.22374-3.35195-.05928,1.11336-.23352,1.13659-1.71114.23283-3.48728-.38273-12.32156-4.84326-13.49665-.62663-.838,4.13409-13.52132-5.8626-14.93586-.51638-1.29472,3.031-7.7196-1.39484-10.96306.01574-.9809,4.60086-7.5971.3082-11.94764.94,3.905,7.74088-10.32172.862-9.87441,5.1455-12.36221,5.76805-34.95138,10.11353-47.4358,20.05732,6.461,1.01148,31.13492-2.211,31.069.1112,37.51605,12.9907,66.18763,1.18673,110.63979-14.11629,13.24624,3.81881-13.89035,47.96634.66027,37.7809m3.43343-115.82317a21.348,21.348,0,0,1-1.09534-6.45226C321.58974,236.67674,324.358,246.59422,321.49188,242.12216Zm-3.16626-14.969c-1.62169,2.45572-.86945-7.40187-.51444-6.79765,1.8485,2.15863,3.79033,10.47491,1.63134,7.91878C319.33627,226.8046,319.18687,226.6654,318.32562,227.15312Z"/><rect class="cls-2" x="148.14448" y="228" width="371.89873" height="113" rx="20.52647"/><path class="cls-3" d="M144.08953,173.86914H116.43914V162.07959h4.249v-25.668h-5.665v8.95752h-9.24023V124.62207h48.82227v20.74707h-9.24122v-8.95752H139.735v25.668h4.35449Z"/><path class="cls-3" d="M154.71062,156.521q0-7.57545,6.37305-12.78077,6.37207-5.20385,17.20606-5.2041,10.9043,0,17.7373,5.02735a15.54659,15.54659,0,0,1,6.833,13.09912,15.9992,15.9992,0,0,1-6.51367,12.99365q-6.51562,5.20386-17.207,5.2041-11.5415,0-17.98535-5.2041A16.12684,16.12684,0,0,1,154.71062,156.521Zm18.02051.0708q0,8.2141,5.87793,8.21386,6.23,0,6.23047-8.28466a9.84133,9.84133,0,0,0-1.52246-5.877,5.15878,5.15878,0,0,0-4.38965-2.08886,5.54633,5.54633,0,0,0-4.49609,2.05371A9.1727,9.1727,0,0,0,172.73113,156.5918Z"/><path class="cls-3" d="M236.4948,161.33594v10.55078a17.183,17.183,0,0,1-5.02734,2.05322,25.96624,25.96624,0,0,1-6.65625.92041,16.43158,16.43158,0,0,1-6.86816-1.31006,10.17465,10.17465,0,0,1-4.42579-3.61084,12.914,12.914,0,0,1-1.2041-2.39013,11.60362,11.60362,0,0,1-.5664-2.42481q-.24756-2.33715-.24707-9.02832v-5.77051h-4.39063V139.52734h4.39063V134.252l17.80761-8.46142v13.73681h7.1875v10.79834h-7.1875v6.65577a10.36,10.36,0,0,0,.60157,4.35449,2.4493,2.4493,0,0,0,2.4082,1.09765A10.56193,10.56193,0,0,0,236.4948,161.33594Z"/><path class="cls-3" d="M256.00066,149.12158l-13.94824-1.416a13.32817,13.32817,0,0,1,7.43457-7.11621q5.0625-2.053,14.94043-2.05323,3.646,0,6.53223.23a43.56586,43.56586,0,0,1,5.15136.69043,15.73411,15.73411,0,0,1,6.97461,2.72608,10.51234,10.51234,0,0,1,3.15039,4.03613,19.40307,19.40307,0,0,1,.9209,6.939v9.91309h4.38965v10.79834H269.34832v-2.33643q-4.60254,2.97364-12.32031,2.97364-7.2583,0-10.94043-3.18653a9.64988,9.64988,0,0,1-3.7168-7.541q0-4.8142,4.56738-7.895,4.53077-3.07983,11.82422-3.08008a26.66946,26.66946,0,0,1,10.58594,1.73486v-1.02685a14.81877,14.81877,0,0,0-.46-4.46094,4.555,4.555,0,0,0-2.19531-2.30127,8.78331,8.78331,0,0,0-4.10645-.92041A7.551,7.551,0,0,0,256.00066,149.12158Zm13.34766,15.96729v-6.2666a10.46756,10.46756,0,0,0-5.02734-1.27442,5.26785,5.26785,0,0,0-3.71778,1.27442,4.74553,4.74553,0,0,0,.03613,6.727,4.752,4.752,0,0,0,3.32813,1.34521A7.85246,7.85246,0,0,0,269.34832,165.08887Z"/><path class="cls-3" d="M320.57879,173.86914H295.97234V163.0708h3.64649V135.42041h-3.64649V124.62207h21.45508V163.0708h3.15137Z"/><path class="cls-3" d="M356.40789,174.294H345.39715v-10.9043h10.30176q3.96533,4.17773,8.6748,4.17773,4.74316,0,4.74414-1.94726a1.65665,1.65665,0,0,0-1.02734-1.52246,32.489,32.489,0,0,0-5.62891-1.66407q-3.68262-.991-8.14258-2.30127a18.78925,18.78925,0,0,1-6.08984-2.76123,9.49037,9.49037,0,0,1-3.08008-3.25732,8.8741,8.8741,0,0,1-.84961-4.17773q0-5.69971,4.03613-8.39063a18.01244,18.01244,0,0,1,10.16114-2.65527,21.71219,21.71219,0,0,1,10.6914,2.40722v-1.77H380.0573v9.98389H370.00262a12.49132,12.49132,0,0,0-8.92188-3.57568q-4.07226,0-4.07129,2.15966,0,1.02687,1.2041,1.34522,1.0254.3186,6.79688,1.52246a74.01337,74.01337,0,0,1,10.23242,2.76123,12.65453,12.65453,0,0,1,5.48731,3.647,8.642,8.642,0,0,1,1.80566,5.55811q0,5.948-4.42578,8.78027a19.77135,19.77135,0,0,1-10.834,2.79688,23.18721,23.18721,0,0,1-10.86816-2.33643Z"/><path class="cls-3" d="M419.85125,159.77832l13.27637,2.97412a14.85469,14.85469,0,0,1-7.15235,8.92188q-5.55762,3.186-13.73633,3.186-10.834,0-17.06445-4.88574a15.78913,15.78913,0,0,1-6.23144-13.09912,16.41975,16.41975,0,0,1,5.80664-12.958q5.77-5.02661,14.47949-5.02734,7.36377,0,11.36523,2.93847v-2.30127h10.86914v14.65723H420.59441q-2.01855-5.87622-6.833-5.877a5.78372,5.78372,0,0,0-5.02735,2.51367,10.81825,10.81825,0,0,0-1.77051,6.2666,9.56747,9.56747,0,0,0,1.91211,6.30176,6.00458,6.00458,0,0,0,4.88575,2.30127Q418.717,165.69092,419.85125,159.77832Z"/><path class="cls-3" d="M438.72137,156.521q0-7.57545,6.373-12.78077,6.37208-5.20385,17.20606-5.2041,10.90429,0,17.7373,5.02735a15.54656,15.54656,0,0,1,6.833,13.09912,15.99917,15.99917,0,0,1-6.51367,12.99365q-6.51562,5.20386-17.207,5.2041-11.54151,0-17.98535-5.2041A16.12684,16.12684,0,0,1,438.72137,156.521Zm18.0205.0708q0,8.2141,5.87793,8.21386,6.23,0,6.23047-8.28466a9.84133,9.84133,0,0,0-1.52246-5.877,5.15878,5.15878,0,0,0-4.38965-2.08886,5.54633,5.54633,0,0,0-4.49609,2.05371A9.1727,9.1727,0,0,0,456.74187,156.5918Z"/><path class="cls-3" d="M520.00848,173.86914H492.32293V163.0708h4.67285V150.32568h-4.67285V139.52734h21.3125v8.603a14.34379,14.34379,0,0,1,3.71777-5.5581,11.93868,11.93868,0,0,1,4.88574-3.00977,27.2712,27.2712,0,0,1,6.97461-.67236v15.11718q-.602-.03441-1.4873-.03515a22.489,22.489,0,0,0-8.10742,1.09765,7.07577,7.07577,0,0,0-3.75293,2.97364,10.88927,10.88927,0,0,0-1.06153,5.02734h5.20411Z"/><path class="cls-3" d="M561.21941,163l14.69239,1.80566a13.59219,13.59219,0,0,1-2.76172,4.12452,17.05526,17.05526,0,0,1-4.31934,3.16894,25.59374,25.59374,0,0,1-12.28516,2.76123q-12.00145,0-18.05566-4.9917a15.98069,15.98069,0,0,1-6.05371-12.99316,16.69476,16.69476,0,0,1,5.98242-13.09961q5.91211-5.239,16.03809-5.23975,9.73682,0,15.86133,4.95655,6.019,4.92114,6.4082,14.97558H549.67742q.10694,8.3562,6.23145,8.35547Q559.59,166.82373,561.21941,163Zm-11.3291-8.99268h10.01856q.07178-1.062.07129-1.20361a7.38857,7.38857,0,0,0-1.416-4.63769,4.53288,4.53288,0,0,0-3.75293-1.80567,4.11784,4.11784,0,0,0-3.68262,1.98242,9.10629,9.10629,0,0,0-1.27441,4.95655A6.23682,6.23682,0,0,0,549.89031,154.00732Z"/><path class="cls-4" d="M150.488,173.86914H122.83758V162.07959h4.249v-25.668h-5.665v8.95752h-9.24023V124.62207h48.82226v20.74707h-9.24121v-8.95752h-5.6289v25.668H150.488Z"/><path class="cls-4" d="M161.10906,156.521q0-7.57545,6.37305-12.78077,6.37208-5.20385,17.20605-5.2041,10.9043,0,17.73731,5.02735a15.54659,15.54659,0,0,1,6.833,13.09912,15.99918,15.99918,0,0,1-6.51368,12.99365q-6.51562,5.20386-17.207,5.2041-11.5415,0-17.98535-5.2041A16.12684,16.12684,0,0,1,161.10906,156.521Zm18.02051.0708q0,8.2141,5.87793,8.21386,6.23,0,6.23047-8.28466a9.84133,9.84133,0,0,0-1.52246-5.877,5.1588,5.1588,0,0,0-4.38965-2.08886,5.54635,5.54635,0,0,0-4.4961,2.05371A9.17276,9.17276,0,0,0,179.12957,156.5918Z"/><path class="cls-4" d="M242.89324,161.33594v10.55078a17.18329,17.18329,0,0,1-5.02734,2.05322,25.96624,25.96624,0,0,1-6.65625.92041,16.43166,16.43166,0,0,1-6.86817-1.31006,10.17462,10.17462,0,0,1-4.42578-3.61084,12.9134,12.9134,0,0,1-1.2041-2.39013,11.6036,11.6036,0,0,1-.56641-2.42481q-.24755-2.33715-.24707-9.02832v-5.77051H213.5075V139.52734h4.39062V134.252l17.80762-8.46142v13.73681h7.1875v10.79834h-7.1875v6.65577a10.36019,10.36019,0,0,0,.60156,4.35449,2.44932,2.44932,0,0,0,2.40821,1.09765A10.562,10.562,0,0,0,242.89324,161.33594Z"/><path class="cls-4" d="M262.3991,149.12158l-13.94824-1.416a13.32817,13.32817,0,0,1,7.43457-7.11621q5.0625-2.053,14.94043-2.05323,3.646,0,6.53222.23a43.56576,43.56576,0,0,1,5.15137.69043,15.73416,15.73416,0,0,1,6.97461,2.72608,10.51234,10.51234,0,0,1,3.15039,4.03613,19.40329,19.40329,0,0,1,.9209,6.939v9.91309H297.945v10.79834H275.74676v-2.33643q-4.60254,2.97364-12.32032,2.97364-7.25829,0-10.94043-3.18653a9.6499,9.6499,0,0,1-3.71679-7.541q0-4.8142,4.56738-7.895,4.53076-3.07983,11.82422-3.08008a26.66946,26.66946,0,0,1,10.58594,1.73486v-1.02685a14.81877,14.81877,0,0,0-.46-4.46094,4.555,4.555,0,0,0-2.19532-2.30127,8.78324,8.78324,0,0,0-4.10644-.92041A7.551,7.551,0,0,0,262.3991,149.12158Zm13.34766,15.96729v-6.2666a10.46757,10.46757,0,0,0-5.02735-1.27442,5.26784,5.26784,0,0,0-3.71777,1.27442,4.74553,4.74553,0,0,0,.03613,6.727,4.752,4.752,0,0,0,3.32813,1.34521A7.85246,7.85246,0,0,0,275.74676,165.08887Z"/><path class="cls-4" d="M326.97723,173.86914H302.37078V163.0708h3.64648V135.42041h-3.64648V124.62207h21.45508V163.0708h3.15137Z"/><path class="cls-4" d="M362.80633,174.294H351.79558v-10.9043h10.30176q3.96534,4.17773,8.67481,4.17773,4.74316,0,4.74414-1.94726a1.65666,1.65666,0,0,0-1.02735-1.52246,32.48841,32.48841,0,0,0-5.6289-1.66407q-3.68262-.991-8.14258-2.30127a18.78925,18.78925,0,0,1-6.08984-2.76123,9.49027,9.49027,0,0,1-3.08008-3.25732,8.8741,8.8741,0,0,1-.84961-4.17773q0-5.69971,4.03613-8.39063a18.01241,18.01241,0,0,1,10.16113-2.65527,21.71221,21.71221,0,0,1,10.69141,2.40722v-1.77h10.86914v9.98389H376.40105a12.49128,12.49128,0,0,0-8.92187-3.57568q-4.07228,0-4.07129,2.15966,0,1.02687,1.2041,1.34522,1.02538.3186,6.79688,1.52246a74.01337,74.01337,0,0,1,10.23242,2.76123,12.65449,12.65449,0,0,1,5.4873,3.647,8.64193,8.64193,0,0,1,1.80567,5.55811q0,5.948-4.42578,8.78027a19.77135,19.77135,0,0,1-10.834,2.79688,23.18721,23.18721,0,0,1-10.86816-2.33643Z"/><path class="cls-4" d="M426.24969,159.77832l13.27636,2.97412a14.85467,14.85467,0,0,1-7.15234,8.92188q-5.55762,3.186-13.73633,3.186-10.834,0-17.06445-4.88574a15.78914,15.78914,0,0,1-6.23145-13.09912,16.41978,16.41978,0,0,1,5.80664-12.958q5.77-5.02661,14.4795-5.02734,7.36377,0,11.36523,2.93847v-2.30127H437.862v14.65723H426.99285q-2.01855-5.87622-6.833-5.877a5.78371,5.78371,0,0,0-5.02734,2.51367,10.81818,10.81818,0,0,0-1.77051,6.2666,9.56747,9.56747,0,0,0,1.91211,6.30176,6.00457,6.00457,0,0,0,4.88574,2.30127Q425.11541,165.69092,426.24969,159.77832Z"/><path class="cls-4" d="M445.1198,156.521q0-7.57545,6.373-12.78077,6.37208-5.20385,17.20606-5.2041,10.90429,0,17.7373,5.02735a15.54659,15.54659,0,0,1,6.833,13.09912,15.9992,15.9992,0,0,1-6.51367,12.99365q-6.51562,5.20386-17.207,5.2041-11.5415,0-17.98535-5.2041A16.12684,16.12684,0,0,1,445.1198,156.521Zm18.02051.0708q0,8.2141,5.87793,8.21386,6.23,0,6.23047-8.28466a9.84133,9.84133,0,0,0-1.52246-5.877,5.15878,5.15878,0,0,0-4.38965-2.08886,5.54633,5.54633,0,0,0-4.49609,2.05371A9.1727,9.1727,0,0,0,463.14031,156.5918Z"/><path class="cls-4" d="M526.40691,173.86914H498.72137V163.0708h4.67285V150.32568h-4.67285V139.52734h21.3125v8.603a14.34379,14.34379,0,0,1,3.71777-5.5581,11.93868,11.93868,0,0,1,4.88574-3.00977,27.2712,27.2712,0,0,1,6.97461-.67236v15.11718q-.60206-.03441-1.4873-.03515a22.489,22.489,0,0,0-8.10743,1.09765,7.07581,7.07581,0,0,0-3.75293,2.97364,10.88928,10.88928,0,0,0-1.06152,5.02734h5.2041Z"/><path class="cls-4" d="M567.61785,163l14.69238,1.80566a13.59183,13.59183,0,0,1-2.76172,4.12452,17.055,17.055,0,0,1-4.31933,3.16894,25.59377,25.59377,0,0,1-12.28516,2.76123q-12.00146,0-18.05566-4.9917a15.98069,15.98069,0,0,1-6.05371-12.99316,16.69476,16.69476,0,0,1,5.98242-13.09961q5.91211-5.239,16.03809-5.23975,9.73682,0,15.86132,4.95655,6.019,4.92114,6.40821,14.97558H556.07586q.10693,8.3562,6.23144,8.35547Q565.98846,166.82373,567.61785,163Zm-11.3291-8.99268H566.3073q.07179-1.062.07129-1.20361a7.38856,7.38856,0,0,0-1.416-4.63769,4.5329,4.5329,0,0,0-3.75293-1.80567,4.11784,4.11784,0,0,0-3.68262,1.98242,9.10629,9.10629,0,0,0-1.27441,4.95655A6.2345,6.2345,0,0,0,556.28875,154.00732Z"/><rect class="cls-5" x="3.02392" width="663" height="568"/></g></g></svg>