<svg xmlns="http://www.w3.org/2000/svg" width="2101.081" height="1232.76" viewBox="0 0 2101.081 1232.76"><path d="M2205.2,181.62a100.115,100.115,0,0,1-18.924-1.731,81.022,81.022,0,0,1-31.59-13.426,74.28,74.28,0,0,1-12.18-10.844,81.241,81.241,0,0,1-9.11-12.29h47.455c.8.513,1.635,1.009,2.479,1.477a37.9,37.9,0,0,0,9.963,3.736,53.832,53.832,0,0,0,11.907,1.246,45.34,45.34,0,0,0,12.442-1.614,32.631,32.631,0,0,0,10.13-4.844h44.721a69.866,69.866,0,0,1-14.563,19.337,66.629,66.629,0,0,1-10.813,8.141,71.469,71.469,0,0,1-12.514,5.954,78.749,78.749,0,0,1-14.033,3.645A94.61,94.61,0,0,1,2205.2,181.62Zm-499.608,0a100.115,100.115,0,0,1-18.924-1.731,81.021,81.021,0,0,1-31.59-13.426,74.3,74.3,0,0,1-12.181-10.844,81.31,81.31,0,0,1-9.109-12.29h47.455c.8.51,1.63,1.006,2.479,1.477a37.91,37.91,0,0,0,9.963,3.736,57.535,57.535,0,0,0,23.814,0,37.9,37.9,0,0,0,9.963-3.736c.844-.467,1.677-.964,2.479-1.477H1777.4a81.306,81.306,0,0,1-9.109,12.29,74.926,74.926,0,0,1-12.15,10.844,81.409,81.409,0,0,1-14.58,8.232,79.622,79.622,0,0,1-16.889,5.194A101.28,101.28,0,0,1,1705.593,181.62Zm-364.5,0a100.115,100.115,0,0,1-18.924-1.731,81.021,81.021,0,0,1-31.59-13.426,74.3,74.3,0,0,1-12.181-10.844,81.31,81.31,0,0,1-9.109-12.29h47.455c.8.51,1.63,1.006,2.479,1.477a37.9,37.9,0,0,0,9.963,3.736,57.535,57.535,0,0,0,23.814,0,37.9,37.9,0,0,0,9.963-3.736c.844-.467,1.677-.964,2.479-1.477H1412.9a81.275,81.275,0,0,1-9.109,12.29,74.9,74.9,0,0,1-12.15,10.844,81.389,81.389,0,0,1-14.58,8.232,79.59,79.59,0,0,1-16.888,5.194A101.28,101.28,0,0,1,1341.093,181.62Zm-407.754,0a74.061,74.061,0,0,1-21.141-3.037,53.135,53.135,0,0,1-18.225-9.477,44.574,44.574,0,0,1-7.229-7.351,50.821,50.821,0,0,1-5.65-9.173,45.475,45.475,0,0,1-3.233-9.253h38.495a17.5,17.5,0,0,0,5.44,4.271,24.3,24.3,0,0,0,11.057,2.187c5,0,8.923-.9,11.664-2.673a16.14,16.14,0,0,0,4.133-3.785h40.535a47.511,47.511,0,0,1-7.489,17.515,41.345,41.345,0,0,1-7.412,8.141,54.727,54.727,0,0,1-10.084,6.682,49.307,49.307,0,0,1-13.426,4.465A92.967,92.967,0,0,1,933.339,181.62Zm-848.07,0a100.115,100.115,0,0,1-18.924-1.731,81.022,81.022,0,0,1-31.59-13.426,74.31,74.31,0,0,1-12.18-10.844,81.282,81.282,0,0,1-9.109-12.29H60.92c.8.512,1.633,1.009,2.478,1.477a37.91,37.91,0,0,0,9.963,3.736,57.535,57.535,0,0,0,23.814,0,37.9,37.9,0,0,0,9.963-3.736c.844-.468,1.678-.964,2.479-1.477h47.455a81.271,81.271,0,0,1-9.109,12.29,74.909,74.909,0,0,1-12.15,10.844,81.388,81.388,0,0,1-14.58,8.232,79.592,79.592,0,0,1-16.888,5.194A101.281,101.281,0,0,1,85.269,181.62Zm1812.294-3.887h-43.011l-11.131-34.4h65.561l-11.42,34.4Zm204.12,0H1969.977v-34.4h38.151v2.327h93.555v32.075Zm-499.851,0h-38.151a67.549,67.549,0,0,1-3.888-19.683c-.321-5.023-.754-9.975-1.288-14.72h36.385c.047,1.008.092,2.007.138,3.056.161,3.708.448,7.551.851,11.421a76.955,76.955,0,0,0,1.944,11.057,25.659,25.659,0,0,0,4.008,8.868Zm-111.294,0h-38.151v-34.4h38.151v34.4Zm-314.2,0h-84.078v-34.4h38.151v4.757h40.824a51.165,51.165,0,0,0,10.692-1.093,26.367,26.367,0,0,0,8.991-3.645l.012-.008.017-.011h44.37a40.463,40.463,0,0,1-2.845,6.823,45.993,45.993,0,0,1-5.984,8.718,43.924,43.924,0,0,1-7.746,6.956,61.028,61.028,0,0,1-19.683,8.991A89.124,89.124,0,0,1,1176.339,177.732Zm-312.5,0H732.135v-34.4h38.151v2.327h93.555v32.075Zm-157.707,0H667.983a67.575,67.575,0,0,1-3.888-19.683c-.321-5.023-.754-9.975-1.287-14.72h36.384c.047,1.008.092,2.007.138,3.056.161,3.708.447,7.551.851,11.421a76.963,76.963,0,0,0,1.944,11.057,25.651,25.651,0,0,0,4.009,8.868Zm-111.294,0H556.689v-34.4H594.84v34.4Zm-143.37,0H376.626v-34.4h38.151v2.327H448.8a49.218,49.218,0,0,0,15-2.327h53.536a71.828,71.828,0,0,1-6.688,9.374,66.874,66.874,0,0,1-11.057,10.419,72.994,72.994,0,0,1-13.486,7.928,71.419,71.419,0,0,1-16.008,5.012A98.733,98.733,0,0,1,451.47,177.732Zm-108.378,0H304.941l-21.376-34.4h59.527v34.4Zm-110.808,0H196.563v-34.4h35.721v34.4ZM302.6,113.737h0l-37.419,0L232.77,61.578h-.486v52.158H196.563V4.23h37.908L302.6,113.736Zm1358.6,0H1622.44a111.056,111.056,0,0,1-2.14-22.026,117.889,117.889,0,0,1,1.458-18.742,101.613,101.613,0,0,1,4.374-17.344,92.165,92.165,0,0,1,7.108-15.583,83.43,83.43,0,0,1,9.659-13.456,74.656,74.656,0,0,1,12.181-11.056,80.863,80.863,0,0,1,14.671-8.384,79.932,79.932,0,0,1,16.919-5.285A98.438,98.438,0,0,1,1705.593.1a99.581,99.581,0,0,1,19.076,1.762,78.58,78.58,0,0,1,16.889,5.285,80.748,80.748,0,0,1,14.58,8.384,75.29,75.29,0,0,1,12.15,11.056,83.43,83.43,0,0,1,9.659,13.456,92.186,92.186,0,0,1,7.108,15.583,101.649,101.649,0,0,1,4.374,17.344,117.9,117.9,0,0,1,1.458,18.742,111.045,111.045,0,0,1-2.14,22.025H1749.99c.059-.227.123-.476.194-.763a88.727,88.727,0,0,0,2.551-21.262,95.384,95.384,0,0,0-2.551-22.113,58.834,58.834,0,0,0-8.141-19.076,41.3,41.3,0,0,0-6.439-7.533,42.609,42.609,0,0,0-8.141-5.832,37.9,37.9,0,0,0-9.963-3.736,57.535,57.535,0,0,0-23.814,0,37.91,37.91,0,0,0-9.963,3.736,42.587,42.587,0,0,0-8.141,5.832,41.3,41.3,0,0,0-6.439,7.533A58.837,58.837,0,0,0,1661,69.6a95.4,95.4,0,0,0-2.551,22.113A88.746,88.746,0,0,0,1661,112.973c.066.266.131.522.194.763Zm-364.5,0H1257.94a111.056,111.056,0,0,1-2.14-22.026,117.889,117.889,0,0,1,1.458-18.742,101.613,101.613,0,0,1,4.374-17.344,92.165,92.165,0,0,1,7.108-15.583,83.43,83.43,0,0,1,9.659-13.456,74.656,74.656,0,0,1,12.181-11.056,80.863,80.863,0,0,1,14.671-8.384,79.941,79.941,0,0,1,16.919-5.285A98.438,98.438,0,0,1,1341.093.1a99.581,99.581,0,0,1,19.076,1.762,78.592,78.592,0,0,1,16.888,5.285,80.746,80.746,0,0,1,14.58,8.384,75.27,75.27,0,0,1,12.15,11.056,83.435,83.435,0,0,1,9.659,13.456,92.186,92.186,0,0,1,7.108,15.583,101.649,101.649,0,0,1,4.374,17.344,117.9,117.9,0,0,1,1.458,18.742,111.02,111.02,0,0,1-2.14,22.025H1385.49c.059-.227.123-.476.194-.763a88.727,88.727,0,0,0,2.551-21.262,95.384,95.384,0,0,0-2.551-22.113,58.85,58.85,0,0,0-8.141-19.076,41.3,41.3,0,0,0-6.439-7.533,42.609,42.609,0,0,0-8.141-5.832A37.9,37.9,0,0,0,1353,33.421a57.535,57.535,0,0,0-23.814,0,37.9,37.9,0,0,0-9.963,3.736,42.587,42.587,0,0,0-8.141,5.832,41.3,41.3,0,0,0-6.439,7.533A58.837,58.837,0,0,0,1296.5,69.6a95.4,95.4,0,0,0-2.551,22.113,88.746,88.746,0,0,0,2.551,21.262c.066.266.131.522.194.763Zm-1255.824,0H2.116A111.051,111.051,0,0,1-.024,91.71,117.9,117.9,0,0,1,1.434,72.968,101.64,101.64,0,0,1,5.808,55.625a92.177,92.177,0,0,1,7.108-15.583,83.433,83.433,0,0,1,9.659-13.456A74.639,74.639,0,0,1,34.755,15.53,80.86,80.86,0,0,1,49.426,7.146,79.929,79.929,0,0,1,66.345,1.861,98.437,98.437,0,0,1,85.269.1a99.584,99.584,0,0,1,19.076,1.762,78.593,78.593,0,0,1,16.888,5.285,80.744,80.744,0,0,1,14.58,8.384,75.277,75.277,0,0,1,12.15,11.056,83.433,83.433,0,0,1,9.659,13.456,92.177,92.177,0,0,1,7.108,15.583A101.64,101.64,0,0,1,169.1,72.968a117.9,117.9,0,0,1,1.458,18.742,111.038,111.038,0,0,1-2.14,22.025H129.666c.064-.248.128-.5.193-.763a88.735,88.735,0,0,0,2.552-21.262A95.378,95.378,0,0,0,129.859,69.6a58.828,58.828,0,0,0-8.14-19.076,41.29,41.29,0,0,0-6.439-7.533,42.607,42.607,0,0,0-8.141-5.832,37.9,37.9,0,0,0-9.963-3.736,57.535,57.535,0,0,0-23.814,0A37.91,37.91,0,0,0,63.4,37.156a42.588,42.588,0,0,0-8.141,5.832,41.3,41.3,0,0,0-6.439,7.533A58.836,58.836,0,0,0,40.678,69.6,95.378,95.378,0,0,0,38.127,91.71a88.735,88.735,0,0,0,2.552,21.262c.06.244.123.494.193.763Zm1449.666,0h-38.151V4.23h93.555A56.109,56.109,0,0,1,1566.961,8,48.61,48.61,0,0,1,1583,18.324a45.05,45.05,0,0,1,10.206,15.187,48.913,48.913,0,0,1,3.524,18.589,60.6,60.6,0,0,1-1.61,14.276,46.392,46.392,0,0,1-4.83,12.211,35.392,35.392,0,0,1-8.475,9.841A48.525,48.525,0,0,1,1569.27,95.6v.486a29.573,29.573,0,0,1,11.664,5.954,33.177,33.177,0,0,1,7.533,9.477c.383.718.753,1.465,1.1,2.22H1546.1a24.667,24.667,0,0,0-7.5-2.85,46.949,46.949,0,0,0-9.914-.95h-38.151v3.8Zm0-79.861V82.719h41.8a40.766,40.766,0,0,0,11.482-1.458,21.3,21.3,0,0,0,8.2-4.374,17.861,17.861,0,0,0,4.921-7.654,34.821,34.821,0,0,0,1.64-11.3,32.6,32.6,0,0,0-1.64-10.9,17.488,17.488,0,0,0-4.921-7.442,21.455,21.455,0,0,0-8.2-4.283,41.585,41.585,0,0,0-11.482-1.428Zm-360.126,79.861h-38.151V4.23h81.648a108.546,108.546,0,0,1,22.6,2.187,49.02,49.02,0,0,1,17.5,7.169,32.881,32.881,0,0,1,6.47,5.8,35,35,0,0,1,4.829,7.442,37.929,37.929,0,0,1,3.007,9.234,58.364,58.364,0,0,1,1,11.178,45.918,45.918,0,0,1-1.489,12.029,32.672,32.672,0,0,1-4.465,9.841,37.545,37.545,0,0,1-7.381,7.958,51.4,51.4,0,0,1-10.236,6.379,49.347,49.347,0,0,1,14,6.348,37.117,37.117,0,0,1,9.932,9.811,43.807,43.807,0,0,1,6.3,14.127h-38.457a17.358,17.358,0,0,0-5.627-7.567,26.449,26.449,0,0,0-8.748-4.283,40.742,40.742,0,0,0-11.178-1.427h-41.553v13.278Zm0-79.861V74.457h38.637a33.487,33.487,0,0,0,9.3-1.215,23.454,23.454,0,0,0,7.472-3.645,14.925,14.925,0,0,0,4.921-6.379,24.6,24.6,0,0,0,1.64-9.416,20.258,20.258,0,0,0-2.187-9.963,16.249,16.249,0,0,0-5.832-6.075,24.7,24.7,0,0,0-8.384-3.038,55.9,55.9,0,0,0-9.841-.851ZM991.173,113.737H953.022V4.23h38.151V113.736Zm-396.333,0H556.689V4.23h93.555A56.109,56.109,0,0,1,671.263,8,48.607,48.607,0,0,1,687.3,18.324a45.041,45.041,0,0,1,10.206,15.187A48.913,48.913,0,0,1,701.031,52.1a60.6,60.6,0,0,1-1.61,14.276,46.388,46.388,0,0,1-4.83,12.211,35.391,35.391,0,0,1-8.475,9.841A48.524,48.524,0,0,1,673.572,95.6v.486a29.572,29.572,0,0,1,11.664,5.954,33.168,33.168,0,0,1,7.533,9.477c.383.718.753,1.465,1.1,2.22H650.406a24.667,24.667,0,0,0-7.5-2.85,46.95,46.95,0,0,0-9.914-.95H594.84v3.8Zm0-79.861V82.719h41.8a40.766,40.766,0,0,0,11.482-1.458,21.307,21.307,0,0,0,8.2-4.374,17.863,17.863,0,0,0,4.921-7.654,34.823,34.823,0,0,0,1.64-11.3,32.6,32.6,0,0,0-1.64-10.9,17.487,17.487,0,0,0-4.921-7.442,21.459,21.459,0,0,0-8.2-4.283,41.586,41.586,0,0,0-11.482-1.428ZM414.777,113.737H376.626V4.23H451.47a96.254,96.254,0,0,1,16.19,1.336A84.615,84.615,0,0,1,482.7,9.576a70.061,70.061,0,0,1,13.486,6.683,66.955,66.955,0,0,1,20.959,21.384,82.809,82.809,0,0,1,7.108,14.7,91.153,91.153,0,0,1,4.465,17.435,130.321,130.321,0,0,1,1.488,20.23,128.773,128.773,0,0,1-2.113,23.726H489.734a78.371,78.371,0,0,0,2.317-20.082A101.637,101.637,0,0,0,489.5,69.961a47.478,47.478,0,0,0-8.383-18.1,35.3,35.3,0,0,0-6.774-6.652,40.5,40.5,0,0,0-8.657-4.89,49.211,49.211,0,0,0-10.723-3.007,78.3,78.3,0,0,0-12.97-1H414.777v77.43Zm1504.029,0h-38.138L1915.788,4.23h39.366l-36.349,109.506Zm-46.581,0h-38.377L1798.419,4.23h39.123l34.684,109.506Zm408.987,0h-37.056c.154-.925.292-1.876.411-2.829H2281.5c-.085.955-.184,1.906-.291,2.827Zm-120.407,0h-38.756a111.026,111.026,0,0,1-2.14-22.026,117.889,117.889,0,0,1,1.458-18.742,101.6,101.6,0,0,1,4.374-17.344,92.184,92.184,0,0,1,7.108-15.583,83.453,83.453,0,0,1,9.66-13.456,74.616,74.616,0,0,1,12.18-11.056,80.868,80.868,0,0,1,14.671-8.384,79.939,79.939,0,0,1,16.919-5.285A98.436,98.436,0,0,1,2205.2.1a92.841,92.841,0,0,1,13.942,1.032,83.835,83.835,0,0,1,13.152,3.1A76.77,76.77,0,0,1,2244.385,9.3a71.554,71.554,0,0,1,10.752,6.956,63.618,63.618,0,0,1,9.2,8.839,68.014,68.014,0,0,1,7.442,10.722,64.254,64.254,0,0,1,5.346,12.514,77.84,77.84,0,0,1,2.916,14.216h-36.936a31.293,31.293,0,0,0-4.374-12.029,38.522,38.522,0,0,0-8.505-9.6,39.392,39.392,0,0,0-11.542-6.44,39.843,39.843,0,0,0-13.486-2.308,53.832,53.832,0,0,0-11.907,1.246,37.9,37.9,0,0,0-9.963,3.736,42.6,42.6,0,0,0-8.141,5.832,41.283,41.283,0,0,0-6.439,7.533,58.829,58.829,0,0,0-8.14,19.076,95.359,95.359,0,0,0-2.552,22.113,88.718,88.718,0,0,0,2.552,21.262c.06.245.125.5.193.762Zm-152.676,0h-38.151V4.23h129.762V36.306h-91.611V73.485h84.078v29.646h-84.078v10.6Zm-1097.388,0H876.234v-.642H910.74v.641Zm-140.454,0H732.135V4.23H861.9V36.306H770.286V73.485h84.078v29.646H770.286v10.6Zm-427.194,0H307.371V4.23h35.721Z" transform="translate(85.963 0.6) rotate(28)" fill="#e5e5e5" stroke="rgba(0,0,0,0)" stroke-miterlimit="10" stroke-width="1"/></svg>