<svg xmlns="http://www.w3.org/2000/svg" width="883.428" height="241.158" viewBox="0 0 883.428 241.158">
  <g id="ChracterLowerSpriteSheet" transform="translate(-370.221 -767.397)">
    <g id="CharacterLower" transform="translate(22)">
      <g id="Path_43" data-name="Path 43" transform="translate(367.892 953.537) rotate(14)">
        <path d="M 22.22725296020508 27.73321151733398 C 17.5848388671875 27.73321151733398 12.95298671722412 27.30379867553711 8.832399368286133 26.49142456054688 C 4.62782621383667 25.66247940063477 0.9387596249580383 24.42915916442871 -1.835947036743164 22.92478561401367 C -3.720773696899414 21.90290451049805 -4.846760272979736 20.50333213806152 -5.379520416259766 18.5202522277832 C -6.157320499420166 15.62506484985352 -5.611173629760742 11.56811904907227 -3.80016040802002 6.787998676300049 C -2.924900531768799 4.477797508239746 -1.938324928283691 2.502219676971436 -1.277933955192566 1.273037314414978 C 3.289616584777832 0.5267184376716614 16.80845642089844 -1.500001430511475 28.89835929870605 -1.500001430511475 C 39.19206619262695 -1.500001430511475 44.03791809082031 -0.04421475529670715 46.29045486450195 1.177051901817322 C 51.25856018066406 3.870598554611206 54.10790634155273 7.833971977233887 54.10790634155273 12.05091857910156 C 54.10790634155273 16.26786613464355 51.25856018066406 20.23123931884766 46.29045486450195 22.92478561401367 C 43.5157470703125 24.42915916442871 39.82667922973633 25.66247940063477 35.62210464477539 26.49142456054688 C 31.50152015686035 27.30379867553711 26.86966705322266 27.73321151733398 22.22725296020508 27.73321151733398 Z" stroke="none"/>
        <path d="M 28.89835357666016 2.000001907348633 C 18.32233238220215 2.000001907348633 6.581478118896484 3.592842102050781 1.012805938720703 4.452999114990234 C -0.8502998352050781 8.302751541137695 -2.935596466064453 14.11218452453613 -2.000782012939453 17.60695266723633 C -1.719982147216797 18.65668487548828 -1.206047058105469 19.28498458862305 -0.1677627563476563 19.84791946411133 C 4.896934509277344 22.59385108947754 13.2689037322998 24.23320198059082 22.22725296020508 24.23320198059082 C 31.18558502197266 24.23320198059082 39.55755233764648 22.59383583068848 44.62226867675781 19.84791946411133 C 48.42623519897461 17.78553581237793 50.60790252685547 14.94363498687744 50.60790252685547 12.05091857910156 C 50.60790252685547 9.158202171325684 48.42623519897461 6.316301345825195 44.62225341796875 4.253917694091797 C 43.06966781616211 3.412151336669922 38.96236801147461 2.000001907348633 28.89835357666016 2.000001907348633 M 28.89834976196289 -5.000001907348633 C 36.52350997924805 -5.000001907348633 43.66954803466797 -4.225242614746094 47.95863723754883 -1.899831771850586 C 60.82433700561523 5.075534820556641 60.82433700561523 19.02630233764648 47.95863723754883 26.00166893005371 C 41.52578735351563 29.48936080932617 31.87651443481445 31.23320579528809 22.22724723815918 31.23320579528809 C 12.57797813415527 31.23320579528809 2.9287109375 29.48936080932617 -3.504131317138672 26.00166893005371 C -16.36983108520508 19.02630233764648 -3.504131317138672 -1.899831771850586 -3.504131317138672 -1.899831771850586 C -3.504131317138672 -1.899831771850586 13.65081977844238 -5.000001907348633 28.89834976196289 -5.000001907348633 Z" stroke="none"/>
      </g>
      <g id="Path_44" data-name="Path 44" transform="matrix(0.978, 0.208, -0.208, 0.978, 440.256, 953.257)">
        <path d="M 22.22725296020508 27.73321151733398 C 17.5848388671875 27.73321151733398 12.95298671722412 27.30379867553711 8.832399368286133 26.49142456054688 C 4.62782621383667 25.66247940063477 0.9387596249580383 24.42915916442871 -1.835947036743164 22.92478561401367 C -3.720773696899414 21.90290451049805 -4.846760272979736 20.50333213806152 -5.379520416259766 18.5202522277832 C -6.157320499420166 15.62506484985352 -5.611173629760742 11.56811904907227 -3.80016040802002 6.787998676300049 C -2.924900531768799 4.477797508239746 -1.938324928283691 2.502219676971436 -1.277933955192566 1.273037314414978 C 3.289616584777832 0.5267184376716614 16.80845642089844 -1.500001430511475 28.89835929870605 -1.500001430511475 C 39.19206619262695 -1.500001430511475 44.03791809082031 -0.04421475529670715 46.29045486450195 1.177051901817322 C 51.25856018066406 3.870598554611206 54.10790634155273 7.833971977233887 54.10790634155273 12.05091857910156 C 54.10790634155273 16.26786613464355 51.25856018066406 20.23123931884766 46.29045486450195 22.92478561401367 C 43.5157470703125 24.42915916442871 39.82667922973633 25.66247940063477 35.62210464477539 26.49142456054688 C 31.50152015686035 27.30379867553711 26.86966705322266 27.73321151733398 22.22725296020508 27.73321151733398 Z" stroke="none"/>
        <path d="M 28.89835357666016 2.000001907348633 C 18.32233238220215 2.000001907348633 6.581478118896484 3.592842102050781 1.012805938720703 4.452999114990234 C -0.8502998352050781 8.302751541137695 -2.935596466064453 14.11218452453613 -2.000782012939453 17.60695266723633 C -1.719982147216797 18.65668487548828 -1.206047058105469 19.28498458862305 -0.1677627563476563 19.84791946411133 C 4.896934509277344 22.59385108947754 13.2689037322998 24.23320198059082 22.22725296020508 24.23320198059082 C 31.18558502197266 24.23320198059082 39.55755233764648 22.59383583068848 44.62226867675781 19.84791946411133 C 48.42623519897461 17.78553581237793 50.60790252685547 14.94363498687744 50.60790252685547 12.05091857910156 C 50.60790252685547 9.158202171325684 48.42623519897461 6.316301345825195 44.62225341796875 4.253917694091797 C 43.06966781616211 3.412151336669922 38.96236801147461 2.000001907348633 28.89835357666016 2.000001907348633 M 28.89834976196289 -5.000001907348633 C 36.52350997924805 -5.000001907348633 43.66954803466797 -4.225242614746094 47.95863723754883 -1.899831771850586 C 60.82433700561523 5.075534820556641 60.82433700561523 19.02630233764648 47.95863723754883 26.00166893005371 C 41.52578735351563 29.48936080932617 31.87651443481445 31.23320579528809 22.22724723815918 31.23320579528809 C 12.57797813415527 31.23320579528809 2.9287109375 29.48936080932617 -3.504131317138672 26.00166893005371 C -16.36983108520508 19.02630233764648 -3.504131317138672 -1.899831771850586 -3.504131317138672 -1.899831771850586 C -3.504131317138672 -1.899831771850586 13.65081977844238 -5.000001907348633 28.89834976196289 -5.000001907348633 Z" stroke="none"/>
      </g>
      <path id="Path_205" data-name="Path 205" d="M57.554.6c61.635-.844,75.2,116.4,60.72,164s-100.2,41-115.385,0S-4.081,1.441,57.554.6Z" transform="translate(362.276 770.999) rotate(3)" fill="#1a1a1a"/>
      <path id="Path_40" data-name="Path 40" d="M57.554.6c61.635-.844,75.2,116.4,60.72,164s-100.2,41-115.385,0S-4.081,1.441,57.554.6Z" transform="translate(368.276 766.999) rotate(3)" fill="#303030"/>
    </g>
    <g id="CharacterLower-2" data-name="CharacterLower" transform="translate(171)">
      <g id="Path_43-2" data-name="Path 43" transform="translate(380.361 945.735) rotate(45)">
        <path d="M 22.22725296020508 27.73321151733398 C 17.5848388671875 27.73321151733398 12.95298671722412 27.30379867553711 8.832399368286133 26.49142456054688 C 4.62782621383667 25.66247940063477 0.9387596249580383 24.42915916442871 -1.835947036743164 22.92478561401367 C -3.720773696899414 21.90290451049805 -4.846760272979736 20.50333213806152 -5.379520416259766 18.5202522277832 C -6.157320499420166 15.62506484985352 -5.611173629760742 11.56811904907227 -3.80016040802002 6.787998676300049 C -2.924900531768799 4.477797508239746 -1.938324928283691 2.502219676971436 -1.277933955192566 1.273037314414978 C 3.289616584777832 0.5267184376716614 16.80845642089844 -1.500001430511475 28.89835929870605 -1.500001430511475 C 39.19206619262695 -1.500001430511475 44.03791809082031 -0.04421475529670715 46.29045486450195 1.177051901817322 C 51.25856018066406 3.870598554611206 54.10790634155273 7.833971977233887 54.10790634155273 12.05091857910156 C 54.10790634155273 16.26786613464355 51.25856018066406 20.23123931884766 46.29045486450195 22.92478561401367 C 43.5157470703125 24.42915916442871 39.82667922973633 25.66247940063477 35.62210464477539 26.49142456054688 C 31.50152015686035 27.30379867553711 26.86966705322266 27.73321151733398 22.22725296020508 27.73321151733398 Z" stroke="none"/>
        <path d="M 28.89835357666016 2.000001907348633 C 18.32233238220215 2.000001907348633 6.581478118896484 3.592842102050781 1.012805938720703 4.452999114990234 C -0.8502998352050781 8.302751541137695 -2.935596466064453 14.11218452453613 -2.000782012939453 17.60695266723633 C -1.719982147216797 18.65668487548828 -1.206047058105469 19.28498458862305 -0.1677627563476563 19.84791946411133 C 4.896934509277344 22.59385108947754 13.2689037322998 24.23320198059082 22.22725296020508 24.23320198059082 C 31.18558502197266 24.23320198059082 39.55755233764648 22.59383583068848 44.62226867675781 19.84791946411133 C 48.42623519897461 17.78553581237793 50.60790252685547 14.94363498687744 50.60790252685547 12.05091857910156 C 50.60790252685547 9.158202171325684 48.42623519897461 6.316301345825195 44.62225341796875 4.253917694091797 C 43.06966781616211 3.412151336669922 38.96236801147461 2.000001907348633 28.89835357666016 2.000001907348633 M 28.89834976196289 -5.000001907348633 C 36.52350997924805 -5.000001907348633 43.66954803466797 -4.225242614746094 47.95863723754883 -1.899831771850586 C 60.82433700561523 5.075534820556641 60.82433700561523 19.02630233764648 47.95863723754883 26.00166893005371 C 41.52578735351563 29.48936080932617 31.87651443481445 31.23320579528809 22.22724723815918 31.23320579528809 C 12.57797813415527 31.23320579528809 2.9287109375 29.48936080932617 -3.504131317138672 26.00166893005371 C -16.36983108520508 19.02630233764648 -3.504131317138672 -1.899831771850586 -3.504131317138672 -1.899831771850586 C -3.504131317138672 -1.899831771850586 13.65081977844238 -5.000001907348633 28.89834976196289 -5.000001907348633 Z" stroke="none"/>
      </g>
      <g id="Path_44-2" data-name="Path 44" transform="translate(451.54 945.345) rotate(41)">
        <path d="M 22.22725296020508 27.73321151733398 C 17.5848388671875 27.73321151733398 12.95298671722412 27.30379867553711 8.832399368286133 26.49142456054688 C 4.62782621383667 25.66247940063477 0.9387596249580383 24.42915916442871 -1.835947036743164 22.92478561401367 C -3.720773696899414 21.90290451049805 -4.846760272979736 20.50333213806152 -5.379520416259766 18.5202522277832 C -6.157320499420166 15.62506484985352 -5.611173629760742 11.56811904907227 -3.80016040802002 6.787998676300049 C -2.924900531768799 4.477797508239746 -1.938324928283691 2.502219676971436 -1.277933955192566 1.273037314414978 C 3.289616584777832 0.5267184376716614 16.80845642089844 -1.500001430511475 28.89835929870605 -1.500001430511475 C 39.19206619262695 -1.500001430511475 44.03791809082031 -0.04421475529670715 46.29045486450195 1.177051901817322 C 51.25856018066406 3.870598554611206 54.10790634155273 7.833971977233887 54.10790634155273 12.05091857910156 C 54.10790634155273 16.26786613464355 51.25856018066406 20.23123931884766 46.29045486450195 22.92478561401367 C 43.5157470703125 24.42915916442871 39.82667922973633 25.66247940063477 35.62210464477539 26.49142456054688 C 31.50152015686035 27.30379867553711 26.86966705322266 27.73321151733398 22.22725296020508 27.73321151733398 Z" stroke="none"/>
        <path d="M 28.89835357666016 2.000001907348633 C 18.32233238220215 2.000001907348633 6.581478118896484 3.592842102050781 1.012805938720703 4.452999114990234 C -0.8502998352050781 8.302751541137695 -2.935596466064453 14.11218452453613 -2.000782012939453 17.60695266723633 C -1.719982147216797 18.65668487548828 -1.206047058105469 19.28498458862305 -0.1677627563476563 19.84791946411133 C 4.896934509277344 22.59385108947754 13.2689037322998 24.23320198059082 22.22725296020508 24.23320198059082 C 31.18558502197266 24.23320198059082 39.55755233764648 22.59383583068848 44.62226867675781 19.84791946411133 C 48.42623519897461 17.78553581237793 50.60790252685547 14.94363498687744 50.60790252685547 12.05091857910156 C 50.60790252685547 9.158202171325684 48.42623519897461 6.316301345825195 44.62225341796875 4.253917694091797 C 43.06966781616211 3.412151336669922 38.96236801147461 2.000001907348633 28.89835357666016 2.000001907348633 M 28.89834976196289 -5.000001907348633 C 36.52350997924805 -5.000001907348633 43.66954803466797 -4.225242614746094 47.95863723754883 -1.899831771850586 C 60.82433700561523 5.075534820556641 60.82433700561523 19.02630233764648 47.95863723754883 26.00166893005371 C 41.52578735351563 29.48936080932617 31.87651443481445 31.23320579528809 22.22724723815918 31.23320579528809 C 12.57797813415527 31.23320579528809 2.9287109375 29.48936080932617 -3.504131317138672 26.00166893005371 C -16.36983108520508 19.02630233764648 -3.504131317138672 -1.899831771850586 -3.504131317138672 -1.899831771850586 C -3.504131317138672 -1.899831771850586 13.65081977844238 -5.000001907348633 28.89834976196289 -5.000001907348633 Z" stroke="none"/>
      </g>
      <path id="Path_205-2" data-name="Path 205" d="M57.554.6c61.635-.844,75.2,116.4,60.72,164s-100.2,41-115.385,0S-4.081,1.441,57.554.6Z" transform="translate(362.276 770.999) rotate(3)" fill="#1a1a1a"/>
      <path id="Path_40-2" data-name="Path 40" d="M57.554.6c61.635-.844,75.2,116.4,60.72,164s-100.2,41-115.385,0S-4.081,1.441,57.554.6Z" transform="translate(368.276 766.999) rotate(3)" fill="#303030"/>
    </g>
    <g id="CharacterLower-3" data-name="CharacterLower" transform="translate(321)">
      <g id="Path_43-3" data-name="Path 43" transform="translate(367.892 953.537) rotate(14)">
        <path d="M 22.22725296020508 27.73321151733398 C 17.5848388671875 27.73321151733398 12.95298671722412 27.30379867553711 8.832399368286133 26.49142456054688 C 4.62782621383667 25.66247940063477 0.9387596249580383 24.42915916442871 -1.835947036743164 22.92478561401367 C -3.720773696899414 21.90290451049805 -4.846760272979736 20.50333213806152 -5.379520416259766 18.5202522277832 C -6.157320499420166 15.62506484985352 -5.611173629760742 11.56811904907227 -3.80016040802002 6.787998676300049 C -2.924900531768799 4.477797508239746 -1.938324928283691 2.502219676971436 -1.277933955192566 1.273037314414978 C 3.289616584777832 0.5267184376716614 16.80845642089844 -1.500001430511475 28.89835929870605 -1.500001430511475 C 39.19206619262695 -1.500001430511475 44.03791809082031 -0.04421475529670715 46.29045486450195 1.177051901817322 C 51.25856018066406 3.870598554611206 54.10790634155273 7.833971977233887 54.10790634155273 12.05091857910156 C 54.10790634155273 16.26786613464355 51.25856018066406 20.23123931884766 46.29045486450195 22.92478561401367 C 43.5157470703125 24.42915916442871 39.82667922973633 25.66247940063477 35.62210464477539 26.49142456054688 C 31.50152015686035 27.30379867553711 26.86966705322266 27.73321151733398 22.22725296020508 27.73321151733398 Z" stroke="none"/>
        <path d="M 28.89835357666016 2.000001907348633 C 18.32233238220215 2.000001907348633 6.581478118896484 3.592842102050781 1.012805938720703 4.452999114990234 C -0.8502998352050781 8.302751541137695 -2.935596466064453 14.11218452453613 -2.000782012939453 17.60695266723633 C -1.719982147216797 18.65668487548828 -1.206047058105469 19.28498458862305 -0.1677627563476563 19.84791946411133 C 4.896934509277344 22.59385108947754 13.2689037322998 24.23320198059082 22.22725296020508 24.23320198059082 C 31.18558502197266 24.23320198059082 39.55755233764648 22.59383583068848 44.62226867675781 19.84791946411133 C 48.42623519897461 17.78553581237793 50.60790252685547 14.94363498687744 50.60790252685547 12.05091857910156 C 50.60790252685547 9.158202171325684 48.42623519897461 6.316301345825195 44.62225341796875 4.253917694091797 C 43.06966781616211 3.412151336669922 38.96236801147461 2.000001907348633 28.89835357666016 2.000001907348633 M 28.89834976196289 -5.000001907348633 C 36.52350997924805 -5.000001907348633 43.66954803466797 -4.225242614746094 47.95863723754883 -1.899831771850586 C 60.82433700561523 5.075534820556641 60.82433700561523 19.02630233764648 47.95863723754883 26.00166893005371 C 41.52578735351563 29.48936080932617 31.87651443481445 31.23320579528809 22.22724723815918 31.23320579528809 C 12.57797813415527 31.23320579528809 2.9287109375 29.48936080932617 -3.504131317138672 26.00166893005371 C -16.36983108520508 19.02630233764648 -3.504131317138672 -1.899831771850586 -3.504131317138672 -1.899831771850586 C -3.504131317138672 -1.899831771850586 13.65081977844238 -5.000001907348633 28.89834976196289 -5.000001907348633 Z" stroke="none"/>
      </g>
      <g id="Path_44-3" data-name="Path 44" transform="matrix(0.978, 0.208, -0.208, 0.978, 440.256, 953.257)">
        <path d="M 22.22725296020508 27.73321151733398 C 17.5848388671875 27.73321151733398 12.95298671722412 27.30379867553711 8.832399368286133 26.49142456054688 C 4.62782621383667 25.66247940063477 0.9387596249580383 24.42915916442871 -1.835947036743164 22.92478561401367 C -3.720773696899414 21.90290451049805 -4.846760272979736 20.50333213806152 -5.379520416259766 18.5202522277832 C -6.157320499420166 15.62506484985352 -5.611173629760742 11.56811904907227 -3.80016040802002 6.787998676300049 C -2.924900531768799 4.477797508239746 -1.938324928283691 2.502219676971436 -1.277933955192566 1.273037314414978 C 3.289616584777832 0.5267184376716614 16.80845642089844 -1.500001430511475 28.89835929870605 -1.500001430511475 C 39.19206619262695 -1.500001430511475 44.03791809082031 -0.04421475529670715 46.29045486450195 1.177051901817322 C 51.25856018066406 3.870598554611206 54.10790634155273 7.833971977233887 54.10790634155273 12.05091857910156 C 54.10790634155273 16.26786613464355 51.25856018066406 20.23123931884766 46.29045486450195 22.92478561401367 C 43.5157470703125 24.42915916442871 39.82667922973633 25.66247940063477 35.62210464477539 26.49142456054688 C 31.50152015686035 27.30379867553711 26.86966705322266 27.73321151733398 22.22725296020508 27.73321151733398 Z" stroke="none"/>
        <path d="M 28.89835357666016 2.000001907348633 C 18.32233238220215 2.000001907348633 6.581478118896484 3.592842102050781 1.012805938720703 4.452999114990234 C -0.8502998352050781 8.302751541137695 -2.935596466064453 14.11218452453613 -2.000782012939453 17.60695266723633 C -1.719982147216797 18.65668487548828 -1.206047058105469 19.28498458862305 -0.1677627563476563 19.84791946411133 C 4.896934509277344 22.59385108947754 13.2689037322998 24.23320198059082 22.22725296020508 24.23320198059082 C 31.18558502197266 24.23320198059082 39.55755233764648 22.59383583068848 44.62226867675781 19.84791946411133 C 48.42623519897461 17.78553581237793 50.60790252685547 14.94363498687744 50.60790252685547 12.05091857910156 C 50.60790252685547 9.158202171325684 48.42623519897461 6.316301345825195 44.62225341796875 4.253917694091797 C 43.06966781616211 3.412151336669922 38.96236801147461 2.000001907348633 28.89835357666016 2.000001907348633 M 28.89834976196289 -5.000001907348633 C 36.52350997924805 -5.000001907348633 43.66954803466797 -4.225242614746094 47.95863723754883 -1.899831771850586 C 60.82433700561523 5.075534820556641 60.82433700561523 19.02630233764648 47.95863723754883 26.00166893005371 C 41.52578735351563 29.48936080932617 31.87651443481445 31.23320579528809 22.22724723815918 31.23320579528809 C 12.57797813415527 31.23320579528809 2.9287109375 29.48936080932617 -3.504131317138672 26.00166893005371 C -16.36983108520508 19.02630233764648 -3.504131317138672 -1.899831771850586 -3.504131317138672 -1.899831771850586 C -3.504131317138672 -1.899831771850586 13.65081977844238 -5.000001907348633 28.89834976196289 -5.000001907348633 Z" stroke="none"/>
      </g>
      <path id="Path_205-3" data-name="Path 205" d="M57.554.6c61.635-.844,75.2,116.4,60.72,164s-100.2,41-115.385,0S-4.081,1.441,57.554.6Z" transform="translate(362.276 770.999) rotate(3)" fill="#1a1a1a"/>
      <path id="Path_40-3" data-name="Path 40" d="M57.554.6c61.635-.844,75.2,116.4,60.72,164s-100.2,41-115.385,0S-4.081,1.441,57.554.6Z" transform="translate(368.276 766.999) rotate(3)" fill="#303030"/>
    </g>
    <g id="CharacterLower-4" data-name="CharacterLower" transform="translate(619)">
      <g id="Path_43-4" data-name="Path 43" transform="translate(405 962)">
        <path d="M 22.22725296020508 27.73321151733398 C 17.5848388671875 27.73321151733398 12.95298671722412 27.30379867553711 8.832399368286133 26.49142456054688 C 4.62782621383667 25.66247940063477 0.9387596249580383 24.42915916442871 -1.835947036743164 22.92478561401367 C -3.720773696899414 21.90290451049805 -4.846760272979736 20.50333213806152 -5.379520416259766 18.5202522277832 C -6.157320499420166 15.62506484985352 -5.611173629760742 11.56811904907227 -3.80016040802002 6.787998676300049 C -2.924900531768799 4.477797508239746 -1.938324928283691 2.502219676971436 -1.277933955192566 1.273037314414978 C 3.289616584777832 0.5267184376716614 16.80845642089844 -1.500001430511475 28.89835929870605 -1.500001430511475 C 39.19206619262695 -1.500001430511475 44.03791809082031 -0.04421475529670715 46.29045486450195 1.177051901817322 C 51.25856018066406 3.870598554611206 54.10790634155273 7.833971977233887 54.10790634155273 12.05091857910156 C 54.10790634155273 16.26786613464355 51.25856018066406 20.23123931884766 46.29045486450195 22.92478561401367 C 43.5157470703125 24.42915916442871 39.82667922973633 25.66247940063477 35.62210464477539 26.49142456054688 C 31.50152015686035 27.30379867553711 26.86966705322266 27.73321151733398 22.22725296020508 27.73321151733398 Z" stroke="none"/>
        <path d="M 28.89835357666016 2.000001907348633 C 18.32233238220215 2.000001907348633 6.581478118896484 3.592842102050781 1.012805938720703 4.452999114990234 C -0.8502998352050781 8.302751541137695 -2.935596466064453 14.11218452453613 -2.000782012939453 17.60695266723633 C -1.719982147216797 18.65668487548828 -1.206047058105469 19.28498458862305 -0.1677627563476563 19.84791946411133 C 4.896934509277344 22.59385108947754 13.2689037322998 24.23320198059082 22.22725296020508 24.23320198059082 C 31.18558502197266 24.23320198059082 39.55755233764648 22.59383583068848 44.62226867675781 19.84791946411133 C 48.42623519897461 17.78553581237793 50.60790252685547 14.94363498687744 50.60790252685547 12.05091857910156 C 50.60790252685547 9.158202171325684 48.42623519897461 6.316301345825195 44.62225341796875 4.253917694091797 C 43.06966781616211 3.412151336669922 38.96236801147461 2.000001907348633 28.89835357666016 2.000001907348633 M 28.89834976196289 -5.000001907348633 C 36.52350997924805 -5.000001907348633 43.66954803466797 -4.225242614746094 47.95863723754883 -1.899831771850586 C 60.82433700561523 5.075534820556641 60.82433700561523 19.02630233764648 47.95863723754883 26.00166893005371 C 41.52578735351563 29.48936080932617 31.87651443481445 31.23320579528809 22.22724723815918 31.23320579528809 C 12.57797813415527 31.23320579528809 2.9287109375 29.48936080932617 -3.504131317138672 26.00166893005371 C -16.36983108520508 19.02630233764648 -3.504131317138672 -1.899831771850586 -3.504131317138672 -1.899831771850586 C -3.504131317138672 -1.899831771850586 13.65081977844238 -5.000001907348633 28.89834976196289 -5.000001907348633 Z" stroke="none"/>
      </g>
      <g id="Path_44-4" data-name="Path 44" transform="translate(380.061 962.761) rotate(8)">
        <path d="M 22.22725296020508 27.73321151733398 C 17.5848388671875 27.73321151733398 12.95298671722412 27.30379867553711 8.832399368286133 26.49142456054688 C 4.62782621383667 25.66247940063477 0.9387596249580383 24.42915916442871 -1.835947036743164 22.92478561401367 C -3.720773696899414 21.90290451049805 -4.846760272979736 20.50333213806152 -5.379520416259766 18.5202522277832 C -6.157320499420166 15.62506484985352 -5.611173629760742 11.56811904907227 -3.80016040802002 6.787998676300049 C -2.924900531768799 4.477797508239746 -1.938324928283691 2.502219676971436 -1.277933955192566 1.273037314414978 C 3.289616584777832 0.5267184376716614 16.80845642089844 -1.500001430511475 28.89835929870605 -1.500001430511475 C 39.19206619262695 -1.500001430511475 44.03791809082031 -0.04421475529670715 46.29045486450195 1.177051901817322 C 51.25856018066406 3.870598554611206 54.10790634155273 7.833971977233887 54.10790634155273 12.05091857910156 C 54.10790634155273 16.26786613464355 51.25856018066406 20.23123931884766 46.29045486450195 22.92478561401367 C 43.5157470703125 24.42915916442871 39.82667922973633 25.66247940063477 35.62210464477539 26.49142456054688 C 31.50152015686035 27.30379867553711 26.86966705322266 27.73321151733398 22.22725296020508 27.73321151733398 Z" stroke="none"/>
        <path d="M 28.89835357666016 2.000001907348633 C 18.32233238220215 2.000001907348633 6.581478118896484 3.592842102050781 1.012805938720703 4.452999114990234 C -0.8502998352050781 8.302751541137695 -2.935596466064453 14.11218452453613 -2.000782012939453 17.60695266723633 C -1.719982147216797 18.65668487548828 -1.206047058105469 19.28498458862305 -0.1677627563476563 19.84791946411133 C 4.896934509277344 22.59385108947754 13.2689037322998 24.23320198059082 22.22725296020508 24.23320198059082 C 31.18558502197266 24.23320198059082 39.55755233764648 22.59383583068848 44.62226867675781 19.84791946411133 C 48.42623519897461 17.78553581237793 50.60790252685547 14.94363498687744 50.60790252685547 12.05091857910156 C 50.60790252685547 9.158202171325684 48.42623519897461 6.316301345825195 44.62225341796875 4.253917694091797 C 43.06966781616211 3.412151336669922 38.96236801147461 2.000001907348633 28.89835357666016 2.000001907348633 M 28.89834976196289 -5.000001907348633 C 36.52350997924805 -5.000001907348633 43.66954803466797 -4.225242614746094 47.95863723754883 -1.899831771850586 C 60.82433700561523 5.075534820556641 60.82433700561523 19.02630233764648 47.95863723754883 26.00166893005371 C 41.52578735351563 29.48936080932617 31.87651443481445 31.23320579528809 22.22724723815918 31.23320579528809 C 12.57797813415527 31.23320579528809 2.9287109375 29.48936080932617 -3.504131317138672 26.00166893005371 C -16.36983108520508 19.02630233764648 -3.504131317138672 -1.899831771850586 -3.504131317138672 -1.899831771850586 C -3.504131317138672 -1.899831771850586 13.65081977844238 -5.000001907348633 28.89834976196289 -5.000001907348633 Z" stroke="none"/>
      </g>
      <path id="Path_205-4" data-name="Path 205" d="M57.554.6c61.635-.844,75.2,116.4,60.72,164s-100.2,41-115.385,0S-4.081,1.441,57.554.6Z" transform="translate(362.276 770.999) rotate(3)" fill="#1a1a1a"/>
      <path id="Path_40-4" data-name="Path 40" d="M57.554.6c61.635-.844,75.2,116.4,60.72,164s-100.2,41-115.385,0S-4.081,1.441,57.554.6Z" transform="translate(368.276 766.999) rotate(3)" fill="#303030"/>
    </g>
    <g id="CharacterLower-5" data-name="CharacterLower" transform="translate(762)">
      <g id="Path_43-5" data-name="Path 43" transform="matrix(0.966, 0.259, -0.259, 0.966, 372.219, 957.185)">
        <path d="M 22.22725296020508 27.73321151733398 C 17.5848388671875 27.73321151733398 12.95298671722412 27.30379867553711 8.832399368286133 26.49142456054688 C 4.62782621383667 25.66247940063477 0.9387596249580383 24.42915916442871 -1.835947036743164 22.92478561401367 C -3.720773696899414 21.90290451049805 -4.846760272979736 20.50333213806152 -5.379520416259766 18.5202522277832 C -6.157320499420166 15.62506484985352 -5.611173629760742 11.56811904907227 -3.80016040802002 6.787998676300049 C -2.924900531768799 4.477797508239746 -1.938324928283691 2.502219676971436 -1.277933955192566 1.273037314414978 C 3.289616584777832 0.5267184376716614 16.80845642089844 -1.500001430511475 28.89835929870605 -1.500001430511475 C 39.19206619262695 -1.500001430511475 44.03791809082031 -0.04421475529670715 46.29045486450195 1.177051901817322 C 51.25856018066406 3.870598554611206 54.10790634155273 7.833971977233887 54.10790634155273 12.05091857910156 C 54.10790634155273 16.26786613464355 51.25856018066406 20.23123931884766 46.29045486450195 22.92478561401367 C 43.5157470703125 24.42915916442871 39.82667922973633 25.66247940063477 35.62210464477539 26.49142456054688 C 31.50152015686035 27.30379867553711 26.86966705322266 27.73321151733398 22.22725296020508 27.73321151733398 Z" stroke="none"/>
        <path d="M 28.89835357666016 2.000001907348633 C 18.32233238220215 2.000001907348633 6.581478118896484 3.592842102050781 1.012805938720703 4.452999114990234 C -0.8502998352050781 8.302751541137695 -2.935596466064453 14.11218452453613 -2.000782012939453 17.60695266723633 C -1.719982147216797 18.65668487548828 -1.206047058105469 19.28498458862305 -0.1677627563476563 19.84791946411133 C 4.896934509277344 22.59385108947754 13.2689037322998 24.23320198059082 22.22725296020508 24.23320198059082 C 31.18558502197266 24.23320198059082 39.55755233764648 22.59383583068848 44.62226867675781 19.84791946411133 C 48.42623519897461 17.78553581237793 50.60790252685547 14.94363498687744 50.60790252685547 12.05091857910156 C 50.60790252685547 9.158202171325684 48.42623519897461 6.316301345825195 44.62225341796875 4.253917694091797 C 43.06966781616211 3.412151336669922 38.96236801147461 2.000001907348633 28.89835357666016 2.000001907348633 M 28.89834976196289 -5.000001907348633 C 36.52350997924805 -5.000001907348633 43.66954803466797 -4.225242614746094 47.95863723754883 -1.899831771850586 C 60.82433700561523 5.075534820556641 60.82433700561523 19.02630233764648 47.95863723754883 26.00166893005371 C 41.52578735351563 29.48936080932617 31.87651443481445 31.23320579528809 22.22724723815918 31.23320579528809 C 12.57797813415527 31.23320579528809 2.9287109375 29.48936080932617 -3.504131317138672 26.00166893005371 C -16.36983108520508 19.02630233764648 -3.504131317138672 -1.899831771850586 -3.504131317138672 -1.899831771850586 C -3.504131317138672 -1.899831771850586 13.65081977844238 -5.000001907348633 28.89834976196289 -5.000001907348633 Z" stroke="none"/>
      </g>
      <g id="Path_44-5" data-name="Path 44" transform="translate(426.061 959.761) rotate(8)">
        <path d="M 22.22725296020508 27.73321151733398 C 17.5848388671875 27.73321151733398 12.95298671722412 27.30379867553711 8.832399368286133 26.49142456054688 C 4.62782621383667 25.66247940063477 0.9387596249580383 24.42915916442871 -1.835947036743164 22.92478561401367 C -3.720773696899414 21.90290451049805 -4.846760272979736 20.50333213806152 -5.379520416259766 18.5202522277832 C -6.157320499420166 15.62506484985352 -5.611173629760742 11.56811904907227 -3.80016040802002 6.787998676300049 C -2.924900531768799 4.477797508239746 -1.938324928283691 2.502219676971436 -1.277933955192566 1.273037314414978 C 3.289616584777832 0.5267184376716614 16.80845642089844 -1.500001430511475 28.89835929870605 -1.500001430511475 C 39.19206619262695 -1.500001430511475 44.03791809082031 -0.04421475529670715 46.29045486450195 1.177051901817322 C 51.25856018066406 3.870598554611206 54.10790634155273 7.833971977233887 54.10790634155273 12.05091857910156 C 54.10790634155273 16.26786613464355 51.25856018066406 20.23123931884766 46.29045486450195 22.92478561401367 C 43.5157470703125 24.42915916442871 39.82667922973633 25.66247940063477 35.62210464477539 26.49142456054688 C 31.50152015686035 27.30379867553711 26.86966705322266 27.73321151733398 22.22725296020508 27.73321151733398 Z" stroke="none"/>
        <path d="M 28.89835357666016 2.000001907348633 C 18.32233238220215 2.000001907348633 6.581478118896484 3.592842102050781 1.012805938720703 4.452999114990234 C -0.8502998352050781 8.302751541137695 -2.935596466064453 14.11218452453613 -2.000782012939453 17.60695266723633 C -1.719982147216797 18.65668487548828 -1.206047058105469 19.28498458862305 -0.1677627563476563 19.84791946411133 C 4.896934509277344 22.59385108947754 13.2689037322998 24.23320198059082 22.22725296020508 24.23320198059082 C 31.18558502197266 24.23320198059082 39.55755233764648 22.59383583068848 44.62226867675781 19.84791946411133 C 48.42623519897461 17.78553581237793 50.60790252685547 14.94363498687744 50.60790252685547 12.05091857910156 C 50.60790252685547 9.158202171325684 48.42623519897461 6.316301345825195 44.62225341796875 4.253917694091797 C 43.06966781616211 3.412151336669922 38.96236801147461 2.000001907348633 28.89835357666016 2.000001907348633 M 28.89834976196289 -5.000001907348633 C 36.52350997924805 -5.000001907348633 43.66954803466797 -4.225242614746094 47.95863723754883 -1.899831771850586 C 60.82433700561523 5.075534820556641 60.82433700561523 19.02630233764648 47.95863723754883 26.00166893005371 C 41.52578735351563 29.48936080932617 31.87651443481445 31.23320579528809 22.22724723815918 31.23320579528809 C 12.57797813415527 31.23320579528809 2.9287109375 29.48936080932617 -3.504131317138672 26.00166893005371 C -16.36983108520508 19.02630233764648 -3.504131317138672 -1.899831771850586 -3.504131317138672 -1.899831771850586 C -3.504131317138672 -1.899831771850586 13.65081977844238 -5.000001907348633 28.89834976196289 -5.000001907348633 Z" stroke="none"/>
      </g>
      <path id="Path_205-5" data-name="Path 205" d="M57.554.6c61.635-.844,75.2,116.4,60.72,164s-100.2,41-115.385,0S-4.081,1.441,57.554.6Z" transform="translate(362.276 770.999) rotate(3)" fill="#1a1a1a"/>
      <path id="Path_40-5" data-name="Path 40" d="M57.554.6c61.635-.844,75.2,116.4,60.72,164s-100.2,41-115.385,0S-4.081,1.441,57.554.6Z" transform="translate(368.276 766.999) rotate(3)" fill="#303030"/>
    </g>
    <g id="CharacterLower-6" data-name="CharacterLower" transform="translate(470)">
      <g id="Path_43-6" data-name="Path 43" transform="translate(374.211 948.413) rotate(31)">
        <path d="M 22.22725296020508 27.73321151733398 C 17.5848388671875 27.73321151733398 12.95298671722412 27.30379867553711 8.832399368286133 26.49142456054688 C 4.62782621383667 25.66247940063477 0.9387596249580383 24.42915916442871 -1.835947036743164 22.92478561401367 C -3.720773696899414 21.90290451049805 -4.846760272979736 20.50333213806152 -5.379520416259766 18.5202522277832 C -6.157320499420166 15.62506484985352 -5.611173629760742 11.56811904907227 -3.80016040802002 6.787998676300049 C -2.924900531768799 4.477797508239746 -1.938324928283691 2.502219676971436 -1.277933955192566 1.273037314414978 C 3.289616584777832 0.5267184376716614 16.80845642089844 -1.500001430511475 28.89835929870605 -1.500001430511475 C 39.19206619262695 -1.500001430511475 44.03791809082031 -0.04421475529670715 46.29045486450195 1.177051901817322 C 51.25856018066406 3.870598554611206 54.10790634155273 7.833971977233887 54.10790634155273 12.05091857910156 C 54.10790634155273 16.26786613464355 51.25856018066406 20.23123931884766 46.29045486450195 22.92478561401367 C 43.5157470703125 24.42915916442871 39.82667922973633 25.66247940063477 35.62210464477539 26.49142456054688 C 31.50152015686035 27.30379867553711 26.86966705322266 27.73321151733398 22.22725296020508 27.73321151733398 Z" stroke="none"/>
        <path d="M 28.89835357666016 2.000001907348633 C 18.32233238220215 2.000001907348633 6.581478118896484 3.592842102050781 1.012805938720703 4.452999114990234 C -0.8502998352050781 8.302751541137695 -2.935596466064453 14.11218452453613 -2.000782012939453 17.60695266723633 C -1.719982147216797 18.65668487548828 -1.206047058105469 19.28498458862305 -0.1677627563476563 19.84791946411133 C 4.896934509277344 22.59385108947754 13.2689037322998 24.23320198059082 22.22725296020508 24.23320198059082 C 31.18558502197266 24.23320198059082 39.55755233764648 22.59383583068848 44.62226867675781 19.84791946411133 C 48.42623519897461 17.78553581237793 50.60790252685547 14.94363498687744 50.60790252685547 12.05091857910156 C 50.60790252685547 9.158202171325684 48.42623519897461 6.316301345825195 44.62225341796875 4.253917694091797 C 43.06966781616211 3.412151336669922 38.96236801147461 2.000001907348633 28.89835357666016 2.000001907348633 M 28.89834976196289 -5.000001907348633 C 36.52350997924805 -5.000001907348633 43.66954803466797 -4.225242614746094 47.95863723754883 -1.899831771850586 C 60.82433700561523 5.075534820556641 60.82433700561523 19.02630233764648 47.95863723754883 26.00166893005371 C 41.52578735351563 29.48936080932617 31.87651443481445 31.23320579528809 22.22724723815918 31.23320579528809 C 12.57797813415527 31.23320579528809 2.9287109375 29.48936080932617 -3.504131317138672 26.00166893005371 C -16.36983108520508 19.02630233764648 -3.504131317138672 -1.899831771850586 -3.504131317138672 -1.899831771850586 C -3.504131317138672 -1.899831771850586 13.65081977844238 -5.000001907348633 28.89834976196289 -5.000001907348633 Z" stroke="none"/>
      </g>
      <g id="Path_44-6" data-name="Path 44" transform="translate(435.09 962.4) rotate(-10)">
        <path d="M 22.22725296020508 27.73321151733398 C 17.5848388671875 27.73321151733398 12.95298671722412 27.30379867553711 8.832399368286133 26.49142456054688 C 4.62782621383667 25.66247940063477 0.9387596249580383 24.42915916442871 -1.835947036743164 22.92478561401367 C -3.720773696899414 21.90290451049805 -4.846760272979736 20.50333213806152 -5.379520416259766 18.5202522277832 C -6.157320499420166 15.62506484985352 -5.611173629760742 11.56811904907227 -3.80016040802002 6.787998676300049 C -2.924900531768799 4.477797508239746 -1.938324928283691 2.502219676971436 -1.277933955192566 1.273037314414978 C 3.289616584777832 0.5267184376716614 16.80845642089844 -1.500001430511475 28.89835929870605 -1.500001430511475 C 39.19206619262695 -1.500001430511475 44.03791809082031 -0.04421475529670715 46.29045486450195 1.177051901817322 C 51.25856018066406 3.870598554611206 54.10790634155273 7.833971977233887 54.10790634155273 12.05091857910156 C 54.10790634155273 16.26786613464355 51.25856018066406 20.23123931884766 46.29045486450195 22.92478561401367 C 43.5157470703125 24.42915916442871 39.82667922973633 25.66247940063477 35.62210464477539 26.49142456054688 C 31.50152015686035 27.30379867553711 26.86966705322266 27.73321151733398 22.22725296020508 27.73321151733398 Z" stroke="none"/>
        <path d="M 28.89835357666016 2.000001907348633 C 18.32233238220215 2.000001907348633 6.581478118896484 3.592842102050781 1.012805938720703 4.452999114990234 C -0.8502998352050781 8.302751541137695 -2.935596466064453 14.11218452453613 -2.000782012939453 17.60695266723633 C -1.719982147216797 18.65668487548828 -1.206047058105469 19.28498458862305 -0.1677627563476563 19.84791946411133 C 4.896934509277344 22.59385108947754 13.2689037322998 24.23320198059082 22.22725296020508 24.23320198059082 C 31.18558502197266 24.23320198059082 39.55755233764648 22.59383583068848 44.62226867675781 19.84791946411133 C 48.42623519897461 17.78553581237793 50.60790252685547 14.94363498687744 50.60790252685547 12.05091857910156 C 50.60790252685547 9.158202171325684 48.42623519897461 6.316301345825195 44.62225341796875 4.253917694091797 C 43.06966781616211 3.412151336669922 38.96236801147461 2.000001907348633 28.89835357666016 2.000001907348633 M 28.89834976196289 -5.000001907348633 C 36.52350997924805 -5.000001907348633 43.66954803466797 -4.225242614746094 47.95863723754883 -1.899831771850586 C 60.82433700561523 5.075534820556641 60.82433700561523 19.02630233764648 47.95863723754883 26.00166893005371 C 41.52578735351563 29.48936080932617 31.87651443481445 31.23320579528809 22.22724723815918 31.23320579528809 C 12.57797813415527 31.23320579528809 2.9287109375 29.48936080932617 -3.504131317138672 26.00166893005371 C -16.36983108520508 19.02630233764648 -3.504131317138672 -1.899831771850586 -3.504131317138672 -1.899831771850586 C -3.504131317138672 -1.899831771850586 13.65081977844238 -5.000001907348633 28.89834976196289 -5.000001907348633 Z" stroke="none"/>
      </g>
      <path id="Path_205-6" data-name="Path 205" d="M57.554.6c61.635-.844,75.2,116.4,60.72,164s-100.2,41-115.385,0S-4.081,1.441,57.554.6Z" transform="translate(362.276 770.999) rotate(3)" fill="#1a1a1a"/>
      <path id="Path_40-6" data-name="Path 40" d="M57.554.6c61.635-.844,75.2,116.4,60.72,164s-100.2,41-115.385,0S-4.081,1.441,57.554.6Z" transform="translate(368.276 766.999) rotate(3)" fill="#303030"/>
    </g>
  </g>
</svg>
