<svg xmlns="http://www.w3.org/2000/svg" width="227.596" height="335.384" viewBox="0 0 227.596 335.384"><g transform="translate(-1239.404 -118)"><path d="M4,0,8,48H0Z" transform="matrix(0.966, -0.259, 0.259, 0.966, 1276.011, 221.909)" fill="rgba(200,23,23,0.27)"/><path d="M3,0,6,34H0Z" transform="translate(1441.184 299.323) rotate(17)" fill="rgba(200,23,23,0.27)"/><path d="M4,0,8,25H0Z" transform="translate(1251.709 310.789) rotate(-28)" fill="rgba(200,23,23,0.27)"/><path d="M4,0,8,25H0Z" transform="translate(1420.767 212.928) rotate(25)" fill="rgba(200,23,23,0.27)"/><path d="M4,0,8,48H0Z" transform="translate(1304.399 169.736) rotate(-14)" fill="rgba(200,23,23,0.27)"/><path d="M1025.072,2849.384h0l-.567-.587-.19.129-.321-.658-7.017-7.268h12.069l2.744,2.842-5.285,3.595-1.431,1.947Zm-50.638,0h0L973,2847.436,960.6,2839h-7.644l.666-4.746L900,2797.787l20.928,6.712,46.694,31.756-.666,4.745H974.6l4.788,3.256-3.873,4.011-.321.658-.19-.129-.567.587Zm-12.658-34.275h0l-16.391-5.257-44.839-61.016,25.135,17.153,36.1,49.118Zm103.954,0,0,0,6.238-8.488,27.536-8.831-18.056,12.28-15.718,5.041Zm-91.809-23.751h0l-13.032-8.894.291-2.068-46.172-97.82,24.936,25.171,35.236,74.651-1.257,8.96Zm79.824-.11v0l4.209-14.424,41.008-27.986-17.033,23.179-28.182,19.232Zm-11.112-52.029v0l2.27-24.611,27.969-38.878-10.536,36.106-19.7,27.384Zm-64.2-4.75,0,0L963.2,2719.091l-8.126-88.139,17.274,37.5,6.087,66.014Zm52.787-55.475v0l-3.483-24.825,10.692-23.212-3.734,40.5-3.472,7.54Zm-41.4-.991,0,0-10.944-23.759L996.456,2529l7.14,50.884L989.828,2678Zm42.909-94.178h0l-4.85-1.209,12.1-38.207-7.251,39.417Z" transform="translate(353.449 -2396)" fill="rgba(219,72,72,0.27)"/><g transform="translate(311 -19)"><path d="M43.5,0,87,310H0Z" transform="translate(995.404 137)" fill="rgba(194,40,40,0.29)"/><path d="M29.5,0,59,172H0Z" transform="matrix(0.966, -0.259, 0.259, 0.966, 969.03, 246.587)" fill="rgba(194,40,40,0.29)"/><path d="M29.5,0,59,172H0Z" transform="matrix(0.966, 0.259, -0.259, 0.966, 1052.385, 231.317)" fill="rgba(194,40,40,0.29)"/><path d="M29.5,0,59,172H0Z" transform="matrix(0.819, -0.574, 0.574, 0.819, 933.29, 307.495)" fill="rgba(194,40,40,0.29)"/><path d="M29.5,0,59,172H0Z" transform="matrix(0.899, 0.438, -0.438, 0.899, 1088.807, 270.793)" fill="rgba(194,40,40,0.29)"/><path d="M21,0,42,123H0Z" transform="matrix(0.695, -0.719, 0.719, 0.695, 928.404, 371.941)" fill="rgba(194,40,40,0.29)"/><path d="M21,0,42,123H0Z" transform="matrix(0.695, 0.719, -0.719, 0.695, 1126.824, 341.729)" fill="rgba(194,40,40,0.29)"/><path d="M13,0,26,90H0Z" transform="translate(936.75 417.471) rotate(-64)" fill="rgba(194,40,40,0.29)"/><path d="M13,0,26,90H0Z" transform="matrix(0.438, 0.899, -0.899, 0.438, 1136.257, 394.102)" fill="rgba(194,40,40,0.29)"/></g></g></svg>