<svg xmlns="http://www.w3.org/2000/svg" width="330.594" height="273.428" viewBox="0 0 330.594 273.428">
  <g id="CharacterUpper" transform="translate(-301.108 -657.796)">
    <path id="Path_210" data-name="Path 210" d="M-1.809,0H33.908s8.929,73.176,0,97.568-26.788,24.392-35.717,0S-1.809,0-1.809,0Z" transform="translate(408.983 848.549) rotate(-63)" fill="#1a1a1a"/>
    <path id="Path_42" data-name="Path 42" d="M-1.809,0H33.908s8.929,73.176,0,97.568-26.788,24.392-35.717,0S-1.809,0-1.809,0Z" transform="translate(413.983 846.549) rotate(-63)" fill="#303030"/>
    <path id="Union_4" data-name="Union 4" d="M79.487,190.047c-33.848-10.88-41.271-11.153-57.591-43.187a222.838,222.838,0,0,1-10.512-23.092c-1.9-1.294-3.408-2.666-5.83-6.623-3.923-6.409-5.423-9.251-5.543-16.1s.757-6.9,5.063-11.294c.67-.684,1.3-1.274,1.907-1.789a103.119,103.119,0,0,1,6.845-23.37C27.123,31.955,34,24.243,63.347,11.771s51.356-13.573,77.767,0,27.144,11.372,40.919,37.049-3.87,40.73-3.87,63.093,5.5,20.175,7.7,36.682-4.437,27.276-28.01,36.947c-14.521,5.957-28.049,10.413-44.2,10.413C103.578,195.956,92.486,194.225,79.487,190.047Z" transform="translate(301.108 661.125)" fill="#d2a175"/>
    <path id="Union_3" data-name="Union 3" d="M79.487,188.047c-33.848-10.88-41.271-11.153-57.591-43.188-3.8-7.465-6.994-14.147-9.483-20.417-2.442-1.574-4.019-2.659-6.859-7.3-3.923-6.408-5.424-9.25-5.543-16.1s.758-6.9,5.064-11.294c.558-.569,1.089-1.074,1.6-1.524.918-7.744,3.241-16.038,7.151-25.634C27.124,29.954,34,22.243,63.347,9.771s51.355-13.572,77.766,0,27.145,11.371,40.919,37.049-3.87,40.73-3.87,63.094,5.5,20.175,7.7,36.682-4.438,27.276-28.011,36.947c-14.52,5.957-28.048,10.412-44.2,10.413C103.578,193.956,92.486,192.225,79.487,188.047Z" transform="translate(304.108 658.125)" fill="#ffc592"/>
    <path id="Path_23" data-name="Path 23" d="M2734.592,407.337c-7.612,3.619,4.042,16.781,10.92,20.4s12.167,3.619,19.779,0c7.376-3.506,10.654-12.081,4.515-15.95-.116-.074-.533-.3-.533-.3s-7.67-2.586-13.409-2.844C2747.917,408.282,2739.044,405.22,2734.592,407.337Z" transform="translate(-2342.784 348.064)" fill="#e9e9e9"/>
    <path id="Path_27" data-name="Path 27" d="M2765.875,407.247c6.688,3.18-3.552,14.746-9.6,17.926s-10.692,3.18-17.38,0c-6.481-3.081-9.362-10.616-3.967-14.015.1-.065.469-.267.469-.267s6.74-2.273,11.783-2.5C2754.166,408.078,2761.962,405.387,2765.875,407.247Z" transform="translate(-2288.022 348.828)" fill="#e9e9e9"/>
    <path id="Path_24" data-name="Path 24" d="M60.679,14.142,55.9,2.826,54.131,5.562,49.508,3.05,48.251,5.767,38.22,1.136,36.964,5.767,27.311,1.517,28.5,5.767,16.693,3.047l2.213,3.574-9.632,1.7L22.36,12.535a95.81,95.81,0,0,1,16.22-1.124C48.9,11.411,60.679,14.142,60.679,14.142Z" transform="translate(367.81 743.871) rotate(2)" fill="#414040"/>
    <path id="Path_26" data-name="Path 26" d="M52.351-.53,47.166,10.145,46.2,7.306l-5.534,4.428-.471-4.378-8.412,4.068.7-4.6L22.321,11.094l2.722-4.267L13.834,9.648l2.778-3.674L8.77,5.7,17.751.626s7.078.564,16.149.564A117.937,117.937,0,0,0,52.351-.53Z" transform="matrix(-0.999, 0.035, -0.035, -0.999, 498, 758.072)" fill="#414040"/>
    <g id="Path_25" data-name="Path 25" transform="translate(414.658 761.981)">
      <path d="M 3.926225185394287 5.352455615997314 C 3.139795303344727 5.352455615997314 2.499995231628418 4.712655544281006 2.499995231628418 3.926225662231445 C 2.499995231628418 3.139795780181885 3.139795303344727 2.499995708465576 3.926225185394287 2.499995708465576 C 4.712655067443848 2.499995708465576 5.352455139160156 3.139795780181885 5.352455139160156 3.926225662231445 C 5.352455139160156 4.712655544281006 4.712655067443848 5.352455615997314 3.926225185394287 5.352455615997314 Z" stroke="none"/>
      <path d="M 3.926225185394287 -4.291534423828125e-06 C 6.09461498260498 -4.291534423828125e-06 7.852455139160156 1.757835865020752 7.852455139160156 3.926225662231445 C 7.852455139160156 6.094615936279297 6.09461498260498 7.852455615997314 3.926225185394287 7.852455615997314 C 1.757835388183594 7.852455615997314 -4.76837158203125e-06 6.094615936279297 -4.76837158203125e-06 3.926225662231445 C -4.76837158203125e-06 1.757835865020752 1.757835388183594 -4.291534423828125e-06 3.926225185394287 -4.291534423828125e-06 Z" stroke="none"/>
    </g>
    <g id="Path_28" data-name="Path 28" transform="translate(450.873 761.857)">
      <path d="M 3.450082302093506 4.400161743164063 C 2.926202297210693 4.400161743164063 2.500002384185791 3.97396183013916 2.500002384185791 3.450081825256348 C 2.500002384185791 2.926201820373535 2.926202297210693 2.500001907348633 3.450082302093506 2.500001907348633 C 3.973962306976318 2.500001907348633 4.400162220001221 2.926201820373535 4.400162220001221 3.450081825256348 C 4.400162220001221 3.97396183013916 3.973962306976318 4.400161743164063 3.450082302093506 4.400161743164063 Z" stroke="none"/>
      <path d="M 3.450082302093506 1.9073486328125e-06 C 5.355512142181396 1.9073486328125e-06 6.900162220001221 1.544651985168457 6.900162220001221 3.450081825256348 C 6.900162220001221 5.355511665344238 5.355512142181396 6.900161743164063 3.450082302093506 6.900161743164063 C 1.544652462005615 6.900161743164063 2.384185791015625e-06 5.355511665344238 2.384185791015625e-06 3.450081825256348 C 2.384185791015625e-06 1.544651985168457 1.544652462005615 1.9073486328125e-06 3.450082302093506 1.9073486328125e-06 Z" stroke="none"/>
    </g>
    <path id="Path_33" data-name="Path 33" d="M46.2,24.306c19.414,3.326,31.46-11,31.46-11S64.8,15.772,45.386,12.446,0,0,0,0,26.781,20.98,46.2,24.306Z" transform="matrix(0.985, -0.174, 0.174, 0.985, 392.164, 807.443)" fill="#111"/>
    <ellipse id="Ellipse_1" data-name="Ellipse 1" cx="1.5" cy="1" rx="1.5" ry="1" transform="translate(419 763)" fill="#fff"/>
    <circle id="Ellipse_2" data-name="Ellipse 2" cx="1" cy="1" r="1" transform="translate(455 763)" fill="#fff"/>
    <path id="Path_208" data-name="Path 208" d="M2519.028,286.471l2.257,10.032,3.668,1.693,7.336,1.975,7.9-3.668-2.54-24.831V244.019l6.208-23.42,17.777-2.257,28.217,10.44,23.984,2.257,36.4,1.975,23.332-6.661s-5.763-13-11.265-20.97-26.552-15.318-26.552-15.318l-15.707-6.713s-13.333-5.079-22.856-6.772a54.286,54.286,0,0,0-15.394-.871c-2.366,0-4.5-.258-16.209,3.129s-18.482,5.432-30.474,11.287-11.657,5.35-18.782,12.122-7.594,7.418-12.391,16.095-4.274,7.94-7.66,16.123a42.227,42.227,0,0,0-3.21,15.48l-2.258,9.029v4.233l10.44-4.233h5.361l4.515,2.54,6.49,7.619Z" transform="translate(-2184.198 485.286)" fill="#613400"/>
    <path id="Path_34" data-name="Path 34" d="M2519.028,286.471l2.257,10.032,3.668,1.693,7.336,1.975,7.9-3.668-2.54-24.831V244.019l6.208-23.42,17.777-2.257,28.217,10.44,23.984,2.257,36.4,1.975,17.212-5.361s-5.5-13.474-11-21.445-20.693-16.143-20.693-16.143l-15.707-6.713s-13.333-5.079-22.856-6.772a54.286,54.286,0,0,0-15.394-.871c-2.366,0-4.5-.258-16.209,3.129s-18.482,5.432-30.474,11.287-11.657,5.35-18.782,12.122-7.594,7.418-12.391,16.095-4.274,7.94-7.66,16.123a42.227,42.227,0,0,0-3.21,15.48l-2.258,9.029v4.233l10.44-4.233h5.361l4.515,2.54,6.49,7.619Z" transform="translate(-2179.198 482.286)" fill="#8b4a00"/>
    <path id="Path_35" data-name="Path 35" d="M2934.71,246.778c.5-1.446-.283-12.645-5.845-23.225-6.347-12.072-17-22.9-17-22.9" transform="translate(-2472.65 465.983)" fill="none" stroke="#613400" stroke-linecap="round" stroke-width="3"/>
    <path id="Path_36" data-name="Path 36" d="M2775.756,186.858s13.818,8.916,21.861,20.837,10.31,26.85,10.31,26.85" transform="translate(-2378.084 475.113)" fill="none" stroke="#613400" stroke-linecap="round" stroke-width="3"/>
    <path id="Path_37" data-name="Path 37" d="M2659.917,223.295c1.521.277,11.542,4.591,19.513,11.786a57.838,57.838,0,0,1,12.372,17" transform="translate(-2297.231 449.68)" fill="none" stroke="#613400" stroke-linecap="round" stroke-width="3"/>
    <path id="Path_38" data-name="Path 38" d="M2551.54,306.069c1.484.27,10.37-2.316,17.3,0,7.435,2.485,12.893,9.876,12.893,9.876" transform="translate(-2221.585 392.584)" fill="none" stroke="#613400" stroke-linecap="round" stroke-width="3"/>
    <path id="Path_39" data-name="Path 39" d="M2517.906,382.276a60.66,60.66,0,0,1,18.558-4.341c9.453-.423,19.253,2.648,19.253,2.648" transform="translate(-2198.109 341.772)" fill="none" stroke="#613400" stroke-linecap="round" stroke-width="3"/>
    <circle id="Ellipse_17" data-name="Ellipse 17" cx="21" cy="21" r="21" transform="translate(493.15 863.717)" fill="#d2a175"/>
    <circle id="Ellipse_15" data-name="Ellipse 15" cx="21" cy="21" r="21" transform="translate(496.15 860.717)" fill="#ffc592"/>
    <g id="Shotgun" transform="matrix(1, -0.017, 0.017, 1, -1407.719, 60.302)">
      <path id="Path_124" data-name="Path 124" d="M1074.879-1640.653s23.763-29.74,45.791-42.3,57.392-9.1,57.392-9.1l1.546,23.96s-30.34,4.075-49.276,7.166-16.617,29.712-23.574,30.916S1074.879-1640.653,1074.879-1640.653Z" transform="translate(668 2519.298)" fill="#924f03"/>
      <path id="Path_125" data-name="Path 125" d="M1267.492-1715.055H1301.5v13.462h49.466v12.459h-83.474l2.647-12.459" transform="translate(561.428 2542.097)" fill="#434343"/>
      <path id="Path_128" data-name="Path 128" d="M1229.533-1608.712s-1.159,18.546,0,18.546,78.619,1.186,93.111-3.45,9.3-15.1,9.3-15.1Z" transform="translate(658.039 2445.58)" fill="#5d3100"/>
      <path id="Path_133" data-name="Path 133" d="M1229.533-1608.712s-1.159,18.546,0,18.546,78.619,1.186,93.111-3.45,9.3-15.1,9.3-15.1Z" transform="translate(658.039 2443.438)" fill="#703b00"/>
      <rect id="Rectangle_12" data-name="Rectangle 12" width="179" height="18" transform="translate(1846 826)" fill="#313131"/>
      <path id="Path_126" data-name="Path 126" d="M1198.368-1679.842s-6.906-4.642-6.906-9.17,6.906-8.509,6.906-8.509v17.678" transform="translate(647.084 2523.52)" fill="#313131"/>
      <path id="Path_127" data-name="Path 127" d="M1201-1698v17.71" transform="translate(644.798 2524)" fill="none" stroke="#707070" stroke-linecap="round" stroke-width="4"/>
      <rect id="Rectangle_13" data-name="Rectangle 13" width="179" height="5" transform="translate(1846 830)" fill="rgba(136,136,136,0.22)"/>
      <path id="Path_129" data-name="Path 129" d="M1149.128-1695.406l-16.72,7.083-6.775,8.684,8.684,6.528,14.811,3.079,2.741-12.194Z" transform="translate(679.791 2522.795)" fill="#7a4203"/>
      <path id="Path_130" data-name="Path 130" d="M1143-1645.5a10.181,10.181,0,0,0-4.449,4.653,10.282,10.282,0,0,0-.745,6.552,9.231,9.231,0,0,0,5.578,4.96c4.008,1.137,5.625,1.169,10.456-.412s8.205-1.554,10.389-6.173,2.89-9,2.369-10.659-6.4-1.289-6.4-1.289L1143-1645.5" transform="translate(674.246 2500.739)" fill="none" stroke="#3b3b3b" stroke-width="3"/>
      <path id="Path_131" data-name="Path 131" d="M1129.39-1631.173a11.712,11.712,0,0,1-.853-1.658c-.721-1.662-2.16-4.658-4.974-6.159-4.264-2.274-5.306-1.9-5.306-1.9-.474-.237,15.871-2.511,15.871-2.511" transform="translate(683.22 2498.647)" fill="none" stroke="#3b3b3b" stroke-width="3"/>
      <path id="Path_132" data-name="Path 132" d="M1157.013-1644.278a12.184,12.184,0,0,0-1.705,6.253c.159,2.69,5.5,4.832,5.5,4.832" transform="translate(666.019 2499.057)" fill="none" stroke="#3b3b3b" stroke-width="2"/>
    </g>
    <path id="Path_209" data-name="Path 209" d="M-2.732-.915c9.358-22.691,37.432,0,37.432,0s9.358,68.072,0,90.763-28.074,22.691-37.432,0S-12.089,21.775-2.732-.915Z" transform="matrix(0.574, -0.819, 0.819, 0.574, 325.772, 861.942)" fill="#1a1a1a"/>
    <path id="Path_41" data-name="Path 41" d="M-2.732-.915c9.358-22.691,37.432,0,37.432,0s9.358,68.072,0,90.763-28.074,22.691-37.432,0S-12.089,21.775-2.732-.915Z" transform="matrix(0.574, -0.819, 0.819, 0.574, 330.772, 859.942)" fill="#303030"/>
    <circle id="Ellipse_16" data-name="Ellipse 16" cx="21" cy="21" r="21" transform="translate(396.15 884.717)" fill="#d2a175"/>
    <circle id="Ellipse_14" data-name="Ellipse 14" cx="21" cy="21" r="21" transform="translate(399.15 881.717)" fill="#ffc592"/>
  </g>
</svg>
