<svg xmlns="http://www.w3.org/2000/svg" width="218.324" height="343.154" viewBox="0 0 218.324 343.154">
  <g id="Group_1" data-name="Group 1" transform="translate(-296.88 -654.625)">
    <g id="Path_43" data-name="Path 43" transform="translate(364.892 953.537) rotate(14)">
      <path d="M 22.22725296020508 27.73321151733398 C 17.5848388671875 27.73321151733398 12.95298671722412 27.30379867553711 8.832399368286133 26.49142456054688 C 4.62782621383667 25.66247940063477 0.9387596249580383 24.42915916442871 -1.835947036743164 22.92478561401367 C -3.720773696899414 21.90290451049805 -4.846760272979736 20.50333213806152 -5.379520416259766 18.5202522277832 C -6.157320499420166 15.62506484985352 -5.611173629760742 11.56811904907227 -3.80016040802002 6.787998676300049 C -2.924900531768799 4.477797508239746 -1.938324928283691 2.502219676971436 -1.277933955192566 1.273037314414978 C 3.289616584777832 0.5267184376716614 16.80845642089844 -1.500001430511475 28.89835929870605 -1.500001430511475 C 39.19206619262695 -1.500001430511475 44.03791809082031 -0.04421475529670715 46.29045486450195 1.177051901817322 C 51.25856018066406 3.870598554611206 54.10790634155273 7.833971977233887 54.10790634155273 12.05091857910156 C 54.10790634155273 16.26786613464355 51.25856018066406 20.23123931884766 46.29045486450195 22.92478561401367 C 43.5157470703125 24.42915916442871 39.82667922973633 25.66247940063477 35.62210464477539 26.49142456054688 C 31.50152015686035 27.30379867553711 26.86966705322266 27.73321151733398 22.22725296020508 27.73321151733398 Z" stroke="none"/>
      <path d="M 28.89835357666016 2.000001907348633 C 18.32233238220215 2.000001907348633 6.581478118896484 3.592842102050781 1.012805938720703 4.452999114990234 C -0.8502998352050781 8.302751541137695 -2.935596466064453 14.11218452453613 -2.000782012939453 17.60695266723633 C -1.719982147216797 18.65668487548828 -1.206047058105469 19.28498458862305 -0.1677627563476563 19.84791946411133 C 4.896934509277344 22.59385108947754 13.2689037322998 24.23320198059082 22.22725296020508 24.23320198059082 C 31.18558502197266 24.23320198059082 39.55755233764648 22.59383583068848 44.62226867675781 19.84791946411133 C 48.42623519897461 17.78553581237793 50.60790252685547 14.94363498687744 50.60790252685547 12.05091857910156 C 50.60790252685547 9.158202171325684 48.42623519897461 6.316301345825195 44.62225341796875 4.253917694091797 C 43.06966781616211 3.412151336669922 38.96236801147461 2.000001907348633 28.89835357666016 2.000001907348633 M 28.89834976196289 -5.000001907348633 C 36.52350997924805 -5.000001907348633 43.66954803466797 -4.225242614746094 47.95863723754883 -1.899831771850586 C 60.82433700561523 5.075534820556641 60.82433700561523 19.02630233764648 47.95863723754883 26.00166893005371 C 41.52578735351563 29.48936080932617 31.87651443481445 31.23320579528809 22.22724723815918 31.23320579528809 C 12.57797813415527 31.23320579528809 2.9287109375 29.48936080932617 -3.504131317138672 26.00166893005371 C -16.36983108520508 19.02630233764648 -3.504131317138672 -1.899831771850586 -3.504131317138672 -1.899831771850586 C -3.504131317138672 -1.899831771850586 13.65081977844238 -5.000001907348633 28.89834976196289 -5.000001907348633 Z" stroke="none"/>
    </g>
    <g id="Path_44" data-name="Path 44" transform="matrix(0.978, 0.208, -0.208, 0.978, 440.256, 953.257)">
      <path d="M 22.22725296020508 27.73321151733398 C 17.5848388671875 27.73321151733398 12.95298671722412 27.30379867553711 8.832399368286133 26.49142456054688 C 4.62782621383667 25.66247940063477 0.9387596249580383 24.42915916442871 -1.835947036743164 22.92478561401367 C -3.720773696899414 21.90290451049805 -4.846760272979736 20.50333213806152 -5.379520416259766 18.5202522277832 C -6.157320499420166 15.62506484985352 -5.611173629760742 11.56811904907227 -3.80016040802002 6.787998676300049 C -2.924900531768799 4.477797508239746 -1.938324928283691 2.502219676971436 -1.277933955192566 1.273037314414978 C 3.289616584777832 0.5267184376716614 16.80845642089844 -1.500001430511475 28.89835929870605 -1.500001430511475 C 39.19206619262695 -1.500001430511475 44.03791809082031 -0.04421475529670715 46.29045486450195 1.177051901817322 C 51.25856018066406 3.870598554611206 54.10790634155273 7.833971977233887 54.10790634155273 12.05091857910156 C 54.10790634155273 16.26786613464355 51.25856018066406 20.23123931884766 46.29045486450195 22.92478561401367 C 43.5157470703125 24.42915916442871 39.82667922973633 25.66247940063477 35.62210464477539 26.49142456054688 C 31.50152015686035 27.30379867553711 26.86966705322266 27.73321151733398 22.22725296020508 27.73321151733398 Z" stroke="none"/>
      <path d="M 28.89835357666016 2.000001907348633 C 18.32233238220215 2.000001907348633 6.581478118896484 3.592842102050781 1.012805938720703 4.452999114990234 C -0.8502998352050781 8.302751541137695 -2.935596466064453 14.11218452453613 -2.000782012939453 17.60695266723633 C -1.719982147216797 18.65668487548828 -1.206047058105469 19.28498458862305 -0.1677627563476563 19.84791946411133 C 4.896934509277344 22.59385108947754 13.2689037322998 24.23320198059082 22.22725296020508 24.23320198059082 C 31.18558502197266 24.23320198059082 39.55755233764648 22.59383583068848 44.62226867675781 19.84791946411133 C 48.42623519897461 17.78553581237793 50.60790252685547 14.94363498687744 50.60790252685547 12.05091857910156 C 50.60790252685547 9.158202171325684 48.42623519897461 6.316301345825195 44.62225341796875 4.253917694091797 C 43.06966781616211 3.412151336669922 38.96236801147461 2.000001907348633 28.89835357666016 2.000001907348633 M 28.89834976196289 -5.000001907348633 C 36.52350997924805 -5.000001907348633 43.66954803466797 -4.225242614746094 47.95863723754883 -1.899831771850586 C 60.82433700561523 5.075534820556641 60.82433700561523 19.02630233764648 47.95863723754883 26.00166893005371 C 41.52578735351563 29.48936080932617 31.87651443481445 31.23320579528809 22.22724723815918 31.23320579528809 C 12.57797813415527 31.23320579528809 2.9287109375 29.48936080932617 -3.504131317138672 26.00166893005371 C -16.36983108520508 19.02630233764648 -3.504131317138672 -1.899831771850586 -3.504131317138672 -1.899831771850586 C -3.504131317138672 -1.899831771850586 13.65081977844238 -5.000001907348633 28.89834976196289 -5.000001907348633 Z" stroke="none"/>
    </g>
    <g id="Path_42" data-name="Path 42" transform="translate(429.575 825.588) rotate(-34)" fill="#878787">
      <path d="M 18.48370742797852 86.75583648681641 C 16.93306541442871 86.75583648681641 15.37890720367432 86.50698089599609 13.86440753936768 86.01619720458984 C 12.3051643371582 85.51091003417969 10.78149318695068 84.7471923828125 9.335707664489746 83.74626922607422 C 6.180093288421631 81.56160736083984 3.472893238067627 78.34602355957031 1.289321660995483 74.18882751464844 C -0.7727354168891907 70.26296997070313 -2.067006826400757 64.02572631835938 -2.557521104812622 55.65033721923828 C -2.962392568588257 48.73738098144531 -2.808649778366089 40.43669509887695 -2.100564002990723 30.97885322570801 C -1.187100172042847 18.77760696411133 0.4285061359405518 7.758831977844238 1.181376695632935 2.999995946884155 L 35.78605270385742 2.999995946884155 C 36.53883361816406 7.758129596710205 38.15445709228516 18.7766170501709 39.0679931640625 30.97885322570801 C 39.77606582641602 40.43669509887695 39.92980575561523 48.73738098144531 39.52495193481445 55.65033721923828 C 39.0344352722168 64.02572631835938 37.74016571044922 70.26298522949219 35.67810821533203 74.18882751464844 C 33.49452209472656 78.34602355957031 30.7873363494873 81.56160736083984 27.63172149658203 83.74626922607422 C 26.18593597412109 84.7471923828125 24.66225051879883 85.51091003417969 23.10300827026367 86.01619720458984 C 21.5885066986084 86.50698089599609 20.03434944152832 86.75583648681641 18.48370742797852 86.75583648681641 Z" stroke="none"/>
      <path d="M 3.736747741699219 6 C 1.000751495361328 23.99058532714844 -2.71771240234375 60.10858154296875 3.945236206054688 72.79380035400391 C 7.604415893554688 79.76030731201172 12.90349006652832 83.75582122802734 18.48370742797852 83.75582122802734 C 24.06392669677734 83.75582122802734 29.36299896240234 79.76030731201172 33.02217864990234 72.79380035400391 C 39.68512725830078 60.10858154296875 35.9666633605957 23.99058532714844 33.23066711425781 6 L 3.736747741699219 6 M -1.366600036621094 0 L 38.33401489257813 0 C 38.33401489257813 0 48.25916290283203 56.68789291381836 38.33401489257813 75.58385467529297 C 33.37143325805664 85.03183746337891 25.92757034301758 89.75582885742188 18.48370742797852 89.75582885742188 C 11.03984451293945 89.75582885742188 3.595981597900391 85.03183746337891 -1.366600036621094 75.58385467529297 C -11.291748046875 56.68789291381836 -1.366600036621094 0 -1.366600036621094 0 Z" stroke="none"/>
    </g>
    <g id="Path_40" data-name="Path 40" transform="translate(357.276 775.999) rotate(3)" fill="#616161">
      <path d="M 63.641357421875 194.3711700439453 C 51.01441955566406 194.3711700439453 38.37774276733398 191.4334564208984 28.05912399291992 186.0991973876953 C 22.76259422302246 183.3611145019531 18.21444702148438 180.0706176757813 14.54100608825684 176.3191070556641 C 10.7199764251709 172.4168395996094 7.90385913848877 168.0649566650391 6.170947074890137 163.3843688964844 C 3.518388271331787 156.2198791503906 1.583094239234924 146.3555145263672 0.5742707252502441 134.8577270507813 C -0.4649057686328888 123.0139007568359 -0.4614351689815521 109.9733428955078 0.5843001008033752 97.1458740234375 C 1.13515305519104 90.38896179199219 1.972623705863953 83.71437835693359 3.073447227478027 77.30754852294922 C 4.227653026580811 70.58981323242188 5.678770542144775 64.12781524658203 7.386446952819824 58.10105133056641 C 11.09094715118408 45.02714157104492 15.95682907104492 34.04293441772461 21.84900665283203 25.45349311828613 C 26.47035980224609 18.71664047241211 31.71844673156738 13.49887466430664 37.44750595092773 9.945169448852539 C 40.43597793579102 8.091433525085449 43.60988998413086 6.660286903381348 46.88106536865234 5.691462993621826 C 50.28368377685547 4.683727741241455 53.89056396484375 4.146963119506836 57.60153579711914 4.096139907836914 C 57.80250549316406 4.093375205993652 58.01453399658203 4.091933727264404 58.2147102355957 4.091933727264404 C 61.94812393188477 4.091933727264404 65.59426879882813 4.57055139541626 69.05182647705078 5.514551639556885 C 72.38127136230469 6.423521995544434 75.6275634765625 7.788963317871094 78.70059204101563 9.572904586791992 C 84.60024261474609 12.99772834777832 90.06315612792969 18.06916999816895 94.93759155273438 24.6463451385498 C 101.0844497680664 32.94040298461914 106.2859191894531 43.55966949462891 110.397590637207 56.20916748046875 C 112.3081512451172 62.08702087402344 113.97509765625 68.39990234375 115.3520965576172 74.97246551513672 C 116.6732711791992 81.27834320068359 117.737419128418 87.86799621582031 118.5150680541992 94.55828857421875 C 120.0005035400391 107.3383178710938 120.4352416992188 120.5289611816406 119.7722396850586 132.7042236328125 C 119.1240386962891 144.607666015625 117.4478607177734 155.2847595214844 114.9248580932617 163.5812530517578 C 113.381950378418 168.6549682617188 110.8934783935547 173.2374572753906 107.5285949707031 177.2014617919922 C 104.3496856689453 180.9464111328125 100.3711853027344 184.1669311523438 95.70362091064453 186.7735443115234 C 91.2242431640625 189.2751159667969 86.14394378662109 191.1971435546875 80.60382843017578 192.4862823486328 C 75.22885894775391 193.7370147705078 69.52182769775391 194.3711700439453 63.641357421875 194.3711700439453 Z" stroke="none"/>
      <path d="M 58.21472549438477 0.5919189453125 L 57.64949417114258 7.595794677734375 C 44.71736145019531 7.772994995117188 33.64339447021484 14.44729614257813 24.73519134521484 27.43336486816406 C 0.5860595703125 62.63719177246094 -1.183876037597656 133.4386291503906 9.453193664550781 162.1691589355469 C 15.70992279052734 179.0684509277344 37.99288940429688 190.8711547851563 63.64132690429688 190.8711547851563 C 82.65289306640625 190.8711547851563 105.2291259765625 183.4345855712891 111.5762557983398 162.5629577636719 C 120.983528137207 131.6284484863281 118.0238265991211 61.67521667480469 92.12565612792969 26.73033142089844 C 82.71402740478516 14.03099060058594 71.30472564697266 7.5919189453125 58.21472549438477 7.5919189453125 L 58.21472549438477 0.5919189453125 M 58.21472549438477 0.5919189453125 C 119.2924880981445 0.5919189453125 132.69775390625 117.1671981811523 118.2734222412109 164.5995941162109 C 111.3042297363281 187.5167999267578 87.81788635253906 197.8711700439453 63.64133453369141 197.8711700439453 C 37.60127258300781 197.8711700439453 10.76029968261719 185.8607330322266 2.888656616210938 164.5995941162109 C -12.29130554199219 123.5987930297852 -4.081275939941406 1.440887451171875 57.55359268188477 0.5964508056640625 C 57.77178192138672 0.593475341796875 57.99774169921875 0.5919189453125 58.21472549438477 0.5919189453125 Z" stroke="none"/>
    </g>
    <g id="Path_41" data-name="Path 41" transform="translate(339 829)" fill="#878787">
      <path d="M 13.85548210144043 70.88893890380859 C 11.2220516204834 70.88893890380859 8.566036224365234 70.01383209228516 6.174574375152588 68.35818481445313 C 3.499743700027466 66.50638580322266 1.201543688774109 63.77409362792969 -0.65621018409729 60.23721694946289 C -2.576364040374756 56.58156967163086 -4.145425796508789 51.74806213378906 -5.193794727325439 46.25926208496094 C -6.21187162399292 40.92906188964844 -6.74999475479126 34.94284820556641 -6.74999475479126 28.94773864746094 C -6.74999475479126 22.95264625549316 -6.21187162399292 16.9664306640625 -5.193794727325439 11.63623142242432 C -4.145425796508789 6.147415637969971 -2.576364040374756 1.313923239707947 -0.65621018409729 -2.341738224029541 C 0.4128667116165161 -4.377107620239258 1.803189754486084 -5.818599700927734 3.594220638275146 -6.74855375289917 C 5.193497657775879 -7.578953742980957 7.14838981628418 -8 9.404620170593262 -8 C 13.15226650238037 -8 17.79202079772949 -6.831830501556396 22.82225227355957 -4.621784210205078 C 25.21287536621094 -3.571457624435425 27.15071868896484 -2.524142026901245 28.29228210449219 -1.870991468429565 C 28.86759948730469 1.682027697563171 30.40908813476563 11.80181312561035 31.25406646728516 23.09224700927734 C 31.86480522155762 31.25270843505859 31.99739074707031 38.41227722167969 31.64815902709961 44.37206268310547 C 31.2271900177002 51.55601501464844 30.12331199645996 56.89382934570313 28.36718940734863 60.23721694946289 C 26.50943565368652 63.77409362792969 24.21123504638672 66.50638580322266 21.53640556335449 68.35818481445313 C 19.14492797851563 70.01381683349609 16.48891258239746 70.88893890380859 13.85548210144043 70.88893890380859 Z" stroke="none"/>
      <path d="M 9.404609680175781 -5.000007629394531 C 4.755517959594727 -5.000007629394531 3.052463531494141 -2.951042175292969 1.999700546264648 -0.94671630859375 C -5.631244659423828 13.58142852783203 -5.631244659423828 44.31404876708984 1.999700546264648 58.84219360351563 C 5.019536972045898 64.59152221679688 9.340808868408203 67.88893890380859 13.85548210144043 67.88893890380859 C 18.37013626098633 67.88893890380859 22.69141006469727 64.59152221679688 25.71126365661621 58.84219360351563 C 30.99620246887207 48.78048706054688 28.55974006652832 18.60411834716797 25.57228851318359 0.03750228881835938 C 21.71247291564941 -2.035675048828125 14.97524261474609 -5.000007629394531 9.404609680175781 -5.000007629394531 M 9.404613494873047 -11 C 19.57825088500977 -11 31.02309989929199 -3.736770629882813 31.02309989929199 -3.736770629882813 C 31.02309989929199 -3.736770629882813 39.60691833496094 45.28999328613281 31.02309989929199 61.63224792480469 C 26.731201171875 69.80337524414063 20.2933406829834 73.88893890380859 13.85548210144043 73.88893890380859 C 7.417623519897461 73.88893890380859 0.9797630310058594 69.80337524414063 -3.312135696411133 61.63224792480469 C -11.89595413208008 45.28999328613281 -11.89595413208008 12.60548400878906 -3.312135696411133 -3.736770629882813 C -0.4510440826416016 -9.183860778808594 4.318262100219727 -11 9.404613494873047 -11 Z" stroke="none"/>
    </g>
    <path id="Union_3" data-name="Union 3" d="M79.487,188.047c-33.848-10.88-41.271-11.153-57.591-43.188-3.8-7.465-6.994-14.147-9.483-20.417-2.442-1.574-4.019-2.659-6.859-7.3-3.923-6.408-5.424-9.25-5.543-16.1s.758-6.9,5.064-11.294c.558-.569,1.089-1.074,1.6-1.524.918-7.744,3.241-16.038,7.151-25.634C27.124,29.954,34,22.243,63.347,9.771s51.355-13.572,77.766,0,27.145,11.371,40.919,37.049-3.87,40.73-3.87,63.094,5.5,20.175,7.7,36.682-4.438,27.276-28.011,36.947c-14.52,5.957-28.048,10.412-44.2,10.413C103.578,193.956,92.486,192.225,79.487,188.047Z" transform="translate(304.108 658.125)" fill="#ffdcbe" stroke="#000" stroke-width="7"/>
    <path id="Path_32" data-name="Path 32" d="M1.408,28.319c-1.622-7.336-2.116-10.512,0-17.026S4.371,5.015,9.873,2.264,18.056-.135,23.417.288s4.867.494,7.9,3.668,3.6,3.95,4.233,9.029-.282,5.643-1.693,11.287-1.34,6-3.95,11.287-2.681,6.843-6.49,9.876-4.867,3.457-8.747,2.257S11.214,45.482,7.9,40.639,3.031,35.656,1.408,28.319Z" transform="translate(299.412 748.951) rotate(-19)" fill="none" stroke="#000" stroke-width="4"/>
    <path id="Path_23" data-name="Path 23" d="M2734.592,407.337c-7.612,3.619,4.042,16.781,10.92,20.4s12.167,3.619,19.779,0c7.376-3.506,10.654-12.081,4.515-15.95-.116-.074-.533-.3-.533-.3s-7.67-2.586-13.409-2.844C2747.917,408.282,2739.044,405.22,2734.592,407.337Z" transform="translate(-2342.784 348.064)" fill="#ffb60c" stroke="#000" stroke-width="4"/>
    <path id="Path_27" data-name="Path 27" d="M2765.875,407.247c6.688,3.18-3.552,14.746-9.6,17.926s-10.692,3.18-17.38,0c-6.481-3.081-9.362-10.616-3.967-14.015.1-.065.469-.267.469-.267s6.74-2.273,11.783-2.5C2754.166,408.078,2761.962,405.387,2765.875,407.247Z" transform="translate(-2288.022 348.828)" fill="#ffb60c" stroke="#000" stroke-width="4"/>
    <path id="Path_24" data-name="Path 24" d="M60.2,12.6,55.023,1.709V5.767l-1.774-1L46.276.854l1.975,4.913L33.861,0l3.1,5.767L23.138,0,28.5,5.767,12.98,1.709l5.926,4.913L0,8.758,18.905,12.6a175.735,175.735,0,0,1,19.674-1.192C48.9,11.411,60.2,12.6,60.2,12.6Z" transform="translate(367.81 743.871) rotate(2)" fill="#474747" stroke="#000" stroke-width="2"/>
    <path id="Path_26" data-name="Path 26" d="M52.9,0,48.351,10.881V6.827l-1.559,1-6.128,3.9L42.4,6.827,29.754,12.588l2.727-5.761-12.15,5.761,4.711-5.761L11.406,10.881l5.207-4.907L0,3.84,16.613,0A136.159,136.159,0,0,0,33.9,1.19,186.012,186.012,0,0,0,52.9,0Z" transform="matrix(-0.999, 0.035, -0.035, -0.999, 498, 758.072)" fill="#474747" stroke="#000" stroke-width="2"/>
    <g id="Path_25" data-name="Path 25" transform="translate(414.658 761.981)">
      <path d="M 3.926225185394287 5.352455615997314 C 3.139795303344727 5.352455615997314 2.499995231628418 4.712655544281006 2.499995231628418 3.926225662231445 C 2.499995231628418 3.139795780181885 3.139795303344727 2.499995708465576 3.926225185394287 2.499995708465576 C 4.712655067443848 2.499995708465576 5.352455139160156 3.139795780181885 5.352455139160156 3.926225662231445 C 5.352455139160156 4.712655544281006 4.712655067443848 5.352455615997314 3.926225185394287 5.352455615997314 Z" stroke="none"/>
      <path d="M 3.926225185394287 -4.291534423828125e-06 C 6.09461498260498 -4.291534423828125e-06 7.852455139160156 1.757835865020752 7.852455139160156 3.926225662231445 C 7.852455139160156 6.094615936279297 6.09461498260498 7.852455615997314 3.926225185394287 7.852455615997314 C 1.757835388183594 7.852455615997314 -4.76837158203125e-06 6.094615936279297 -4.76837158203125e-06 3.926225662231445 C -4.76837158203125e-06 1.757835865020752 1.757835388183594 -4.291534423828125e-06 3.926225185394287 -4.291534423828125e-06 Z" stroke="none"/>
    </g>
    <g id="Path_28" data-name="Path 28" transform="translate(450.873 761.857)">
      <path d="M 3.450082302093506 4.400161743164063 C 2.926202297210693 4.400161743164063 2.500002384185791 3.97396183013916 2.500002384185791 3.450081825256348 C 2.500002384185791 2.926201820373535 2.926202297210693 2.500001907348633 3.450082302093506 2.500001907348633 C 3.973962306976318 2.500001907348633 4.400162220001221 2.926201820373535 4.400162220001221 3.450081825256348 C 4.400162220001221 3.97396183013916 3.973962306976318 4.400161743164063 3.450082302093506 4.400161743164063 Z" stroke="none"/>
      <path d="M 3.450082302093506 1.9073486328125e-06 C 5.355512142181396 1.9073486328125e-06 6.900162220001221 1.544651985168457 6.900162220001221 3.450081825256348 C 6.900162220001221 5.355511665344238 5.355512142181396 6.900161743164063 3.450082302093506 6.900161743164063 C 1.544652462005615 6.900161743164063 2.384185791015625e-06 5.355511665344238 2.384185791015625e-06 3.450081825256348 C 2.384185791015625e-06 1.544651985168457 1.544652462005615 1.9073486328125e-06 3.450082302093506 1.9073486328125e-06 Z" stroke="none"/>
    </g>
    <path id="Path_29" data-name="Path 29" d="M3.1,0c1.272,7.4,1.547,7.135.773,9.373S0,8.953,0,8.953" transform="matrix(0.966, 0.259, -0.259, 0.966, 431.546, 743.635)" fill="none" stroke="#000" stroke-linecap="round" stroke-width="2"/>
    <path id="Path_30" data-name="Path 30" d="M.955,0C.112,4.526-.125,6.4.058,7.437.286,8.355.525,9.27,1.8,9.413s3.358-1.4,3.358-1.4" transform="matrix(0.966, -0.259, 0.259, 0.966, 436.627, 745.255)" fill="none" stroke="#000" stroke-linecap="round" stroke-width="2"/>
    <path id="Path_33" data-name="Path 33" d="M46.076,24.408C65.44,27.748,77.455,13.36,77.455,13.36S64.632,15.838,45.269,12.5,0,0,0,0,26.712,21.068,46.076,24.408Z" transform="translate(397.626 804.337) rotate(-13)"/>
    <ellipse id="Ellipse_1" data-name="Ellipse 1" cx="1.5" cy="1" rx="1.5" ry="1" transform="translate(419 763)" fill="#fff"/>
    <circle id="Ellipse_2" data-name="Ellipse 2" cx="1" cy="1" r="1" transform="translate(455 763)" fill="#fff"/>
    <path id="Path_34" data-name="Path 34" d="M2519.028,286.471l2.257,10.032,3.668,1.693,7.336,1.975,7.9-3.668-2.54-24.831V244.019l6.208-23.42,17.777-2.257,28.217,10.44,23.984,2.257,36.4,1.975,17.212-5.361-11-21.445-11-10.44-25.4-12.416-22.856-6.772h-15.237l-16.366,2.257-30.474,11.287-17.495,12.133-11,14.955-8.183,19.752-5.361,12.98-2.258,9.029v4.233l10.44-4.233h5.361l4.515,2.54,6.49,7.619Z" transform="translate(-2179.198 482.286)" fill="#a55800" stroke="#000" stroke-width="5"/>
    <path id="Path_35" data-name="Path 35" d="M2934.71,246.778c.5-1.446-.283-12.645-5.845-23.225-6.347-12.072-17.625-23.616-17.625-23.616" transform="translate(-2472.65 465.983)" fill="none" stroke="#000" stroke-linecap="round" stroke-width="3"/>
    <path id="Path_36" data-name="Path 36" d="M2775.756,186.858s13.818,8.916,21.861,20.837,10.31,26.85,10.31,26.85" transform="translate(-2378.084 475.113)" fill="none" stroke="#000" stroke-linecap="round" stroke-width="3"/>
    <path id="Path_37" data-name="Path 37" d="M2659.917,223.295c1.521.277,11.542,4.591,19.513,11.786a57.838,57.838,0,0,1,12.372,17" transform="translate(-2297.231 449.68)" fill="none" stroke="#000" stroke-linecap="round" stroke-width="3"/>
    <path id="Path_38" data-name="Path 38" d="M2551.54,306.069c1.484.27,10.37-2.316,17.3,0,7.435,2.485,12.893,9.876,12.893,9.876" transform="translate(-2221.585 392.584)" fill="none" stroke="#000" stroke-linecap="round" stroke-width="3"/>
    <path id="Path_39" data-name="Path 39" d="M2517.906,382.276a60.66,60.66,0,0,1,18.558-4.341c9.453-.423,19.253,2.648,19.253,2.648" transform="translate(-2198.109 341.772)" fill="none" stroke="#000" stroke-linecap="round" stroke-width="3"/>
  </g>
</svg>
