<svg id="CharacterUpperFlipped" xmlns="http://www.w3.org/2000/svg" width="330.594" height="273.428" viewBox="0 0 330.594 273.428">
  <path id="Path_210" data-name="Path 210" d="M3.969,115.862H39.686s8.929-73.176,0-97.568S12.9-6.1,3.969,18.294,3.969,115.862,3.969,115.862Z" transform="matrix(0.454, 0.891, -0.891, 0.454, 208.485, 24.927)" fill="#1a1a1a"/>
  <path id="Path_42" data-name="Path 42" d="M3.969,115.862H39.686s8.929-73.176,0-97.568S12.9-6.1,3.969,18.294,3.969,115.862,3.969,115.862Z" transform="matrix(0.454, 0.891, -0.891, 0.454, 213.485, 26.927)" fill="#303030"/>
  <path id="Union_4" data-name="Union 4" d="M79.487,5.909C45.639,16.789,38.215,17.062,21.9,49.1A222.839,222.839,0,0,0,11.384,72.189c-1.9,1.294-3.408,2.666-5.83,6.623C1.63,85.221.13,88.063.01,94.91s.757,6.9,5.063,11.294c.67.684,1.3,1.274,1.907,1.789a103.119,103.119,0,0,0,6.845,23.37C27.123,164,34,171.712,63.346,184.185s51.356,13.573,77.767,0,27.144-11.371,40.919-37.049-3.87-40.729-3.87-63.093,5.5-20.175,7.7-36.682-4.437-27.276-28.01-36.947C143.334,4.456,129.807,0,113.65,0,103.577,0,92.485,1.731,79.487,5.909Z" transform="translate(0 74.143)" fill="#d2a175"/>
  <path id="Union_3" data-name="Union 3" d="M79.487,5.909C45.639,16.788,38.216,17.062,21.9,49.1c-3.8,7.465-6.994,14.147-9.483,20.417-2.442,1.574-4.019,2.659-6.859,7.3C1.631,83.22.13,86.062.01,92.91s.758,6.9,5.064,11.294c.558.569,1.089,1.074,1.6,1.524.918,7.744,3.241,16.038,7.151,25.634C27.124,164,34,171.712,63.347,184.184s51.355,13.572,77.766,0,27.145-11.371,40.919-37.049-3.87-40.73-3.87-63.094,5.5-20.175,7.7-36.682-4.438-27.276-28.011-36.947C143.335,4.456,129.807,0,113.651,0,103.578,0,92.486,1.731,79.487,5.909Z" transform="translate(3 79.144)" fill="#ffc592"/>
  <path id="Path_23" data-name="Path 23" d="M2.487,23.114C-5.124,19.5,6.529,6.333,13.408,2.714s12.167-3.619,19.779,0C40.562,6.22,43.84,14.795,37.7,18.663c-.116.074-.533.3-.533.3s-7.67,2.586-13.409,2.844C15.813,22.169,6.94,25.231,2.487,23.114Z" transform="translate(88.212 152.709)" fill="#e9e9e9"/>
  <path id="Path_27" data-name="Path 27" d="M33.771,20.311c6.688-3.18-3.552-14.746-9.6-17.926s-10.692-3.18-17.38,0C.313,5.466-2.568,13,2.827,16.4c.1.065.469.267.469.267s6.74,2.273,11.783,2.5C22.061,19.48,29.858,22.171,33.771,20.311Z" transform="translate(142.974 154.838)" fill="#e9e9e9"/>
  <path id="Path_24" data-name="Path 24" d="M51.406,0,46.63,11.316,44.857,8.58l-4.623,2.512L38.978,8.374,28.947,13.006,27.691,8.374l-9.654,4.251,1.189-4.251L7.419,11.094,9.632,7.52,0,5.819,13.086,1.607a95.81,95.81,0,0,0,16.22,1.124C39.63,2.731,51.406,0,51.406,0Z" transform="matrix(0.999, -0.035, 0.035, 0.999, 75.476, 172.897)" fill="#414040"/>
  <path id="Path_26" data-name="Path 26" d="M43.581,12.265,38.4,1.59l-.968,2.838L31.894,0l-.471,4.378L23.011.31l.7,4.6L13.551.641l2.722,4.267L5.065,2.087,7.843,5.761,0,6.035l8.981,5.074s7.078-.564,16.149-.564A117.937,117.937,0,0,1,43.581,12.265Z" transform="matrix(-0.999, -0.035, 0.035, -0.999, 187.718, 184.573)" fill="#414040"/>
  <g id="Path_25" data-name="Path 25" transform="translate(113.55 161.39)">
    <path d="M 3.92622709274292 5.352444171905518 C 3.139797210693359 5.352444171905518 2.499997138977051 4.712644100189209 2.499997138977051 3.926224231719971 C 2.499997138977051 3.139804124832153 3.139797210693359 2.500004291534424 3.92622709274292 2.500004291534424 C 4.71265697479248 2.500004291534424 5.352457046508789 3.139804124832153 5.352457046508789 3.926224231719971 C 5.352457046508789 4.712644100189209 4.71265697479248 5.352444171905518 3.92622709274292 5.352444171905518 Z" stroke="none"/>
    <path d="M 3.92622709274292 7.852444171905518 C 1.757837057113647 7.852444171905518 -2.907257112383377e-06 6.094614028930664 -2.907257112383377e-06 3.926224231719971 C -2.907257112383377e-06 1.757834196090698 1.757837057113647 4.231720140523976e-06 3.92622709274292 4.231720140523976e-06 C 6.094626903533936 4.231720140523976e-06 7.852457046508789 1.757834196090698 7.852457046508789 3.926224231719971 C 7.852457046508789 6.094614028930664 6.094626903533936 7.852444171905518 3.92622709274292 7.852444171905518 Z" stroke="none"/>
  </g>
  <g id="Path_28" data-name="Path 28" transform="translate(149.765 162.467)">
    <path d="M 3.450081825256348 4.400160789489746 C 2.926201820373535 4.400160789489746 2.500001907348633 3.973960638046265 2.500001907348633 3.450080633163452 C 2.500001907348633 2.92620062828064 2.926201820373535 2.500000715255737 3.450081825256348 2.500000715255737 C 3.97396183013916 2.500000715255737 4.400161743164063 2.92620062828064 4.400161743164063 3.450080633163452 C 4.400161743164063 3.973960638046265 3.97396183013916 4.400160789489746 3.450081825256348 4.400160789489746 Z" stroke="none"/>
    <path d="M 3.450081825256348 6.900160789489746 C 1.544651865959167 6.900160789489746 1.825256390475261e-06 5.355510711669922 1.825256390475261e-06 3.450080633163452 C 1.825256390475261e-06 1.544650673866272 1.544651865959167 6.331634381240292e-07 3.450081825256348 6.331634381240292e-07 C 5.355511665344238 6.331634381240292e-07 6.900161743164063 1.544650673866272 6.900161743164063 3.450080633163452 C 6.900161743164063 5.355510711669922 5.355511665344238 6.900160789489746 3.450081825256348 6.900160789489746 Z" stroke="none"/>
  </g>
  <path id="Path_33" data-name="Path 33" d="M46.2.5c19.414-3.326,31.46,11,31.46,11S64.8,9.035,45.386,12.361,0,24.807,0,24.807,26.781,3.827,46.2.5Z" transform="matrix(0.985, 0.174, -0.174, 0.985, 95.364, 99.35)" fill="#111"/>
  <ellipse id="Ellipse_1" data-name="Ellipse 1" cx="1.5" cy="1" rx="1.5" ry="1" transform="translate(117.892 166.224)" fill="#fff"/>
  <ellipse id="Ellipse_2" data-name="Ellipse 2" cx="1" cy="1" rx="1" ry="1" transform="translate(153.892 166.224)" fill="#fff"/>
  <path id="Path_208" data-name="Path 208" d="M28.217,13.7,30.475,3.668l3.668-1.693L41.479,0l7.9,3.668L46.84,28.5V56.152l6.208,23.42L70.825,81.83l28.217-10.44,23.984-2.257,36.4-1.975,23.332,6.661s-5.763,13-11.265,20.97-26.552,15.318-26.552,15.318l-15.707,6.713s-13.333,5.079-22.856,6.772a54.286,54.286,0,0,1-15.394.871c-2.366,0-4.5.258-16.209-3.129S56.293,115.9,44.3,110.047,32.644,104.7,25.519,97.924,17.925,90.506,13.128,81.83s-4.274-7.94-7.66-16.123a42.227,42.227,0,0,1-3.21-15.48L0,41.2V36.964L10.44,41.2H15.8l4.515-2.54,6.49-7.619Z" transform="translate(5.505 145.766)" fill="#613400"/>
  <path id="Path_34" data-name="Path 34" d="M28.217,13.7,30.475,3.668l3.668-1.693L41.479,0l7.9,3.668L46.84,28.5V56.152l6.208,23.42L70.825,81.83l28.217-10.44,23.984-2.257,36.4-1.975,17.212,5.361s-5.5,13.474-11,21.445-20.693,16.143-20.693,16.143l-15.707,6.713s-13.333,5.079-22.856,6.772a54.286,54.286,0,0,1-15.394.871c-2.366,0-4.5.258-16.209-3.129S56.293,115.9,44.3,110.047,32.644,104.7,25.519,97.924,17.925,90.506,13.128,81.83s-4.274-7.94-7.66-16.123a42.227,42.227,0,0,1-3.21-15.48L0,41.2V36.964L10.44,41.2H15.8l4.515-2.54,6.49-7.619Z" transform="translate(10.505 148.766)" fill="#8b4a00"/>
  <path id="Path_35" data-name="Path 35" d="M22.843,0c.5,1.446-.283,12.645-5.845,23.225C10.651,35.3,0,46.122,0,46.122" transform="translate(138.109 218.463)" fill="none" stroke="#613400" stroke-linecap="round" stroke-width="3"/>
  <path id="Path_36" data-name="Path 36" d="M0,47.687S13.818,38.771,21.861,26.85,32.171,0,32.171,0" transform="translate(96.564 221.567)" fill="none" stroke="#613400" stroke-linecap="round" stroke-width="3"/>
  <path id="Path_37" data-name="Path 37" d="M0,28.781C1.521,28.5,11.542,24.191,19.513,17A57.838,57.838,0,0,0,31.885,0" transform="translate(61.578 229.467)" fill="none" stroke="#613400" stroke-linecap="round" stroke-width="3"/>
  <path id="Path_38" data-name="Path 38" d="M0,9.876c1.484-.27,10.37,2.316,17.3,0C24.734,7.391,30.192,0,30.192,0" transform="translate(28.846 222.695)" fill="none" stroke="#613400" stroke-linecap="round" stroke-width="3"/>
  <path id="Path_39" data-name="Path 39" d="M0,0A60.66,60.66,0,0,0,18.558,4.341c9.453.423,19.253-2.648,19.253-2.648" transform="translate(18.688 207.176)" fill="none" stroke="#613400" stroke-linecap="round" stroke-width="3"/>
  <ellipse id="Ellipse_17" data-name="Ellipse 17" cx="21" cy="21" rx="21" ry="21" transform="translate(192.042 25.507)" fill="#d2a175"/>
  <ellipse id="Ellipse_15" data-name="Ellipse 15" cx="21" cy="21" rx="21" ry="21" transform="translate(195.042 28.507)" fill="#ffc592"/>
  <g id="Shotgun" transform="matrix(1, 0.017, -0.017, 1, 49.308, 12.1)">
    <path id="Path_124" data-name="Path 124" d="M0,10.73s23.763,29.74,45.791,42.3,57.392,9.1,57.392,9.1l1.546-23.96S74.388,34.094,55.452,31,38.835,1.291,31.878.086,0,10.73,0,10.73Z" transform="translate(0 0)" fill="#924f03"/>
    <path id="Path_125" data-name="Path 125" d="M0,25.921H34.008V12.459H83.474V0H0L2.647,12.459" transform="translate(86.04 36.413)" fill="#434343"/>
    <path id="Path_128" data-name="Path 128" d="M.515,18.682S-.644.136.515.136,79.135-1.05,93.626,3.586s9.3,15.1,9.3,15.1Z" transform="translate(144.178 33.826)" fill="#5d3100"/>
    <path id="Path_133" data-name="Path 133" d="M.515,18.682S-.644.136.515.136,79.135-1.05,93.626,3.586s9.3,15.1,9.3,15.1Z" transform="translate(144.178 35.968)" fill="#703b00"/>
    <rect id="Rectangle_12" data-name="Rectangle 12" width="179" height="18" transform="translate(103.121 45.376)" fill="#313131"/>
    <path id="Path_126" data-name="Path 126" d="M6.906,0S0,4.642,0,9.17s6.906,8.509,6.906,8.509V0" transform="translate(95.667 45.697)" fill="#313131"/>
    <path id="Path_127" data-name="Path 127" d="M0,17.71V0" transform="translate(102.919 45.666)" fill="none" stroke="#707070" stroke-linecap="round" stroke-width="4"/>
    <rect id="Rectangle_13" data-name="Rectangle 13" width="179" height="5" transform="translate(103.121 54.376)" fill="rgba(136,136,136,0.22)"/>
    <path id="Path_129" data-name="Path 129" d="M23.495,25.374,6.775,18.292,0,9.608,8.684,3.079,23.495,0l2.741,12.194Z" transform="translate(62.545 36.612)" fill="#7a4203"/>
    <path id="Path_130" data-name="Path 130" d="M5.426,16.983A10.207,10.207,0,0,1,.232,5.778,9.231,9.231,0,0,1,5.81.818C9.818-.319,11.434-.351,16.266,1.23S24.471,2.784,26.655,7.4s2.89,9,2.369,10.659-6.4,1.289-6.4,1.289L5.426,16.983" transform="translate(68.944 17.151)" fill="none" stroke="#3b3b3b" stroke-width="3"/>
    <path id="Path_131" data-name="Path 131" d="M11.143,0a11.712,11.712,0,0,0-.853,1.658C9.569,3.32,8.13,6.316,5.316,7.817,1.052,10.091.01,9.713.01,9.713c-.474.237,15.871,2.511,15.871,2.511" transform="translate(58.589 21.901)" fill="none" stroke="#3b3b3b" stroke-width="3"/>
    <path id="Path_132" data-name="Path 132" d="M1.719,11.086A12.184,12.184,0,0,1,.013,4.832C.172,2.143,5.509,0,5.509,0" transform="translate(78.435 23.511)" fill="none" stroke="#3b3b3b" stroke-width="2"/>
  </g>
  <path id="Path_209" data-name="Path 209" d="M7.018,107.781c9.358,22.691,37.432,0,37.432,0s9.358-68.072,0-90.763-28.074-22.691-37.432,0S-2.339,85.09,7.018,107.781Z" transform="matrix(0.574, 0.819, -0.819, 0.574, 106.611, 0)" fill="#1a1a1a"/>
  <path id="Path_41" data-name="Path 41" d="M7.018,107.781c9.358,22.691,37.432,0,37.432,0s9.358-68.072,0-90.763-28.074-22.691-37.432,0S-2.339,85.09,7.018,107.781Z" transform="matrix(0.574, 0.819, -0.819, 0.574, 111.611, 2)" fill="#303030"/>
  <ellipse id="Ellipse_16" data-name="Ellipse 16" cx="21" cy="21" rx="21" ry="21" transform="translate(95.041 4.507)" fill="#d2a175"/>
  <ellipse id="Ellipse_14" data-name="Ellipse 14" cx="21" cy="21" rx="21" ry="21" transform="translate(98.041 7.507)" fill="#ffc592"/>
</svg>
