<svg xmlns="http://www.w3.org/2000/svg" width="147.423" height="230.382" viewBox="0 0 147.423 230.382"><g transform="translate(0 0)"><g transform="translate(146.257 214.215) rotate(166)"><path d="M 38.12334823608398 32.73320388793945 C 38.12208938598633 32.73320388793945 38.12191772460938 32.73320388793945 38.12066268920898 32.73320388793945 C 26.03069114685059 32.7328987121582 12.51197624206543 30.70639610290527 7.944209098815918 29.96011734008789 C 7.284227848052979 28.73165702819824 6.297500610351563 26.75588035583496 5.422060966491699 24.44520568847656 C 3.611047744750977 19.66508483886719 3.064901113510132 15.60813903808594 3.842700958251953 12.71295166015625 C 4.375461101531982 10.72987174987793 5.501447677612305 9.33029842376709 7.386274337768555 8.308418273925781 C 10.16098117828369 6.8040452003479 13.85004806518555 5.570725440979004 18.05462074279785 4.74177885055542 C 22.17520713806152 3.929405212402344 26.80706024169922 3.50000524520874 31.4494743347168 3.50000524520874 C 36.09188842773438 3.50000524520874 40.72373962402344 3.929405212402344 44.84432601928711 4.74177885055542 C 49.04890060424805 5.570725440979004 52.73796844482422 6.8040452003479 55.51267623901367 8.308418273925781 C 60.48078155517578 11.00196552276611 63.33012771606445 14.96533870697021 63.33012771606445 19.18228530883789 C 63.33012771606445 23.39923286437988 60.48078155517578 27.36260604858398 55.51267623901367 30.05615234375 C 53.26015090942383 31.27740287780762 48.41393280029297 32.73320388793945 38.12334823608398 32.73320388793945 Z" stroke="none"/><path d="M 38.12369155883789 29.23320198059082 L 38.1235237121582 29.23320198059082 C 48.18497467041016 29.23320198059082 52.29188919067383 27.82105255126953 53.84449005126953 26.97928619384766 C 57.64845657348633 24.91690254211426 59.83013916015625 22.07500267028809 59.83012390136719 19.1822681427002 C 59.83012390136719 16.2895679473877 57.64844131469727 13.44766902923584 53.84449005126953 11.38528537750244 C 48.77979278564453 8.639351844787598 40.4078254699707 7.000001907348633 31.4494743347168 7.000001907348633 C 22.49114036560059 7.000001907348633 14.11917400360107 8.639369010925293 9.054457664489746 11.38528537750244 C 8.019107818603516 11.94661903381348 7.505990982055664 12.57191848754883 7.224340915679932 13.61548519134521 C 6.279222965240479 17.11739158630371 8.347156524658203 22.8873176574707 10.23706531524658 26.78045082092285 C 15.80707931518555 27.64062881469727 27.54718208312988 29.23294448852539 38.12369155883789 29.23320198059082 M 38.12057876586914 36.23320388793945 C 22.87304878234863 36.23282623291016 5.718091011047363 33.13303375244141 5.718091011047363 33.13303375244141 C 5.718091011047363 33.13303375244141 -7.147609233856201 12.20690155029297 5.718091011047363 5.2315354347229 C 12.15093231201172 1.743843674659729 21.80020332336426 -2.191162138842628e-06 31.4494743347168 -2.191162138842628e-06 C 41.0987434387207 -2.191162138842628e-06 50.74801635742188 1.743843674659729 57.18085861206055 5.2315354347229 C 70.04655456542969 12.20690155029297 70.04655456542969 26.15765190124512 57.18085861206055 33.13303375244141 C 52.89177322387695 35.45844650268555 45.7457389831543 36.23339462280273 38.12057876586914 36.23320388793945 Z" stroke="none"/></g><g transform="matrix(-0.978, 0.208, -0.208, -0.978, 72.903, 214.493)"><path d="M 38.12334823608398 32.73320388793945 C 38.12208938598633 32.73320388793945 38.12191772460938 32.73320388793945 38.12066268920898 32.73320388793945 C 26.03069114685059 32.7328987121582 12.51197624206543 30.70639610290527 7.944209098815918 29.96011734008789 C 7.284227848052979 28.73165702819824 6.297500610351563 26.75588035583496 5.422060966491699 24.44520568847656 C 3.611047744750977 19.66508483886719 3.064901113510132 15.60813903808594 3.842700958251953 12.71295166015625 C 4.375461101531982 10.72987174987793 5.501447677612305 9.33029842376709 7.386274337768555 8.308418273925781 C 10.16098117828369 6.8040452003479 13.85004806518555 5.570738792419434 18.05462074279785 4.74179220199585 C 22.17520713806152 3.929405212402344 26.80706024169922 3.50000524520874 31.4494743347168 3.50000524520874 C 36.09188842773438 3.50000524520874 40.72373962402344 3.929405212402344 44.84432601928711 4.74179220199585 C 49.04890060424805 5.570738792419434 52.73796844482422 6.8040452003479 55.51267623901367 8.308418273925781 C 60.48078155517578 11.00196552276611 63.33012771606445 14.96533870697021 63.33012771606445 19.18228530883789 C 63.33012771606445 23.39923286437988 60.48078155517578 27.36260604858398 55.51267623901367 30.05615234375 C 53.26015090942383 31.27740287780762 48.41393280029297 32.73320388793945 38.12334823608398 32.73320388793945 Z" stroke="none"/><path d="M 38.12369155883789 29.23320198059082 L 38.1235237121582 29.23320198059082 C 48.18497467041016 29.23320198059082 52.29188919067383 27.82105255126953 53.84449005126953 26.97928619384766 C 57.64844131469727 24.91690254211426 59.83012390136719 22.07500267028809 59.83012390136719 19.18230247497559 C 59.83013916015625 16.2895679473877 57.64845657348633 13.44766902923584 53.84449005126953 11.38528537750244 C 48.77979278564453 8.639351844787598 40.4078254699707 7.000001907348633 31.4494743347168 7.000001907348633 C 22.49114036560059 7.000001907348633 14.11917400360107 8.639369010925293 9.054457664489746 11.38528537750244 C 8.019107818603516 11.94661903381348 7.505990982055664 12.57191848754883 7.224340915679932 13.61550235748291 C 6.279236316680908 17.11740684509277 8.347160339355469 22.8873233795166 10.2370662689209 26.78045082092285 C 15.80708026885986 27.6406307220459 27.54718208312988 29.23294448852539 38.12369155883789 29.23320198059082 M 38.12057876586914 36.23320388793945 C 22.87304878234863 36.23282623291016 5.718091011047363 33.13303375244141 5.718091011047363 33.13303375244141 C 5.718091011047363 33.13303375244141 -7.147609233856201 12.20691871643066 5.718091011047363 5.2315354347229 C 12.15093231201172 1.743843674659729 21.80020332336426 -2.191162138842628e-06 31.4494743347168 -2.191162138842628e-06 C 41.0987434387207 -2.191162138842628e-06 50.74801635742188 1.743843674659729 57.18085861206055 5.2315354347229 C 70.04655456542969 12.20691871643066 70.04655456542969 26.15766906738281 57.18085861206055 33.13303375244141 C 52.89177322387695 35.45844650268555 45.7457389831543 36.23339462280273 38.12057876586914 36.23320388793945 Z" stroke="none"/></g><g transform="translate(147.423 197.009) rotate(177)" fill="#616161"><path d="M 61.926513671875 193.7792205810547 C 61.92377853393555 193.7792205810547 61.92167663574219 193.7792205810547 61.91894149780273 193.7792205810547 C 61.71579742431641 193.7791900634766 61.50353240966797 193.7777557373047 61.30514907836914 193.7750091552734 C 57.59417724609375 193.7241973876953 53.98729705810547 193.1874237060547 50.58470916748047 192.1796875 C 47.31350326538086 191.2108612060547 44.13959121704102 189.7797241210938 41.15111923217773 187.9260101318359 C 35.42208862304688 184.372314453125 30.17400169372559 179.154541015625 25.55264854431152 172.417724609375 C 19.66047286987305 163.8282775878906 14.79456043243408 152.8440704345703 11.09008979797363 139.7701568603516 C 9.382384300231934 133.7433929443359 7.931295871734619 127.281364440918 6.777060508728027 120.5636291503906 C 5.676237106323242 114.1568069458008 4.838766574859619 107.4822540283203 4.28791332244873 100.7253112792969 C 3.242148637771606 87.89784240722656 3.238678216934204 74.85727691650391 4.277854442596436 63.01345443725586 C 5.286678314208984 51.51566314697266 7.221972465515137 41.65127944946289 9.874530792236328 34.48677825927734 C 11.60744285583496 29.80619239807129 14.42356014251709 25.45430946350098 18.24459075927734 21.55207443237305 C 21.91803169250488 17.80054473876953 26.46617889404297 14.51004409790039 31.76273727416992 11.77198600769043 C 42.08135604858398 6.437720775604248 54.71803283691406 3.499985694885254 67.34494018554688 3.499985694885254 C 73.22544097900391 3.499985694885254 78.93244171142578 4.134161949157715 84.30741119384766 5.384868144989014 C 89.8475341796875 6.674015045166016 94.9278564453125 8.596044540405273 99.40723419189453 11.0976037979126 C 104.0747680664063 13.70422077178955 108.0532684326172 16.92475128173828 111.232177734375 20.66969108581543 C 114.5970611572266 24.63369178771973 117.0855331420898 29.2161922454834 118.6284408569336 34.28989791870117 C 121.1515274047852 42.58675003051758 122.827766418457 53.26466369628906 123.4759140014648 65.16928100585938 C 124.1388549804688 77.34577941894531 123.703971862793 90.53768920898438 122.2182693481445 103.3189010620117 C 121.4404983520508 110.0098114013672 120.3761749267578 116.6000137329102 119.0548553466797 122.9063949584961 C 117.6776504516602 129.4794616699219 116.010498046875 135.792724609375 114.0997085571289 141.6708679199219 C 109.9875335693359 154.321044921875 104.7854690551758 164.9403076171875 98.63803100585938 173.2336883544922 C 93.76388549804688 179.8092803955078 88.30144500732422 184.8791656494141 82.40241241455078 188.3025512695313 C 79.32973480224609 190.085693359375 76.08376312255859 191.4503936767578 72.75473785400391 192.3586883544922 C 69.30012512207031 193.3012390136719 65.65659332275391 193.7792205810547 61.926513671875 193.7792205810547 Z" stroke="none"/><path d="M 61.92670440673828 197.2792358398438 L 61.92777252197266 190.2792358398438 L 61.92670440673828 197.2792358398438 L 61.92670440673828 190.2792358398438 C 75.01267242431641 190.2792358398438 86.41890716552734 183.8414916992188 95.82853698730469 171.1448974609375 C 121.7275695800781 136.1987915039063 124.6874084472656 66.2435302734375 115.2798690795898 35.30819702148438 C 108.9327392578125 14.43656444549561 86.35650634765625 6.999997615814209 67.34494018554688 6.999997615814209 C 41.69650650024414 6.999997615814209 19.41353797912598 18.80269813537598 13.15680599212646 35.70199584960938 C 2.519738912582397 64.43256378173828 4.289705753326416 135.2340240478516 28.43883895874023 170.4378356933594 C 37.34700393676758 183.4238586425781 48.42097091674805 190.0981597900391 61.35343933105469 190.2753601074219 L 61.92670440673828 197.2792358398438 M 61.91833877563477 197.2792358398438 C 61.70135498046875 197.2791900634766 61.47539520263672 197.2776794433594 61.25720596313477 197.2747039794922 C -0.3776611089706421 196.4302673339844 -8.587660789489746 74.27236175537109 6.592272281646729 33.27156448364258 C 14.46391487121582 12.01042461395264 41.30488967895508 -1.373697887174785e-05 67.34494781494141 -1.373697887174785e-05 C 91.52149963378906 -1.373697887174785e-05 115.0078430175781 10.35435009002686 121.9770355224609 33.27156448364258 C 136.4013977050781 80.70395660400391 122.9961013793945 197.2898864746094 61.91833877563477 197.2792358398438 Z" stroke="none"/></g></g></svg>