<svg xmlns="http://www.w3.org/2000/svg" viewBox="0 0 110.02095 56.48039"><defs><style>.cls-1{fill:#fff;stroke-width:2px;}.cls-1,.cls-2{stroke:#009245;stroke-miterlimit:10;}.cls-2{fill:#39b54a;}</style></defs><g id="Layer_2" data-name="Layer 2"><g id="Layer_2-2" data-name="Layer 2"><path class="cls-1" d="M1,16.98039v32H66.9a22,22,0,1,0,0-32Z"/><g id="Layer_2-3" data-name="Layer 2"><g id="Layer_3" data-name="Layer 3"><polygon class="cls-2" points="83.159 55.98 83.158 42.786 91.875 48.886 98.848 49.758 94.49 45.4 88.388 41.914 99.719 41.042 108.435 34.939 97.104 34.94 89.259 36.684 101.461 26.224 104.947 16.636 93.617 22.738 84.901 34.07 87.515 20.124 82.285 1.82 77.056 20.124 79.672 34.07 70.955 22.74 59.624 16.639 63.11 26.226 75.314 36.685 67.469 34.942 56.138 34.943 64.854 41.043 76.185 41.914 70.085 45.401 65.727 49.759 72.7 48.888 81.415 42.786 81.416 55.98 83.159 55.98"/></g></g></g></g></svg>