<svg xmlns="http://www.w3.org/2000/svg" width="334.887" height="274.599" viewBox="0 0 334.887 274.599"><g transform="translate(2.533)"><g transform="translate(215.181 24.927) rotate(62.999)"><path d="M34.011,109.862H3.643c-.648-5.81-2.176-20.5-3.029-36.828C-.823,45.527.274,25.918,3.785,16.325c1.988-5.432,4.543-9.8,7.389-12.623A14.105,14.105,0,0,1,15.1.864a8.456,8.456,0,0,1,7.446,0A14.107,14.107,0,0,1,26.479,3.7c2.846,2.827,5.4,7.192,7.389,12.623,3.513,9.6,4.609,29.218,3.17,56.743C36.184,89.392,34.658,104.058,34.011,109.862Z" transform="translate(3 3)" fill="#878787"/><path d="M34.334,109.862c2.507-23.155,6.1-72.077-.283-89.505C30.176,9.771,25.2,6,21.827,6S13.478,9.771,9.6,20.357C3.227,37.775,6.815,86.7,9.32,109.862H34.334m5.351,6H3.969s-8.929-73.176,0-97.568C8.433,6.1,15.13,0,21.827,0S35.221,6.1,39.686,18.294C48.615,42.686,39.686,115.862,39.686,115.862Z" transform="translate(0 0)" fill="#878787"/></g><path d="M79.487,5.909C45.639,16.788,38.216,17.062,21.9,49.1c-3.8,7.465-6.994,14.147-9.483,20.417-2.442,1.574-4.019,2.659-6.859,7.3C1.631,83.22.13,86.062.01,92.91s.758,6.9,5.064,11.294c.558.569,1.089,1.074,1.6,1.524.918,7.744,3.241,16.038,7.151,25.634C27.124,164,34,171.712,63.347,184.184s51.355,13.572,77.766,0,27.145-11.371,40.919-37.049-3.87-40.73-3.87-63.094,5.5-20.175,7.7-36.682-4.438-27.276-28.011-36.947C143.336,4.456,129.808,0,113.652,0,103.579,0,92.487,1.731,79.487,5.909Z" transform="translate(4.695 77.144)" fill="#ffdcbe" stroke="#000" stroke-width="7"/><path d="M1.408,20c-1.622,7.336-2.116,10.512,0,17.026S4.371,43.3,9.873,46.051s8.183,2.4,13.544,1.975,4.867-.494,7.9-3.668,3.6-3.95,4.233-9.029-.282-5.643-1.693-11.287-1.34-6-3.95-11.287-2.681-6.843-6.49-9.876S18.55-.577,14.67.622,11.214,2.833,7.9,7.676,3.031,12.659,1.408,20Z" transform="matrix(0.946, 0.326, -0.326, 0.946, 15.73, 134.59)" fill="none" stroke="#000" stroke-width="4"/><path d="M2.487,23.114C-5.124,19.5,6.529,6.333,13.408,2.714s12.167-3.619,19.779,0C40.562,6.22,43.84,14.8,37.7,18.663c-.116.074-.533.3-.533.3s-7.67,2.586-13.409,2.844C15.813,22.169,6.94,25.231,2.487,23.114Z" transform="translate(89.908 150.709)" fill="#ffb60c" stroke="#000" stroke-width="4"/><path d="M33.771,20.311c6.688-3.18-3.552-14.746-9.6-17.926s-10.692-3.18-17.38,0C.313,5.466-2.568,13,2.827,16.4c.1.065.469.267.469.267s6.74,2.273,11.783,2.5C22.061,19.48,29.858,22.171,33.771,20.311Z" transform="translate(144.67 152.838)" fill="#ffb60c" stroke="#000" stroke-width="4"/><path d="M60.177,0,55,10.89V6.832l-1.773,1-6.97,3.907,1.974-4.911L33.848,12.6l3.1-5.765L23.129,12.6l5.36-5.763L12.975,10.89,18.9,5.979,0,3.844,18.9,0A175.671,175.671,0,0,0,38.564,1.192C48.881,1.192,60.177,0,60.177,0Z" transform="matrix(0.999, -0.035, 0.035, 0.999, 67.958, 172.758)" fill="#474747" stroke="#000" stroke-width="2"/><path d="M52.88,12.583,48.332,1.706V5.759l-1.558-1L40.648.853l1.735,4.906L29.743,0l2.726,5.759L20.324,0l4.709,5.759L11.4,1.706l5.2,4.905L0,8.745l16.607,3.839A136.106,136.106,0,0,1,33.887,11.4,185.943,185.943,0,0,1,52.88,12.583Z" transform="matrix(-0.999, -0.035, 0.035, -0.999, 198.148, 183.732)" fill="#474747" stroke="#000" stroke-width="2"/><g transform="translate(115.246 159.39)"><path d="M1.426,2.852A1.426,1.426,0,1,1,2.852,1.426,1.428,1.428,0,0,1,1.426,2.852Z" transform="translate(2.5 2.5)"/><path d="M3.926,7.852A3.926,3.926,0,1,1,7.852,3.926,3.926,3.926,0,0,1,3.926,7.852Z" transform="translate(0 0)"/></g><g transform="translate(151.461 160.467)"><path d="M.95,1.9A.95.95,0,1,1,1.9.95.951.951,0,0,1,.95,1.9Z" transform="translate(2.5 2.5)"/><path d="M3.45,6.9A3.45,3.45,0,1,1,6.9,3.45,3.45,3.45,0,0,1,3.45,6.9Z" transform="translate(0 0)"/></g><path d="M3.1,10.266c1.27-7.4,1.546-7.135.771-9.37S0,1.312,0,1.312" transform="translate(129.476 175.673) rotate(-15.009)" fill="none" stroke="#000" stroke-linecap="round" stroke-width="2"/><path d="M.955,9.424C.112,4.9-.125,3.022.058,1.987.286,1.068.525.153,1.8.009s3.358,1.4,3.358,1.4" transform="translate(139.653 174.867) rotate(15.009)" fill="none" stroke="#000" stroke-linecap="round" stroke-width="2"/><path d="M46.076.5c19.364-3.337,31.379,11.05,31.379,11.05s-12.823-2.478-32.186.863S0,24.913,0,24.913,26.712,3.845,46.076.5Z" transform="matrix(0.974, 0.225, -0.225, 0.974, 103.817, 100.613)"/><ellipse cx="1.5" cy="1" rx="1.5" ry="1" transform="translate(119.588 164.224)" fill="#fff"/><ellipse cx="1" cy="1" rx="1" ry="1" transform="translate(155.588 164.224)" fill="#fff"/><path d="M28.217,13.7,30.475,3.668l3.668-1.693L41.479,0l7.9,3.668L46.84,28.5V56.152l6.208,23.42L70.825,81.83,99.042,71.39l23.984-2.257,36.4-1.975,17.212,5.361-11,21.445-11,10.44-25.4,12.416-22.856,6.772H91.142l-16.366-2.257L44.3,110.047,26.806,97.913l-11-14.955L7.619,63.206,2.258,50.226,0,41.2V36.964L10.44,41.2H15.8l4.515-2.54,6.49-7.619Z" transform="translate(12.201 146.766)" fill="#a55800" stroke="#000" stroke-width="5"/><path d="M23.47,0c.5,1.446-.283,12.645-5.845,23.225C11.277,35.3,0,46.84,0,46.84" transform="translate(139.178 216.463)" fill="none" stroke="#000" stroke-linecap="round" stroke-width="3"/><path d="M0,47.687S13.818,38.771,21.861,26.85,32.171,0,32.171,0" transform="translate(98.26 219.567)" fill="none" stroke="#000" stroke-linecap="round" stroke-width="3"/><path d="M0,28.781C1.521,28.5,11.542,24.191,19.513,17A57.838,57.838,0,0,0,31.885,0" transform="translate(63.274 227.467)" fill="none" stroke="#000" stroke-linecap="round" stroke-width="3"/><path d="M0,9.876c1.484-.27,10.371,2.316,17.3,0C24.734,7.391,30.192,0,30.192,0" transform="translate(30.542 220.695)" fill="none" stroke="#000" stroke-linecap="round" stroke-width="3"/><path d="M0,0A60.66,60.66,0,0,0,18.558,4.341c9.453.423,19.253-2.648,19.253-2.648" transform="translate(20.384 205.176)" fill="none" stroke="#000" stroke-linecap="round" stroke-width="3"/><g transform="translate(51.004 10.099) rotate(0.974)"><path d="M0,10.732S23.766,40.476,45.8,53.038s57.4,9.1,57.4,9.1l1.546-23.963S74.4,34.1,55.46,31,38.841,1.291,31.883.086,0,10.732,0,10.732Z" transform="translate(0 0)" fill="#924f03"/><path d="M0,25.925H34.013V12.461H83.486V0H0L2.647,12.461" transform="translate(86.053 36.417)" fill="#434343"/><path d="M.515,18.685S-.644.136.515.136,79.146-1.05,93.64,3.586s9.3,15.1,9.3,15.1Z" transform="translate(144.199 33.831)" fill="#5d3100"/><path d="M.515,18.685S-.644.136.515.136,79.146-1.05,93.64,3.586s9.3,15.1,9.3,15.1Z" transform="translate(144.199 35.973)" fill="#703b00"/><rect width="179.026" height="18.003" transform="translate(103.136 45.383)" fill="#313131"/><path d="M6.907,0S0,4.643,0,9.171s6.907,8.51,6.907,8.51V0" transform="translate(95.681 45.704)" fill="#313131"/><path d="M0,17.713V0" transform="translate(102.934 45.673)" fill="none" stroke="#707070" stroke-linecap="round" stroke-width="4"/><rect width="179.026" height="5.001" transform="translate(103.136 54.384)" fill="rgba(136,136,136,0.22)"/><path d="M23.5,25.378,6.776,18.295,0,9.609l8.685-6.53L23.5,0,26.24,12.2Z" transform="translate(62.554 36.617)" fill="#7a4203"/><path d="M5.432,16.986A10.208,10.208,0,0,1,.237,5.779,9.232,9.232,0,0,1,5.816.818C9.825-.319,11.441-.351,16.274,1.23S24.48,2.785,26.664,7.4s2.89,9,2.369,10.661-6.4,1.289-6.4,1.289l-17.2-2.365" transform="translate(68.949 17.153)" fill="none" stroke="#3b3b3b" stroke-width="3"/><path d="M11.145,0a11.713,11.713,0,0,0-.853,1.658c-.721,1.662-2.16,4.659-4.975,6.16C1.052,10.092.01,9.714.01,9.714c-.474.237,15.873,2.511,15.873,2.511" transform="translate(58.597 21.904)" fill="none" stroke="#3b3b3b" stroke-width="3"/><path d="M1.706,11.088A12.186,12.186,0,0,1,0,4.833C.159,2.143,5.5,0,5.5,0" transform="translate(78.459 23.514)" fill="none" stroke="#3b3b3b" stroke-width="2"/></g><g transform="translate(113.307 0) rotate(54.975)"><path d="M17.885,111.878h0A10.869,10.869,0,0,1,11.7,110.17a13.9,13.9,0,0,1-4.9-6.521A86.717,86.717,0,0,1,1.722,83.782,167.554,167.554,0,0,1,0,59.406,167.551,167.551,0,0,1,1.722,35.031,86.711,86.711,0,0,1,6.793,15.164a39.54,39.54,0,0,1,3.63-6.92,24.415,24.415,0,0,1,4.062-4.739A15.041,15.041,0,0,1,18.654.837,10.672,10.672,0,0,1,22.737,0h0A10.673,10.673,0,0,1,26.82.837a15.041,15.041,0,0,1,4.169,2.668,24.415,24.415,0,0,1,4.062,4.739,39.538,39.538,0,0,1,3.63,6.92c3.655,8.863,4.793,27.044,3.288,52.576C41,84.252,39.191,98.935,38.644,103.165a60.637,60.637,0,0,1-6.368,4.1C26.862,110.284,21.885,111.878,17.885,111.878Z" transform="translate(3 3)" fill="#878787"/><path d="M20.886,111.878h0c6.166,0,13.878-4.508,17.954-7.377,2.61-20.262,6.941-68.529.068-85.194C35.472,10.975,30.548,6,25.737,6S16,10.975,12.567,19.308c-8.8,21.348-8.8,64.85,0,86.2,2.316,5.616,5.5,6.373,8.319,6.373m0,6c-5.546,0-10.746-2.521-13.865-10.085C-2.34,85.1-2.34,39.713,7.019,17.02,11.7,5.673,18.718,0,25.737,0S39.776,5.673,44.456,17.02c9.359,22.693,0,90.774,0,90.774S31.977,117.88,20.885,117.879Z" transform="translate(0)" fill="#878787"/></g></g></svg>