<svg xmlns="http://www.w3.org/2000/svg" width="334.823" height="274.599" viewBox="0 0 334.823 274.599"><g transform="translate(-296.879 -654.625)"><g transform="translate(413.983 846.549) rotate(-63)" fill="#878787"><path d="M 16.04933166503906 112.8621139526367 C 14.81151390075684 112.8621139526367 13.55893135070801 112.5715179443359 12.32635021209717 111.998420715332 C 10.98909568786621 111.3766403198242 9.667131423950195 110.4217300415039 8.397168159484863 109.1602096557617 C 5.551440715789795 106.3334426879883 2.996295213699341 101.9683303833008 1.007949829101563 96.53680419921875 C -2.505159139633179 86.94007873535156 -3.601232051849365 67.31862640380859 -2.161777496337891 39.79371643066406 C -1.308091640472412 23.46967506408691 0.2179225981235504 8.804075241088867 0.8652353882789612 3.000005960464478 L 31.23333930969238 3.000005960464478 C 31.88116836547852 8.809930801391602 33.40930557250977 23.49798583984375 34.26226043701172 39.82838821411133 C 35.69895172119141 67.33489990234375 34.60226058959961 86.94435119628906 31.09071350097656 96.53680419921875 C 29.10236740112305 101.9683303833008 26.54722213745117 106.3334426879883 23.70149612426758 109.1602096557617 C 22.43153190612793 110.4217300415039 21.10956764221191 111.3766403198242 19.77231407165527 111.998420715332 C 18.53973197937012 112.5715179443359 17.28714942932129 112.8621139526367 16.04933166503906 112.8621139526367 Z" stroke="none"/><path d="M 3.542228698730469 5.999992370605469 C 1.035331726074219 29.15522003173828 -2.554866790771484 78.07736206054688 3.825138092041016 95.5054931640625 C 7.700050354003906 106.0906219482422 12.68046379089355 109.8621063232422 16.0493335723877 109.8621063232422 C 19.41820335388184 109.8621063232422 24.39861679077148 106.0906219482422 28.27355194091797 95.5054931640625 C 34.64990615844727 78.08724975585938 31.06155204772949 29.15903472900391 28.55601692199707 5.999992370605469 L 3.542228698730469 5.999992370605469 M -1.809211730957031 -7.62939453125e-06 L 33.90787887573242 -7.62939453125e-06 C 33.90787887573242 -7.62939453125e-06 42.837158203125 73.17605590820313 33.90787887573242 97.56808471679688 C 29.44324684143066 109.7641067504883 22.74629020690918 115.8621139526367 16.0493335723877 115.8621139526367 C 9.352376937866211 115.8621139526367 2.655420303344727 109.7641067504883 -1.809211730957031 97.56808471679688 C -10.73849105834961 73.17605590820313 -1.809211730957031 -7.62939453125e-06 -1.809211730957031 -7.62939453125e-06 Z" stroke="none"/></g><path d="M79.487,188.047c-33.848-10.88-41.271-11.153-57.591-43.188-3.8-7.465-6.994-14.147-9.483-20.417-2.442-1.574-4.019-2.659-6.859-7.3-3.923-6.408-5.424-9.25-5.543-16.1s.758-6.9,5.064-11.294c.558-.569,1.089-1.074,1.6-1.524.918-7.744,3.241-16.038,7.151-25.634C27.124,29.954,34,22.243,63.347,9.771s51.355-13.572,77.766,0,27.145,11.371,40.919,37.049-3.87,40.73-3.87,63.094,5.5,20.175,7.7,36.682-4.438,27.276-28.011,36.947c-14.52,5.957-28.048,10.412-44.2,10.413C103.578,193.956,92.486,192.225,79.487,188.047Z" transform="translate(304.108 658.125)" fill="#ffdcbe" stroke="#000" stroke-width="7"/><path d="M1.408,28.319c-1.622-7.336-2.116-10.512,0-17.026S4.371,5.015,9.873,2.264,18.056-.135,23.417.288s4.867.494,7.9,3.668,3.6,3.95,4.233,9.029-.282,5.643-1.693,11.287-1.34,6-3.95,11.287-2.681,6.843-6.49,9.876-4.867,3.457-8.747,2.257S11.214,45.482,7.9,40.639,3.031,35.656,1.408,28.319Z" transform="translate(299.412 748.951) rotate(-19)" fill="none" stroke="#000" stroke-width="4"/><path d="M2734.592,407.337c-7.612,3.619,4.042,16.781,10.92,20.4s12.167,3.619,19.779,0c7.376-3.506,10.654-12.081,4.515-15.95-.116-.074-.533-.3-.533-.3s-7.67-2.586-13.409-2.844C2747.917,408.282,2739.044,405.22,2734.592,407.337Z" transform="translate(-2342.784 348.064)" fill="#ffb60c" stroke="#000" stroke-width="4"/><path d="M2765.875,407.247c6.688,3.18-3.552,14.746-9.6,17.926s-10.692,3.18-17.38,0c-6.481-3.081-9.362-10.616-3.967-14.015.1-.065.469-.267.469-.267s6.74-2.273,11.783-2.5C2754.166,408.078,2761.962,405.387,2765.875,407.247Z" transform="translate(-2288.022 348.828)" fill="#ffb60c" stroke="#000" stroke-width="4"/><path d="M60.2,12.6,55.023,1.709V5.767l-1.774-1L46.276.854l1.975,4.913L33.861,0l3.1,5.767L23.138,0,28.5,5.767,12.98,1.709l5.926,4.913L0,8.758,18.905,12.6a175.735,175.735,0,0,1,19.674-1.192C48.9,11.411,60.2,12.6,60.2,12.6Z" transform="translate(367.81 743.871) rotate(2)" fill="#474747" stroke="#000" stroke-width="2"/><path d="M52.9,0,48.351,10.881V6.827l-1.559,1-6.128,3.9L42.4,6.827,29.754,12.588l2.727-5.761-12.15,5.761,4.711-5.761L11.406,10.881l5.207-4.907L0,3.84,16.613,0A136.159,136.159,0,0,0,33.9,1.19,186.012,186.012,0,0,0,52.9,0Z" transform="matrix(-0.999, 0.035, -0.035, -0.999, 498, 758.072)" fill="#474747" stroke="#000" stroke-width="2"/><g transform="translate(414.658 761.981)"><path d="M 3.926225185394287 5.352455615997314 C 3.139795303344727 5.352455615997314 2.499995231628418 4.712655544281006 2.499995231628418 3.926225662231445 C 2.499995231628418 3.139795780181885 3.139795303344727 2.499995708465576 3.926225185394287 2.499995708465576 C 4.712655067443848 2.499995708465576 5.352455139160156 3.139795780181885 5.352455139160156 3.926225662231445 C 5.352455139160156 4.712655544281006 4.712655067443848 5.352455615997314 3.926225185394287 5.352455615997314 Z" stroke="none"/><path d="M 3.926225185394287 -4.291534423828125e-06 C 6.09461498260498 -4.291534423828125e-06 7.852455139160156 1.757835865020752 7.852455139160156 3.926225662231445 C 7.852455139160156 6.094615936279297 6.09461498260498 7.852455615997314 3.926225185394287 7.852455615997314 C 1.757835388183594 7.852455615997314 -4.76837158203125e-06 6.094615936279297 -4.76837158203125e-06 3.926225662231445 C -4.76837158203125e-06 1.757835865020752 1.757835388183594 -4.291534423828125e-06 3.926225185394287 -4.291534423828125e-06 Z" stroke="none"/></g><g transform="translate(450.873 761.857)"><path d="M 3.450082302093506 4.400161743164063 C 2.926202297210693 4.400161743164063 2.500002384185791 3.97396183013916 2.500002384185791 3.450081825256348 C 2.500002384185791 2.926201820373535 2.926202297210693 2.500001907348633 3.450082302093506 2.500001907348633 C 3.973962306976318 2.500001907348633 4.400162220001221 2.926201820373535 4.400162220001221 3.450081825256348 C 4.400162220001221 3.97396183013916 3.973962306976318 4.400161743164063 3.450082302093506 4.400161743164063 Z" stroke="none"/><path d="M 3.450082302093506 1.9073486328125e-06 C 5.355512142181396 1.9073486328125e-06 6.900162220001221 1.544651985168457 6.900162220001221 3.450081825256348 C 6.900162220001221 5.355511665344238 5.355512142181396 6.900161743164063 3.450082302093506 6.900161743164063 C 1.544652462005615 6.900161743164063 2.384185791015625e-06 5.355511665344238 2.384185791015625e-06 3.450081825256348 C 2.384185791015625e-06 1.544651985168457 1.544652462005615 1.9073486328125e-06 3.450082302093506 1.9073486328125e-06 Z" stroke="none"/></g><path d="M3.1,0c1.272,7.4,1.547,7.135.773,9.373S0,8.953,0,8.953" transform="matrix(0.966, 0.259, -0.259, 0.966, 431.546, 743.635)" fill="none" stroke="#000" stroke-linecap="round" stroke-width="2"/><path d="M.955,0C.112,4.526-.125,6.4.058,7.437.286,8.355.525,9.27,1.8,9.413s3.358-1.4,3.358-1.4" transform="matrix(0.966, -0.259, 0.259, 0.966, 436.627, 745.255)" fill="none" stroke="#000" stroke-linecap="round" stroke-width="2"/><path d="M46.076,24.408C65.44,27.748,77.455,13.36,77.455,13.36S64.632,15.838,45.269,12.5,0,0,0,0,26.712,21.068,46.076,24.408Z" transform="translate(397.626 804.337) rotate(-13)"/><ellipse cx="1.5" cy="1" rx="1.5" ry="1" transform="translate(419 763)" fill="#fff"/><circle cx="1" cy="1" r="1" transform="translate(455 763)" fill="#fff"/><path d="M2519.028,286.471l2.257,10.032,3.668,1.693,7.336,1.975,7.9-3.668-2.54-24.831V244.019l6.208-23.42,17.777-2.257,28.217,10.44,23.984,2.257,36.4,1.975,17.212-5.361-11-21.445-11-10.44-25.4-12.416-22.856-6.772h-15.237l-16.366,2.257-30.474,11.287-17.495,12.133-11,14.955-8.183,19.752-5.361,12.98-2.258,9.029v4.233l10.44-4.233h5.361l4.515,2.54,6.49,7.619Z" transform="translate(-2179.198 482.286)" fill="#a55800" stroke="#000" stroke-width="5"/><path d="M2934.71,246.778c.5-1.446-.283-12.645-5.845-23.225-6.347-12.072-17.625-23.616-17.625-23.616" transform="translate(-2472.65 465.983)" fill="none" stroke="#000" stroke-linecap="round" stroke-width="3"/><path d="M2775.756,186.858s13.818,8.916,21.861,20.837,10.31,26.85,10.31,26.85" transform="translate(-2378.084 475.113)" fill="none" stroke="#000" stroke-linecap="round" stroke-width="3"/><path d="M2659.917,223.295c1.521.277,11.542,4.591,19.513,11.786a57.838,57.838,0,0,1,12.372,17" transform="translate(-2297.231 449.68)" fill="none" stroke="#000" stroke-linecap="round" stroke-width="3"/><path d="M2551.54,306.069c1.484.27,10.37-2.316,17.3,0,7.435,2.485,12.893,9.876,12.893,9.876" transform="translate(-2221.585 392.584)" fill="none" stroke="#000" stroke-linecap="round" stroke-width="3"/><path d="M2517.906,382.276a60.66,60.66,0,0,1,18.558-4.341c9.453-.423,19.253,2.648,19.253,2.648" transform="translate(-2198.109 341.772)" fill="none" stroke="#000" stroke-linecap="round" stroke-width="3"/><g transform="matrix(1, -0.017, 0.017, 1, -1407.719, 60.302)"><path d="M1074.879-1640.653s23.763-29.74,45.791-42.3,57.392-9.1,57.392-9.1l1.546,23.96s-30.34,4.075-49.276,7.166-16.617,29.712-23.574,30.916S1074.879-1640.653,1074.879-1640.653Z" transform="translate(668 2519.298)" fill="#924f03"/><path d="M1267.492-1715.055H1301.5v13.462h49.466v12.459h-83.474l2.647-12.459" transform="translate(561.428 2542.097)" fill="#434343"/><path d="M1229.533-1608.712s-1.159,18.546,0,18.546,78.619,1.186,93.111-3.45,9.3-15.1,9.3-15.1Z" transform="translate(658.039 2445.58)" fill="#5d3100"/><path d="M1229.533-1608.712s-1.159,18.546,0,18.546,78.619,1.186,93.111-3.45,9.3-15.1,9.3-15.1Z" transform="translate(658.039 2443.438)" fill="#703b00"/><rect width="179" height="18" transform="translate(1846 826)" fill="#313131"/><path d="M1198.368-1679.842s-6.906-4.642-6.906-9.17,6.906-8.509,6.906-8.509v17.678" transform="translate(647.084 2523.52)" fill="#313131"/><path d="M1201-1698v17.71" transform="translate(644.798 2524)" fill="none" stroke="#707070" stroke-linecap="round" stroke-width="4"/><rect width="179" height="5" transform="translate(1846 830)" fill="rgba(136,136,136,0.22)"/><path d="M1149.128-1695.406l-16.72,7.083-6.775,8.684,8.684,6.528,14.811,3.079,2.741-12.194Z" transform="translate(679.791 2522.795)" fill="#7a4203"/><path d="M1143-1645.5a10.181,10.181,0,0,0-4.449,4.653,10.282,10.282,0,0,0-.745,6.552,9.231,9.231,0,0,0,5.578,4.96c4.008,1.137,5.625,1.169,10.456-.412s8.205-1.554,10.389-6.173,2.89-9,2.369-10.659-6.4-1.289-6.4-1.289L1143-1645.5" transform="translate(674.246 2500.739)" fill="none" stroke="#3b3b3b" stroke-width="3"/><path d="M1129.39-1631.173a11.712,11.712,0,0,1-.853-1.658c-.721-1.662-2.16-4.658-4.974-6.159-4.264-2.274-5.306-1.9-5.306-1.9-.474-.237,15.871-2.511,15.871-2.511" transform="translate(683.22 2498.647)" fill="none" stroke="#3b3b3b" stroke-width="3"/><path d="M1157.013-1644.278a12.184,12.184,0,0,0-1.705,6.253c.159,2.69,5.5,4.832,5.5,4.832" transform="translate(666.019 2499.057)" fill="none" stroke="#3b3b3b" stroke-width="2"/></g><g transform="matrix(0.574, -0.819, 0.819, 0.574, 330.772, 859.942)" fill="#878787"><path d="M 15.98434734344482 103.8652801513672 C 14.62044715881348 103.8652801513672 13.24680709838867 103.5837554931641 11.90158748626709 103.0285568237305 C 10.47628688812256 102.440299987793 9.073827743530273 101.5426559448242 7.733167171478271 100.3605804443359 C 6.296147346496582 99.09349822998047 4.929727554321289 97.49939727783203 3.671907424926758 95.62252044677734 C 2.332187414169312 93.62345886230469 1.110867381095886 91.29557800292969 0.04186734184622765 88.70352172851563 C -2.138852596282959 83.41584014892578 -3.844792604446411 76.73243713378906 -5.028552532196045 68.83898162841797 C -6.154732704162598 61.32959747314453 -6.749992847442627 52.90155792236328 -6.749992847442627 44.46601867675781 C -6.749992847442627 36.03047943115234 -6.154732704162598 27.60243797302246 -5.028552532196045 20.09305953979492 C -3.844792604446411 12.19959831237793 -2.138852596282959 5.516198635101318 0.04186734184622765 0.2285386770963669 C 1.275067329406738 -2.761641263961792 2.924827337265015 -4.955281257629395 4.945327281951904 -6.291441440582275 C 6.683847427368164 -7.441121101379395 8.707547187805176 -7.99998140335083 11.13208770751953 -7.99998140335083 C 15.13214778900146 -7.99998140335083 20.10810661315918 -6.405521392822266 25.52200698852539 -3.388981342315674 C 28.38182640075684 -1.795520544052124 30.68101501464844 -0.1811573356389999 31.88899612426758 0.7123923301696777 C 32.4363899230957 4.947683811187744 34.24538040161133 19.65704917907715 35.21694564819336 36.17226028442383 C 36.71756744384766 61.68083953857422 35.57986831665039 79.84585571289063 31.92682647705078 88.70349884033203 C 30.85782814025879 91.29557800292969 29.63650703430176 93.62345886230469 28.29678726196289 95.62252044677734 C 27.03896713256836 97.49939727783203 25.67254829406738 99.09349822998047 24.23552703857422 100.3605804443359 C 22.89486694335938 101.5426559448242 21.49240684509277 102.440299987793 20.06710815429688 103.0285568237305 C 18.72188758850098 103.5837554931641 17.34824752807617 103.8652801513672 15.98434734344482 103.8652801513672 Z" stroke="none"/><path d="M 11.1320743560791 -4.999992370605469 C 8.319005966186523 -4.999992370605469 5.131052017211914 -4.242897033691406 2.815256118774414 1.372329711914063 C -5.987924575805664 22.71778106689453 -5.987924575805664 66.21424102783203 2.815256118774414 87.55971527099609 C 6.251302719116211 95.8912353515625 11.17432403564453 100.8652801513672 15.98434734344482 100.8652801513672 C 20.79436874389648 100.8652801513672 25.71739196777344 95.8912353515625 29.15343856811523 87.5596923828125 C 36.02045059204102 70.90897369384766 31.69242668151855 22.63966369628906 29.08470916748047 2.375823974609375 C 25.00850677490234 -0.4932022094726563 17.29776763916016 -4.999992370605469 11.1320743560791 -4.999992370605469 M 11.13207626342773 -11 C 22.22322463989258 -11 34.70023345947266 -0.9152603149414063 34.70023345947266 -0.9152603149414063 C 34.70023345947266 -0.9152603149414063 44.05818939208984 67.15664672851563 34.70023345947266 89.84728240966797 C 30.02126693725586 101.1926116943359 23.0028076171875 106.8652801513672 15.98434734344482 106.8652801513672 C 8.965887069702148 106.8652801513672 1.947427749633789 101.1926116943359 -2.731538772583008 89.84728240966797 C -12.0894947052002 67.15664672851563 -12.0894947052002 21.77537536621094 -2.731538772583008 -0.9152603149414063 C 0.3875808715820313 -8.478355407714844 5.587007522583008 -11 11.13207626342773 -11 Z" stroke="none"/></g></g></svg>