<svg xmlns="http://www.w3.org/2000/svg" width="147.423" height="230.382" viewBox="0 0 147.423 230.382"><g transform="translate(-350.221 -767.396)"><g transform="translate(367.892 953.537) rotate(14)"><path d="M 22.22725296020508 27.73321151733398 C 17.5848388671875 27.73321151733398 12.95298671722412 27.30379867553711 8.832399368286133 26.49142456054688 C 4.62782621383667 25.66247940063477 0.9387596249580383 24.42915916442871 -1.835947036743164 22.92478561401367 C -3.720773696899414 21.90290451049805 -4.846760272979736 20.50333213806152 -5.379520416259766 18.5202522277832 C -6.157320499420166 15.62506484985352 -5.611173629760742 11.56811904907227 -3.80016040802002 6.787998676300049 C -2.924900531768799 4.477797508239746 -1.938324928283691 2.502219676971436 -1.277933955192566 1.273037314414978 C 3.289616584777832 0.5267184376716614 16.80845642089844 -1.500001430511475 28.89835929870605 -1.500001430511475 C 39.19206619262695 -1.500001430511475 44.03791809082031 -0.04421475529670715 46.29045486450195 1.177051901817322 C 51.25856018066406 3.870598554611206 54.10790634155273 7.833971977233887 54.10790634155273 12.05091857910156 C 54.10790634155273 16.26786613464355 51.25856018066406 20.23123931884766 46.29045486450195 22.92478561401367 C 43.5157470703125 24.42915916442871 39.82667922973633 25.66247940063477 35.62210464477539 26.49142456054688 C 31.50152015686035 27.30379867553711 26.86966705322266 27.73321151733398 22.22725296020508 27.73321151733398 Z" stroke="none"/><path d="M 28.89835357666016 2.000001907348633 C 18.32233238220215 2.000001907348633 6.581478118896484 3.592842102050781 1.012805938720703 4.452999114990234 C -0.8502998352050781 8.302751541137695 -2.935596466064453 14.11218452453613 -2.000782012939453 17.60695266723633 C -1.719982147216797 18.65668487548828 -1.206047058105469 19.28498458862305 -0.1677627563476563 19.84791946411133 C 4.896934509277344 22.59385108947754 13.2689037322998 24.23320198059082 22.22725296020508 24.23320198059082 C 31.18558502197266 24.23320198059082 39.55755233764648 22.59383583068848 44.62226867675781 19.84791946411133 C 48.42623519897461 17.78553581237793 50.60790252685547 14.94363498687744 50.60790252685547 12.05091857910156 C 50.60790252685547 9.158202171325684 48.42623519897461 6.316301345825195 44.62225341796875 4.253917694091797 C 43.06966781616211 3.412151336669922 38.96236801147461 2.000001907348633 28.89835357666016 2.000001907348633 M 28.89834976196289 -5.000001907348633 C 36.52350997924805 -5.000001907348633 43.66954803466797 -4.225242614746094 47.95863723754883 -1.899831771850586 C 60.82433700561523 5.075534820556641 60.82433700561523 19.02630233764648 47.95863723754883 26.00166893005371 C 41.52578735351563 29.48936080932617 31.87651443481445 31.23320579528809 22.22724723815918 31.23320579528809 C 12.57797813415527 31.23320579528809 2.9287109375 29.48936080932617 -3.504131317138672 26.00166893005371 C -16.36983108520508 19.02630233764648 -3.504131317138672 -1.899831771850586 -3.504131317138672 -1.899831771850586 C -3.504131317138672 -1.899831771850586 13.65081977844238 -5.000001907348633 28.89834976196289 -5.000001907348633 Z" stroke="none"/></g><g transform="matrix(0.978, 0.208, -0.208, 0.978, 440.256, 953.257)"><path d="M 22.22725296020508 27.73321151733398 C 17.5848388671875 27.73321151733398 12.95298671722412 27.30379867553711 8.832399368286133 26.49142456054688 C 4.62782621383667 25.66247940063477 0.9387596249580383 24.42915916442871 -1.835947036743164 22.92478561401367 C -3.720773696899414 21.90290451049805 -4.846760272979736 20.50333213806152 -5.379520416259766 18.5202522277832 C -6.157320499420166 15.62506484985352 -5.611173629760742 11.56811904907227 -3.80016040802002 6.787998676300049 C -2.924900531768799 4.477797508239746 -1.938324928283691 2.502219676971436 -1.277933955192566 1.273037314414978 C 3.289616584777832 0.5267184376716614 16.80845642089844 -1.500001430511475 28.89835929870605 -1.500001430511475 C 39.19206619262695 -1.500001430511475 44.03791809082031 -0.04421475529670715 46.29045486450195 1.177051901817322 C 51.25856018066406 3.870598554611206 54.10790634155273 7.833971977233887 54.10790634155273 12.05091857910156 C 54.10790634155273 16.26786613464355 51.25856018066406 20.23123931884766 46.29045486450195 22.92478561401367 C 43.5157470703125 24.42915916442871 39.82667922973633 25.66247940063477 35.62210464477539 26.49142456054688 C 31.50152015686035 27.30379867553711 26.86966705322266 27.73321151733398 22.22725296020508 27.73321151733398 Z" stroke="none"/><path d="M 28.89835357666016 2.000001907348633 C 18.32233238220215 2.000001907348633 6.581478118896484 3.592842102050781 1.012805938720703 4.452999114990234 C -0.8502998352050781 8.302751541137695 -2.935596466064453 14.11218452453613 -2.000782012939453 17.60695266723633 C -1.719982147216797 18.65668487548828 -1.206047058105469 19.28498458862305 -0.1677627563476563 19.84791946411133 C 4.896934509277344 22.59385108947754 13.2689037322998 24.23320198059082 22.22725296020508 24.23320198059082 C 31.18558502197266 24.23320198059082 39.55755233764648 22.59383583068848 44.62226867675781 19.84791946411133 C 48.42623519897461 17.78553581237793 50.60790252685547 14.94363498687744 50.60790252685547 12.05091857910156 C 50.60790252685547 9.158202171325684 48.42623519897461 6.316301345825195 44.62225341796875 4.253917694091797 C 43.06966781616211 3.412151336669922 38.96236801147461 2.000001907348633 28.89835357666016 2.000001907348633 M 28.89834976196289 -5.000001907348633 C 36.52350997924805 -5.000001907348633 43.66954803466797 -4.225242614746094 47.95863723754883 -1.899831771850586 C 60.82433700561523 5.075534820556641 60.82433700561523 19.02630233764648 47.95863723754883 26.00166893005371 C 41.52578735351563 29.48936080932617 31.87651443481445 31.23320579528809 22.22724723815918 31.23320579528809 C 12.57797813415527 31.23320579528809 2.9287109375 29.48936080932617 -3.504131317138672 26.00166893005371 C -16.36983108520508 19.02630233764648 -3.504131317138672 -1.899831771850586 -3.504131317138672 -1.899831771850586 C -3.504131317138672 -1.899831771850586 13.65081977844238 -5.000001907348633 28.89834976196289 -5.000001907348633 Z" stroke="none"/></g><g transform="translate(364.276 766.999) rotate(3)" fill="#616161"><path d="M 63.641357421875 194.3711700439453 C 51.01441955566406 194.3711700439453 38.37774276733398 191.4334564208984 28.05912399291992 186.0991973876953 C 22.76259422302246 183.3611145019531 18.21444702148438 180.0706176757813 14.54100608825684 176.3191070556641 C 10.7199764251709 172.4168395996094 7.90385913848877 168.0649566650391 6.170947074890137 163.3843688964844 C 3.518388271331787 156.2198791503906 1.583094239234924 146.3555145263672 0.5742707252502441 134.8577270507813 C -0.4649057686328888 123.0139007568359 -0.4614351689815521 109.9733428955078 0.5843001008033752 97.1458740234375 C 1.13515305519104 90.38896179199219 1.972623705863953 83.71437835693359 3.073447227478027 77.30754852294922 C 4.227653026580811 70.58981323242188 5.678770542144775 64.12781524658203 7.386446952819824 58.10105133056641 C 11.09094715118408 45.02714157104492 15.95682907104492 34.04293441772461 21.84900665283203 25.45349311828613 C 26.47035980224609 18.71664047241211 31.71844673156738 13.49887466430664 37.44750595092773 9.945169448852539 C 40.43597793579102 8.091433525085449 43.60988998413086 6.660286903381348 46.88106536865234 5.691462993621826 C 50.28368377685547 4.683727741241455 53.89056396484375 4.146963119506836 57.60153579711914 4.096139907836914 C 57.80250549316406 4.093375205993652 58.01453399658203 4.091933727264404 58.2147102355957 4.091933727264404 C 61.94812393188477 4.091933727264404 65.59426879882813 4.57055139541626 69.05182647705078 5.514551639556885 C 72.38127136230469 6.423521995544434 75.6275634765625 7.788963317871094 78.70059204101563 9.572904586791992 C 84.60024261474609 12.99772834777832 90.06315612792969 18.06916999816895 94.93759155273438 24.6463451385498 C 101.0844497680664 32.94040298461914 106.2859191894531 43.55966949462891 110.397590637207 56.20916748046875 C 112.3081512451172 62.08702087402344 113.97509765625 68.39990234375 115.3520965576172 74.97246551513672 C 116.6732711791992 81.27834320068359 117.737419128418 87.86799621582031 118.5150680541992 94.55828857421875 C 120.0005035400391 107.3383178710938 120.4352416992188 120.5289611816406 119.7722396850586 132.7042236328125 C 119.1240386962891 144.607666015625 117.4478607177734 155.2847595214844 114.9248580932617 163.5812530517578 C 113.381950378418 168.6549682617188 110.8934783935547 173.2374572753906 107.5285949707031 177.2014617919922 C 104.3496856689453 180.9464111328125 100.3711853027344 184.1669311523438 95.70362091064453 186.7735443115234 C 91.2242431640625 189.2751159667969 86.14394378662109 191.1971435546875 80.60382843017578 192.4862823486328 C 75.22885894775391 193.7370147705078 69.52182769775391 194.3711700439453 63.641357421875 194.3711700439453 Z" stroke="none"/><path d="M 58.21472549438477 0.5919189453125 L 57.64949417114258 7.595794677734375 C 44.71736145019531 7.772994995117188 33.64339447021484 14.44729614257813 24.73519134521484 27.43336486816406 C 0.5860595703125 62.63719177246094 -1.183876037597656 133.4386291503906 9.453193664550781 162.1691589355469 C 15.70992279052734 179.0684509277344 37.99288940429688 190.8711547851563 63.64132690429688 190.8711547851563 C 82.65289306640625 190.8711547851563 105.2291259765625 183.4345855712891 111.5762557983398 162.5629577636719 C 120.983528137207 131.6284484863281 118.0238265991211 61.67521667480469 92.12565612792969 26.73033142089844 C 82.71402740478516 14.03099060058594 71.30472564697266 7.5919189453125 58.21472549438477 7.5919189453125 L 58.21472549438477 0.5919189453125 M 58.21472549438477 0.5919189453125 C 119.2924880981445 0.5919189453125 132.69775390625 117.1671981811523 118.2734222412109 164.5995941162109 C 111.3042297363281 187.5167999267578 87.81788635253906 197.8711700439453 63.64133453369141 197.8711700439453 C 37.60127258300781 197.8711700439453 10.76029968261719 185.8607330322266 2.888656616210938 164.5995941162109 C -12.29130554199219 123.5987930297852 -4.081275939941406 1.440887451171875 57.55359268188477 0.5964508056640625 C 57.77178192138672 0.593475341796875 57.99774169921875 0.5919189453125 58.21472549438477 0.5919189453125 Z" stroke="none"/></g></g></svg>