<?xml version="1.0" encoding="iso-8859-1"?>
<!-- Generator: Adobe Illustrator 19.0.0, SVG Export Plug-In . SVG Version: 6.00 Build 0)  -->
<svg version="1.1" id="Layer_1" xmlns="http://www.w3.org/2000/svg" xmlns:xlink="http://www.w3.org/1999/xlink" x="0px" y="0px"
	 viewBox="0 0 512.001 512.001" style="enable-background:new 0 0 512.001 512.001;" xml:space="preserve">
<g>
	<g>
		<path style="fill:#232B35;" d="M169.212,251.662c-1.519,0-3.063-0.399-4.46-1.241l-43.39-26.034
			c-2.603-1.562-4.209-4.391-4.209-7.437c0-165.888,52.857-212.949,55.114-214.866c3.636-3.115,9.103-2.69,12.236,0.963
			c3.089,3.627,2.681,9.068-0.92,12.184c-0.712,0.642-48.067,44.692-49.057,196.816l39.164,23.5
			c4.105,2.465,5.441,7.793,2.968,11.906C175.035,250.16,172.162,251.662,169.212,251.662"/>
		<path style="fill:#232B35;" d="M221.28,338.441c-1.362,0-2.751-0.321-4.053-1.007L69.702,259.333
			c-2.065-1.093-3.601-2.968-4.261-5.207C33.107,144.871,90.425,67.428,92.881,64.183c2.881-3.81,8.296-4.573,12.14-1.675
			c3.818,2.881,4.582,8.322,1.701,12.14c-0.538,0.72-53.153,72.305-25.635,171.069l144.263,76.375
			c4.235,2.248,5.858,7.498,3.61,11.733C227.398,336.766,224.386,338.441,221.28,338.441"/>
		<path style="fill:#232B35;" d="M117.162,503.323c-3.15,0-6.196-1.718-7.732-4.721c-1.909-3.732-46.497-92.212-17.677-163.415
			c1.328-3.28,4.513-5.424,8.044-5.424H212.61c4.799,0,8.678,3.888,8.678,8.678s-3.879,8.678-8.678,8.678H105.819
			c-21.504,63.158,18.64,142.753,19.057,143.568c2.187,4.27,0.495,9.494-3.766,11.681
			C119.843,503.019,118.489,503.323,117.162,503.323"/>
		<path style="fill:#232B35;" d="M186.577,512.001c-2.109,0-4.226-0.764-5.901-2.317c-2.942-2.725-71.541-67.558-36.63-140.288
			c1.25-2.612,3.723-4.426,6.587-4.834l60.746-8.678c4.756-0.712,9.147,2.621,9.823,7.359c0.677,4.747-2.621,9.147-7.359,9.823
			l-56.016,8.001c-24.81,59.765,34.035,115.33,34.651,115.894c3.515,3.263,3.714,8.747,0.46,12.262
			C191.228,511.072,188.911,512.001,186.577,512.001"/>
	</g>
	<g>
		<path style="fill:#95A5A5;" d="M238.644,468.611c-19.144,0-34.712-15.568-34.712-34.712c0-19.144,15.568-34.712,34.712-34.712
			c4.799,0,8.678,3.888,8.678,8.678s-3.879,8.678-8.678,8.678c-9.572,0-17.356,7.784-17.356,17.356s7.784,17.356,17.356,17.356
			c4.799,0,8.678,3.888,8.678,8.678S243.443,468.611,238.644,468.611"/>
		<path style="fill:#95A5A5;" d="M273.356,468.611c-4.799,0-8.678-3.888-8.678-8.678s3.879-8.678,8.678-8.678
			c9.572,0,17.356-7.784,17.356-17.356s-7.784-17.356-17.356-17.356c-4.799,0-8.678-3.888-8.678-8.678s3.879-8.678,8.678-8.678
			c19.144,0,34.712,15.568,34.712,34.712C308.068,453.043,292.5,468.611,273.356,468.611"/>
	</g>
	<g>
		<path style="fill:#232B35;" d="M386.17,216.95h0.087H386.17z M342.789,251.662c-2.951,0-5.823-1.501-7.446-4.209
			c-2.473-4.113-1.137-9.442,2.968-11.906l39.164-23.5C376.485,58.082,328.947,15.69,328.47,15.274
			c-3.645-3.107-4.079-8.583-0.972-12.227c3.124-3.653,8.6-4.079,12.236-0.963c2.256,1.918,55.114,48.978,55.114,214.866
			c0,3.046-1.605,5.875-4.209,7.437l-43.39,26.034C345.852,251.262,344.307,251.662,342.789,251.662L342.789,251.662z"/>
		<path style="fill:#232B35;" d="M438.238,251.662h0.087H438.238z M290.721,338.441c-3.107,0-6.118-1.675-7.68-4.617
			c-2.248-4.235-0.625-9.485,3.61-11.733l144.263-76.375c27.518-98.764-25.097-170.348-25.635-171.069
			c-2.881-3.818-2.117-9.259,1.701-12.14c3.827-2.898,9.251-2.135,12.141,1.675c2.456,3.246,59.774,80.688,27.44,189.943
			c-0.66,2.239-2.195,4.113-4.261,5.207l-147.525,78.102C293.472,338.12,292.083,338.441,290.721,338.441L290.721,338.441z"/>
		<path style="fill:#232B35;" d="M394.839,503.323c-1.328,0-2.681-0.304-3.94-0.955c-4.27-2.178-5.962-7.411-3.784-11.681
			c0.425-0.816,40.509-80.532,19.065-143.568H299.39c-4.799,0-8.678-3.888-8.678-8.678s3.879-8.678,8.678-8.678h112.814
			c3.532,0,6.717,2.143,8.044,5.424c28.82,71.203-15.768,159.683-17.677,163.415C401.035,501.596,397.989,503.323,394.839,503.323"
			/>
		<path style="fill:#232B35;" d="M325.433,512.001c-2.334,0-4.651-0.929-6.352-2.768c-3.263-3.515-3.072-8.999,0.434-12.262
			c0.616-0.573,59.375-56.32,34.66-115.903l-56.016-8.001c-4.738-0.677-8.036-5.077-7.359-9.823
			c0.677-4.738,5.103-8.036,9.823-7.359l60.746,8.678c2.864,0.408,5.337,2.222,6.587,4.834
			c34.911,72.73-33.688,137.563-36.63,140.288C329.65,511.237,327.541,512.001,325.433,512.001"/>
	</g>
	<path style="fill:#464F5D;" d="M351.458,216.95c0,52.719-42.739,95.458-95.458,95.458s-95.458-42.739-95.458-95.458
		s42.739-95.458,95.458-95.458S351.458,164.231,351.458,216.95"/>
	<path style="fill:#313B49;" d="M308.068,364.475c0,28.75-23.318,52.068-52.068,52.068s-52.068-23.318-52.068-52.068
		c0-28.75,23.318-52.068,52.068-52.068S308.068,335.725,308.068,364.475"/>
</g>
<g>
</g>
<g>
</g>
<g>
</g>
<g>
</g>
<g>
</g>
<g>
</g>
<g>
</g>
<g>
</g>
<g>
</g>
<g>
</g>
<g>
</g>
<g>
</g>
<g>
</g>
<g>
</g>
<g>
</g>
</svg>
