<svg xmlns="http://www.w3.org/2000/svg" width="286.638" height="319.219" viewBox="0 0 286.638 319.219"><g transform="translate(-1456.819 -636.305)"><path d="M715.288-1872.846c-1.665-.555-47.22,11.117-58.266,0s-27.746-130.96-27.746-130.96" transform="translate(832 2668)" fill="none" stroke="#000" stroke-width="9"/><path d="M629.276-1872.846c1.665-.555,47.22,11.117,58.266,0s27.746-130.96,27.746-130.96" transform="translate(1023.712 2668)" fill="none" stroke="#000" stroke-width="9"/><path d="M715.288-1888.938s-34.457,7.787-39.954-5.549-9.434-137.065-9.434-137.065" transform="translate(832 2668)" fill="none" stroke="#000" stroke-width="9"/><path d="M665.9-1888.938s34.457,7.787,39.954-5.549,9.434-137.065,9.434-137.065" transform="translate(987.087 2668)" fill="none" stroke="#000" stroke-width="9"/><path d="M715.288-1858.418l-74.914,16.093s-13.37,27.626-10.6,56.065,21.694,57.693,21.694,57.693" transform="translate(832 2668)" fill="none" stroke="#000" stroke-width="9"/><path d="M629.4-1858.418l74.914,16.093s13.37,27.626,10.6,56.065-21.694,57.693-21.694,57.693" transform="translate(1023.588 2668)" fill="none" stroke="#000" stroke-width="9"/><path d="M720-1845.1s-45.014,12.624-51.88,38.289,24.416,64.37,24.416,64.37" transform="translate(832 2668)" fill="none" stroke="#000" stroke-width="9"/><path d="M667.135-1845.1s45.014,12.624,51.88,38.289-24.416,64.37-24.416,64.37" transform="translate(981.141 2668)" fill="none" stroke="#000" stroke-width="9"/><path d="M0,6.252c26.5-43.836,79.5-43.836,106,0S116.685,130.962,90.185,174.8,48.43,222.06,21.93,178.224-26.5,50.087,0,6.252Z" transform="translate(1545 673.562)" fill="#363636"/><circle cx="49" cy="49" r="49" transform="translate(1552 838)"/><path d="M787.982-1666.971s-9.017,6.936-6.659,17.2,16.093,14.983,16.093,14.983" transform="translate(787 2587)" fill="none" stroke="#000" stroke-width="7"/><path d="M883.6-1856.838s29.667,15.047,34.149,56.345-20.062,104.58-20.062,104.58" transform="translate(729 2525)" fill="none" stroke="#000" stroke-width="7"/><path d="M790.364-1666.971s9.017,6.936,6.659,17.2-16.093,14.983-16.093,14.983" transform="translate(835 2587)" fill="none" stroke="#000" stroke-width="7"/></g></svg>