<svg xmlns="http://www.w3.org/2000/svg" viewBox="0 0 566.29118 323.49013"><defs><style>.cls-1{fill:#924f03;}.cls-2{fill:#434343;}.cls-3{fill:#482702;}.cls-4{fill:#703b00;}.cls-5{fill:#313131;}.cls-6,.cls-8,.cls-9{fill:none;}.cls-6{stroke:#707070;stroke-linecap:round;stroke-width:4px;}.cls-7{fill:#7a4203;}.cls-8,.cls-9{stroke:#3b3b3b;}.cls-8{stroke-width:3px;}.cls-9{stroke-width:2px;}.cls-10{fill:#333;}.cls-11{fill:#fff;}.cls-12{fill:#00a400;}</style></defs><g id="Layer_2" data-name="Layer 2"><g id="Layer_2-2" data-name="Layer 2"><g id="Shotgun"><path id="Path_124" data-name="Path 124" class="cls-1" d="M393.27009,323.49013s-10.38418-64.83327-32.76732-102.40657-78.4002-62.4394-78.4002-62.4394l-22.68718,34.64567s42.07175,31.90526,67.86311,52.64111-.316,58.71664,9.09958,66.43766S393.27009,323.49013,393.27009,323.49013Z"/><path id="Path_125" data-name="Path 125" class="cls-2" d="M308.0038,172.90732,256.96446,143.9997,245.52172,164.203l-74.23906-42.04746-10.59078,18.6991,125.27839,70.95508,6.61826-20.949"/><path id="Path_128" data-name="Path 128" class="cls-3" d="M211.62451,137.79836S197.59973,166.61765,195.86,165.63228,76.8599,100.58413,59.0509,81.30679s-1.124-30.55957-1.124-30.55957Z"/><path id="Path_133" data-name="Path 133" class="cls-4" d="M213.446,134.58242s-14.02478,28.81929-15.76455,27.83392S78.68134,97.3682,60.87234,78.09086s-1.124-30.55958-1.124-30.55958Z"/><rect id="Rectangle_12" data-name="Rectangle 12" class="cls-5" x="126.53304" y="-60.08821" width="30.4914" height="308.60995" transform="translate(-10.0739 171.15041) rotate(-60.47369)"/><path id="Path_126" data-name="Path 126" class="cls-5" d="M269.05076,183.82218s14.31031-1.0973,18.15852-7.89171-3.13165-18.63976-3.13165-18.63976l-15.02687,26.53147"/><path id="Path_127" data-name="Path 127" class="cls-6" d="M283.55748,156.99611,268.50376,183.575"/><rect id="Rectangle_13" data-name="Rectangle 13" x="139.20795" y="-63.70614" width="9.23982" height="308.60995" transform="translate(-5.88657 171.09848) rotate(-60.47369)"/><path id="Path_129" data-name="Path 129" class="cls-7" d="M307.70825,173.42914l19.07368,24.84213,2.78582,18.791-18.58158,2.416-24.84593-7.96843,6.25138-20.63108Z"/><path id="Path_130" data-name="Path 130" class="cls-8" d="M301.54866,225.15034a17.55573,17.55573,0,0,1,2.71783,10.76294,17.7403,17.7403,0,0,1-4.45071,10.46611s-5.60471,4.40427-12.58726,2.70291-9.43543-3.027-15.34147-9.50677S260.893,230.2692,261.54164,221.48s3.31255-15.96364,5.50645-18.0129,10.70518,3.50931,10.70518,3.50931l23.7947,18.17147"/><path id="Path_131" data-name="Path 131" class="cls-8" d="M298.11149,247.45182a20.201,20.201,0,0,0,2.69158-1.76738c2.49372-1.87944,7.20176-5.15415,12.70244-5.01734,8.3319.21129,9.57095,1.66282,9.57095,1.66282.912.04718-21.68453-17.25876-21.68453-17.25876"/><path id="Path_132" data-name="Path 132" class="cls-9" d="M293.26394,219.54056s.25632,6.17884-2.75555,10.83473c-2.5276,3.90017-12.35467,2.58084-12.35467,2.58084"/></g><g id="Shotgun-2" data-name="Shotgun"><path id="Path_124-2" data-name="Path 124" class="cls-1" d="M170.28462,320.65705s10.99507-64.73247,33.73152-102.093,78.9855-61.69733,78.9855-61.69733l22.35948,34.85806s-42.37075,31.50712-68.35649,51.99884-.23766,58.717-9.72565,66.3489S170.28462,320.65705,170.28462,320.65705Z"/><path id="Path_125-2" data-name="Path 125" class="cls-2" d="M256.96707,170.885l51.30965-28.425,11.25173,20.31033L394.1607,121.4247l10.414,18.79814-125.9419,69.77059-6.42043-21.01053"/><path id="Path_128-2" data-name="Path 128" class="cls-3" d="M353.67313,136.68639s13.7524,28.95025,15.50139,27.98133S488.78266,100.74459,506.77266,81.636s1.41213-30.54761,1.41213-30.54761Z"/><path id="Path_133-2" data-name="Path 133" class="cls-4" d="M351.8821,133.45342s13.7524,28.95025,15.50139,27.98133S486.99163,97.51163,504.98162,78.40307s1.41214-30.54761,1.41214-30.54761Z"/><rect id="Rectangle_12-2" data-name="Rectangle 12" class="cls-5" x="269.62178" y="78.51965" width="308.60995" height="30.4914" transform="translate(7.66361 217.17859) rotate(-28.98603)"/><path id="Path_126-2" data-name="Path 126" class="cls-5" d="M295.81545,182.16665s-14.29932-1.23219-18.0833-8.06258,3.30727-18.6094,3.30727-18.6094l14.776,26.672"/><path id="Path_127-2" data-name="Path 127" class="cls-6" d="M281.56234,155.205l14.80242,26.71964"/><rect id="Rectangle_13-2" data-name="Rectangle 13" x="267.60687" y="85.50835" width="308.60995" height="9.23982" transform="translate(9.17374 215.74658) rotate(-28.98603)"/><path id="Path_129-2" data-name="Path 129" class="cls-7" d="M257.25768,171.40955l-19.30709,24.66117-2.96288,18.76392,18.558,2.59112,24.92-7.73379-6.05657-20.68911Z"/><path id="Path_130-2" data-name="Path 130" class="cls-8" d="M262.92929,223.18653a17.55575,17.55575,0,0,0-2.81921,10.73683A17.74034,17.74034,0,0,0,264.4619,244.431s5.56294,4.45693,12.56121,2.82149,9.46356-2.93787,15.43044-9.36168,11.08135-9.20225,10.51559-17.99718-3.16188-15.99417-5.33636-18.064-10.73779,3.40821-10.73779,3.40821L262.93,223.18407"/><path id="Path_131-2" data-name="Path 131" class="cls-8" d="M266.156,245.51943a20.20113,20.20113,0,0,1-2.67479-1.79268c-2.47589-1.90287-7.15284-5.22183-12.65456-5.1369-8.33352.13272-9.58621,1.5725-9.58621,1.5725-.91243.03858,21.84631-17.05352,21.84631-17.05352"/><path id="Path_132-2" data-name="Path 132" class="cls-9" d="M271.26654,217.65512s-.31458,6.17615,2.65326,10.86023c2.4907,3.92383,12.32978,2.69723,12.32978,2.69723"/></g><path class="cls-10" d="M98.47335,265.56364H84.71847V245.964H98.47335q2.46093,7.99806,9.27246,7.998,4.92114,0,4.92187-3.95508a4.20478,4.20478,0,0,0-1.71386-3.42773,40.4828,40.4828,0,0,0-7.77832-4.13086,72.51343,72.51343,0,0,1-10.98633-5.84473,18.95617,18.95617,0,0,1-5.625-6.19629,16.59747,16.59747,0,0,1-2.3291-8.65722q0-8.5254,5.53711-13.31543a19.8653,19.8653,0,0,1,13.53515-4.79,20.80226,20.80226,0,0,1,13.62305,4.57031v-3.7793h13.84277v17.40235h-13.667q-2.50488-7.207-8.877-7.207-4.48242,0-4.48242,3.82324a3.19409,3.19409,0,0,0,1.27441,2.76855,67.04273,67.04273,0,0,0,7.9541,4.2627,121.50561,121.50561,0,0,1,12.041,6.54785,16.01233,16.01233,0,0,1,3.14209,2.835,20.74387,20.74387,0,0,1,2.65869,3.75684,18.72815,18.72815,0,0,1,2.417,9.3164,17.0917,17.0917,0,0,1-5.71289,13.00782,20.14029,20.14029,0,0,1-14.41406,5.40527,24.19269,24.19269,0,0,1-14.63379-4.79Z"/><path class="cls-10" d="M140.17745,236.34V222.93669h27.24609v2.85645a31.04053,31.04053,0,0,1,14.458-3.64746,23.48938,23.48938,0,0,1,16.30371,6.15234q6.76685,6.19629,6.76758,16.21582,0,10.10742-6.63574,15.95215-6.68042,5.88867-17.3584,5.88867a25.02908,25.02908,0,0,1-13.53516-3.51563v8.877h5.625v13.40332h-32.959V271.716h5.22949V236.34Zm27.11426,8.08594q0,4.61425,2.10937,6.94336a6.63273,6.63273,0,0,0,5.2295,2.373q7.51464,0,7.51464-9.58008,0-9.36036-7.207-9.36035a7.165,7.165,0,0,0-5.44922,2.28515Q167.291,239.41619,167.29171,244.426Z"/><path class="cls-10" d="M242.39425,265.56364H212.20382V252.16032h4.39453V236.34h-4.39453V222.93669h26.499v29.22363h3.69141Zm-27.6416-54.668q0-3.47169,3.55957-5.58106a16.64609,16.64609,0,0,1,8.70117-2.10937,15.05088,15.05088,0,0,1,8.56933,2.19726,6.53015,6.53015,0,0,1,3.208,5.44922,6.17333,6.17333,0,0,1-3.33984,5.49316,16.1198,16.1198,0,0,1-8.52539,2.06543,18.03909,18.03909,0,0,1-8.70117-1.88964A5.99852,5.99852,0,0,1,214.75265,210.89568Z"/><path class="cls-10" d="M314.55294,252.16032v13.40332H286.91085V262.7072a27.39125,27.39125,0,0,1-14.23828,3.64746,24.99374,24.99374,0,0,1-15.95215-5.49316q-6.9441-5.49316-6.94336-15.73243,0-11.03026,6.416-17.05078,6.416-5.93262,17.18261-5.93261a25.03025,25.03025,0,0,1,13.53516,3.51562V217.839h-5.44922V204.43571h27.5542v47.72461Zm-27.51026-8.08593a11.50486,11.50486,0,0,0-1.8457-6.67969,6.26712,6.26712,0,0,0-5.49316-2.63672q-7.51466,0-7.51465,9.71191a11.09348,11.09348,0,0,0,1.8457,6.5918,6.19918,6.19918,0,0,0,5.49317,2.63672,7.01544,7.01544,0,0,0,5.44922-2.3291Q287.04269,249.0402,287.04268,244.07439Z"/><path class="cls-10" d="M357.35567,252.07243l18.23633,2.24121a16.87307,16.87307,0,0,1-3.42773,5.11914,21.13732,21.13732,0,0,1-5.36133,3.9336,31.76579,31.76579,0,0,1-15.248,3.42773q-14.89746,0-22.41211-6.19629a19.83831,19.83831,0,0,1-7.51562-16.12793,20.72263,20.72263,0,0,1,7.42773-16.25976q7.33887-6.50391,19.90625-6.50391,12.085,0,19.6875,6.15235,7.47071,6.10839,7.95508,18.58886H343.0295q.13184,10.37111,7.73438,10.3711Q355.33419,256.81853,357.35567,252.07243Zm-14.0625-11.16211h12.43555q.08788-1.31835.08789-1.49414a9.165,9.165,0,0,0-1.75781-5.75683,5.62677,5.62677,0,0,0-4.65821-2.24121,5.10856,5.10856,0,0,0-4.57031,2.46093,11.29981,11.29981,0,0,0-1.582,6.15235A7.994,7.994,0,0,0,343.29317,240.91032Z"/><path class="cls-10" d="M417.82442,265.56364H383.45919V252.16032H389.26V236.34h-5.80078V222.93669h26.45508V233.6154a17.78619,17.78619,0,0,1,4.61328-6.89941,14.82483,14.82483,0,0,1,6.06445-3.73535,33.86225,33.86225,0,0,1,8.6582-.835v18.76464q-.74853-.04394-1.8457-.04394-6.76758,0-10.06445,1.3623a8.77859,8.77859,0,0,0-4.65821,3.69141,13.51733,13.51733,0,0,0-1.31835,6.24023h6.46093Z"/><path class="cls-10" d="M448.32247,266.091h-13.668V252.55583h12.78906q4.92042,5.18555,10.76563,5.18555,5.88867,0,5.88867-2.417a2.05435,2.05435,0,0,0-1.27344-1.88965,40.31777,40.31777,0,0,0-6.98828-2.06543q-4.57031-1.23047-10.10742-2.85645a23.32978,23.32978,0,0,1-7.55859-3.42773,11.773,11.773,0,0,1-3.82227-4.043,11.01475,11.01475,0,0,1-1.05469-5.18555q0-7.07519,5.00977-10.415,4.96583-3.29589,12.61133-3.29589a26.944,26.944,0,0,1,13.27148,2.98828v-2.19727h13.49219v12.39258H465.19747a15.50486,15.50486,0,0,0-11.07422-4.43848q-5.05371,0-5.05469,2.68067,0,1.27441,1.49414,1.66992,1.27441.39551,8.4375,1.88965a91.87028,91.87028,0,0,1,12.70118,3.42773,15.69823,15.69823,0,0,1,6.81054,4.52637,10.72325,10.72325,0,0,1,2.24219,6.89941q0,7.38282-5.49414,10.89844a24.54168,24.54168,0,0,1-13.44727,3.47168,28.77822,28.77822,0,0,1-13.49023-2.90039Z"/><path class="cls-11" d="M105.47335,265.56364H91.71847V245.964h13.75488q2.46093,7.99806,9.27246,7.998,4.92114,0,4.92187-3.95508a4.20478,4.20478,0,0,0-1.71386-3.42773,40.4828,40.4828,0,0,0-7.77832-4.13086,72.51343,72.51343,0,0,1-10.98633-5.84473,18.95617,18.95617,0,0,1-5.625-6.19629,16.59747,16.59747,0,0,1-2.3291-8.65722q0-8.5254,5.53711-13.31543a19.8653,19.8653,0,0,1,13.53515-4.79,20.80226,20.80226,0,0,1,13.62305,4.57031v-3.7793h13.84277v17.40235h-13.667q-2.50488-7.207-8.877-7.207-4.48242,0-4.48242,3.82324a3.19409,3.19409,0,0,0,1.27441,2.76855,67.04273,67.04273,0,0,0,7.9541,4.2627,121.50561,121.50561,0,0,1,12.041,6.54785,16.01233,16.01233,0,0,1,3.14209,2.835,20.74387,20.74387,0,0,1,2.65869,3.75684,18.72815,18.72815,0,0,1,2.417,9.3164,17.0917,17.0917,0,0,1-5.71289,13.00782,20.14029,20.14029,0,0,1-14.41406,5.40527,24.19269,24.19269,0,0,1-14.63379-4.79Z"/><path class="cls-11" d="M147.17745,236.34V222.93669h27.24609v2.85645a31.04053,31.04053,0,0,1,14.458-3.64746,23.48938,23.48938,0,0,1,16.30371,6.15234q6.76685,6.19629,6.76758,16.21582,0,10.10742-6.63574,15.95215-6.68042,5.88867-17.3584,5.88867a25.02908,25.02908,0,0,1-13.53516-3.51563v8.877h5.625v13.40332h-32.959V271.716h5.22949V236.34Zm27.11426,8.08594q0,4.61425,2.10937,6.94336a6.63273,6.63273,0,0,0,5.2295,2.373q7.51464,0,7.51464-9.58008,0-9.36036-7.207-9.36035a7.165,7.165,0,0,0-5.44922,2.28515Q174.291,239.41619,174.29171,244.426Z"/><path class="cls-11" d="M249.39425,265.56364H219.20382V252.16032h4.39453V236.34h-4.39453V222.93669h26.499v29.22363h3.69141Zm-27.6416-54.668q0-3.47169,3.55957-5.58106a16.64609,16.64609,0,0,1,8.70117-2.10937,15.05088,15.05088,0,0,1,8.56933,2.19726,6.53015,6.53015,0,0,1,3.208,5.44922,6.17333,6.17333,0,0,1-3.33984,5.49316,16.1198,16.1198,0,0,1-8.52539,2.06543,18.03909,18.03909,0,0,1-8.70117-1.88964A5.99852,5.99852,0,0,1,221.75265,210.89568Z"/><path class="cls-11" d="M321.55294,252.16032v13.40332H293.91036V262.7072a27.38822,27.38822,0,0,1-14.23779,3.64746,24.99374,24.99374,0,0,1-15.95215-5.49316q-6.9441-5.49316-6.94336-15.73243,0-11.03026,6.416-17.05078,6.416-5.93262,17.18261-5.93261a25.02734,25.02734,0,0,1,13.53467,3.51562V217.839h-5.44873V204.43571h27.5542v47.72461Zm-27.50977-8.08593a11.50486,11.50486,0,0,0-1.8457-6.67969,6.26858,6.26858,0,0,0-5.49365-2.63672q-7.51466,0-7.51465,9.71191a11.09348,11.09348,0,0,0,1.8457,6.5918,6.19918,6.19918,0,0,0,5.49317,2.63672,7.01441,7.01441,0,0,0,5.44873-2.3291Q294.0422,249.0402,294.04317,244.07439Z"/><path class="cls-11" d="M364.35567,252.07243l18.23633,2.24121a16.87307,16.87307,0,0,1-3.42773,5.11914,21.13732,21.13732,0,0,1-5.36133,3.9336,31.76579,31.76579,0,0,1-15.248,3.42773q-14.89746,0-22.41211-6.19629a19.83831,19.83831,0,0,1-7.51562-16.12793,20.72263,20.72263,0,0,1,7.42773-16.25976q7.33887-6.50391,19.90625-6.50391,12.085,0,19.6875,6.15235,7.47071,6.10839,7.95508,18.58886H350.0295q.13184,10.37111,7.73438,10.3711Q362.33419,256.81853,364.35567,252.07243Zm-14.0625-11.16211h12.43555q.08788-1.31835.08789-1.49414a9.165,9.165,0,0,0-1.75781-5.75683,5.62677,5.62677,0,0,0-4.65821-2.24121,5.10856,5.10856,0,0,0-4.57031,2.46093,11.29981,11.29981,0,0,0-1.582,6.15235A7.994,7.994,0,0,0,350.29317,240.91032Z"/><path class="cls-11" d="M424.82442,265.56364H390.45919V252.16032H396.26V236.34h-5.80078V222.93669h26.45508V233.6154a17.78619,17.78619,0,0,1,4.61328-6.89941,14.82483,14.82483,0,0,1,6.06445-3.73535,33.86225,33.86225,0,0,1,8.6582-.835v18.76464q-.74853-.04394-1.8457-.04394-6.76758,0-10.06445,1.3623a8.77859,8.77859,0,0,0-4.65821,3.69141,13.51733,13.51733,0,0,0-1.31835,6.24023h6.46093Z"/><path class="cls-11" d="M455.32247,266.091h-13.668V252.55583h12.78906q4.92042,5.18555,10.76563,5.18555,5.88867,0,5.88867-2.417a2.05435,2.05435,0,0,0-1.27344-1.88965,40.31777,40.31777,0,0,0-6.98828-2.06543q-4.57031-1.23047-10.10742-2.85645a23.32978,23.32978,0,0,1-7.55859-3.42773,11.773,11.773,0,0,1-3.82227-4.043,11.01475,11.01475,0,0,1-1.05469-5.18555q0-7.07519,5.00977-10.415,4.96583-3.29589,12.61133-3.29589a26.944,26.944,0,0,1,13.27148,2.98828v-2.19727h13.49219v12.39258H472.19747a15.50486,15.50486,0,0,0-11.07422-4.43848q-5.05371,0-5.05469,2.68067,0,1.27441,1.49414,1.66992,1.27441.39551,8.4375,1.88965a91.87028,91.87028,0,0,1,12.70118,3.42773,15.69823,15.69823,0,0,1,6.81054,4.52637,10.72325,10.72325,0,0,1,2.24219,6.89941q0,7.38282-5.49414,10.89844a24.54168,24.54168,0,0,1-13.44727,3.47168,28.77822,28.77822,0,0,1-13.49023-2.90039Z"/><path id="path2390" class="cls-12" d="M286.60323,201.50074c-.27731-1.65712,25.57118,11.43543,25.34414,9.72518,1.27624-1.51313,9.28554,3.95422,10.07392,1.71459,11.12575,1.53546,18.29649,1.33612,32.51306,6.319-2.46312-4.38371-15.27535-12.89519-18.67029-16.96262,2.88059-3.11852-8.73611-2.24721-6.37979-4.87032,1.10075-3.16671-9.40343-.30912-8.526-2.68551.83915-1.92976-6.57468-1.10323-8.19118-.73753-1.28393.44413-1.54794.42527-1.326-.09983,2.01618-1.87806-13.32856-.10356-16.42337.15521,12.769-5.22858,27.51324-10.24982,39.42981-15.08509,1.78925-4.81565,8.72522-1.974,11.59644-8.27352,6.50988-1.58012,8.4286-2.88961,7.40617-6.33028,2.6353-.5944,11.10167-1.96413,8.11449-5.15672-2.03544-2.57029,11.32849-2.82155,9.26442-8.38988,2.008-.90374,8.52523-3.19827,6.61953-5.75623-2.10449-.37172,5.73977-3.07372,6.39451-4.52143,2.73465-2.69152-3.57885-1.41425,2.43494-4.58506,8.23154-7.99731,14.87633-14.655,25.39212-22.03644-8.616.88715-21.6558,11.11646-26.73883,9.39376-2.87416.332-6.84809,6.71478-7.90479,2.78921-2.31367.54141-5.41811,6.2698-6.76595,4.479-1.27335-3.078-6.28141,4.37323-8.32517,5.71853-.87049-7.33385-7.60109,3.63569-10.151,5.85558-.85219-8.981-8.01245,7.7271-9.32027,4.63385-.96925-4.16491-7.20162,5.16969-7.845,5.88813-2.13174-5.21836-6.72732,4.25582-9.26558,7.17644-.98346-8.1948-7.19057,7.84194-8.48625,5.6417-.80766-3.92912-6.4574,6.13047-8.16553,8.0788-5.79556.88913-12.47428,13.38764-20.12311,17.68873,7.18854-14.09433,24.28061-23.52381,29.865-35.40421,4.70786-4.14267,10.93847-6.67685,8.05953-9.66172,1.43169-1.55922,13.32951-8.36976,7.15467-8.3878.28454-2.733,13.20842-8.118,6.03709-9.673,1.18786-2.10308,9.49517-5.98454,6.05619-7.75151-1.78385-.3028-1.74179-.67706.21794-1.8201,2.85825-2.41259,10.21167-6.47726,4.47366-7.98761,3.31125-2.78981,12.44309-7.459,4.4546-8.09778,1.716-2.66157,13.63684-10.35137,5.56-10.6878,12.97758-11.2326.56808-5.47136,6.68492-11.72642,5.928-6.26457-.09176-3.67292,1.60208-6.5492,2.18638-2.2603,6.28794-6.75221,1.36656-5.91554,1.301-1.87338,6.28641-6.58438,3.85234-8.2728-.85836.04516-.81774-.15357.63283-3.10837,1.58692-3.23478,2.09752-5.4295,1.11259-4.78689-.19149-4.51831,7.21046-17.447,8.709-21.4265-4.90541,5.89963-19.18021,23.36694-22.46038,31.58773-1.95323-4.1774-3.14339.542-4.16339,2.89553-2.25749,4.83073-5.59349.84267-6.53747,9.38358-3.84473-4.83389-5.40573,6.07842-6.45359,8.9007-3.69613-5.35713-4.55674,3.87087-5.00883,7.47625-2.32073-3.04787-3.58425-1.24951-4.11825,1.69932-.60045,3.01213-1.07043,3.55029-2.20333,2.52764-3.25768-1.23319-3.46433,7.58905-5.15724,9.97887-5.66915-6.22834-2.70873,9.46267-6.13827,7.21285-2.23093-4.47156-2.82551,9.9314-4.78113,8.38862-1.79132-3.05381-3.73909,7.36614-4.60337,9.83656l-.41855,2.559c-4.51191-5.05178-5.8197,9.69728-7.2933,13.18494-1.50048-1.02456-2.66156-2.92716-3.00677-.06459a349.66188,349.66188,0,0,1-15.80152,39.18435c-1.133-6.76924,11.7797-36.1988,6.66683-34.673.63483-3.13479,6.618-10.92706,3.68029-12.63336-2.04806.268-.90231-.557.05781-2.69492,1.58016-4.17025,4.80992-8.51368.56376-10.03181,1.1477-4.33283,7.50938-12.14841.75484-10.60393,1.44678-3.95633,6.32766-10.278,1.36125-10.9548.51583-2.55227,6.09345-11.36649,1.61048-9.85394-5.359,1.5461,7.54821-15.23252-1.69379-10.97183.5336-1.79624,5.00624-9.05894,1.26989-8.52837-1.25828.31669-1.43091.24851-1.135-.44776,2.84173-6.82976,2.52059-7.44053-1.18366-6.66538a23.53555,23.53555,0,0,0,2.02916-8.95007c-.74768-.053-4.21787.91689-3.25478-.43073.03342-2.23612,3.1534-10.92984-.40963-9.3883-3.79639,1.55383,2.19122-7.2432-2.01062-7.05546-.65363.28146-.74937-.09568-.62463-2.46592C291.32779,28.23372,289.03632,11.727,288.258,0c-2.20023,15.26627-3.109,28.71753-6.79215,38.42583-2.77276-.34259.73057,8.37118-1.84236,7.549-2.71818-.79736-.83252,6.819-.69064,8.8199,1.27454,1.69666-1.94393.516-2.82791.56647a22.8295,22.8295,0,0,0,1.17225,9.23709c.33362.88339-.04208.89209-2.553.05511-1.59619.97449.09575,7.80544.77574,9.942-8.57968-2.62492,1.162,7.95188-2.67365,8.82809-5.81794-.0972,4.76228,13.19588-.24512,11.68473-3.17461-1.45752-.58907,5.4213.03343,7.164,2.41022,5.66913-6.12294-.499,1.211,13.29976-6.22385-1.11563-.19381,8.97439-.03308,11.10388-5.45636-.402.88888,8.3271.88914,10.19729-4.64116-1.78956.44423,7.7755.913,9.57713-.39832.22694-2.69737-.67788-2.39474.73889-1.615,4.11725.23959-6.512-2.42808-3.14413-4.14816,2.47525,1.64671-15.19907-4.29847-9.72658-.45974-3.10856,1.2279-13.75424-2.57414-10.07064-2.10582.05808,1.15272-14.30764-4.47783-8.67461-.614-3.8503,1.2944-14.94705-4.25669-8.7271-.63225-2.91161.62714-13.7589-4.35607-9.19663.27275-1.4104-.02747-10.18687-1.87531-7.82152-3.35489,3.55675-1.525-7.95147-2.94719-7.61352-5.48315,5.84932-.96272-11.27037-5.57307-7.08094-3.28028,3.23754-.54122-8.75477-4.53136-5.98481-2.24105,2.37671-.18691-7.85208-3.35319-5.01744-2.19691,2.40167-1.05352-6.459-3.3674-5.32216-5.1378-3.33519-9.73242-17.21554-15.01665-23.91567,1.70089,7.59571,6.04577,23.85093,5.22237,28.77124-1.21638.0632-.92916,1.30489,1.66447,7.21886-5.25561-.26306-.08027,6.93256.812,9.74215-5.651-.56867-1.00644,5.97142.88626,9.28218,1.56146,3.73782-6.517,1.05288,1.03066,8.18164,6.21612,5.38864-6.12941.02511,3.1044,9.18459,5.27706,4.15878-4.24907,1.43984,2.58915,7.52579,4.52691,3.455-3.44086,3.64966,5.90051,9.69674-7.341,1.23494,3.89862,6.32232,2.59156,8.53947-3.90271-.55335,8.4146,9.22064,5.89443,9.30614-2.36546,1.102,2.09266,4.43162,3.15139,5.55785,6.80035,5.772-3.01118,1.37242,5.46726,9.146,6.05971,5.5123,1.09555,2.34607,2.73052,5.81551,4.48869,3.75076,22.18948,26.87328,20.66252,27.90424-11.89021-12.47575-19.749-22.45126-28.6348-33.57365-.37872-.67564-.48606-.65968-1.14172.17-1.28325,1.8348-2.77806-4.3427-4.18963-5.16637-1.37621-1.618-1.572-1.59619-2.65272.37659-.7101.58727-4.9377-7.5015-5.78376-7.97612-.30492-.19563-1.89172,1.53626-2.30463,1.9374-1.85927-3.38256-5.69383-11.04537-7.15713-4.14139-13.225-18.36515.51427,5.429-16.261-11.6637-1.89186,5.43515-6.8201-3.42353-9.69829-3.28554-1.50785,4.54229-4.89248-1.88546-8.50124-1.92471-1.35763,2.57045-21.72317-8.0228-21.82643-6.4787,8.53647,6.53432,10.8428,11.41457,17.48306,16.17683,3.42777,1.132-1.78487,1.63206.2607,3.00846,9.81767,3.822.76971,3.72245,8.14423,7.30726,7.07946,3.07542-2.9831,3.86247,8.353,7.06305-1.04608,3.79219,3.59274,5.29342,7.82733,6.53394-.971,2.159-2.69483,4.52357,5.35724,5.94309,5.753,1.16-3.66,2.99195,6.06589,5.32417,11.676,2.56307-1.2841,5.15673,10.40641,6.61384,10.19355,4.9513,31.78558,13.42816,40.51842,17.96018-1.67173.068-16.23511-4.2054-14.5-2.09283-.037.69514-.14581.70965-1.06837.14538-2.17731-.239-7.69308-3.02394-8.42676-.39125-.52321,2.58116-8.44216-3.66036-9.32534-.3224-.80837,1.89241-4.8198-.87088-6.84489.00983-.61243,2.87259-4.74332.19243-7.45962.58691,2.43813,4.83309-6.44446.53817-6.16518,3.21264-7.71846,3.60134-21.82221,6.31448-29.617,12.523,4.034.63153,19.43938-1.38046,19.3982.06943,23.42349,8.11087,41.32485.74095,69.079-8.81363,8.27042,2.3843,1.2462,48.24185,5.45555,37.636m-6.51558-68.63634a19.39481,19.39481,0,0,1-.9951-5.86176C276.21583,163.95019,278.73077,172.96,276.12692,168.89726Zm-2.87648-13.59911c-1.47328,2.231-.78989-6.72445-.46737-6.17553,1.67933,1.96107,3.44345,9.51626,1.48205,7.19406C274.16859,154.98154,274.03286,154.85507,273.25044,155.29815Z"/><path id="path2390-2" data-name="path2390" class="cls-12" d="M344.55055,206.07944c.66769-.94647,6.98463,18.00338,7.70271,17.05526,1.35911-.12256,2.63244,6.44033,4.10479,5.72521,4.707,6.14749,8.31739,9.52706,12.86723,18.86258.91883-3.34244-1.23178-13.726-.92292-17.36533,2.92373-.13121-3.191-5.33746-.76438-5.48016,2.075-1.01791-4.45779-4.71139-2.8755-5.45035,1.347-.53866-2.68662-3.72878-3.656-4.33347-.8445-.405-.96472-.54224-.60133-.69192,1.89864.05744-6.48079-6.514-8.12273-7.888,8.79229,3.63,18.45187,8.31934,26.63572,11.72865,3.212-1.492,5.23262,3.26377,9.69428,1.56933,3.95608,2.38252,5.53125,2.6713,6.69871.48957,1.57954.98665,6.39229,4.421,6.47672,1.40809.249-2.24647,6.9192,4.11086,8.608.38147,1.42218.5309,5.72829,2.56691,6.0349.38939-.85095-1.20265,4.303,1.27722,5.32585.88533,2.64516.00724-1.06784-2.42844,3.41652-1.06593,7.91153.073,14.39594.03289,23.1281,1.51531-4.652-3.74336-16.002-5.05429-17.65729-8.36328-1.5693-1.23108-6.6117-.03054-5.22589-2.46649-1.39625-.85665-5.69525.44485-5.4873-1.08623.86865-2.1257-5.19857-.9031-6.85238-1.235,3.1298-4.01571-5.48756-1.90444-7.81351-2.0532,3.93752-4.814-7.67314-.09913-6.814-2.249,1.54472-2.51082-6.03569-.95907-6.69933-.919,1.48594-3.59073-5.36014-1.17687-8.02016-.97662,3.49194-4.49236-7.32611.3557-6.894-1.35072,1.50956-2.31692-6.13693-.1274-7.9187-.001-3.271-2.37471-12.60436.51092-18.438-1.09063,10.357-3.42035,23.30472.2475,31.80213-2.86593,4.31572.253,8.5976,2.03264,8.63435-.826,1.45763-.06976,10.59014,2.36257,7.57322-.64058,1.4647-1.20118,10.40873,2.42722,7.6488-1.81225,1.60188-.45449,7.55468,1.672,6.72642-.86147-.72726-1.0134-.52516-1.17638.98939-.78616,2.57046.20385,8.14469,1.778,6.06546-1.74456,2.97536.23868,9.71416,2.379,6.10955-1.80779,2.13151-.472,11.70166,1.54061,7.90717-2.54086,11.80595.78913,2.93153-2.40549,8.962-2.50429,5.94253-.195,1.73612-1.84423,3.96087-2.43223,2.16739-.04733,6.35539-.25943,3.53819-2.236,1.546-.28706,6.27325-.17793,5.89931-2.18559-.4425-.39411-.32623-.47179,1.8174-1.21624,2.34621-.81551,3.66067-1.64332,2.86644-1.80606,2.09719-2.30683,11.99353-5.05251,14.65756-6.27584-5.26451.51208-20.72945,2.14892-26.32317,4.5865,1.06863-2.9941-1.80309-1.25873-3.44417-.60011-3.4487,1.27236-3.14944-2.29949-7.75366,1.4278.46013-4.233-5.59638.35708-7.47841,1.23188.78668-4.41734-4.10988-.31294-6.07972,1.23447.34081-2.61883-1.15038-2.35033-2.842-1.16435-1.75487,1.18477-2.24612,1.22056-2.30534.1701-.99827-2.184-5.37762,2.03872-7.366,2.3888.24237-5.801-5.91593,3.32319-6.50542.55772,1.0752-3.27289-6.20046,3.49625-6.41058,1.792.60311-2.365-5.40416,1.79625-7.02561,2.58765l-1.446,1.051c.23888-4.66329-7.55407,1.92959-9.96738,2.924-.23841-1.22965.11528-2.725-1.442-1.4897A241.05013,241.05013,0,0,1,352.50525,197.717c2.72737-3.86636,23.32564-12.02522,20.08044-13.75692,1.83119-1.2282,8.5416-2.145,7.92953-4.4057-1.1335-.86184-.172-.7105,1.33515-1.29248,2.79652-1.27717,6.48533-1.83928,5.14088-4.64222,2.66346-1.56654,9.57063-2.31127,5.512-4.8299,2.62743-1.237,8.08457-1.96781,5.97923-4.70776,1.49041-1.00048,8.49765-2.61475,5.56752-4.04749-3.37563-1.84108,11.08521-3.80366,4.49052-6.19756,1.1325-.6214,6.84593-2.01125,4.75783-3.56311-.77013-.455-.82165-.57211-.339-.76978,4.70434-1.96858,4.84316-2.42358,2.65218-3.84a16.225,16.225,0,0,0,5.33438-3.40155c-.34067-.38855-2.51138-1.59606-1.386-1.78938,1.10072-1.07949,6.84528-3.82648,4.35187-4.79891-2.61372-1.07957,4.58609-2.48661,2.43614-4.43217-.45677-.179-.3208-.41028.88971-1.5112a168.75243,168.75243,0,0,1,15.83585-21.5845c-8.48106,6.41355-15.44916,12.564-21.96167,15.535-1.19252-1.51244-3.70138,4.45616-4.56344,2.80563-.94525-1.70881-3.71461,2.93761-4.61537,3.98685-.19822,1.44942-1.20273-.68983-1.66037-1.09374a15.73822,15.73822,0,0,0-3.90486,5.09463c-.2649.59464-.45321.41672-1.27771-1.211-1.25469-.29653-3.73811,3.8711-4.441,5.24778-2.93117-5.44669-3.28666,4.4599-5.591,3.02926-2.80366-2.86887-4.06544,8.77532-5.78629,5.60666-.84877-2.25362-2.91754,2.3708-3.4576,3.5266-1.56808,3.94664-2.75828-3.21366-5.856,7.10413-2.5087-3.56474-4.44685,4.30348-5.40073,5.42487-2.47869-2.84288-3.60243,4.51132-4.5092,5.42784-1.40638-3.12748-3.55283,4.02542-4.19678,5.13555-.30522-.082-.993-1.64018-1.53172-.79921-2.78787,1.23434,3.27523-3.07472.33489-2.71805-3.2329-.79866,8.17724-6.649,2.61038-6.85045,1.28213-1.74614,7.27139-6.14416,3.62213-6.18288-1.06-.9927,7.50291-6.45178,2.01236-6.422,1.56622-2.18441,7.88241-6.69638,2.14618-6.34044,1.1021-1.73329,6.97928-6.43776,2.32516-6.61871.81759-.55883,4.92638-5.0049,2.87392-4.74193-3.36864.11595,3.10861-4.63572,2.24783-5.15979-5.5232.20727,4.99352-5.98934.7029-6.17216-3.1773-.00429,3.98017-4.5523.68179-5.12992-2.25064.07786,3.71606-3.93817.79-4.08459-2.2411.11149,2.61591-3.67582.9308-4.24079-.90021-4.12567,3.5793-13.15509,4.23906-19.00059-2.84989,4.5467-8.6034,14.6187-11.39283,16.63037-.62667-.55888-1.08806.18883-2.685,4.34439-2.44769-2.67746-3.40108,3.358-4.32631,5.1674-2.49322-3.01892-3.38883,2.438-4.06687,4.978-1.04742,2.58872-3.70388-2.64431-3.46242,4.5088.43283,5.65477-3.0156-2.96-2.93265,6.00585.56909,4.59676-2.78026-1.35495-2.38073,4.94317.54278,3.88817-3.45582.1198-1.8109,7.6127-4.196-2.95471-1.1555,4.98847-2.8711,5.44106-1.644-2.16366-.34813,8.59853-1.62447,7.41835-1.69345-.6071-1.12359,3.18627-1.15094,4.25153.5332,6.12592-2.141-.78771-1.75613,7.13274.29623,5.63951-.60084,1.68083-1.48211,4.17369.38064,4.01454-2.15856,23.92808-3.40671,23.6928.22355-11.879,1.21005-20.57786,2.24951-30.33675.14206-.51471.08172-.55894-.64191-.47032-1.51852.27677.74462-3.47507.45237-4.56317.11023-1.46015.00372-1.54445-1.48245-1.10183-.63274-.05658,1.21815-6.07014,1.03374-6.713-.05455-.24371-1.67191-.16456-2.06876-.16823.72923-2.55906,2.56615-8.1733-1.49875-5.49993,2.42541-15.412-2.38067,2.90962-2.31191-13.60052-3.56264,1.74582-1.68172-4.98475-3.159-6.31283-2.9415,1.49454-1.483-3.29634-3.23228-5.06554-1.9117.60118-6.754-14.46521-7.55331-13.75867,1.01425,7.34133-.22219,10.85106.72223,16.40457,1.13069,2.21686-1.666-.06581-1.33113,1.60056,2.95731,6.63358-1.42794,2.19726.44724,7.52988,1.9776,4.93994-3.33472.446.66793,7.51144-2.35149,1.3509-.80644,4.336.667,6.99727-1.52276.58707-3.514.90978-.25688,5.51,2.25649,3.35816-3.24428-.30877.39048,5.55033,4.47837,6.91784-3.12982,1.90411,1.892,8.28707,2.59386,7.36922,9.06337,21.99332,11.14479,28.44876-.85214-.77733-5.91593-9.9334-6.09013-8.05683-.35523.32267-.41557.277-.594-.44684-.951-1.17292-2.30325-5.21227-3.9394-4.278-1.508,1.01105-2.36167-5.88737-4.41308-4.68-1.31377.53529-1.9394-2.764-3.35877-3.31442-1.69307,1.11059-2.41754-2.20585-3.93983-3.32974-1.149,3.55052-3.41876-2.86135-4.57882-1.41543-5.52842-1.97819-13.75493-7.488-20.585-8.22564,1.67041,2.26561,10.19474,8.75014,9.47147,9.44062,7.5444,15.33289,19.88992,20.40237,38.12268,29.17919,2.89631,5.17881-22.78287,24.24285-15.57726,21.08717m30.09059-36.79142a13.37038,13.37038,0,0,1,2.35489-3.35481C357.66978,182.64256,354.533,188.27694,355.22728,185.02351Zm5.185-8.05844c-1.80376.37876,2.87379-3.678,2.76564-3.25265-.1281,1.77527-2.92735,6.33278-2.76235,4.24377C361.01573,177.25516,361.01055,177.12738,360.4123,176.96507Z"/><path id="path2390-3" data-name="path2390" class="cls-12" d="M225.28063,198.07944c-.66769-.94647-6.98462,18.00338-7.7027,17.05526-1.35911-.12256-2.63244,6.44033-4.10479,5.72521-4.70705,6.14749-8.31739,9.52706-12.86723,18.86258-.91883-3.34244,1.23178-13.726.92292-17.36533-2.92373-.13121,3.191-5.33746.76438-5.48016-2.075-1.01791,4.45779-4.71139,2.8755-5.45035-1.347-.53866,2.68662-3.72878,3.656-4.33347.8445-.405.96471-.54224.60133-.69192-1.89864.05744,6.48079-6.514,8.12273-7.888-8.79229,3.63-18.45187,8.31934-26.63572,11.72865-3.212-1.492-5.23262,3.26377-9.69428,1.56933-3.95608,2.38252-5.53125,2.6713-6.69871.48957-1.57954.98665-6.39229,4.421-6.47672,1.40809-.249-2.24647-6.9192,4.11086-8.608.38147-1.42218.5309-5.72829,2.56691-6.0349.38939.851-1.20265-4.303,1.27722-5.32586.88533-2.64515.00724,1.06785-2.42844-3.41651-1.06593-7.91153.073-14.39595.03289-23.1281,1.51531,4.652-3.74336,16.002-5.05429,17.65728-8.36328,1.56931-1.23108,6.61171-.03054,5.2259-2.46649,1.39624-.85665,5.69525.44485,5.4873-1.08623-.86865-2.1257,5.19857-.9031,6.85238-1.235-3.12981-4.01571,5.48756-1.90444,7.8135-2.0532-3.93752-4.814,7.67315-.09913,6.814-2.249-1.54472-2.51082,6.03569-.95907,6.69933-.919-1.48594-3.59073,5.36014-1.17687,8.02016-.97662-3.49194-4.49236,7.32611.3557,6.894-1.35072-1.50956-2.31692,6.13693-.1274,7.9187-.001,3.271-2.37471,12.60436.51092,18.438-1.09063-10.357-3.42035-23.30472.2475-31.80213-2.86593-4.31572.253-8.5976,2.03264-8.63435-.826-1.45763-.06976-10.59015,2.36257-7.57322-.64058-1.4647-1.20118-10.40873,2.42722-7.6488-1.81225-1.60188-.45449-7.55468,1.672-6.72642-.86147.72726-1.0134.52516-1.17638-.98939-.78616-2.57046.20385-8.14469,1.778-6.06546-1.74456-2.97536.23868-9.71416,2.379-6.10955-1.80779-2.13151-.472-11.70166,1.54061-7.90717-2.54086-11.806.78913-2.93153-2.40549-8.962-2.50429-5.94253-.195-1.73612-1.84423-3.96087-2.43223-2.1674-.04733-6.35539-.25943-3.53819-2.236-1.54595-.28706-6.27325-.17793-5.89931-2.18559.4425-.39411.32623-.47179-1.8174-1.21624-2.34621-.81551-3.66067-1.64332-2.86644-1.80606-2.09719-2.30683-11.99353-5.05251-14.65756-6.27584,5.26451.51208,20.72945,2.14892,26.32317,4.5865-1.06863-2.9941,1.80308-1.25873,3.44417-.60011,3.4487,1.27236,3.14944-2.29949,7.75366,1.4278-.46013-4.233,5.59638.35708,7.47841,1.23188-.78668-4.41734,4.10987-.31294,6.07972,1.23447-.34081-2.61883,1.15037-2.35033,2.842-1.16435,1.75487,1.18477,2.24612,1.22056,2.30534.1701.99827-2.184,5.37762,2.03872,7.366,2.3888-.24237-5.801,5.91593,3.32319,6.50542.55772-1.0752-3.27289,6.20046,3.49625,6.41058,1.792-.60311-2.365,5.40416,1.79625,7.02561,2.58765l1.446,1.051c-.23888-4.66329,7.55407,1.92959,9.96737,2.924.23841-1.22965-.11527-2.725,1.442-1.4897A241.05076,241.05076,0,0,0,217.32593,189.717c-2.72736-3.86636-23.32563-12.02522-20.08043-13.75692-1.83119-1.2282-8.5416-2.145-7.92953-4.4057,1.1335-.86184.172-.7105-1.33515-1.29248-2.79652-1.27717-6.48533-1.83928-5.14088-4.64222-2.66346-1.56654-9.57063-2.31127-5.512-4.8299-2.62743-1.237-8.08457-1.96781-5.97923-4.70776-1.49041-1.00048-8.49765-2.61475-5.56752-4.04749,3.37563-1.84108-11.08521-3.80366-4.49052-6.19756-1.1325-.6214-6.84593-2.01125-4.75783-3.56311.77012-.455.82165-.57211.339-.76978-4.70434-1.96858-4.84316-2.42358-2.65219-3.84a16.225,16.225,0,0,1-5.33437-3.40155c.34066-.38855,2.51138-1.59606,1.386-1.78938-1.10072-1.07949-6.84528-3.82648-4.35187-4.79891,2.61372-1.07957-4.58609-2.48661-2.43614-4.43217.45677-.17905.3208-.41028-.88971-1.5112a168.75434,168.75434,0,0,0-15.83585-21.5845c8.48106,6.41355,15.44915,12.564,21.96167,15.535,1.19252-1.51244,3.70138,4.45616,4.56344,2.80563.94525-1.70881,3.71461,2.93761,4.61537,3.98685.19822,1.44942,1.20273-.68983,1.66037-1.09374a15.73822,15.73822,0,0,1,3.90486,5.09463c.2649.59464.45321.41672,1.27771-1.211,1.25469-.29653,3.73811,3.8711,4.441,5.24778,2.93117-5.44669,3.28666,4.4599,5.591,3.02926,2.80366-2.86887,4.06544,8.77532,5.78628,5.60666.84878-2.25362,2.91755,2.3708,3.45761,3.5266,1.56807,3.94664,2.75828-3.21366,5.856,7.10413,2.5087-3.56474,4.44685,4.30348,5.40073,5.42487,2.47869-2.84288,3.60243,4.51132,4.5092,5.42784,1.40637-3.12748,3.55283,4.02542,4.19678,5.13555.30522-.082.993-1.64018,1.53172-.79921,2.78787,1.23434-3.27523-3.07472-.33489-2.71805,3.2329-.79866-8.17725-6.649-2.61038-6.85045-1.28213-1.74614-7.27139-6.14416-3.62213-6.18288,1.06-.9927-7.50291-6.45178-2.01236-6.422-1.56623-2.18441-7.88241-6.69638-2.14618-6.34044-1.1021-1.73329-6.97928-6.43776-2.32516-6.61871-.81759-.55883-4.92638-5.0049-2.87392-4.74193,3.36864.11595-3.10861-4.63572-2.24784-5.15979,5.52321.20727-4.99351-5.98934-.70289-6.17216,3.1773-.00429-3.98018-4.5523-.68179-5.12992,2.25063.07786-3.71606-3.93817-.79-4.08459,2.2411.11149-2.61591-3.67582-.93081-4.24079.90022-4.12567-3.57929-13.15509-4.23905-19.00059,2.84989,4.5467,8.6034,14.6187,11.39283,16.63037.62667-.55888,1.08806.18883,2.685,4.34439,2.44769-2.67746,3.40108,3.358,4.32631,5.1674,2.49322-3.01892,3.38883,2.438,4.06687,4.978,1.04742,2.58872,3.70388-2.64431,3.46242,4.5088-.43283,5.65477,3.01559-2.96,2.93265,6.00585-.56909,4.59676,2.78025-1.355,2.38073,4.94317-.54278,3.88817,3.45582.1198,1.8109,7.6127,4.196-2.95471,1.1555,4.98847,2.8711,5.44106,1.644-2.16366.34813,8.59853,1.62447,7.41835,1.69345-.6071,1.12359,3.18627,1.15094,4.25153-.53321,6.12592,2.141-.78771,1.75613,7.13274-.29623,5.63951.60084,1.68083,1.48211,4.17369-.38064,4.01454,2.15856,23.92808,3.4067,23.6928-.22354-11.879-1.21-20.57786-2.2495-30.33675-.14206-.51471-.08172-.55894.6419-.47032,1.51853.27677-.74462-3.47507-.45236-4.56317-.11023-1.46015-.00372-1.54445,1.48245-1.10183.63273-.05658-1.21815-6.07014-1.03374-6.713.05454-.24371,1.67191-.16456,2.06876-.16823-.72923-2.55906-2.56616-8.1733,1.49875-5.49993-2.42542-15.412,2.38067,2.90962,2.31191-13.60052,3.56264,1.74582,1.68172-4.98475,3.15894-6.31283,2.94151,1.49454,1.483-3.29634,3.23229-5.06554,1.9117.60118,6.754-14.46521,7.55331-13.75867-1.01425,7.34133.22219,10.85106-.72223,16.40457-1.13069,2.21686,1.666-.06581,1.33113,1.60056-2.95731,6.63358,1.42794,2.19726-.44724,7.52988-1.9776,4.93994,3.33472.446-.66794,7.51144,2.3515,1.3509.80645,4.336-.667,6.99727,1.52276.58707,3.514.90978.25688,5.51-2.25649,3.35816,3.24428-.30877-.39048,5.55033-4.47837,6.91784,3.12982,1.90411-1.892,8.28707-2.59386,7.36922-9.06337,21.99332-11.1448,28.44876.85214-.77733,5.91594-9.9334,6.09014-8.05683.35523.32267.41557.277.594-.44684.951-1.17292,2.30325-5.21227,3.93939-4.278,1.508,1.01105,2.36168-5.88737,4.41309-4.68,1.31377.53529,1.9394-2.764,3.35877-3.31442,1.69307,1.11059,2.41754-2.20585,3.93982-3.32974,1.149,3.55052,3.41877-2.86135,4.57883-1.41543,5.52842-1.97819,13.75493-7.488,20.585-8.22564-1.6704,2.26561-10.19473,8.75014-9.47146,9.44062-7.5444,15.33289-19.88992,20.40237-38.12269,29.17919-2.89631,5.17881,22.78287,24.24285,15.57727,21.08717m-30.09059-36.79142a13.37042,13.37042,0,0,0-2.3549-3.35481C212.16141,174.64256,215.29815,180.27694,214.60391,177.02351Zm-5.185-8.05844c1.80376.37876-2.87379-3.678-2.76564-3.25265.12809,1.77527,2.92735,6.33278,2.76235,4.24377C208.81546,169.25516,208.82064,169.12738,209.41889,168.96507Z"/><path class="cls-10" d="M103.99239,188.9113H56.35567V169.39958h7.91016V126.91911H56.35567V107.40739h49.98047q17.22657,0,25.19531,3.33985,7.968,3.39916,11.71875,9.25781a23.33983,23.33983,0,0,1,3.75,12.832q0,8.61329-4.45312,14.29688a25.03612,25.03612,0,0,1-11.77734,8.32031q-7.207,2.52027-22.26563,2.51953H95.78927v11.42578h8.20312Zm-8.20312-63.63281v15.293h6.15234q6.44459,0,9.375-1.52344,2.8125-1.52271,2.8125-5.918a7.77482,7.77482,0,0,0-1.52344-4.86328,6.45445,6.45445,0,0,0-3.92578-2.46094,41.267,41.267,0,0,0-7.96875-.52734Z"/><path class="cls-10" d="M194.57833,188.9113H153.85567V171.04021h6.03516V125.27849h-6.03516v-17.8711h35.50782v63.63282h5.21484Z"/><path class="cls-10" d="M226.39474,147.95427l-23.08594-2.34375a22.06441,22.06441,0,0,1,12.30469-11.77734q8.37816-3.39771,24.72656-3.39844,6.03443,0,10.81054.38086a72.08278,72.08278,0,0,1,8.5254,1.14258q7.79223,1.46557,11.543,4.51171a17.39806,17.39806,0,0,1,5.21485,6.67969q1.52269,3.69141,1.52344,11.48438v16.40625h7.26562V188.9113H248.48458v-3.86719Q240.86667,189.966,228.094,189.966q-12.01245,0-18.10546-5.27344-6.15235-5.27343-6.15235-12.48047,0-7.968,7.5586-13.0664,7.49926-5.09766,19.57031-5.09766,11.01489,0,17.51953,2.87109v-1.69922a24.52162,24.52162,0,0,0-.76172-7.38281,7.531,7.531,0,0,0-3.63281-3.80859,14.53551,14.53551,0,0,0-6.79688-1.52344A12.49374,12.49374,0,0,0,226.39474,147.95427Zm22.08984,26.42578V164.009a17.327,17.327,0,0,0-8.32031-2.10938,8.71472,8.71472,0,0,0-6.15235,2.10938,7.85125,7.85125,0,0,0,.0586,11.13281,7.86641,7.86641,0,0,0,5.50781,2.22656A12.99579,12.99579,0,0,0,248.48458,174.38005Z"/><path class="cls-10" d="M337.66427,188.9113h-45V171.04021h7.32422V149.94646h-7.32422v-17.8711h36.79687v7.207q10.83984-8.26172,23.26172-8.26171,10.89844,0,16.40625,6.03515,5.44921,6.0359,5.44922,19.39453v14.58985h6.73828V188.9113H345.10567V163.65739q0-8.26172-1.40625-10.89843-1.52343-2.57739-5.80078-2.57813a15.50116,15.50116,0,0,0-8.4375,2.98828v17.8711h8.20313Z"/><path class="cls-10" d="M435.28145,168.16911v17.46094a28.40383,28.40383,0,0,1-8.32031,3.39844,42.95821,42.95821,0,0,1-11.01562,1.52344,27.20566,27.20566,0,0,1-11.36719-2.168,16.84881,16.84881,0,0,1-7.32422-5.97657,21.3837,21.3837,0,0,1-1.99219-3.95507,19.21211,19.21211,0,0,1-.9375-4.01368q-.41014-3.86718-.41015-14.9414v-9.55078h-7.26563v-17.8711h7.26563v-8.73047l29.47265-14.0039v22.73437h11.89453v17.8711H423.38692v11.01562q0,5.39136.9961,7.207.9375,1.81715,3.98437,1.81641A17.47341,17.47341,0,0,0,435.28145,168.16911Z"/><path class="cls-10" d="M465.04708,189.61443H446.82442V171.56755H463.8752q6.561,6.91479,14.35547,6.91406,7.85157,0,7.85157-3.22265a2.741,2.741,0,0,0-1.69922-2.51953q-1.75782-.93678-9.31641-2.75391-6.09522-1.63989-13.47656-3.80859a31.08587,31.08587,0,0,1-10.07813-4.57032,15.71155,15.71155,0,0,1-5.09765-5.39062,14.68486,14.68486,0,0,1-1.40625-6.91406q0-9.43287,6.67968-13.88672,6.62111-4.39453,16.81641-4.39453,10.54688,0,17.69531,3.98437v-2.92969H504.1877V148.5988H487.54708a20.67523,20.67523,0,0,0-14.76563-5.918q-6.73827,0-6.73828,3.57422,0,1.69995,1.99219,2.22656,1.69921.52736,11.25,2.51953a122.45337,122.45337,0,0,1,16.93359,4.57032,20.93809,20.93809,0,0,1,9.082,6.03515,14.29784,14.29784,0,0,1,2.98828,9.19922q0,9.84375-7.32422,14.53125-7.26562,4.62965-17.92969,4.62891-10.60547,0-17.98828-3.86719Z"/><path class="cls-11" d="M111.99239,188.9113H64.35567V169.39958h7.91016V126.91911H64.35567V107.40739h49.98047q17.22657,0,25.19531,3.33985,7.968,3.39916,11.71875,9.25781a23.33983,23.33983,0,0,1,3.75,12.832q0,8.61329-4.45312,14.29688a25.03612,25.03612,0,0,1-11.77734,8.32031q-7.207,2.52027-22.26563,2.51953H103.78927v11.42578h8.20312Zm-8.20312-63.63281v15.293h6.15234q6.44459,0,9.375-1.52344,2.8125-1.52271,2.8125-5.918a7.77482,7.77482,0,0,0-1.52344-4.86328,6.45445,6.45445,0,0,0-3.92578-2.46094,41.267,41.267,0,0,0-7.96875-.52734Z"/><path class="cls-11" d="M202.57833,188.9113H161.85567V171.04021h6.03516V125.27849h-6.03516v-17.8711h35.50782v63.63282h5.21484Z"/><path class="cls-11" d="M234.39474,147.95427l-23.08594-2.34375a22.06441,22.06441,0,0,1,12.30469-11.77734q8.37816-3.39771,24.72656-3.39844,6.03443,0,10.81054.38086a72.08278,72.08278,0,0,1,8.5254,1.14258q7.79223,1.46557,11.543,4.51171a17.39806,17.39806,0,0,1,5.21485,6.67969q1.52269,3.69141,1.52344,11.48438v16.40625h7.26562V188.9113H256.48458v-3.86719Q248.86667,189.966,236.094,189.966q-12.01245,0-18.10546-5.27344-6.15235-5.27343-6.15235-12.48047,0-7.968,7.5586-13.0664,7.49926-5.09766,19.57031-5.09766,11.01489,0,17.51953,2.87109v-1.69922a24.52162,24.52162,0,0,0-.76172-7.38281,7.531,7.531,0,0,0-3.63281-3.80859,14.53551,14.53551,0,0,0-6.79688-1.52344A12.49374,12.49374,0,0,0,234.39474,147.95427Zm22.08984,26.42578V164.009a17.327,17.327,0,0,0-8.32031-2.10938,8.71472,8.71472,0,0,0-6.15235,2.10938,7.85125,7.85125,0,0,0,.0586,11.13281,7.86641,7.86641,0,0,0,5.50781,2.22656A12.99579,12.99579,0,0,0,256.48458,174.38005Z"/><path class="cls-11" d="M345.66427,188.9113h-45V171.04021h7.32422V149.94646h-7.32422v-17.8711h36.79687v7.207q10.83984-8.26172,23.26172-8.26171,10.89844,0,16.40625,6.03515,5.44921,6.0359,5.44922,19.39453v14.58985h6.73828V188.9113H353.10567V163.65739q0-8.26172-1.40625-10.89843-1.52343-2.57739-5.80078-2.57813a15.50116,15.50116,0,0,0-8.4375,2.98828v17.8711h8.20313Z"/><path class="cls-11" d="M443.28145,168.16911v17.46094a28.40383,28.40383,0,0,1-8.32031,3.39844,42.95821,42.95821,0,0,1-11.01562,1.52344,27.20566,27.20566,0,0,1-11.36719-2.168,16.84881,16.84881,0,0,1-7.32422-5.97657,21.3837,21.3837,0,0,1-1.99219-3.95507,19.21211,19.21211,0,0,1-.9375-4.01368q-.41014-3.86718-.41015-14.9414v-9.55078h-7.26563v-17.8711h7.26563v-8.73047l29.47265-14.0039v22.73437h11.89453v17.8711H431.38692v11.01562q0,5.39136.9961,7.207.9375,1.81715,3.98437,1.81641A17.47341,17.47341,0,0,0,443.28145,168.16911Z"/><path class="cls-11" d="M473.04708,189.61443H454.82442V171.56755H471.8752q6.561,6.91479,14.35547,6.91406,7.85157,0,7.85157-3.22265a2.741,2.741,0,0,0-1.69922-2.51953q-1.75782-.93678-9.31641-2.75391-6.09522-1.63989-13.47656-3.80859a31.08587,31.08587,0,0,1-10.07813-4.57032,15.71155,15.71155,0,0,1-5.09765-5.39062,14.68486,14.68486,0,0,1-1.40625-6.91406q0-9.43287,6.67968-13.88672,6.62111-4.39453,16.81641-4.39453,10.54688,0,17.69531,3.98437v-2.92969H512.1877V148.5988H495.54708a20.67523,20.67523,0,0,0-14.76563-5.918q-6.73827,0-6.73828,3.57422,0,1.69995,1.99219,2.22656,1.69921.52736,11.25,2.51953a122.45337,122.45337,0,0,1,16.93359,4.57032,20.93809,20.93809,0,0,1,9.082,6.03515,14.29784,14.29784,0,0,1,2.98828,9.19922q0,9.84375-7.32422,14.53125-7.26562,4.62965-17.92969,4.62891-10.60547,0-17.98828-3.86719Z"/></g></g></svg>