<svg xmlns="http://www.w3.org/2000/svg" viewBox="0 0 566.29118 333.57883"><defs><style>.cls-1{fill:#924f03;}.cls-2{fill:#434343;}.cls-3{fill:#482702;}.cls-4{fill:#703b00;}.cls-5{fill:#313131;}.cls-6,.cls-8,.cls-9{fill:none;}.cls-6{stroke:#707070;stroke-linecap:round;stroke-width:4px;}.cls-7{fill:#7a4203;}.cls-8,.cls-9{stroke:#3b3b3b;}.cls-8{stroke-width:3px;}.cls-9{stroke-width:2px;}.cls-10{fill:#333;}.cls-11{fill:#fff;}.cls-12{fill:#00a400;}</style></defs><g id="Layer_2" data-name="Layer 2"><g id="Layer_2-2" data-name="Layer 2"><g id="Shotgun"><path id="Path_124" data-name="Path 124" class="cls-1" d="M393.27009,333.57883s-10.38418-64.83327-32.76732-102.40657-78.4002-62.4394-78.4002-62.4394l-22.68718,34.64567s42.07175,31.90526,67.86311,52.64111-.316,58.71664,9.09958,66.43766S393.27009,333.57883,393.27009,333.57883Z"/><path id="Path_125" data-name="Path 125" class="cls-2" d="M308.0038,182.996,256.96446,154.0884l-11.44274,20.20333-74.23906-42.04746-10.59078,18.6991,125.27839,70.95508,6.61826-20.949"/><path id="Path_128" data-name="Path 128" class="cls-3" d="M211.62451,147.88706S197.59973,176.70635,195.86,175.721,76.8599,110.67283,59.0509,91.39549s-1.124-30.55957-1.124-30.55957Z"/><path id="Path_133" data-name="Path 133" class="cls-4" d="M213.446,144.67112S199.42117,173.49041,197.6814,172.505,78.68134,107.4569,60.87234,88.17955,59.74832,57.62,59.74832,57.62Z"/><rect id="Rectangle_12" data-name="Rectangle 12" class="cls-5" x="126.53304" y="-49.99951" width="30.4914" height="308.60995" transform="translate(-18.85237 176.26716) rotate(-60.47369)"/><path id="Path_126" data-name="Path 126" class="cls-5" d="M269.05076,193.91088s14.31031-1.0973,18.15852-7.89171-3.13165-18.63976-3.13165-18.63976l-15.02687,26.53147"/><path id="Path_127" data-name="Path 127" class="cls-6" d="M283.55748,167.08481l-15.05372,26.57887"/><rect id="Rectangle_13" data-name="Rectangle 13" x="139.20795" y="-53.61744" width="9.23982" height="308.60995" transform="translate(-14.66504 176.21523) rotate(-60.47369)"/><path id="Path_129" data-name="Path 129" class="cls-7" d="M307.70825,183.51784,326.78193,208.36l2.78582,18.791-18.58158,2.416-24.84593-7.96843,6.25138-20.63108Z"/><path id="Path_130" data-name="Path 130" class="cls-8" d="M301.54866,235.239a17.55573,17.55573,0,0,1,2.71783,10.76294,17.7403,17.7403,0,0,1-4.45071,10.46611s-5.60471,4.40427-12.58726,2.70291-9.43543-3.027-15.34147-9.50677S260.893,240.3579,261.54164,231.5687s3.31255-15.96365,5.50645-18.0129,10.70518,3.50931,10.70518,3.50931l23.7947,18.17147"/><path id="Path_131" data-name="Path 131" class="cls-8" d="M298.11149,257.54052a20.201,20.201,0,0,0,2.69158-1.76738c2.49372-1.87944,7.20176-5.15415,12.70244-5.01734,8.3319.21129,9.57095,1.66282,9.57095,1.66282.912.04718-21.68453-17.25876-21.68453-17.25876"/><path id="Path_132" data-name="Path 132" class="cls-9" d="M293.26394,229.62926s.25632,6.17884-2.75555,10.83473c-2.5276,3.90016-12.35467,2.58084-12.35467,2.58084"/></g><g id="Shotgun-2" data-name="Shotgun"><path id="Path_124-2" data-name="Path 124" class="cls-1" d="M170.28462,330.74575s10.99507-64.73247,33.73152-102.093,78.9855-61.69733,78.9855-61.69733l22.35948,34.85806s-42.37075,31.50712-68.35649,51.99884-.23766,58.717-9.72565,66.3489S170.28462,330.74575,170.28462,330.74575Z"/><path id="Path_125-2" data-name="Path 125" class="cls-2" d="M256.96707,180.97366l51.30965-28.425,11.25173,20.31033L394.1607,131.5134l10.414,18.79814-125.9419,69.77059-6.42043-21.01053"/><path id="Path_128-2" data-name="Path 128" class="cls-3" d="M353.67313,146.77509s13.7524,28.95025,15.50139,27.98133,119.60814-63.92313,137.59814-83.03168,1.41213-30.54761,1.41213-30.54761Z"/><path id="Path_133-2" data-name="Path 133" class="cls-4" d="M351.8821,143.54212s13.7524,28.95025,15.50139,27.98133,119.60814-63.92312,137.59813-83.03168,1.41214-30.54761,1.41214-30.54761Z"/><rect id="Rectangle_12-2" data-name="Rectangle 12" class="cls-5" x="269.62178" y="88.60835" width="308.60995" height="30.4914" transform="translate(2.77466 218.44232) rotate(-28.98603)"/><path id="Path_126-2" data-name="Path 126" class="cls-5" d="M295.81545,192.25535s-14.29932-1.23219-18.0833-8.06258,3.30727-18.6094,3.30727-18.6094l14.776,26.672"/><path id="Path_127-2" data-name="Path 127" class="cls-6" d="M281.56234,165.29368l14.80242,26.71964"/><rect id="Rectangle_13-2" data-name="Rectangle 13" x="267.60687" y="95.59705" width="308.60995" height="9.23982" transform="translate(4.28479 217.01031) rotate(-28.98603)"/><path id="Path_129-2" data-name="Path 129" class="cls-7" d="M257.25768,181.49824l-19.30709,24.66118-2.96288,18.76392,18.558,2.59112,24.92-7.73379-6.05657-20.68911Z"/><path id="Path_130-2" data-name="Path 130" class="cls-8" d="M262.92929,233.27523a17.55574,17.55574,0,0,0-2.81921,10.73683,17.74034,17.74034,0,0,0,4.35182,10.50761s5.56294,4.45693,12.56121,2.82149,9.46356-2.93787,15.43044-9.36168,11.08135-9.20225,10.51559-17.99718-3.16188-15.99417-5.33636-18.064-10.73779,3.40821-10.73779,3.40821L262.93,233.27277"/><path id="Path_131-2" data-name="Path 131" class="cls-8" d="M266.156,255.60813a20.20211,20.20211,0,0,1-2.67479-1.79268c-2.47589-1.90288-7.15284-5.22183-12.65456-5.1369-8.33352.13272-9.58621,1.5725-9.58621,1.5725-.91243.03857,21.84631-17.05352,21.84631-17.05352"/><path id="Path_132-2" data-name="Path 132" class="cls-9" d="M271.26654,227.74382s-.31458,6.17615,2.65326,10.86023c2.4907,3.92383,12.32978,2.69723,12.32978,2.69723"/></g><path class="cls-10" d="M98.47335,275.65234H84.71847V256.05273H98.47335q2.46093,7.99806,9.27246,7.998,4.92114,0,4.92187-3.95508a4.20478,4.20478,0,0,0-1.71386-3.42773,40.4828,40.4828,0,0,0-7.77832-4.13086,72.51343,72.51343,0,0,1-10.98633-5.84473,18.95617,18.95617,0,0,1-5.625-6.19629,16.59747,16.59747,0,0,1-2.3291-8.65722q0-8.5254,5.53711-13.31543a19.8653,19.8653,0,0,1,13.53515-4.79,20.80226,20.80226,0,0,1,13.62305,4.57031v-3.7793h13.84277v17.40235h-13.667q-2.50488-7.207-8.877-7.207-4.48242,0-4.48242,3.82324a3.19409,3.19409,0,0,0,1.27441,2.76855,67.04435,67.04435,0,0,0,7.9541,4.2627,121.50561,121.50561,0,0,1,12.041,6.54785,16.01233,16.01233,0,0,1,3.14209,2.835,20.74352,20.74352,0,0,1,2.65869,3.75684,18.72815,18.72815,0,0,1,2.417,9.3164,17.0917,17.0917,0,0,1-5.71289,13.00782,20.14029,20.14029,0,0,1-14.41406,5.40527,24.19269,24.19269,0,0,1-14.63379-4.79Z"/><path class="cls-10" d="M140.17745,246.42871V233.02539h27.24609v2.85645a31.04053,31.04053,0,0,1,14.458-3.64746,23.48938,23.48938,0,0,1,16.30371,6.15234q6.76685,6.19629,6.76758,16.21582,0,10.10742-6.63574,15.95215-6.68042,5.88867-17.3584,5.88867a25.02908,25.02908,0,0,1-13.53516-3.51563v8.877h5.625V295.208h-32.959V281.80469h5.22949v-35.376Zm27.11426,8.08594q0,4.61426,2.10937,6.94336a6.63272,6.63272,0,0,0,5.2295,2.373q7.51464,0,7.51464-9.58007,0-9.36036-7.207-9.36035a7.165,7.165,0,0,0-5.44922,2.28515Q167.291,249.50489,167.29171,254.51465Z"/><path class="cls-10" d="M242.39425,275.65234H212.20382V262.249h4.39453V246.42871h-4.39453V233.02539h26.499V262.249h3.69141Zm-27.6416-54.668q0-3.47169,3.55957-5.58106a16.64609,16.64609,0,0,1,8.70117-2.10937,15.05088,15.05088,0,0,1,8.56933,2.19726,6.53015,6.53015,0,0,1,3.208,5.44922,6.17333,6.17333,0,0,1-3.33984,5.49316,16.1198,16.1198,0,0,1-8.52539,2.06543,18.03909,18.03909,0,0,1-8.70117-1.88964A5.99852,5.99852,0,0,1,214.75265,220.98438Z"/><path class="cls-10" d="M314.55294,262.249v13.40332H286.91085V272.7959a27.39125,27.39125,0,0,1-14.23828,3.64746,24.99379,24.99379,0,0,1-15.95215-5.49316q-6.9441-5.49316-6.94336-15.73243,0-11.03027,6.416-17.05078,6.416-5.93262,17.18261-5.93261A25.03025,25.03025,0,0,1,286.91085,235.75v-7.82227h-5.44922V214.52441h27.5542V262.249Zm-27.51026-8.08593a11.50486,11.50486,0,0,0-1.8457-6.67969,6.26712,6.26712,0,0,0-5.49316-2.63672q-7.51466,0-7.51465,9.71191a11.09348,11.09348,0,0,0,1.8457,6.5918,6.19918,6.19918,0,0,0,5.49317,2.63672,7.01544,7.01544,0,0,0,5.44922-2.3291Q287.04269,259.1289,287.04268,254.16309Z"/><path class="cls-10" d="M357.35567,262.16113l18.23633,2.24121a16.87307,16.87307,0,0,1-3.42773,5.11914,21.13732,21.13732,0,0,1-5.36133,3.9336,31.76579,31.76579,0,0,1-15.248,3.42773q-14.89746,0-22.41211-6.19629a19.83831,19.83831,0,0,1-7.51562-16.12793,20.72263,20.72263,0,0,1,7.42773-16.25976q7.33887-6.50391,19.90625-6.50391,12.085,0,19.6875,6.15235,7.47071,6.10839,7.95508,18.58886H343.0295q.13184,10.37111,7.73438,10.3711Q355.33419,266.90723,357.35567,262.16113ZM343.29317,250.999h12.43555q.08788-1.31835.08789-1.49414a9.165,9.165,0,0,0-1.75781-5.75683,5.62677,5.62677,0,0,0-4.65821-2.24121,5.10856,5.10856,0,0,0-4.57031,2.46093,11.29981,11.29981,0,0,0-1.582,6.15235A7.994,7.994,0,0,0,343.29317,250.999Z"/><path class="cls-10" d="M417.82442,275.65234H383.45919V262.249H389.26V246.42871h-5.80078V233.02539h26.45508V243.7041a17.78619,17.78619,0,0,1,4.61328-6.89941,14.82483,14.82483,0,0,1,6.06445-3.73535,33.86225,33.86225,0,0,1,8.6582-.835V250.999q-.74853-.04394-1.8457-.04394-6.76758,0-10.06445,1.3623a8.77859,8.77859,0,0,0-4.65821,3.69141,13.51733,13.51733,0,0,0-1.31835,6.24023h6.46093Z"/><path class="cls-10" d="M448.32247,276.17969h-13.668V262.64453h12.78906q4.92042,5.18555,10.76563,5.18555,5.88867,0,5.88867-2.417a2.05435,2.05435,0,0,0-1.27344-1.88965,40.31777,40.31777,0,0,0-6.98828-2.06543q-4.57031-1.23047-10.10742-2.85645a23.32978,23.32978,0,0,1-7.55859-3.42773,11.773,11.773,0,0,1-3.82227-4.043,11.01475,11.01475,0,0,1-1.05469-5.18555q0-7.07519,5.00977-10.415,4.96583-3.29589,12.61133-3.29589a26.944,26.944,0,0,1,13.27148,2.98828v-2.19727h13.49219V245.418H465.19747a15.50486,15.50486,0,0,0-11.07422-4.43848q-5.05371,0-5.05469,2.68067,0,1.27442,1.49414,1.66992,1.27441.3955,8.4375,1.88965a91.86885,91.86885,0,0,1,12.70118,3.42773,15.69823,15.69823,0,0,1,6.81054,4.52637,10.72325,10.72325,0,0,1,2.24219,6.89941q0,7.38282-5.49414,10.89844a24.54168,24.54168,0,0,1-13.44727,3.47168,28.77822,28.77822,0,0,1-13.49023-2.90039Z"/><path class="cls-11" d="M105.47335,275.65234H91.71847V256.05273h13.75488q2.46093,7.99806,9.27246,7.998,4.92114,0,4.92187-3.95508a4.20478,4.20478,0,0,0-1.71386-3.42773,40.4828,40.4828,0,0,0-7.77832-4.13086,72.51343,72.51343,0,0,1-10.98633-5.84473,18.95617,18.95617,0,0,1-5.625-6.19629,16.59747,16.59747,0,0,1-2.3291-8.65722q0-8.5254,5.53711-13.31543a19.8653,19.8653,0,0,1,13.53515-4.79,20.80226,20.80226,0,0,1,13.62305,4.57031v-3.7793h13.84277v17.40235h-13.667q-2.50488-7.207-8.877-7.207-4.48242,0-4.48242,3.82324a3.19409,3.19409,0,0,0,1.27441,2.76855,67.04435,67.04435,0,0,0,7.9541,4.2627,121.50561,121.50561,0,0,1,12.041,6.54785,16.01233,16.01233,0,0,1,3.14209,2.835,20.74352,20.74352,0,0,1,2.65869,3.75684,18.72815,18.72815,0,0,1,2.417,9.3164,17.0917,17.0917,0,0,1-5.71289,13.00782,20.14029,20.14029,0,0,1-14.41406,5.40527,24.19269,24.19269,0,0,1-14.63379-4.79Z"/><path class="cls-11" d="M147.17745,246.42871V233.02539h27.24609v2.85645a31.04053,31.04053,0,0,1,14.458-3.64746,23.48938,23.48938,0,0,1,16.30371,6.15234q6.76685,6.19629,6.76758,16.21582,0,10.10742-6.63574,15.95215-6.68042,5.88867-17.3584,5.88867a25.02908,25.02908,0,0,1-13.53516-3.51563v8.877h5.625V295.208h-32.959V281.80469h5.22949v-35.376Zm27.11426,8.08594q0,4.61426,2.10937,6.94336a6.63272,6.63272,0,0,0,5.2295,2.373q7.51464,0,7.51464-9.58007,0-9.36036-7.207-9.36035a7.165,7.165,0,0,0-5.44922,2.28515Q174.291,249.50489,174.29171,254.51465Z"/><path class="cls-11" d="M249.39425,275.65234H219.20382V262.249h4.39453V246.42871h-4.39453V233.02539h26.499V262.249h3.69141Zm-27.6416-54.668q0-3.47169,3.55957-5.58106a16.64609,16.64609,0,0,1,8.70117-2.10937,15.05088,15.05088,0,0,1,8.56933,2.19726,6.53015,6.53015,0,0,1,3.208,5.44922,6.17333,6.17333,0,0,1-3.33984,5.49316,16.1198,16.1198,0,0,1-8.52539,2.06543,18.03909,18.03909,0,0,1-8.70117-1.88964A5.99852,5.99852,0,0,1,221.75265,220.98438Z"/><path class="cls-11" d="M321.55294,262.249v13.40332H293.91036V272.7959a27.38822,27.38822,0,0,1-14.23779,3.64746,24.99379,24.99379,0,0,1-15.95215-5.49316q-6.9441-5.49316-6.94336-15.73243,0-11.03027,6.416-17.05078,6.416-5.93262,17.18261-5.93261A25.02734,25.02734,0,0,1,293.91036,235.75v-7.82227h-5.44873V214.52441h27.5542V262.249Zm-27.50977-8.08593a11.50486,11.50486,0,0,0-1.8457-6.67969,6.26858,6.26858,0,0,0-5.49365-2.63672q-7.51466,0-7.51465,9.71191a11.09348,11.09348,0,0,0,1.8457,6.5918,6.19918,6.19918,0,0,0,5.49317,2.63672,7.01441,7.01441,0,0,0,5.44873-2.3291Q294.0422,259.1289,294.04317,254.16309Z"/><path class="cls-11" d="M364.35567,262.16113l18.23633,2.24121a16.87307,16.87307,0,0,1-3.42773,5.11914,21.13732,21.13732,0,0,1-5.36133,3.9336,31.76579,31.76579,0,0,1-15.248,3.42773q-14.89746,0-22.41211-6.19629a19.83831,19.83831,0,0,1-7.51562-16.12793,20.72263,20.72263,0,0,1,7.42773-16.25976q7.33887-6.50391,19.90625-6.50391,12.085,0,19.6875,6.15235,7.47071,6.10839,7.95508,18.58886H350.0295q.13184,10.37111,7.73438,10.3711Q362.33419,266.90723,364.35567,262.16113ZM350.29317,250.999h12.43555q.08788-1.31835.08789-1.49414a9.165,9.165,0,0,0-1.75781-5.75683,5.62677,5.62677,0,0,0-4.65821-2.24121,5.10856,5.10856,0,0,0-4.57031,2.46093,11.29981,11.29981,0,0,0-1.582,6.15235A7.994,7.994,0,0,0,350.29317,250.999Z"/><path class="cls-11" d="M424.82442,275.65234H390.45919V262.249H396.26V246.42871h-5.80078V233.02539h26.45508V243.7041a17.78619,17.78619,0,0,1,4.61328-6.89941,14.82483,14.82483,0,0,1,6.06445-3.73535,33.86225,33.86225,0,0,1,8.6582-.835V250.999q-.74853-.04394-1.8457-.04394-6.76758,0-10.06445,1.3623a8.77859,8.77859,0,0,0-4.65821,3.69141,13.51733,13.51733,0,0,0-1.31835,6.24023h6.46093Z"/><path class="cls-11" d="M455.32247,276.17969h-13.668V262.64453h12.78906q4.92042,5.18555,10.76563,5.18555,5.88867,0,5.88867-2.417a2.05435,2.05435,0,0,0-1.27344-1.88965,40.31777,40.31777,0,0,0-6.98828-2.06543q-4.57031-1.23047-10.10742-2.85645a23.32978,23.32978,0,0,1-7.55859-3.42773,11.773,11.773,0,0,1-3.82227-4.043,11.01475,11.01475,0,0,1-1.05469-5.18555q0-7.07519,5.00977-10.415,4.96583-3.29589,12.61133-3.29589a26.944,26.944,0,0,1,13.27148,2.98828v-2.19727h13.49219V245.418H472.19747a15.50486,15.50486,0,0,0-11.07422-4.43848q-5.05371,0-5.05469,2.68067,0,1.27442,1.49414,1.66992,1.27441.3955,8.4375,1.88965a91.86885,91.86885,0,0,1,12.70118,3.42773,15.69823,15.69823,0,0,1,6.81054,4.52637,10.72325,10.72325,0,0,1,2.24219,6.89941q0,7.38282-5.49414,10.89844a24.54168,24.54168,0,0,1-13.44727,3.47168,28.77822,28.77822,0,0,1-13.49023-2.90039Z"/><path id="path2390" class="cls-12" d="M283.5812,221.79946c-.30525-1.824,28.14717,12.58741,27.89725,10.70488,1.40481-1.66556,10.221,4.35255,11.08875,1.8873,12.24653,1.69014,20.13964,1.47072,35.78836,6.95553-2.71125-4.82532-16.81416-14.19423-20.55111-18.6714,3.17079-3.43268-9.61616-2.47359-7.02246-5.361,1.21163-3.48571-10.35071-.34026-9.38492-2.956.92368-2.12416-7.237-1.21436-9.01634-.81183-1.41327.48888-1.70387.46812-1.45958-.10988,2.21929-2.06725-14.67124-.114-18.07782.17084,14.05536-5.75529,30.28486-11.28236,43.40188-16.60472,1.96949-5.30077,9.60418-2.17289,12.76464-9.107,7.16567-1.73929,9.27767-3.1807,8.15224-6.968,2.90078-.65428,12.22-2.162,8.93194-5.6762-2.2405-2.82922,12.46969-3.10579,10.19768-9.23506,2.21031-.99478,9.38405-3.52046,7.28638-6.3361-2.31649-.40917,6.318-3.38336,7.03868-4.97691,3.01013-2.96265-3.93938-1.55671,2.68022-5.04694,9.06077-8.80295,16.37494-16.13133,27.95006-24.25634-9.4839.97652-23.83735,12.23631-29.43243,10.34006-3.16369.3654-7.53795,7.39121-8.7011,3.07019-2.54674.596-5.96392,6.9014-7.44754,4.93022-1.40162-3.38807-6.91418,4.81379-9.16383,6.2946-.95817-8.07264-8.3668,4.00194-11.17361,6.44547-.938-9.88576-8.8196,8.5055-10.25917,5.10065-1.06688-4.58447-7.92709,5.69048-8.63528,6.48128-2.34649-5.744-7.405,4.68455-10.199,7.89938-1.08253-9.02033-7.91494,8.63192-9.34113,6.21-.889-4.32493-7.10791,6.748-8.98811,8.89263-6.37939.97871-13.73091,14.73629-22.15027,19.47065,7.9127-15.51415,26.72658-25.89354,32.87351-38.97075,5.18211-4.56,12.04037-7.34945,8.87142-10.635,1.57591-1.7163,14.67229-9.21291,7.87542-9.23277.3132-3.00829,14.539-8.93579,6.64524-10.64739,1.30752-2.31494,10.4517-6.58741,6.66628-8.53238-1.96355-.33331-1.91725-.74526.23989-2.00345,3.14619-2.65563,11.24038-7.12977,4.92434-8.79227,3.64481-3.07084,13.69657-8.21042,4.90334-8.91353,1.8889-2.92969,15.01058-11.39414,6.12015-11.76447,14.28491-12.36414.6253-6.02252,7.35834-12.9077,6.52512-6.89566-.101-4.04293,1.76347-7.209,2.40663-2.488,6.92138-7.43241,1.50423-6.51146,1.43209-2.0621,6.91968-7.24767,4.24041-9.10617-.94483.0497-.90012-.169.69658-3.42151,1.74679-3.56065,2.30882-5.97645,1.22467-5.26911-.21078-4.97347,7.93683-19.20452,9.58628-23.58495-5.39957,6.49394-21.11238,25.72086-24.723,34.7698-2.15-4.59822-3.46.59659-4.5828,3.18722-2.48491,5.31737-6.157.92756-7.19605,10.32886-4.232-5.32085-5.95029,6.69075-7.10371,9.79734-4.06846-5.8968-5.01577,4.26081-5.5134,8.22938-2.55452-3.3549-3.94532-1.37538-4.53312,1.87051-.66094,3.31557-1.17826,3.90794-2.42529,2.78227-3.58585-1.35741-3.81331,8.35356-5.67677,10.98412-6.24024-6.85577-2.9816,10.41592-6.75662,7.93945-2.45566-4.922-3.11015,10.93187-5.26277,9.23367-1.97177-3.36144-4.11576,8.10819-5.0671,10.82747l-.46072,2.81685c-4.96642-5.56069-6.406,10.67417-8.028,14.51316-1.65164-1.12777-2.92969-3.222-3.30967-.0711a384.88464,384.88464,0,0,1-17.39333,43.13169c-1.24715-7.45115,12.96636-39.84538,7.33843-38.16588.69878-3.45057,7.28472-12.02781,4.051-13.906-2.25438.295-.99322-.61315.06363-2.9664,1.73934-4.59035,5.29446-9.37133.62055-11.04239,1.26332-4.76931,8.26586-13.37222.83088-11.67215,1.59253-4.35488,6.96509-11.31337,1.49838-12.05836.5678-2.80938,6.70729-12.51152,1.77271-10.8466-5.8988,1.70185,8.3086-16.767-1.86441-12.07711.58735-1.97718,5.51055-9.97151,1.39781-9.38749-1.385.34859-1.575.27353-1.24932-.49288,3.128-7.51777,2.7745-8.19006-1.30291-7.33683a25.90621,25.90621,0,0,0,2.23358-9.85168c-.823-.05834-4.64277,1.00926-3.58266-.47412.03678-2.46138,3.47106-12.03088-.45089-10.334-4.17883,1.71036,2.412-7.97287-2.21317-7.76621-.71948.30981-.82486-.10532-.68755-2.71433C288.78171,31.07792,286.2594,12.9083,285.40271,0c-2.42187,16.80416-3.42217,31.61047-7.47637,42.29676-3.05208-.3771.80417,9.21447-2.02795,8.30949-2.992-.87769-.91639,7.50593-.76022,9.7084,1.40293,1.86757-2.13975.56794-3.11278.62353a25.1294,25.1294,0,0,0,1.29033,10.16762c.36723.97237-.04632.98195-2.81021.06066-1.757,1.07265.10539,8.59174.85388,10.94358-9.444-2.88936,1.279,8.75293-2.943,9.71741-6.404-.107,5.242,14.52519-.26982,12.86182-3.49441-1.60435-.64841,5.96743.0368,7.88571,2.653,6.24023-6.73975-.54925,1.333,14.63955-6.85083-1.228-.21334,9.87845-.03642,12.22247-6.006-.44247.97843,9.16594.97871,11.22454-5.1087-1.96985.489,8.55878,1.005,10.54191-.43844.2498-2.96909-.74618-2.636.81332-1.77764,4.532.26373-7.16806-2.67269-3.46087-4.566,2.7246,1.81261-16.73018-4.73148-10.70641-.50605-3.42171,1.35159-15.1398-2.83345-11.08513-2.318.06393,1.26884-15.749-4.92892-9.54847-.67589-4.23818,1.42479-16.45279-4.6855-9.60625-.69594-3.20492.69031-15.14494-4.79489-10.12308.30023-1.55247-.03024-11.21307-2.06423-8.60943-3.69285,3.915-1.67858-8.75249-3.24408-8.3805-6.03551,6.43857-1.0597-12.40572-6.13448-7.79425-3.61073,3.56368-.59574-9.63671-4.98784-6.58771-2.46681,2.61614-.20574-8.64308-3.691-5.52288-2.41821,2.6436-1.15965-7.10973-3.70662-5.85831-5.65537-3.67117-10.71284-18.94979-16.52939-26.32488,1.87223,8.36089,6.6548,26.25362,5.74846,31.66959-1.33891.06956-1.02277,1.43634,1.83214,7.94607-5.785-.28956-.08836,7.63093.89376,10.72355-6.22022-.626-1.10783,6.573.97553,10.21725,1.71877,4.11435-7.17347,1.159,1.13449,9.00584,6.84232,5.93148-6.74688.02763,3.41713,10.10983,5.80866,4.57772-4.67711,1.58488,2.85,8.28391,4.98294,3.80307-3.78748,4.01733,6.49491,10.67358-8.08056,1.35933,4.29136,6.9592,2.85263,9.39971-4.29586-.6091,9.26226,10.1495,6.48822,10.24362-2.60375,1.213,2.30347,4.87805,3.46886,6.11774,7.48539,6.35346-3.31453,1.51066,6.018,10.06734,6.67016,6.0676,1.20592,2.58241,3.00559,6.40135,4.94088,4.12861,24.4248,29.58043,22.744,30.71525-13.088-13.73253-21.73851-24.71294-31.51941-36.95578-.41687-.7437-.535-.72614-1.25673.18717-1.41253,2.01962-3.05792-4.78018-4.61169-5.68682-1.51484-1.78094-1.7304-1.757-2.91994.41452-.78164.64644-5.43512-8.25717-6.3664-8.77961-.33564-.21534-2.08229,1.691-2.5368,2.13257-2.04657-3.72331-6.26741-12.15805-7.87812-4.55859-14.55721-20.21521.56608,5.976-17.89906-12.83867-2.08245,5.98267-7.50715-3.76841-10.67528-3.61652-1.65975,4.99987-5.38533-2.07539-9.35763-2.11859-1.4944,2.82938-23.91152-8.831-24.02518-7.13135,9.39641,7.19256,11.93508,12.56444,19.24426,17.80644,3.77308,1.246-1.96467,1.79647.287,3.31152,10.80669,4.207.84725,4.09745,8.96467,8.04338,7.79263,3.38523-3.28361,4.25156,9.19442,7.77456-1.15146,4.17421,3.95467,5.82667,8.61585,7.19216-1.06883,2.37653-2.96631,4.97927,5.89691,6.54178,6.33258,1.27684-4.02873,3.29336,6.67695,5.86052,12.85222,2.82127-1.41346,5.67621,11.45473,7.2801,11.22043,5.45009,34.98759,14.78088,44.60016,19.76944-1.84014.07489-17.8706-4.629-15.96065-2.30364-.04075.76516-.16049.78113-1.176.16-2.39665-.263-8.46806-3.32855-9.27564-.43065-.57592,2.84117-9.29261-4.02911-10.26476-.35489-.8898,2.08305-5.30534-.95861-7.53443.01082-.67413,3.162-5.22115.21182-8.21108.646,2.68374,5.32-7.09367.59238-6.78625,3.53628-8.496,3.96412-24.02053,6.95058-32.60052,13.7845,4.44033.69515,21.39765-1.51953,21.35232.07642,25.78312,8.92794,45.48783.8156,76.03784-9.70149C282.31991,222.65935,263.67013,253,273.67013,246m-2.62059-60.08842a21.348,21.348,0,0,1-1.09534-6.45226C271.1474,180.46616,273.91569,190.38364,271.04954,185.91158Zm-3.16626-14.969c-1.62169,2.45573-.86946-7.40186-.51444-6.79764,1.8485,2.15862,3.79033,10.4749,1.63134,7.91877C268.89393,170.594,268.74453,170.45482,267.88328,170.94253Z"/><path id="path2390-2" data-name="path2390" class="cls-12" d="M224.4423,217.631c-.75506-1.0703-7.89851,20.359-8.71054,19.28681-1.53694-.1386-2.97688,7.283-4.64188,6.47431-5.32293,6.95184-9.40565,10.7736-14.5508,21.33059-1.039-3.77977,1.39295-15.52194,1.04368-19.63744-3.30628-.14838,3.6085-6.03582.86439-6.19719-2.34646-1.1511,5.04106-5.32784,3.25174-6.16349-1.52321-.60914,3.03814-4.21667,4.1344-4.90047.955-.458,1.09094-.61319.68-.78245-2.14706.065,7.32875-7.36636,9.18552-8.92007-9.94268,4.10492-20.86614,9.40785-30.12079,13.26325-3.6322-1.68725-5.91726,3.69081-10.96269,1.77467-4.4737,2.69425-6.255,3.02081-7.57519.55362-1.78621,1.11575-7.22866,4.99946-7.32414,1.59233-.2816-2.54041-7.82452,4.64873-9.73429.43137-1.60826.60037-6.47779,2.90278-6.82452.44035.96229-1.36-4.866,1.44432-6.0227,1.00117-2.99125.00819,1.20756-2.74619-3.86354-1.2054-8.94669.0825-16.27954.03718-26.15423,1.71357,5.26071-4.23314,18.09571-5.7156,19.9676-9.45755,1.77465-1.39216,7.4768-.03453,5.90967-2.7892,1.57893-.96874,6.44042.50305,6.20526-1.22836-.9823-2.40383,5.87877-1.02126,7.749-1.39656-3.53931-4.54113,6.20557-2.15362,8.83584-2.32184-4.45271-5.44383,8.67711-.1121,7.70555-2.54328-1.74683-2.83933,6.82542-1.08455,7.57589-1.03926-1.68036-4.06055,6.06147-1.33085,9.06953-1.1044-3.94883-5.08015,8.28467.40223,7.79608-1.52746-1.70707-2.62007,6.9399-.14406,8.9548-.00116,3.699-2.68542,14.25354.57777,20.85045-1.23333-11.71217-3.86788-26.354.27988-35.96318-3.24091-4.88039.28613-9.72253,2.29859-9.76408-.9341-1.64835-.07888-11.97578,2.6717-8.56412-.72438-1.65634-1.35835-11.77063,2.74479-8.64959-2.04937-1.81147-.514-8.54314,1.89075-7.60651-.97419.82241-1.146.59388-1.33031-1.11884-.889-2.90679.23053-9.21036,2.01063-6.85908-1.97282-3.36466.26992-10.98519,2.69027-6.90893-2.04432-2.41041-.5338-13.23274,1.74219-8.94176-2.87331-13.35067.89238-3.31511-2.72023-10.13461-2.832-6.72007-.22057-1.96328-2.08553-4.47912-2.75047-2.451-.05352-7.18694-.29337-4.00114-2.5285-1.74822-.32462-7.09405-.20122-6.67118-2.47156.50039-.44568.36891-.53352-2.0552-1.37537-2.65319-.92222-4.13963-1.85834-3.24148-2.04237-2.3716-2.60866-13.56279-5.7136-16.57539-7.097,5.95333.57909,23.44173,2.4301,29.76735,5.18661-1.20845-3.38585,2.039-1.42342,3.89481-.67862,3.89993,1.43883,3.56152-2.60037,8.76817,1.61461-.52035-4.78685,6.32861.4038,8.45689,1.39305-.88961-4.9953,4.64762-.35387,6.87521,1.396-.38541-2.96149,1.30089-2.65787,3.21384-1.31671,1.98448,1.33979,2.54,1.38027,2.607.19236,1.12889-2.46974,6.08124,2.30547,8.32981,2.70135-.27409-6.56,6.69,3.758,7.3566.6307-1.21588-3.70112,7.01174,3.9537,7.24936,2.02642-.682-2.67446,6.11124,2.03128,7.94485,2.92623l1.63523,1.18848c-.27013-5.27345,8.54247,2.18206,11.27153,3.30654.26961-1.39054-.13035-3.0815,1.63068-1.68462a272.58939,272.58939,0,0,0,30.24334,13.04751c-3.08422-4.37223-26.37761-13.59862-22.7078-15.55689-2.07079-1.38891-9.6592-2.4257-8.967-4.98216,1.28181-.97461.19453-.80346-1.50984-1.46159-3.16242-1.44428-7.33389-2.07993-5.81352-5.24961-3.01195-1.77152-10.82287-2.61369-6.23314-5.46185-2.97122-1.39889-9.14238-2.22528-6.76157-5.32374-1.68542-1.13138-9.6095-2.95687-6.296-4.57707,3.81731-2.082-12.53561-4.30134-5.07806-7.00846-1.28068-.7027-7.74167-2.27441-5.38036-4.02931.87089-.51453.92915-.647.38337-.87051-5.31987-2.22615-5.47685-2.74068-2.9992-4.34246a18.34792,18.34792,0,0,1-6.03234-3.84662c.38524-.43938,2.84-1.80489,1.56732-2.02351-1.24474-1.22073-7.74093-4.32714-4.92127-5.4268,2.9557-1.22083-5.18614-2.812-2.75489-5.01209.51653-.20248.36277-.464-1.00612-1.70893a190.83662,190.83662,0,0,0-17.90784-24.40866c9.59073,7.25271,17.47055,14.20791,24.83518,17.56767,1.34855-1.71033,4.18567,5.03921,5.16052,3.17273,1.06893-1.93241,4.20064,3.322,5.21926,4.50849.22415,1.63906,1.36009-.78009,1.87761-1.23685a17.79747,17.79747,0,0,1,4.41579,5.76123c.29955.67244.5125.47124,1.44488-1.36947,1.41885-.33533,4.22721,4.37761,5.02207,5.93441,3.31469-6.15934,3.71669,5.04344,6.32256,3.42562,3.1705-3.24424,4.59737,9.9235,6.54337,6.34025.95984-2.54849,3.29929,2.681,3.91,3.988,1.77324,4.463,3.11918-3.63413,6.62216,8.03365,2.83694-4.03116,5.02867,4.86655,6.10736,6.13467,2.803-3.21484,4.07378,5.10159,5.0992,6.138,1.59038-3.53669,4.01768,4.55211,4.74589,5.80749.34516-.09267,1.12292-1.85478,1.73214-.90377,3.15263,1.39583-3.70377-3.477-.37871-3.07369,3.6559-.90316-9.24718-7.519-2.95193-7.74678-1.44989-1.97461-8.22279-6.94807-4.09606-6.99186,1.19871-1.12259-8.48461-7.29594-2.27566-7.26222-1.77115-2.47023-8.91376-7.57256-2.427-7.17005-1.2463-1.96007-7.89246-7.28009-2.62939-7.48471-.92456-.63195-5.571-5.65975-3.25-5.36237,3.8094.13112-3.51534-5.24227-2.54194-5.83491,6.24587.23439-5.64688-6.773-.79486-6.97974,3.593-.00485-4.501-5.14793-.771-5.80113,2.54511.088-4.20228-4.45344-.89336-4.619,2.53433.12608-2.95818-4.15677-1.05259-4.79566,1.018-4.66549-4.04761-14.87633-4.7937-21.48667,3.22277,5.1416,9.72908,16.53144,12.88349,18.80632.70866-.632,1.23042.21353,3.0363,4.91282,2.76794-3.02779,3.84608,3.7974,4.89237,5.84351,2.81943-3.41392,3.83223,2.75694,4.599,5.62938,1.18448,2.92743,4.18851-2.9903,3.91546,5.09874-.48947,6.39465,3.41016-3.34727,3.31636,6.79166-.64355,5.19822,3.144-1.53223,2.69223,5.58995-.6138,4.3969,3.908.13547,2.04784,8.60877,4.745-3.34132,1.30669,5.64116,3.24677,6.153,1.8591-2.44675.39367,9.72359,1.837,8.389,1.915-.68652,1.27059,3.60318,1.30152,4.80782-.603,6.92744,2.42113-.89077,1.98591,8.066-.335,6.3774.67945,1.90075,1.676,4.71978-.43044,4.53981,2.441,27.05888,3.85245,26.79282-.2528-13.43321-1.36838-23.27032-2.54383-34.30607-.16065-.58206-.09242-.63208.72588-.53186,1.71722.313-.842-3.92976-.51155-5.16023-.12465-1.65119-.00421-1.74652,1.67642-1.246.71552-.064-1.37754-6.86437-1.169-7.59132.06168-.2756,1.89067-.18609,2.33944-.19024-.82464-2.8939-2.90191-9.24272,1.69485-6.21956-2.74276-17.42854,2.69216,3.29033,2.61441-15.38,4.02878,1.97425,1.90175-5.637,3.57226-7.13881,3.32638,1.69008,1.67706-3.72765,3.65521-5.72833,2.16183.67984,7.63764-16.35787,8.5416-15.55888-1.147,8.30189.25125,12.27083-.81673,18.551-1.27864,2.50693,1.884-.07442,1.50529,1.81-3.34424,7.50153,1.61478,2.48475-.50575,8.5151-2.23636,5.58629,3.771.50441-.75533,8.49425,2.65917,1.52766.912,4.90331-.75422,7.91281,1.722.66388,3.97384,1.02882.29049,6.2309-2.55173,3.79755,3.66877-.34917-.44157,6.27654-5.06433,7.823,3.53933,2.15325-2.13951,9.37138-2.93324,8.33341-10.24924,24.871-12.603,32.171.96363-.879,6.69-11.2331,6.887-9.111.40171.36489.46994.31327.67172-.50531,1.07544-1.32638,2.60461-5.89425,4.45483-4.83777,1.70535,1.14334,2.67069-6.65768,4.99051-5.29238,1.48566.60532,2.19315-3.1256,3.79823-3.74808,1.9146,1.2559,2.73386-2.49447,4.45532-3.76541,1.29932,4.01507,3.86609-3.23574,5.17793-1.60063,6.25177-2.237,15.55465-8.4677,23.27839-9.3019-1.889,2.562-11.52863,9.895-10.71074,10.67585-8.53152,17.33907-22.49235,23.07186-43.11072,32.99705-3.27527,5.85642,25.76382,27.41484,17.61542,23.84626m-34.0277-41.60528a15.11973,15.11973,0,0,0-2.663-3.79376C209.60652,191.12763,213.15368,197.49922,212.36861,193.82011Zm-5.86344-9.11283c2.03977.42832-3.2498-4.15926-3.1275-3.67823.14485,2.00755,3.31036,7.16137,3.12378,4.799C205.82279,185.03533,205.82865,184.89083,206.50517,184.70728Z"/><path id="path2390-3" data-name="path2390" class="cls-12" d="M345.3622,218.631c.75505-1.0703,7.8985,20.359,8.71054,19.28681,1.53694-.1386,2.97687,7.283,4.64187,6.47431,5.32293,6.95184,9.40565,10.7736,14.55081,21.33059,1.039-3.77977-1.39295-15.52194-1.04369-19.63744,3.30628-.14838-3.60849-6.03582-.86438-6.19719,2.34646-1.1511-5.04106-5.32784-3.25174-6.16349,1.52321-.60914-3.03814-4.21667-4.13441-4.90047-.955-.458-1.09094-.61319-.68-.78245,2.14706.065-7.32875-7.36636-9.18553-8.92007,9.94269,4.10492,20.86615,9.40785,30.12079,13.26325,3.63221-1.68725,5.91727,3.69081,10.9627,1.77467,4.4737,2.69425,6.255,3.02081,7.57518.55362,1.78621,1.11575,7.22867,4.99946,7.32415,1.59233.2816-2.54041,7.82452,4.64873,9.73429.43137,1.60826.60037,6.47778,2.90278,6.82452.44035-.96229-1.36,4.866,1.44432,6.0227,1.00117,2.99125.00819-1.20757-2.74619,3.86353-1.2054,8.9467.0825,16.27954.03718,26.15423,1.71357-5.2607-4.23314-18.0957-5.7156-19.9676-9.45755-1.77464-1.39216-7.4768-.03453-5.90966-2.7892-1.57893-.96874-6.44042.50305-6.20527-1.22836.98231-2.40383-5.87876-1.02126-7.749-1.39656,3.53932-4.54113-6.20556-2.15362-8.83584-2.32184,4.45272-5.44383-8.67711-.1121-7.70555-2.54328,1.74684-2.83933-6.82542-1.08455-7.57589-1.03926,1.68037-4.06055-6.06146-1.33085-9.06953-1.1044,3.94884-5.08015-8.28467.40223-7.79608-1.52746,1.70708-2.62007-6.9399-.14406-8.95479-.00116-3.699-2.68542-14.25355.57777-20.85046-1.23333,11.71217-3.86788,26.354.27988,35.96318-3.24091,4.8804.28613,9.72253,2.29859,9.76409-.9341,1.64835-.07888,11.97578,2.6717,8.56411-.72438,1.65635-1.35835,11.77063,2.74479,8.64959-2.04937,1.81147-.514,8.54314,1.89075,7.60651-.97419-.82241-1.146-.59387-1.33031,1.11885-.889,2.90679.23053,9.21036,2.01063,6.85908-1.97282,3.36466.26992,10.98518,2.69027,6.90893-2.04432,2.4104-.5338,13.23273,1.74219,8.94176-2.87331,13.35067.89238,3.3151-2.72023,10.13461-2.832,6.72006-.22057,1.96328-2.08553,4.47912-2.75047,2.451-.05352,7.18694-.29337,4.00113-2.5285,1.74822-.32462,7.09406-.20122,6.67119-2.47156-.5004-.44568-.36891-.53352,2.05519-1.37537,2.65319-.92222,4.13964-1.85834,3.24149-2.04237,2.37159-2.60866,13.56279-5.7136,16.57539-7.097-5.95333.57909-23.44173,2.4301-29.76735,5.18661,1.20845-3.38585-2.039-1.42342-3.89481-.67862-3.89993,1.43883-3.56153-2.60037-8.76817,1.61461.52034-4.78685-6.32862.4038-8.4569,1.39305.88961-4.9953-4.64762-.35387-6.8752,1.396.3854-2.96149-1.30089-2.65787-3.21384-1.31671-1.98448,1.33979-2.54,1.38027-2.607.19236-1.12888-2.46974-6.08123,2.30547-8.3298,2.70135.27408-6.56-6.69,3.758-7.3566.6307,1.21588-3.70112-7.01174,3.9537-7.24936,2.02642.682-2.67446-6.11125,2.03128-7.94485,2.92623l-1.63524,1.18848c.27014-5.27345-8.54247,2.18206-11.27153,3.30654-.2696-1.39054.13036-3.0815-1.63067-1.68462a272.591,272.591,0,0,1-30.24334,13.04751c3.08422-4.37223,26.3776-13.59862,22.70779-15.55689,2.07079-1.38891,9.65921-2.4257,8.96705-4.98216-1.2818-.97461-.19452-.80346,1.50985-1.46159,3.16242-1.44428,7.33388-2.07993,5.81352-5.24961,3.01195-1.77152,10.82287-2.61369,6.23314-5.46185,2.97121-1.39889,9.14238-2.22528,6.76157-5.32374,1.68541-1.13138,9.60949-2.95687,6.296-4.57707-3.8173-2.082,12.53562-4.30134,5.07807-7.00846,1.28067-.7027,7.74167-2.27441,5.38035-4.02931-.87089-.51453-.92915-.647-.38336-.87051,5.31987-2.22615,5.47684-2.74068,2.9992-4.34246a18.348,18.348,0,0,0,6.03234-3.84662c-.38524-.43938-2.84-1.80489-1.56733-2.02351,1.24474-1.22073,7.74093-4.32714,4.92128-5.4268-2.9557-1.22083,5.18614-2.812,2.75489-5.01209-.51653-.20248-.36277-.464,1.00612-1.70893A190.8347,190.8347,0,0,1,456.776,107.88417c-9.59074,7.25271-17.47055,14.20791-24.83518,17.56767-1.34855-1.71033-4.18567,5.03921-5.16052,3.17273-1.06894-1.93241-4.20065,3.322-5.21926,4.50849-.22416,1.63906-1.3601-.78009-1.87762-1.23685a17.79757,17.79757,0,0,0-4.41578,5.76123c-.29956.67244-.51251.47124-1.44489-1.36947-1.41885-.33533-4.22721,4.37761-5.02206,5.93441-3.31469-6.15934-3.7167,5.04344-6.32256,3.42562-3.1705-3.24424-4.59737,9.9235-6.54338,6.34025-.95983-2.54849-3.29928,2.681-3.91,3.988-1.77324,4.463-3.11917-3.63413-6.62215,8.03365-2.83694-4.03116-5.02868,4.86655-6.10736,6.13467-2.803-3.21484-4.07379,5.10159-5.0992,6.138-1.59039-3.53669-4.01769,4.55211-4.74589,5.80749-.34516-.09267-1.12292-1.85478-1.73214-.90377-3.15264,1.39583,3.70377-3.477.37871-3.07369-3.6559-.90316,9.24717-7.519,2.95192-7.74678,1.44989-1.97461,8.2228-6.94807,4.09607-6.99186-1.19872-1.12259,8.4846-7.29594,2.27566-7.26222,1.77115-2.47023,8.91375-7.57256,2.427-7.17005,1.24629-1.96007,7.89246-7.28009,2.62939-7.48471.92455-.63195,5.571-5.65975,3.24994-5.36237-3.8094.13112,3.51535-5.24227,2.54195-5.83491-6.24587.23439,5.64687-6.773.79486-6.97974-3.593-.00485,4.501-5.14793.771-5.80113-2.54511.088,4.20227-4.45344.89336-4.619-2.53434.12608,2.95818-4.15677,1.05259-4.79566-1.018-4.66549,4.04761-14.87633,4.79369-21.48667-3.22277,5.1416-9.72908,16.53144-12.88348,18.80632-.70867-.632-1.23043.21353-3.0363,4.91282-2.76795-3.02779-3.84608,3.7974-4.89238,5.84351-2.81943-3.41392-3.83223,2.75694-4.599,5.62938-1.18447,2.92743-4.18851-2.9903-3.91546,5.09874.48947,6.39465-3.41015-3.34727-3.31635,6.79166.64354,5.19822-3.144-1.53223-2.69223,5.58995.6138,4.3969-3.908.13547-2.04785,8.60877-4.745-3.34132-1.30668,5.64116-3.24676,6.153-1.85911-2.44675-.39368,9.72359-1.837,8.389-1.915-.68652-1.2706,3.60318-1.30153,4.80782.603,6.92744-2.42113-.89077-1.9859,8.066.335,6.3774-.67946,1.90075-1.676,4.71978.43045,4.53981-2.441,27.05888-3.85244,26.79282.25279-13.43321,1.36837-23.27032,2.54383-34.30607.16065-.58206.09242-.63208-.72589-.53186-1.71721.313.84205-3.92976.51155-5.16023.12466-1.65119.00421-1.74652-1.67641-1.246-.71553-.064,1.37754-6.86437,1.169-7.59132-.06169-.2756-1.89067-.18609-2.33944-.19024.82464-2.8939,2.90191-9.24272-1.69485-6.21956,2.74276-17.42854-2.69216,3.29033-2.61441-15.38-4.02878,1.97425-1.90176-5.637-3.57227-7.13881-3.32637,1.69008-1.67706-3.72765-3.6552-5.72833-2.16183.67984-7.63765-16.35787-8.5416-15.55888,1.14695,8.30189-.25126,12.27083.81672,18.551,1.27864,2.50693-1.884-.07442-1.50529,1.81,3.34425,7.50153-1.61477,2.48475.50575,8.5151,2.23636,5.58629-3.771.50441.75534,8.49425-2.65917,1.52766-.912,4.90331.75421,7.91281-1.722.66388-3.97383,1.02882-.29049,6.2309,2.55174,3.79755-3.66876-.34917.44158,6.27654,5.06433,7.823-3.53933,2.15325,2.13951,9.37138,2.93324,8.33341,10.24923,24.871,12.603,32.171-.96364-.879-6.69-11.2331-6.887-9.111-.4017.36489-.46994.31327-.67171-.50531-1.07544-1.32638-2.60461-5.89425-4.45484-4.83777-1.70534,1.14334-2.67068-6.65768-4.9905-5.29238-1.48567.60532-2.19315-3.1256-3.79824-3.74808-1.9146,1.2559-2.73386-2.49447-4.45532-3.76541-1.29932,4.01507-3.86608-3.23574-5.17792-1.60063-6.25177-2.237-15.55466-8.4677-23.27839-9.3019,1.889,2.562,11.52863,9.895,10.71073,10.67585,8.53152,17.33907,22.49235,23.07186,43.11073,32.99705,3.27527,5.85642-25.76382,27.41484-17.61542,23.84626m34.0277-41.60528a15.11969,15.11969,0,0,1,2.663-3.79376C360.198,192.12763,356.65081,198.49922,357.43589,194.82011Zm5.86344-9.11283c-2.03977.42832,3.2498-4.15926,3.1275-3.67823-.14486,2.00755-3.31037,7.16137-3.12379,4.799C363.98171,186.03533,363.97585,185.89083,363.29933,185.70728Z"/><path class="cls-10" d="M103.99239,199H56.35567V179.48828h7.91016V137.00781H56.35567V117.49609h49.98047q17.22657,0,25.19531,3.33985,7.968,3.39917,11.71875,9.25781a23.33983,23.33983,0,0,1,3.75,12.832q0,8.61328-4.45312,14.29688a25.03612,25.03612,0,0,1-11.77734,8.32031q-7.207,2.52025-22.26563,2.51953H95.78927v11.42578h8.20312Zm-8.20312-63.63281v15.293h6.15234q6.44459,0,9.375-1.52344,2.8125-1.52271,2.8125-5.918a7.77482,7.77482,0,0,0-1.52344-4.86328,6.45445,6.45445,0,0,0-3.92578-2.46094,41.267,41.267,0,0,0-7.96875-.52734Z"/><path class="cls-10" d="M194.57833,199H153.85567V181.12891h6.03516V135.36719h-6.03516v-17.8711h35.50782v63.63282h5.21484Z"/><path class="cls-10" d="M226.39474,158.043l-23.08594-2.34375a22.06441,22.06441,0,0,1,12.30469-11.77734q8.37816-3.39771,24.72656-3.39844,6.03443,0,10.81054.38086a72.08278,72.08278,0,0,1,8.5254,1.14258q7.79223,1.46558,11.543,4.51171a17.398,17.398,0,0,1,5.21485,6.67969q1.52269,3.69141,1.52344,11.48438v16.40625h7.26562V199H248.48458v-3.86719q-7.61791,4.92188-20.39063,4.92188-12.01245,0-18.10546-5.27344-6.15235-5.27343-6.15235-12.48047,0-7.968,7.5586-13.0664,7.49926-5.09766,19.57031-5.09766,11.01489,0,17.51953,2.87109v-1.69922a24.52162,24.52162,0,0,0-.76172-7.38281,7.531,7.531,0,0,0-3.63281-3.80859,14.53551,14.53551,0,0,0-6.79688-1.52344A12.49374,12.49374,0,0,0,226.39474,158.043Zm22.08984,26.42578V174.09766a17.327,17.327,0,0,0-8.32031-2.10938,8.71472,8.71472,0,0,0-6.15235,2.10938,7.85125,7.85125,0,0,0,.0586,11.13281,7.86641,7.86641,0,0,0,5.50781,2.22656A12.99579,12.99579,0,0,0,248.48458,184.46875Z"/><path class="cls-10" d="M337.66427,199h-45V181.12891h7.32422V160.03516h-7.32422v-17.8711h36.79687v7.207q10.83984-8.26172,23.26172-8.26171,10.89844,0,16.40625,6.03515,5.44921,6.0359,5.44922,19.39453v14.58985h6.73828V199H345.10567V173.74609q0-8.26172-1.40625-10.89843-1.52343-2.5774-5.80078-2.57813a15.50116,15.50116,0,0,0-8.4375,2.98828v17.8711h8.20313Z"/><path class="cls-10" d="M435.28145,178.25781v17.46094a28.40383,28.40383,0,0,1-8.32031,3.39844,42.95821,42.95821,0,0,1-11.01562,1.52344,27.20566,27.20566,0,0,1-11.36719-2.168,16.84881,16.84881,0,0,1-7.32422-5.97657,21.3837,21.3837,0,0,1-1.99219-3.95507,19.21211,19.21211,0,0,1-.9375-4.01368q-.41014-3.86718-.41015-14.9414v-9.55078h-7.26563v-17.8711h7.26563v-8.73047l29.47265-14.0039v22.73437h11.89453v17.8711H423.38692v11.01562q0,5.39136.9961,7.207.9375,1.81715,3.98437,1.81641A17.47341,17.47341,0,0,0,435.28145,178.25781Z"/><path class="cls-10" d="M465.04708,199.70313H446.82442V181.65625H463.8752q6.561,6.91479,14.35547,6.91406,7.85157,0,7.85157-3.22265a2.74094,2.74094,0,0,0-1.69922-2.51953q-1.75782-.93678-9.31641-2.75391-6.09522-1.63989-13.47656-3.80859a31.08587,31.08587,0,0,1-10.07813-4.57032,15.71155,15.71155,0,0,1-5.09765-5.39062,14.68486,14.68486,0,0,1-1.40625-6.91406q0-9.43287,6.67968-13.88672,6.62111-4.39453,16.81641-4.39453,10.54688,0,17.69531,3.98437v-2.92969H504.1877V158.6875H487.54708a20.67523,20.67523,0,0,0-14.76563-5.918q-6.73827,0-6.73828,3.57422,0,1.7,1.99219,2.22656,1.69921.52735,11.25,2.51953a122.45337,122.45337,0,0,1,16.93359,4.57032,20.93809,20.93809,0,0,1,9.082,6.03515,14.29784,14.29784,0,0,1,2.98828,9.19922q0,9.84375-7.32422,14.53125-7.26562,4.62965-17.92969,4.62891-10.60547,0-17.98828-3.86719Z"/><path class="cls-11" d="M111.99239,199H64.35567V179.48828h7.91016V137.00781H64.35567V117.49609h49.98047q17.22657,0,25.19531,3.33985,7.968,3.39917,11.71875,9.25781a23.33983,23.33983,0,0,1,3.75,12.832q0,8.61328-4.45312,14.29688a25.03612,25.03612,0,0,1-11.77734,8.32031q-7.207,2.52025-22.26563,2.51953H103.78927v11.42578h8.20312Zm-8.20312-63.63281v15.293h6.15234q6.44459,0,9.375-1.52344,2.8125-1.52271,2.8125-5.918a7.77482,7.77482,0,0,0-1.52344-4.86328,6.45445,6.45445,0,0,0-3.92578-2.46094,41.267,41.267,0,0,0-7.96875-.52734Z"/><path class="cls-11" d="M202.57833,199H161.85567V181.12891h6.03516V135.36719h-6.03516v-17.8711h35.50782v63.63282h5.21484Z"/><path class="cls-11" d="M234.39474,158.043l-23.08594-2.34375a22.06441,22.06441,0,0,1,12.30469-11.77734q8.37816-3.39771,24.72656-3.39844,6.03443,0,10.81054.38086a72.08278,72.08278,0,0,1,8.5254,1.14258q7.79223,1.46558,11.543,4.51171a17.398,17.398,0,0,1,5.21485,6.67969q1.52269,3.69141,1.52344,11.48438v16.40625h7.26562V199H256.48458v-3.86719q-7.61791,4.92188-20.39063,4.92188-12.01245,0-18.10546-5.27344-6.15235-5.27343-6.15235-12.48047,0-7.968,7.5586-13.0664,7.49926-5.09766,19.57031-5.09766,11.01489,0,17.51953,2.87109v-1.69922a24.52162,24.52162,0,0,0-.76172-7.38281,7.531,7.531,0,0,0-3.63281-3.80859,14.53551,14.53551,0,0,0-6.79688-1.52344A12.49374,12.49374,0,0,0,234.39474,158.043Zm22.08984,26.42578V174.09766a17.327,17.327,0,0,0-8.32031-2.10938,8.71472,8.71472,0,0,0-6.15235,2.10938,7.85125,7.85125,0,0,0,.0586,11.13281,7.86641,7.86641,0,0,0,5.50781,2.22656A12.99579,12.99579,0,0,0,256.48458,184.46875Z"/><path class="cls-11" d="M345.66427,199h-45V181.12891h7.32422V160.03516h-7.32422v-17.8711h36.79687v7.207q10.83984-8.26172,23.26172-8.26171,10.89844,0,16.40625,6.03515,5.44921,6.0359,5.44922,19.39453v14.58985h6.73828V199H353.10567V173.74609q0-8.26172-1.40625-10.89843-1.52343-2.5774-5.80078-2.57813a15.50116,15.50116,0,0,0-8.4375,2.98828v17.8711h8.20313Z"/><path class="cls-11" d="M443.28145,178.25781v17.46094a28.40383,28.40383,0,0,1-8.32031,3.39844,42.95821,42.95821,0,0,1-11.01562,1.52344,27.20566,27.20566,0,0,1-11.36719-2.168,16.84881,16.84881,0,0,1-7.32422-5.97657,21.3837,21.3837,0,0,1-1.99219-3.95507,19.21211,19.21211,0,0,1-.9375-4.01368q-.41014-3.86718-.41015-14.9414v-9.55078h-7.26563v-17.8711h7.26563v-8.73047l29.47265-14.0039v22.73437h11.89453v17.8711H431.38692v11.01562q0,5.39136.9961,7.207.9375,1.81715,3.98437,1.81641A17.47341,17.47341,0,0,0,443.28145,178.25781Z"/><path class="cls-11" d="M473.04708,199.70313H454.82442V181.65625H471.8752q6.561,6.91479,14.35547,6.91406,7.85157,0,7.85157-3.22265a2.74094,2.74094,0,0,0-1.69922-2.51953q-1.75782-.93678-9.31641-2.75391-6.09522-1.63989-13.47656-3.80859a31.08587,31.08587,0,0,1-10.07813-4.57032,15.71155,15.71155,0,0,1-5.09765-5.39062,14.68486,14.68486,0,0,1-1.40625-6.91406q0-9.43287,6.67968-13.88672,6.62111-4.39453,16.81641-4.39453,10.54688,0,17.69531,3.98437v-2.92969H512.1877V158.6875H495.54708a20.67523,20.67523,0,0,0-14.76563-5.918q-6.73827,0-6.73828,3.57422,0,1.7,1.99219,2.22656,1.69921.52735,11.25,2.51953a122.45337,122.45337,0,0,1,16.93359,4.57032,20.93809,20.93809,0,0,1,9.082,6.03515,14.29784,14.29784,0,0,1,2.98828,9.19922q0,9.84375-7.32422,14.53125-7.26562,4.62965-17.92969,4.62891-10.60547,0-17.98828-3.86719Z"/></g></g></svg>