<svg xmlns="http://www.w3.org/2000/svg" width="265.318" height="133.313" viewBox="0 0 265.318 133.313">
  <g id="SpiderSpriteSheet" transform="translate(-1459 -672.687)">
    <g id="Spider" transform="translate(142 41.989)">
      <path id="Path_97" data-name="Path 97" d="M33.673,51.27c-.652-.217-18.486,4.352-22.811,0S0,0,0,0" transform="matrix(0.995, -0.105, 0.105, 0.995, 1459.158, 646.186)" fill="none" stroke="#000" stroke-width="9"/>
      <path id="Path_103" data-name="Path 103" d="M0,51.27c.652-.217,18.486,4.352,22.811,0S33.673,0,33.673,0" transform="matrix(0.985, 0.174, -0.174, 0.985, 1540.258, 641.708)" fill="none" stroke="#000" stroke-width="9"/>
      <path id="Path_98" data-name="Path 98" d="M19.335,55.832S5.845,58.881,3.693,53.66,0,0,0,0" transform="matrix(0.995, -0.105, 0.105, 0.995, 1472.282, 633.885)" fill="none" stroke="#000" stroke-width="9"/>
      <path id="Path_104" data-name="Path 104" d="M0,55.832s13.49,3.049,15.642-2.172S19.335,0,19.335,0" transform="matrix(0.985, 0.174, -0.174, 0.985, 1542.144, 631.011)" fill="none" stroke="#000" stroke-width="9"/>
      <path id="Path_99" data-name="Path 99" d="M33.625,0,4.3,6.3S-.938,17.115.148,28.249,8.641,50.836,8.641,50.836" transform="matrix(0.966, 0.259, -0.259, 0.966, 1468.508, 699.662)" fill="none" stroke="#000" stroke-width="9"/>
      <path id="Path_101" data-name="Path 101" d="M0,0,29.328,6.3s5.234,10.815,4.148,21.949-8.493,22.587-8.493,22.587" transform="translate(1528.921 709.944) rotate(-19)" fill="none" stroke="#000" stroke-width="9"/>
      <path id="Path_100" data-name="Path 100" d="M20.7,0S3.073,4.942.386,14.99s9.559,25.2,9.559,25.2" transform="matrix(0.966, 0.259, -0.259, 0.966, 1481.428, 708.521)" fill="none" stroke="#000" stroke-width="9"/>
      <path id="Path_102" data-name="Path 102" d="M0,0S17.623,4.942,20.311,14.99a15.439,15.439,0,0,1-.171,7.438c-1.937,8.544-9.388,17.763-9.388,17.763" transform="translate(1528.874 715.474) rotate(-19)" fill="none" stroke="#000" stroke-width="9"/>
      <path id="Path_96" data-name="Path 96" d="M-7.3-13.754c10.375-17.161,31.124-17.161,41.5,0S38.38,35.07,28.005,52.231s-16.347,18.5-26.721,1.341S-17.676,3.407-7.3-13.754Z" transform="translate(1501.355 667.179)" fill="#363636"/>
      <circle id="Ellipse_3" data-name="Ellipse 3" cx="19" cy="19" r="19" transform="translate(1497 715.011)"/>
      <path id="Path_105" data-name="Path 105" d="M783.691-1666.971s-3.53,2.716-2.607,6.735,6.3,5.866,6.3,5.866" transform="translate(722.1 2413.596)" fill="none" stroke="#000" stroke-width="7"/>
      <path id="Path_107" data-name="Path 107" d="M883.6-1856.838s11.614,5.891,13.369,22.059-7.854,40.943-7.854,40.943" transform="translate(636.919 2505.702)" fill="none" stroke="#000" stroke-width="7"/>
      <path id="Path_106" data-name="Path 106" d="M784.623-1666.971s3.53,2.716,2.607,6.735-6.3,5.866-6.3,5.866" transform="translate(740.892 2413.596)" fill="none" stroke="#000" stroke-width="7"/>
    </g>
    <g id="Spider-2" data-name="Spider" transform="translate(10 41.146)">
      <path id="Path_97-2" data-name="Path 97" d="M662.949-1952.536c-.652-.217-18.486,4.352-22.811,0s-10.862-51.27-10.862-51.27" transform="translate(832 2651.116)" fill="none" stroke="#000" stroke-width="9"/>
      <path id="Path_103-2" data-name="Path 103" d="M629.276-1952.536c.652-.217,18.486,4.352,22.811,0s10.862-51.27,10.862-51.27" transform="translate(907.054 2651.116)" fill="none" stroke="#000" stroke-width="9"/>
      <path id="Path_98-2" data-name="Path 98" d="M685.236-1975.72s-13.49,3.049-15.642-2.172-3.693-53.66-3.693-53.66" transform="translate(809.714 2668)" fill="none" stroke="#000" stroke-width="9"/>
      <path id="Path_104-2" data-name="Path 104" d="M665.9-1975.72s13.49,3.049,15.642-2.172,3.693-53.66,3.693-53.66" transform="translate(870.429 2668)" fill="none" stroke="#000" stroke-width="9"/>
      <path id="Path_99-2" data-name="Path 99" d="M663.025-1858.418l-29.328,6.3s-5.234,10.815-4.148,21.949,8.493,22.587,8.493,22.587" transform="translate(831.924 2562.647)" fill="none" stroke="#000" stroke-width="9"/>
      <path id="Path_101-2" data-name="Path 101" d="M629.4-1858.418l29.328,6.3s5.234,10.815,4.148,21.949-8.493,22.587-8.493,22.587" transform="translate(906.93 2562.647)" fill="none" stroke="#000" stroke-width="9"/>
      <path id="Path_100-2" data-name="Path 100" d="M687.832-1845.1s-17.623,4.942-20.311,14.99,9.559,25.2,9.559,25.2" transform="translate(808.962 2554.543)" fill="none" stroke="#000" stroke-width="9"/>
      <path id="Path_102-2" data-name="Path 102" d="M667.135-1845.1s17.623,4.942,20.311,14.99-9.559,25.2-9.559,25.2" transform="translate(867.35 2554.543)" fill="none" stroke="#000" stroke-width="9"/>
      <path id="Path_96-2" data-name="Path 96" d="M-7.3-13.754c10.375-17.161,31.124-17.161,41.5,0S38.38,35.07,28.005,52.231s-16.347,18.5-26.721,1.341S-17.676,3.407-7.3-13.754Z" transform="translate(1501.355 667.179)" fill="#363636"/>
      <circle id="Ellipse_3-2" data-name="Ellipse 3" cx="19" cy="19" r="19" transform="translate(1497 715.854)"/>
      <path id="Path_105-2" data-name="Path 105" d="M783.691-1666.971s-3.53,2.716-2.607,6.735,6.3,5.866,6.3,5.866" transform="translate(722.1 2414.439)" fill="none" stroke="#000" stroke-width="7"/>
      <path id="Path_107-2" data-name="Path 107" d="M883.6-1856.838s11.614,5.891,13.369,22.059-7.854,40.943-7.854,40.943" transform="translate(636.919 2505.702)" fill="none" stroke="#000" stroke-width="7"/>
      <path id="Path_106-2" data-name="Path 106" d="M784.623-1666.971s3.53,2.716,2.607,6.735-6.3,5.866-6.3,5.866" transform="translate(740.892 2414.439)" fill="none" stroke="#000" stroke-width="7"/>
    </g>
    <rect id="Rectangle_21" data-name="Rectangle 21" width="133" height="133" transform="translate(1459 673)" fill="none"/>
    <rect id="Rectangle_22" data-name="Rectangle 22" width="133" height="133" transform="translate(1591 673)" fill="none"/>
  </g>
</svg>
