<svg xmlns="http://www.w3.org/2000/svg" width="660.5" height="306" viewBox="0 0 660.5 306"><g transform="translate(-186 -150)"><g transform="translate(288 150)" fill="#fff" stroke="#f5f5f5" stroke-width="1"><rect width="80" height="80" rx="9" stroke="none"/><rect x="0.5" y="0.5" width="79" height="79" rx="8.5" fill="none"/></g><g transform="translate(288 249)" fill="#fff" stroke="#f5f5f5" stroke-width="1"><rect width="80" height="80" rx="9" stroke="none"/><rect x="0.5" y="0.5" width="79" height="79" rx="8.5" fill="none"/></g><g transform="translate(390 249)" fill="#fff" stroke="#f5f5f5" stroke-width="1"><rect width="80" height="80" rx="9" stroke="none"/><rect x="0.5" y="0.5" width="79" height="79" rx="8.5" fill="none"/></g><g transform="translate(186 376)" fill="#fff" stroke="#f5f5f5" stroke-width="1"><rect width="376" height="80" rx="9" stroke="none"/><rect x="0.5" y="0.5" width="375" height="79" rx="8.5" fill="none"/></g><g transform="translate(186 249)" fill="#fff" stroke="#f5f5f5" stroke-width="1"><rect width="80" height="80" rx="9" stroke="none"/><rect x="0.5" y="0.5" width="79" height="79" rx="8.5" fill="none"/></g><text transform="translate(315 206)" font-size="38" font-family="Anton-Regular, Anton"><tspan x="0" y="0">W</tspan></text><text transform="translate(319 305)" font-size="38" font-family="Anton-Regular, Anton"><tspan x="0" y="0">S</tspan></text><text transform="translate(421 305)" font-size="38" font-family="Anton-Regular, Anton"><tspan x="0" y="0">D</tspan></text><text transform="translate(303 432)" font-size="38" font-family="Anton-Regular, Anton"><tspan x="0" y="0">Spacebar</tspan></text><text transform="translate(217 305)" font-size="38" font-family="Anton-Regular, Anton"><tspan x="0" y="0">A</tspan></text><rect width="199" height="306" rx="26" transform="translate(647 150)" fill="#fff"/><path d="M25,0h75a0,0,0,0,1,0,0V127a0,0,0,0,1,0,0H0a0,0,0,0,1,0,0V25A25,25,0,0,1,25,0Z" transform="translate(647 150)" fill="#787878"/><line y2="127" transform="translate(746.5 150.5)" fill="none" stroke="#000" stroke-width="1"/><path d="M0,0H199" transform="translate(647.5 277.5)" fill="none" stroke="#000" stroke-width="1"/></g></svg>