<svg xmlns="http://www.w3.org/2000/svg" width="260" height="440" viewBox="0 0 260 440"><g transform="translate(83.368 -13.711)"><g transform="matrix(-0.966, 0.259, -0.259, -0.966, 54.587, 372.178)"><path d="M22.232,1.384c.466,2.23.7,5.267.429,5.26a2.635,2.635,0,0,1-.632-.306A22.108,22.108,0,0,0,19.5,5.072a.235.235,0,0,0-.178.115c-.059.1-.2.057-.875-.27-.7-.339-.829-.376-1-.3s-.281.05-.84-.205c-.711-.325-.8-.343-1.028-.214-.129.072-.228.049-.54-.121-.62-.339-.758-.36-.817-.123-.028.112-.075.19-.106.175a3.71,3.71,0,0,0-1.357-.45,8.041,8.041,0,0,1-2.283-.658,5.507,5.507,0,0,0-.935-.3c-.1.091.137.308,1.015.933.523.372,1.025.739,1.116.816a4.515,4.515,0,0,0,.382.28.489.489,0,0,1,.224.317c.006.136.124.233.514.418.32.152.469.262.4.3-.193.106,0,.295.491.472a3.288,3.288,0,0,0,.656.181c.193,0,.2.036.088.24-.073.129-.038.159.287.251a4.525,4.525,0,0,0,.861.123c.457.018.489.031.45.185s0,.171.591.234a3.55,3.55,0,0,0,.918,0c.229-.057.277-.05.244.034-.066.166.387.219,1.754.205l1.249-.012-.853.257c-.808.243-2.643.72-3.442.894-.2.044-.351.105-.333.136.067.112-.242.285-.535.3-.165.009-.634.062-1.043.118-.623.086-.751.129-.8.271a.749.749,0,0,0-.043.255,1.731,1.731,0,0,1-.73.21c-.791.132-1.1.3-1.005.561.044.118,0,.157-.227.192-.785.124-1.165.254-1.3.446s-.132.209.013.354.134.154.021.151a7.2,7.2,0,0,0-.747.109c-.461.084-.647.158-.744.3-.121.172-.116.193.079.343.114.088.179.165.144.171l-.128.02a5.575,5.575,0,0,0-1.565.609c-.193.188-.194.2-.032.307s.164.114,0,.161a4.408,4.408,0,0,0-1.073.451c-.161.132-.2.412-.056.416.23.006.038.138-.421.29a1.9,1.9,0,0,0-.685.374l-.175.2L5.3,15.7c.175.109.158.127-.389.409-.621.321-.719.411-.649.6.03.081-.035.158-.184.216-.361.143-.88.541-.851.654A5.831,5.831,0,0,1,1.275,18.94c-.665.346-.837.467-.694.49a2.144,2.144,0,0,0,.636-.092c.523-.143,2.257-.731,2.467-.837a.392.392,0,0,1,.27-.027,1.688,1.688,0,0,0,.665-.2c.3-.136.569-.258.6-.272s.065.031.067.1.025.125.051.126a3.309,3.309,0,0,0,.913-.469c.314-.222.323-.223.374-.058.029.093.083.169.121.17a4.37,4.37,0,0,0,1.034-.778c.022-.056.082,0,.14.125l.1.224.275-.173a6.3,6.3,0,0,0,.67-.531l.395-.358.1.27a.655.655,0,0,0,.15.271,7.8,7.8,0,0,0,1.258-1.077l.263-.3.1.239c.053.131.133.24.178.241A5.5,5.5,0,0,0,12.6,14.846c.063-.161.069-.159.181.053.064.12.163.22.221.222a4.458,4.458,0,0,0,1.131-1.094c0-.052.061,0,.135.124s.163.22.2.221a6.145,6.145,0,0,0,1.092-1.153l.168-.259.094.213c.052.117.129.214.173.216a6.419,6.419,0,0,0,1.1-1.335c0-.05.05-.012.11.083a.718.718,0,0,0,.167.2,7.908,7.908,0,0,0,1.213-1.432c.124-.226.125-.226.23-.053s.109.171.405-.113c.165-.158.451-.468.636-.689a11.78,11.78,0,0,1,1.868-1.626l.295-.187-.186.242a1.164,1.164,0,0,0-.184.293,3.209,3.209,0,0,1-.324.5,11.929,11.929,0,0,1-1.983,1.895,3.1,3.1,0,0,0-.7.739c-.095.229-.245.357-1.16.99-.248.171-.526.515-.523.644,0,.017.069.034.152.038.121.006.109.033-.058.136a6.756,6.756,0,0,0-1.483,1.113c-.093.169-.088.206.039.273.08.043.128.091.1.108s-.308.2-.634.4c-.753.465-1.071.8-.77.8a.389.389,0,0,1,.213.095c.075.069-.021.162-.381.369-.46.265-1.028.771-1.024.914,0,.037.1.092.218.122s.217.083.218.118a2.181,2.181,0,0,1-.514.4,2.437,2.437,0,0,0-.629.542c-.109.2-.1.209.145.265.331.074.328.136-.014.3a3.8,3.8,0,0,0-1.158.945c0,.053.1.146.228.207l.225.112L11.482,21a3.7,3.7,0,0,0-1.013.816c0,.036.15.11.332.164l.33.1-.739.663a3.522,3.522,0,0,0-.736.79c0,.083.109.147.306.186l.3.059-.531.474c-.662.591-.728.732-.377.8a.7.7,0,0,1,.259.082,5.6,5.6,0,0,1-.408.5c-.421.481-.563.764-.388.771a.6.6,0,0,1,.228.08c.109.065.1.1-.042.214a1.991,1.991,0,0,0-.616.821c0,.088.076.132.226.136l.223.006-.22.241a2.257,2.257,0,0,0-.537.955c0,.067.077.123.17.125.156,0,.152.036-.072.507-.245.515-.307.872-.136.779q.094-.051.043.107c-.028.087-.118.4-.2.692a12.782,12.782,0,0,1-.642,1.558c-.272.563-.493,1.049-.492,1.08,0,.157.424-.339,1.141-1.348a14.492,14.492,0,0,1,.988-1.287,2.409,2.409,0,0,0,.405-.6c.12-.241.256-.416.3-.389a.229.229,0,0,0,.214-.048A2.782,2.782,0,0,0,10.36,29l.055-.232.158.189.158.189.13-.172a2.8,2.8,0,0,0,.275-.631c.145-.457.237-.537.424-.366a.176.176,0,0,0,.18.045,1.944,1.944,0,0,0,.418-.888l.042-.259.209.179c.2.174.212.175.3.032a5,5,0,0,0,.5-1.29l.049-.311.2.168a.722.722,0,0,0,.29.171,2.968,2.968,0,0,0,.331-1.3l-.006-.214.227.2c.22.19.231.192.342.051a1.212,1.212,0,0,0,.16-.474c.067-.492.146-.575.368-.39.1.083.2.136.221.116a6.162,6.162,0,0,0,.478-1.371c.028-.183.075-.332.1-.331a.948.948,0,0,1,.255.177c.112.1.227.154.256.128a3.835,3.835,0,0,0,.255-1.248c-.007-.313.074-.367.255-.17a.376.376,0,0,0,.179.122c.093,0,.228-.416.34-1.055.086-.489.1-.517.237-.395a.643.643,0,0,0,.185.133,6.483,6.483,0,0,0,.519-1.7l.041-.419.242.177c.18.132.25.15.275.073.018-.057.146-.445.284-.863a8.492,8.492,0,0,0,.3-1.119l.048-.359.237.173.237.173.077-.3c.187-.721.309-1.257.354-1.565.048-.33.138-.413.258-.239.08.115.222-.279.508-1.411a14.7,14.7,0,0,1,1.061-2.762l.16-.31-.023.628a5.443,5.443,0,0,1-.223,1.251c-.11.343-.252.887-.316,1.21-.1.51-.1.6.01.675.079.055.1.115.047.16a11.775,11.775,0,0,0-.64,1.733c0,.037.094.053.208.036l.206-.031-.311.744a7.509,7.509,0,0,0-.36,1.02c-.046.259-.035.277.175.282a.55.55,0,0,1,.226.03c0,.013-.089.2-.2.417a5.406,5.406,0,0,0-.439,1.42c0,.048.123.09.27.094.222.006.257.03.208.143A15.06,15.06,0,0,0,20.8,20.67c-.046.214-.034.224.263.231l.31.008-.116.213a6.548,6.548,0,0,0-.446,1.4c0,.087.072.111.264.09.214-.023.251-.006.2.094a11.427,11.427,0,0,0-.468,1.4l-.053.262.365-.047c.334-.043.359-.035.3.1a4.981,4.981,0,0,0-.4,1.392l-.045.444.306-.045.306-.045-.194.455a2.293,2.293,0,0,0-.189.72c.005.255.016.264.271.223.226-.036.258-.022.214.089-.363.914-.354,1.165.041,1.139l.27-.018-.121.336a2.612,2.612,0,0,0-.122.729l0,.393.331-.01c.285-.008.323.009.271.125a4.5,4.5,0,0,0-.081.871l-.021.737.31-.045c.306-.045.309-.043.23.157a1.553,1.553,0,0,0,.02.973.2.2,0,0,0,.216.067c.116-.038.138.026.149.418.015.529.077.718.219.671.071-.023.094.1.082.408-.017.417-.008.438.161.393s.18-.018.189.319a1.749,1.749,0,0,0,.137.618,5.294,5.294,0,0,1,.249,1.079c.141.958.394,2.378.483,2.722l.062.237.058-.195a7.588,7.588,0,0,0,.039-1.173,11.367,11.367,0,0,1,.208-2.837.85.85,0,0,0,.041-.489c-.038-.4-.028-.438.119-.392s.158.006.113-.583-.038-.632.124-.614.172-.027.16-.452a2.523,2.523,0,0,0-.089-.653c-.07-.168-.058-.177.16-.122l.237.06-.064-.668A3.081,3.081,0,0,0,25.7,31c-.1-.171-.1-.175.2-.117l.309.06-.008-.306a4.075,4.075,0,0,0-.336-1.241c-.074-.151,0-.147.466.025.1.036.111-.048.061-.461a4.02,4.02,0,0,0-.2-.852l-.142-.347.3.052c.207.036.313.02.342-.052a5.093,5.093,0,0,0-.476-1.341c-.066-.132-.045-.142.2-.087.264.059.273.053.265-.208a3.993,3.993,0,0,0-.561-1.471c-.22-.331-.187-.379.176-.256l.276.094-.052-.393a3.088,3.088,0,0,0-.332-.89,2.593,2.593,0,0,1-.254-.52.664.664,0,0,1,.258.063c.5.183.368-.362-.411-1.763-.021-.037.084-.041.232-.008.26.058.27.051.261-.2a3.694,3.694,0,0,0-.326-.937c-.174-.372-.318-.685-.319-.7a.624.624,0,0,1,.22-.014c.205.005.217-.014.157-.251a5.239,5.239,0,0,0-.374-.828c-.17-.314-.309-.588-.31-.609s.077-.018.172.007c.273.072.212-.316-.156-.991-.174-.32-.318-.6-.318-.616s.1-.01.216.02c.18.045.216.027.212-.111,0-.091.034-.165.082-.164s.091.179.1.4c.008.29.043.394.135.4a.223.223,0,0,0,.175-.074c.126-.191.29-.064.288.223a9.364,9.364,0,0,0,.206,1.615c.022.032.128.008.235-.054l.194-.113.073.771c.082.867.145,1.073.315,1.013l.226-.079c.081-.028.143.18.242.809a6.01,6.01,0,0,0,.178.889c.025.023.152-.013.283-.079l.238-.12.075.64a6.737,6.737,0,0,0,.172.943l.1.3.28-.191.28-.191.067.428a4.831,4.831,0,0,0,.343,1.3c.067.1.112.095.3-.014l.219-.128.009.3a2.752,2.752,0,0,0,.108.613c.175.559.168.551.337.412.235-.193.353-.146.361.142a3.2,3.2,0,0,0,.285,1.159.654.654,0,0,0,.222-.11c.243-.165.263-.147.29.26a2.63,2.63,0,0,0,.377,1.207.63.63,0,0,0,.231-.109c.236-.16.292-.141.3.1a1.852,1.852,0,0,0,.327.925c.123.145.139.147.288.025s.16-.116.219.214a3.048,3.048,0,0,0,.158.564c.094.215.1.218.308.1s.211-.117.216.069a1.916,1.916,0,0,0,.191.569c.141.287.209.356.283.289.144-.132.235-.106.24.069a1.328,1.328,0,0,0,.157.437c.115.211.192.272.308.241.1-.026.156,0,.158.068a3.078,3.078,0,0,0,.391.663,17.788,17.788,0,0,1,1.138,1.744,3.3,3.3,0,0,0,.695.942,4.333,4.333,0,0,0-.439-1.27,11.222,11.222,0,0,1-.765-2.532c.137-.039.089-.347-.105-.684-.216-.374-.214-.359-.053-.355.222.006.152-.2-.406-1.219-.021-.039.063-.045.189-.013.207.052.227.037.222-.171a2.871,2.871,0,0,0-.352-.835l-.346-.606.243.006c.2.005.242-.028.238-.182a4.212,4.212,0,0,0-.774-1.375c-.227-.269-.177-.346.217-.336.358.009.153-.4-.521-1.034l-.471-.444.3-.072.3-.072-.186-.278a5.381,5.381,0,0,0-.634-.7l-.447-.419.23-.047c.325-.067.229-.284-.362-.816a5.053,5.053,0,0,1-.479-.464c0-.018.079-.031.177-.028.338.008.036-.5-.555-.932l-.359-.263.221-.045c.122-.025.221-.079.219-.121a1.074,1.074,0,0,0-.274-.465c-.035-.023-.252-.2-.482-.4-.354-.3-.4-.366-.279-.424.206-.1.047-.319-.731-1-.6-.521-.645-.582-.479-.626s.175-.063.051-.274a4.125,4.125,0,0,0-.707-.69c-.586-.474-.684-.606-.444-.6.265.007.019-.348-.685-.99-.384-.35-.7-.65-.7-.666s.057-.028.128-.026c.147,0,.17-.119.036-.2a.087.087,0,0,1-.046-.116,2.687,2.687,0,0,0-.655-.608,3.752,3.752,0,0,1-.787-.754,6.44,6.44,0,0,0-.759-.934c-.883-.954-2.438-3-1.975-2.6a17.529,17.529,0,0,1,2.172,2.18c.614.8.687.871.8.723.063-.084.1-.09.132-.019a8.128,8.128,0,0,0,.973,1.42c.37.436.46.505.537.408.126-.158.174-.145.238.064a2.858,2.858,0,0,0,.416.61c.2.238.4.49.449.561.079.117.1.116.207-.013s.134-.117.344.244a4.259,4.259,0,0,0,.495.668c.275.287.31.285.48-.027.025-.046.064-.037.1.024.047.089.98,1.284,1.075,1.376.02.02.117-.038.216-.127l.179-.163.188.308a3.5,3.5,0,0,0,.913.966c.04,0,.117-.109.17-.245l.1-.247.247.328a4.387,4.387,0,0,0,.994.988c.042,0,.117-.121.168-.271.1-.3.21-.347.294-.122a7.27,7.27,0,0,0,1.437,1.226c.043,0,.125-.094.181-.211.1-.213.1-.213.25-.048a6.253,6.253,0,0,0,1.39.933c.062,0,.11-.062.108-.141-.007-.237.085-.248.314-.039a3.873,3.873,0,0,0,1.162.613c.049,0,.087-.056.085-.128,0-.117.012-.118.15-.006a1.751,1.751,0,0,0,.806.362,11.908,11.908,0,0,1,1.435.54c1.558.661,1.611.681,1.608.6a3.077,3.077,0,0,0-.595-.5,9.38,9.38,0,0,1-1.817-1.589c.011-.121-.609-.624-1.015-.824-.294-.145-.295-.146-.115-.259s.174-.119.025-.244a3.933,3.933,0,0,0-.66-.351c-.458-.2-.49-.23-.351-.322.226-.15.059-.335-.584-.647-.664-.322-.7-.356-.516-.448.312-.154-.18-.523-1.112-.835-.152-.051-.154-.065-.028-.193.111-.112.116-.162.026-.269a5.567,5.567,0,0,0-1.523-.725c-.129,0-.121-.028.047-.144.406-.28-.068-.669-1.111-.913-.474-.111-.552-.183-.321-.3.283-.139-.025-.377-.864-.667-1.169-.4-1.159-.4-.978-.582.142-.144.141-.157-.035-.317a2.555,2.555,0,0,0-.984-.337c-.72-.152-1.024-.3-1.041-.5a4.2,4.2,0,0,0-.765-.325,3.9,3.9,0,0,1-.949-.461c-.261-.254-.609-.412-2.559-1.16-.933-.358-1.912-.759-2.176-.891-.438-.219-.454-.235-.177-.184.166.03.7.166,1.188.3,1.3.362,1.5.395,1.495.239,0-.115.017-.116.193-.009a6.425,6.425,0,0,0,1.494.348c.047.007.072-.07.053-.171-.03-.169-.017-.175.168-.081a10.376,10.376,0,0,0,1.483.422c.036,0,.063-.072.06-.163,0-.125.032-.152.147-.109a3.488,3.488,0,0,0,1.1.2.115.115,0,0,0,.068-.164c-.045-.1-.018-.11.151-.048a4.615,4.615,0,0,0,.671.145l.466.07-.049-.206-.049-.206.592.065c.565.062.592.057.587-.1s.041-.167.546-.155c.471.012.548-.006.534-.124-.009-.076.033-.128.093-.115a2.007,2.007,0,0,0,.472-.043c.2-.036.5-.084.663-.106a.607.607,0,0,0,.366-.152.269.269,0,0,1,.219-.108,6.908,6.908,0,0,0,2.35-.88A11.377,11.377,0,0,0,38.369,6.6c-1.515-.031-1.729-.051-1.881-.176A.983.983,0,0,0,35.9,6.27a.879.879,0,0,1-.619-.183c-.175-.151-.3-.176-1.025-.2-.7-.021-.822-.043-.806-.147.052-.341-.234-.4-1.1-.221-.509.1-.56.1-.7-.022-.166-.152-.481-.127-.98.077a2.549,2.549,0,0,1-.9.109,19.513,19.513,0,0,0-4.361.99,3.906,3.906,0,0,1-1.44.289c-.609-.086-.677.156-.783-1.419a32.173,32.173,0,0,0-.744-4.9C22.015.308,22.161,1.038,22.232,1.384Zm1.163,6.077c-.156.09-.867.035-.764-.059a.618.618,0,0,1,.344-.06c.144.007.262-.024.26-.07s.051-.042.134.021C23.478,7.377,23.483,7.41,23.395,7.461Zm1.21,4.656a2.3,2.3,0,0,1,.2.614l.064.371-.259-.439a1.377,1.377,0,0,1-.228-.615C24.424,11.821,24.441,11.827,24.605,12.117Zm.718,2.293c.146-.069.161-.031.2.512.024.322.011.556-.029.518-.163-.15-.667-1.265-.552-1.222.071.027.122-.014.128-.1s.029-.03.052.111C25.16,14.45,25.187,14.475,25.324,14.41Z" transform="translate(0 0)" fill="#035e03"/></g><g transform="translate(50.431 445.528) rotate(-133)"><path d="M29.867-.348c.373,3.273.342,7.772-.026,7.792a2.834,2.834,0,0,1-.819-.387A23.7,23.7,0,0,0,25.76,5.444a.389.389,0,0,0-.254.191c-.091.155-.271.107-1.151-.307-.913-.429-1.076-.471-1.313-.335s-.385.1-1.11-.215c-.923-.407-1.035-.424-1.364-.207-.183.121-.314.1-.715-.122-.8-.438-.983-.454-1.089-.095-.05.169-.124.292-.163.272A4.084,4.084,0,0,0,16.82,4.1a8.948,8.948,0,0,1-3.007-.733,6.062,6.062,0,0,0-1.229-.349c-.145.146.15.444,1.264,1.28.663.5,1.3.991,1.414,1.1a4.884,4.884,0,0,0,.484.376.6.6,0,0,1,.266.448c-.008.2.141.333.646.567.414.192.6.339.512.4-.273.178-.028.439.609.65a3.66,3.66,0,0,0,.866.2c.26-.014.272.031.092.348-.113.2-.069.241.358.342a5.26,5.26,0,0,0,1.149.09c.615-.023.656-.007.587.227s-.017.254.772.284a4.442,4.442,0,0,0,1.24-.1c.315-.109.38-.1.326.024-.108.254.5.284,2.346.116L27.2,9.207l-1.182.475c-1.119.45-3.653,1.36-4.751,1.706-.277.087-.486.195-.465.239.077.159-.359.451-.757.507-.224.031-.864.161-1.422.289-.852.2-1.029.274-1.109.49a1.323,1.323,0,0,0-.088.384,2.549,2.549,0,0,1-1.01.393c-1.083.283-1.521.574-1.422.945.046.171-.02.233-.329.311-1.075.27-1.6.505-1.807.806s-.2.326-.023.527c.162.182.163.215.012.223a9.653,9.653,0,0,0-1.021.243c-.632.175-.892.305-1.038.521-.183.269-.179.3.067.5.144.119.223.226.174.239l-.176.044a8.506,8.506,0,0,0-2.184,1.077c-.283.3-.285.314-.078.461s.209.153-.013.24a6.835,6.835,0,0,0-1.5.789c-.232.214-.316.635-.124.625.31-.016.036.2-.6.478a3.1,3.1,0,0,0-.968.632l-.259.324.235.15c.224.143.2.172-.573.652-.876.545-1.019.691-.946.968.031.118-.066.239-.274.342-.5.252-1.251.9-1.225,1.067a9.977,9.977,0,0,1-2.8,2.231c-.938.587-1.184.787-.994.805a2.868,2.868,0,0,0,.87-.206c.723-.27,3.132-1.334,3.428-1.514a.514.514,0,0,1,.368-.069,2.437,2.437,0,0,0,.921-.37c.417-.234.8-.446.847-.47s.085.039.079.141.019.184.054.182a5.282,5.282,0,0,0,1.287-.8c.45-.365.462-.368.512-.128.028.135.093.243.144.241a7.53,7.53,0,0,0,1.486-1.271c.036-.086.111-.013.175.171l.113.323.391-.288a10.959,10.959,0,0,0,.966-.864l.574-.576.11.391c.06.215.137.39.171.388a13.717,13.717,0,0,0,1.822-1.742l.389-.476.1.346c.057.19.152.343.212.34a9.893,9.893,0,0,0,1.733-1.883c.1-.246.111-.245.238.059.072.173.2.31.273.306a7.985,7.985,0,0,0,1.653-1.753c.007-.078.082,0,.168.17s.2.31.243.308a11.122,11.122,0,0,0,1.607-1.836l.257-.4.1.308c.056.169.15.306.208.3a11.8,11.8,0,0,0,1.634-2.108c.006-.074.069-.024.139.112a.835.835,0,0,0,.2.281,14.487,14.487,0,0,0,1.8-2.265c.193-.35.2-.35.317-.1s.127.243.56-.213c.241-.254.663-.746.938-1.095a20.812,20.812,0,0,1,2.71-2.625l.42-.31-.279.381a2.169,2.169,0,0,0-.283.457,5.984,5.984,0,0,1-.495.776,21.4,21.4,0,0,1-2.9,3.039A5.637,5.637,0,0,0,23.8,15.722c-.154.352-.371.559-1.68,1.6a2.477,2.477,0,0,0-.78,1.017c0,.025.089.043.2.04.163,0,.144.038-.094.209a11.693,11.693,0,0,0-2.13,1.82c-.145.263-.142.317.021.4.1.055.162.122.129.15s-.438.325-.9.659c-1.07.774-1.538,1.3-1.132,1.283a.423.423,0,0,1,.276.118c.094.094-.047.243-.558.592a4.916,4.916,0,0,0-1.488,1.473c0,.055.124.126.281.158s.284.1.281.153a3.8,3.8,0,0,1-.74.648,4.308,4.308,0,0,0-.912.875c-.17.31-.164.323.166.38.438.075.427.166-.054.447a6.659,6.659,0,0,0-1.673,1.534c0,.078.125.206.285.284l.291.142-.5.344a6.472,6.472,0,0,0-1.461,1.326c0,.054.19.148.429.208l.434.11-1.074,1.068a6.418,6.418,0,0,0-1.084,1.257c-.006.123.13.208.392.244l.4.055-.772.764c-.962.952-1.068,1.169-.6,1.24a.77.77,0,0,1,.34.095c0,.024-.275.377-.609.785-.624.763-.849,1.2-.612,1.191a.661.661,0,0,1,.3.094c.14.084.128.133-.081.323a3.677,3.677,0,0,0-.926,1.29c-.007.13.088.188.29.178l.3-.016-.325.382A4.2,4.2,0,0,0,7.6,42.13c-.005.1.09.175.215.168.21-.011.2.038-.156.763-.39.794-.515,1.333-.273,1.175q.133-.087.045.155c-.048.133-.205.607-.349,1.053a23.733,23.733,0,0,1-1.046,2.392c-.431.869-.786,1.617-.789,1.663-.012.233.611-.551,1.7-2.133.665-.97,1.332-1.881,1.482-2.024a4.475,4.475,0,0,0,.616-.937c.189-.372.393-.647.453-.612s.192-.007.294-.094a5.181,5.181,0,0,0,.872-1.605l.1-.352.192.265.192.265.195-.27a5.2,5.2,0,0,0,.444-.97c.248-.7.382-.826.615-.592a.2.2,0,0,0,.238.048,3.61,3.61,0,0,0,.667-1.369l.086-.391.262.245c.254.237.266.238.4.015a9.25,9.25,0,0,0,.819-1.977l.1-.469.244.23a.777.777,0,0,0,.373.223,5.381,5.381,0,0,0,.6-1.969L16.2,34.7l.285.268c.276.259.29.26.456.039a2.228,2.228,0,0,0,.27-.724c.148-.74.263-.872.541-.621.126.113.254.18.285.149a11.362,11.362,0,0,0,.8-2.095,1.181,1.181,0,0,1,.177-.5,1.023,1.023,0,0,1,.324.236c.14.132.289.205.331.163a6.872,6.872,0,0,0,.488-1.887c.026-.466.143-.556.364-.281a.408.408,0,0,0,.228.163c.125-.007.356-.645.58-1.609.172-.737.2-.782.366-.614a.7.7,0,0,0,.234.179,11.874,11.874,0,0,0,.9-2.594l.1-.629.306.237c.228.177.321.2.363.079.031-.087.249-.679.483-1.317a15.427,15.427,0,0,0,.532-1.7l.105-.541.3.232.3.232.138-.449c.336-1.094.561-1.906.658-2.37.1-.5.233-.63.376-.384.095.163.332-.439.849-2.158a27.2,27.2,0,0,1,1.75-4.231l.251-.48-.1.938a9.674,9.674,0,0,1-.444,1.889c-.188.523-.443,1.349-.566,1.837-.2.77-.2.9-.064,1,.1.074.117.161.045.234a21.769,21.769,0,0,0-1.063,2.652c0,.054.121.068.276.031l.281-.068-.505,1.142a13.843,13.843,0,0,0-.6,1.559c-.092.391-.079.416.2.4a.636.636,0,0,1,.3.021c0,.02-.143.309-.316.642a9.889,9.889,0,0,0-.757,2.163c0,.071.155.121.354.11.3-.016.344.017.264.19-.319.693-.855,2.022-.932,2.31-.086.323-.072.337.328.316l.418-.022-.181.33a12.006,12.006,0,0,0-.764,2.135c-.007.13.084.158.347.106.291-.058.339-.037.264.119a21.029,21.029,0,0,0-.792,2.133l-.1.4.5-.11c.456-.1.489-.091.393.113a9.08,9.08,0,0,0-.7,2.117l-.112.667.419-.1.419-.1-.315.7a4.152,4.152,0,0,0-.338,1.093c-.022.38-.009.391.341.3.309-.078.351-.061.279.11-.6,1.4-.612,1.775-.076,1.693l.366-.056-.2.514a4.628,4.628,0,0,0-.249,1.1l-.047.585.448-.051c.386-.044.435-.022.351.156A7.81,7.81,0,0,0,26.5,44.1l-.113,1.1.424-.1c.418-.1.422-.1.293.21a2.548,2.548,0,0,0-.085,1.447.23.23,0,0,0,.284.076c.161-.069.184.024.154.607-.041.786.021,1.062.219.977.1-.042.117.131.063.6-.071.623-.061.653.173.567s.245-.046.219.455a2.618,2.618,0,0,0,.114.905,7.875,7.875,0,0,1,.213,1.58c.081,1.412.258,3.5.34,4l.056.347.1-.3a12.872,12.872,0,0,0,.188-1.753,19.6,19.6,0,0,1,.606-4.249,1.474,1.474,0,0,0,.111-.733c-.006-.595.013-.649.206-.6s.213-.009.219-.881.021-.938.238-.928.235-.059.268-.691a3.934,3.934,0,0,0-.046-.964c-.076-.242-.058-.258.231-.2l.313.063-.01-.989a4.643,4.643,0,0,0-.134-1.241c-.12-.243-.11-.25.286-.2l.41.056.024-.455a5.969,5.969,0,0,0-.312-1.813c-.082-.217.01-.219.627-.013.13.043.155-.084.136-.694a5.978,5.978,0,0,0-.175-1.248l-.151-.5.4.045c.275.031.421,0,.467-.114a7.188,7.188,0,0,0-.489-1.947c-.074-.19-.044-.206.278-.151.35.06.362.05.382-.339a5.545,5.545,0,0,0-.589-2.131c-.259-.47-.209-.545.267-.4l.362.11-.025-.58a4.3,4.3,0,0,0-.346-1.29A3.442,3.442,0,0,1,32.418,31a.753.753,0,0,1,.341.065c.648.219.539-.58-.353-2.583-.024-.054.117-.07.314-.036.345.059.358.047.376-.328a5.229,5.229,0,0,0-.332-1.362c-.193-.535-.351-.986-.351-1a.814.814,0,0,1,.3-.045c.276-.015.295-.045.241-.392a7.037,7.037,0,0,0-.41-1.193c-.193-.45-.35-.843-.348-.874s.106-.035.232-.008c.361.077.323-.493-.1-1.46-.2-.458-.36-.855-.359-.884s.131-.025.289.007c.238.048.289.016.3-.188.007-.136.065-.249.129-.253s.1.257.086.578c-.023.431.013.582.137.576a.345.345,0,0,0,.245-.129c.192-.3.4-.126.363.3a14.707,14.707,0,0,0,.093,2.384c.026.046.172,0,.323-.106l.276-.19.009,1.141c.011,1.284.073,1.583.309,1.476l.314-.142c.113-.051.173.252.234,1.18a9.076,9.076,0,0,0,.138,1.3c.031.031.207-.036.391-.149l.335-.205.028.946a10.3,10.3,0,0,0,.123,1.387l.1.441.4-.315.4-.315.041.631a7.051,7.051,0,0,0,.314,1.894c.08.137.14.129.4-.053l.31-.214-.022.441a4.229,4.229,0,0,0,.075.9c.172.814.164.8.408.577.34-.313.494-.256.471.173a4.7,4.7,0,0,0,.252,1.7,1.034,1.034,0,0,0,.312-.188c.348-.272.372-.248.362.356a3.732,3.732,0,0,0,.37,1.759.987.987,0,0,0,.325-.188c.337-.264.411-.241.393.121a2.6,2.6,0,0,0,.335,1.343c.149.2.171.2.386.005s.23-.19.271.295a4.436,4.436,0,0,0,.148.824c.1.31.115.313.4.114s.3-.2.283.08a2.728,2.728,0,0,0,.192.828c.158.413.241.508.35.4.21-.212.33-.183.316.077a1.867,1.867,0,0,0,.162.634c.131.3.228.384.388.325.136-.05.211-.019.205.084a3.913,3.913,0,0,0,.452.946,22.008,22.008,0,0,1,1.337,2.476c-.009.18.784,1.451.83,1.329a6.164,6.164,0,0,0-.446-1.846,16.239,16.239,0,0,1-.742-3.69c.189-.073.16-.526-.064-1.007-.249-.534-.248-.512-.03-.523.3-.016.228-.322-.408-1.773-.025-.056.091-.074.257-.04.274.056.3.03.319-.28a3.926,3.926,0,0,0-.379-1.206l-.4-.866.328-.017c.268-.014.33-.068.342-.3a5.407,5.407,0,0,0-.887-1.965c-.276-.376-.2-.5.332-.524.483-.025.253-.611-.585-1.485l-.585-.611.409-.14.409-.14-.22-.395a6.18,6.18,0,0,0-.776-.971l-.556-.576.316-.1c.447-.135.342-.448-.4-1.177a5.675,5.675,0,0,1-.594-.639c0-.027.11-.054.242-.061.455-.024.105-.747-.643-1.328l-.455-.353.3-.092c.167-.05.307-.142.31-.2a1.359,1.359,0,0,0-.316-.663c-.045-.03-.318-.272-.606-.538-.444-.41-.494-.5-.329-.6.29-.174.1-.48-.872-1.4-.748-.712-.8-.8-.575-.881s.243-.113.1-.414A4.644,4.644,0,0,0,39,20.544c-.737-.643-.854-.829-.53-.846.357-.019.066-.521-.812-1.4-.479-.48-.87-.892-.869-.916s.081-.047.176-.052c.2-.01.243-.2.071-.3a.121.121,0,0,1-.049-.168c.036-.056-.331-.432-.815-.836a4.219,4.219,0,0,1-.976-1.038,7.585,7.585,0,0,0-.918-1.309c-1.083-1.325-2.948-4.212-2.368-3.665A19.788,19.788,0,0,1,34.59,13.03c.737,1.133.828,1.224.995.991.095-.133.143-.144.18-.042a9.928,9.928,0,0,0,1.151,2.011c.449.61.564.7.678.55.188-.249.252-.235.314.07a3.506,3.506,0,0,0,.491.864c.241.333.485.687.541.788.093.166.12.162.281-.042s.195-.189.437.327a5.1,5.1,0,0,0,.592.942c.338.4.386.391.652-.093.039-.072.091-.062.127.025.054.128,1.176,1.806,1.294,1.934.025.027.163-.069.306-.213l.26-.262.219.439a3.983,3.983,0,0,0,1.122,1.341c.055,0,.171-.176.258-.384l.159-.379.3.462a4.926,4.926,0,0,0,1.229,1.365c.056,0,.172-.193.258-.422.172-.46.324-.539.411-.214a8,8,0,0,0,1.8,1.672c.059,0,.179-.154.269-.334.162-.328.162-.328.343-.1a6.735,6.735,0,0,0,1.77,1.24c.083,0,.156-.1.162-.222.018-.352.144-.379.429-.092a4.159,4.159,0,0,0,1.5.787c.066,0,.124-.093.13-.2.009-.174.029-.177.2-.026a1.9,1.9,0,0,0,1.047.452,12.945,12.945,0,0,1,1.876.649c2.029.816,2.1.84,2.1.715a3.4,3.4,0,0,0-.746-.681,10.4,10.4,0,0,1-2.272-2.171c.029-.181-.75-.864-1.276-1.118-.38-.184-.381-.186-.125-.373s.249-.2.061-.366a4.214,4.214,0,0,0-.851-.451c-.6-.249-.635-.289-.437-.442.322-.249.118-.506-.714-.9-.86-.408-.908-.454-.645-.612.439-.263-.183-.76-1.406-1.123-.2-.059-.2-.08-.015-.284.163-.179.175-.255.066-.4a5.987,5.987,0,0,0-1.973-.916c-.173.007-.161-.028.08-.219.58-.461-.015-.99-1.4-1.24-.628-.114-.724-.212-.4-.407.4-.238.01-.559-1.09-.9-1.532-.476-1.52-.468-1.255-.761.209-.23.208-.249-.01-.469a2.791,2.791,0,0,0-1.291-.395c-.956-.149-1.349-.332-1.349-.628a4.524,4.524,0,0,0-1-.4,4.185,4.185,0,0,1-1.229-.584c-.323-.35-.776-.548-3.323-1.452-1.219-.432-2.5-.923-2.836-1.091-.567-.278-.586-.3-.218-.256.221.027.928.172,1.569.322,1.708.4,1.979.426,1.991.194.009-.171.037-.174.262-.034a7.208,7.208,0,0,0,1.978.357c.063.005.1-.112.092-.26-.022-.249,0-.26.237-.14a11.494,11.494,0,0,0,1.954.468c.048,0,.093-.113.1-.249.01-.187.061-.23.212-.179a4.017,4.017,0,0,0,1.47.176.2.2,0,0,0,.111-.252c-.049-.146-.011-.162.209-.088a5.214,5.214,0,0,0,.89.143l.621.053-.042-.3-.042-.3.792.033c.756.031.793.021.805-.218s.074-.254.755-.29c.635-.033.741-.068.736-.243,0-.112.06-.194.139-.182a2.607,2.607,0,0,0,.643-.115c.274-.075.682-.178.907-.23a.942.942,0,0,0,.512-.267.426.426,0,0,1,.309-.185A10.462,10.462,0,0,0,53.31,5.632a13.692,13.692,0,0,0-2.246.042c-2.043.118-2.33.112-2.52-.059a1.1,1.1,0,0,0-.778-.163.98.98,0,0,1-.815-.206c-.219-.206-.391-.229-1.362-.183-.942.045-1.1.025-1.071-.132.11-.514-.27-.568-1.459-.21-.7.211-.768.214-.937.043-.206-.208-.636-.137-1.333.221a3.4,3.4,0,0,1-1.229.259,27.27,27.27,0,0,0-6,1.947,5.355,5.355,0,0,1-1.978.587c-.812-.062-.933.306-.895-2.03a50.039,50.039,0,0,0-.442-7.217C29.7-1.927,29.811-.856,29.867-.348Zm.873,8.93c-.22.151-1.175.146-1.025-.005a.854.854,0,0,1,.471-.127c.194,0,.356-.064.359-.132s.074-.068.178.017C30.862,8.447,30.865,8.5,30.74,8.582Zm1.1,6.807a3.263,3.263,0,0,1,.2.893l.043.546-.3-.626a1.935,1.935,0,0,1-.237-.891C31.629,14.968,31.651,14.974,31.84,15.389Zm.707,3.34c.205-.118.221-.064.214.741,0,.478-.049.827-.1.776a4.56,4.56,0,0,1-.605-1.761c.093.032.166-.034.184-.165s.042-.048.057.16C32.321,18.805,32.355,18.839,32.547,18.728Z" transform="translate(0 0)" fill="#035e03"/></g><g transform="translate(4)"><g transform="matrix(-0.966, 0.259, -0.259, -0.966, 54.587, 372.178)"><path d="M22.232,1.384c.466,2.23.7,5.267.429,5.26a2.635,2.635,0,0,1-.632-.306A22.108,22.108,0,0,0,19.5,5.072a.235.235,0,0,0-.178.115c-.059.1-.2.057-.875-.27-.7-.339-.829-.376-1-.3s-.281.05-.84-.205c-.711-.325-.8-.343-1.028-.214-.129.072-.228.049-.54-.121-.62-.339-.758-.36-.817-.123-.028.112-.075.19-.106.175a3.71,3.71,0,0,0-1.357-.45,8.041,8.041,0,0,1-2.283-.658,5.507,5.507,0,0,0-.935-.3c-.1.091.137.308,1.015.933.523.372,1.025.739,1.116.816a4.515,4.515,0,0,0,.382.28.489.489,0,0,1,.224.317c.006.136.124.233.514.418.32.152.469.262.4.3-.193.106,0,.295.491.472a3.288,3.288,0,0,0,.656.181c.193,0,.2.036.088.24-.073.129-.038.159.287.251a4.525,4.525,0,0,0,.861.123c.457.018.489.031.45.185s0,.171.591.234a3.55,3.55,0,0,0,.918,0c.229-.057.277-.05.244.034-.066.166.387.219,1.754.205l1.249-.012-.853.257c-.808.243-2.643.72-3.442.894-.2.044-.351.105-.333.136.067.112-.242.285-.535.3-.165.009-.634.062-1.043.118-.623.086-.751.129-.8.271a.749.749,0,0,0-.043.255,1.731,1.731,0,0,1-.73.21c-.791.132-1.1.3-1.005.561.044.118,0,.157-.227.192-.785.124-1.165.254-1.3.446s-.132.209.013.354.134.154.021.151a7.2,7.2,0,0,0-.747.109c-.461.084-.647.158-.744.3-.121.172-.116.193.079.343.114.088.179.165.144.171l-.128.02a5.575,5.575,0,0,0-1.565.609c-.193.188-.194.2-.032.307s.164.114,0,.161a4.408,4.408,0,0,0-1.073.451c-.161.132-.2.412-.056.416.23.006.038.138-.421.29a1.9,1.9,0,0,0-.685.374l-.175.2L5.3,15.7c.175.109.158.127-.389.409-.621.321-.719.411-.649.6.03.081-.035.158-.184.216-.361.143-.88.541-.851.654A5.831,5.831,0,0,1,1.275,18.94c-.665.346-.837.467-.694.49a2.144,2.144,0,0,0,.636-.092c.523-.143,2.257-.731,2.467-.837a.392.392,0,0,1,.27-.027,1.688,1.688,0,0,0,.665-.2c.3-.136.569-.258.6-.272s.065.031.067.1.025.125.051.126a3.309,3.309,0,0,0,.913-.469c.314-.222.323-.223.374-.058.029.093.083.169.121.17a4.37,4.37,0,0,0,1.034-.778c.022-.056.082,0,.14.125l.1.224.275-.173a6.3,6.3,0,0,0,.67-.531l.395-.358.1.27a.655.655,0,0,0,.15.271,7.8,7.8,0,0,0,1.258-1.077l.263-.3.1.239c.053.131.133.24.178.241A5.5,5.5,0,0,0,12.6,14.846c.063-.161.069-.159.181.053.064.12.163.22.221.222a4.458,4.458,0,0,0,1.131-1.094c0-.052.061,0,.135.124s.163.22.2.221a6.145,6.145,0,0,0,1.092-1.153l.168-.259.094.213c.052.117.129.214.173.216a6.419,6.419,0,0,0,1.1-1.335c0-.05.05-.012.11.083a.718.718,0,0,0,.167.2,7.908,7.908,0,0,0,1.213-1.432c.124-.226.125-.226.23-.053s.109.171.405-.113c.165-.158.451-.468.636-.689a11.78,11.78,0,0,1,1.868-1.626l.295-.187-.186.242a1.164,1.164,0,0,0-.184.293,3.209,3.209,0,0,1-.324.5,11.929,11.929,0,0,1-1.983,1.895,3.1,3.1,0,0,0-.7.739c-.095.229-.245.357-1.16.99-.248.171-.526.515-.523.644,0,.017.069.034.152.038.121.006.109.033-.058.136a6.756,6.756,0,0,0-1.483,1.113c-.093.169-.088.206.039.273.08.043.128.091.1.108s-.308.2-.634.4c-.753.465-1.071.8-.77.8a.389.389,0,0,1,.213.095c.075.069-.021.162-.381.369-.46.265-1.028.771-1.024.914,0,.037.1.092.218.122s.217.083.218.118a2.181,2.181,0,0,1-.514.4,2.437,2.437,0,0,0-.629.542c-.109.2-.1.209.145.265.331.074.328.136-.014.3a3.8,3.8,0,0,0-1.158.945c0,.053.1.146.228.207l.225.112L11.482,21a3.7,3.7,0,0,0-1.013.816c0,.036.15.11.332.164l.33.1-.739.663a3.522,3.522,0,0,0-.736.79c0,.083.109.147.306.186l.3.059-.531.474c-.662.591-.728.732-.377.8a.7.7,0,0,1,.259.082,5.6,5.6,0,0,1-.408.5c-.421.481-.563.764-.388.771a.6.6,0,0,1,.228.08c.109.065.1.1-.042.214a1.991,1.991,0,0,0-.616.821c0,.088.076.132.226.136l.223.006-.22.241a2.257,2.257,0,0,0-.537.955c0,.067.077.123.17.125.156,0,.152.036-.072.507-.245.515-.307.872-.136.779q.094-.051.043.107c-.028.087-.118.4-.2.692a12.782,12.782,0,0,1-.642,1.558c-.272.563-.493,1.049-.492,1.08,0,.157.424-.339,1.141-1.348a14.492,14.492,0,0,1,.988-1.287,2.409,2.409,0,0,0,.405-.6c.12-.241.256-.416.3-.389a.229.229,0,0,0,.214-.048A2.782,2.782,0,0,0,10.36,29l.055-.232.158.189.158.189.13-.172a2.8,2.8,0,0,0,.275-.631c.145-.457.237-.537.424-.366a.176.176,0,0,0,.18.045,1.944,1.944,0,0,0,.418-.888l.042-.259.209.179c.2.174.212.175.3.032a5,5,0,0,0,.5-1.29l.049-.311.2.168a.722.722,0,0,0,.29.171,2.968,2.968,0,0,0,.331-1.3l-.006-.214.227.2c.22.19.231.192.342.051a1.212,1.212,0,0,0,.16-.474c.067-.492.146-.575.368-.39.1.083.2.136.221.116a6.162,6.162,0,0,0,.478-1.371c.028-.183.075-.332.1-.331a.948.948,0,0,1,.255.177c.112.1.227.154.256.128a3.835,3.835,0,0,0,.255-1.248c-.007-.313.074-.367.255-.17a.376.376,0,0,0,.179.122c.093,0,.228-.416.34-1.055.086-.489.1-.517.237-.395a.643.643,0,0,0,.185.133,6.483,6.483,0,0,0,.519-1.7l.041-.419.242.177c.18.132.25.15.275.073.018-.057.146-.445.284-.863a8.492,8.492,0,0,0,.3-1.119l.048-.359.237.173.237.173.077-.3c.187-.721.309-1.257.354-1.565.048-.33.138-.413.258-.239.08.115.222-.279.508-1.411a14.7,14.7,0,0,1,1.061-2.762l.16-.31-.023.628a5.443,5.443,0,0,1-.223,1.251c-.11.343-.252.887-.316,1.21-.1.51-.1.6.01.675.079.055.1.115.047.16a11.775,11.775,0,0,0-.64,1.733c0,.037.094.053.208.036l.206-.031-.311.744a7.509,7.509,0,0,0-.36,1.02c-.046.259-.035.277.175.282a.55.55,0,0,1,.226.03c0,.013-.089.2-.2.417a5.406,5.406,0,0,0-.439,1.42c0,.048.123.09.27.094.222.006.257.03.208.143A15.06,15.06,0,0,0,20.8,20.67c-.046.214-.034.224.263.231l.31.008-.116.213a6.548,6.548,0,0,0-.446,1.4c0,.087.072.111.264.09.214-.023.251-.006.2.094a11.427,11.427,0,0,0-.468,1.4l-.053.262.365-.047c.334-.043.359-.035.3.1a4.981,4.981,0,0,0-.4,1.392l-.045.444.306-.045.306-.045-.194.455a2.293,2.293,0,0,0-.189.72c.005.255.016.264.271.223.226-.036.258-.022.214.089-.363.914-.354,1.165.041,1.139l.27-.018-.121.336a2.612,2.612,0,0,0-.122.729l0,.393.331-.01c.285-.008.323.009.271.125a4.5,4.5,0,0,0-.081.871l-.021.737.31-.045c.306-.045.309-.043.23.157a1.553,1.553,0,0,0,.02.973.2.2,0,0,0,.216.067c.116-.038.138.026.149.418.015.529.077.718.219.671.071-.023.094.1.082.408-.017.417-.008.438.161.393s.18-.018.189.319a1.749,1.749,0,0,0,.137.618,5.294,5.294,0,0,1,.249,1.079c.141.958.394,2.378.483,2.722l.062.237.058-.195a7.588,7.588,0,0,0,.039-1.173,11.367,11.367,0,0,1,.208-2.837.85.85,0,0,0,.041-.489c-.038-.4-.028-.438.119-.392s.158.006.113-.583-.038-.632.124-.614.172-.027.16-.452a2.523,2.523,0,0,0-.089-.653c-.07-.168-.058-.177.16-.122l.237.06-.064-.668A3.081,3.081,0,0,0,25.7,31c-.1-.171-.1-.175.2-.117l.309.06-.008-.306a4.075,4.075,0,0,0-.336-1.241c-.074-.151,0-.147.466.025.1.036.111-.048.061-.461a4.02,4.02,0,0,0-.2-.852l-.142-.347.3.052c.207.036.313.02.342-.052a5.093,5.093,0,0,0-.476-1.341c-.066-.132-.045-.142.2-.087.264.059.273.053.265-.208a3.993,3.993,0,0,0-.561-1.471c-.22-.331-.187-.379.176-.256l.276.094-.052-.393a3.088,3.088,0,0,0-.332-.89,2.593,2.593,0,0,1-.254-.52.664.664,0,0,1,.258.063c.5.183.368-.362-.411-1.763-.021-.037.084-.041.232-.008.26.058.27.051.261-.2a3.694,3.694,0,0,0-.326-.937c-.174-.372-.318-.685-.319-.7a.624.624,0,0,1,.22-.014c.205.005.217-.014.157-.251a5.239,5.239,0,0,0-.374-.828c-.17-.314-.309-.588-.31-.609s.077-.018.172.007c.273.072.212-.316-.156-.991-.174-.32-.318-.6-.318-.616s.1-.01.216.02c.18.045.216.027.212-.111,0-.091.034-.165.082-.164s.091.179.1.4c.008.29.043.394.135.4a.223.223,0,0,0,.175-.074c.126-.191.29-.064.288.223a9.364,9.364,0,0,0,.206,1.615c.022.032.128.008.235-.054l.194-.113.073.771c.082.867.145,1.073.315,1.013l.226-.079c.081-.028.143.18.242.809a6.01,6.01,0,0,0,.178.889c.025.023.152-.013.283-.079l.238-.12.075.64a6.737,6.737,0,0,0,.172.943l.1.3.28-.191.28-.191.067.428a4.831,4.831,0,0,0,.343,1.3c.067.1.112.095.3-.014l.219-.128.009.3a2.752,2.752,0,0,0,.108.613c.175.559.168.551.337.412.235-.193.353-.146.361.142a3.2,3.2,0,0,0,.285,1.159.654.654,0,0,0,.222-.11c.243-.165.263-.147.29.26a2.63,2.63,0,0,0,.377,1.207.63.63,0,0,0,.231-.109c.236-.16.292-.141.3.1a1.852,1.852,0,0,0,.327.925c.123.145.139.147.288.025s.16-.116.219.214a3.048,3.048,0,0,0,.158.564c.094.215.1.218.308.1s.211-.117.216.069a1.916,1.916,0,0,0,.191.569c.141.287.209.356.283.289.144-.132.235-.106.24.069a1.328,1.328,0,0,0,.157.437c.115.211.192.272.308.241.1-.026.156,0,.158.068a3.078,3.078,0,0,0,.391.663,17.788,17.788,0,0,1,1.138,1.744,3.3,3.3,0,0,0,.695.942,4.333,4.333,0,0,0-.439-1.27,11.222,11.222,0,0,1-.765-2.532c.137-.039.089-.347-.105-.684-.216-.374-.214-.359-.053-.355.222.006.152-.2-.406-1.219-.021-.039.063-.045.189-.013.207.052.227.037.222-.171a2.871,2.871,0,0,0-.352-.835l-.346-.606.243.006c.2.005.242-.028.238-.182a4.212,4.212,0,0,0-.774-1.375c-.227-.269-.177-.346.217-.336.358.009.153-.4-.521-1.034l-.471-.444.3-.072.3-.072-.186-.278a5.381,5.381,0,0,0-.634-.7l-.447-.419.23-.047c.325-.067.229-.284-.362-.816a5.053,5.053,0,0,1-.479-.464c0-.018.079-.031.177-.028.338.008.036-.5-.555-.932l-.359-.263.221-.045c.122-.025.221-.079.219-.121a1.074,1.074,0,0,0-.274-.465c-.035-.023-.252-.2-.482-.4-.354-.3-.4-.366-.279-.424.206-.1.047-.319-.731-1-.6-.521-.645-.582-.479-.626s.175-.063.051-.274a4.125,4.125,0,0,0-.707-.69c-.586-.474-.684-.606-.444-.6.265.007.019-.348-.685-.99-.384-.35-.7-.65-.7-.666s.057-.028.128-.026c.147,0,.17-.119.036-.2a.087.087,0,0,1-.046-.116,2.687,2.687,0,0,0-.655-.608,3.752,3.752,0,0,1-.787-.754,6.44,6.44,0,0,0-.759-.934c-.883-.954-2.438-3-1.975-2.6a17.529,17.529,0,0,1,2.172,2.18c.614.8.687.871.8.723.063-.084.1-.09.132-.019a8.128,8.128,0,0,0,.973,1.42c.37.436.46.505.537.408.126-.158.174-.145.238.064a2.858,2.858,0,0,0,.416.61c.2.238.4.49.449.561.079.117.1.116.207-.013s.134-.117.344.244a4.259,4.259,0,0,0,.495.668c.275.287.31.285.48-.027.025-.046.064-.037.1.024.047.089.98,1.284,1.075,1.376.02.02.117-.038.216-.127l.179-.163.188.308a3.5,3.5,0,0,0,.913.966c.04,0,.117-.109.17-.245l.1-.247.247.328a4.387,4.387,0,0,0,.994.988c.042,0,.117-.121.168-.271.1-.3.21-.347.294-.122a7.27,7.27,0,0,0,1.437,1.226c.043,0,.125-.094.181-.211.1-.213.1-.213.25-.048a6.253,6.253,0,0,0,1.39.933c.062,0,.11-.062.108-.141-.007-.237.085-.248.314-.039a3.873,3.873,0,0,0,1.162.613c.049,0,.087-.056.085-.128,0-.117.012-.118.15-.006a1.751,1.751,0,0,0,.806.362,11.908,11.908,0,0,1,1.435.54c1.558.661,1.611.681,1.608.6a3.077,3.077,0,0,0-.595-.5,9.38,9.38,0,0,1-1.817-1.589c.011-.121-.609-.624-1.015-.824-.294-.145-.295-.146-.115-.259s.174-.119.025-.244a3.933,3.933,0,0,0-.66-.351c-.458-.2-.49-.23-.351-.322.226-.15.059-.335-.584-.647-.664-.322-.7-.356-.516-.448.312-.154-.18-.523-1.112-.835-.152-.051-.154-.065-.028-.193.111-.112.116-.162.026-.269a5.567,5.567,0,0,0-1.523-.725c-.129,0-.121-.028.047-.144.406-.28-.068-.669-1.111-.913-.474-.111-.552-.183-.321-.3.283-.139-.025-.377-.864-.667-1.169-.4-1.159-.4-.978-.582.142-.144.141-.157-.035-.317a2.555,2.555,0,0,0-.984-.337c-.72-.152-1.024-.3-1.041-.5a4.2,4.2,0,0,0-.765-.325,3.9,3.9,0,0,1-.949-.461c-.261-.254-.609-.412-2.559-1.16-.933-.358-1.912-.759-2.176-.891-.438-.219-.454-.235-.177-.184.166.03.7.166,1.188.3,1.3.362,1.5.395,1.495.239,0-.115.017-.116.193-.009a6.425,6.425,0,0,0,1.494.348c.047.007.072-.07.053-.171-.03-.169-.017-.175.168-.081a10.376,10.376,0,0,0,1.483.422c.036,0,.063-.072.06-.163,0-.125.032-.152.147-.109a3.488,3.488,0,0,0,1.1.2.115.115,0,0,0,.068-.164c-.045-.1-.018-.11.151-.048a4.615,4.615,0,0,0,.671.145l.466.07-.049-.206-.049-.206.592.065c.565.062.592.057.587-.1s.041-.167.546-.155c.471.012.548-.006.534-.124-.009-.076.033-.128.093-.115a2.007,2.007,0,0,0,.472-.043c.2-.036.5-.084.663-.106a.607.607,0,0,0,.366-.152.269.269,0,0,1,.219-.108,6.908,6.908,0,0,0,2.35-.88A11.377,11.377,0,0,0,38.369,6.6c-1.515-.031-1.729-.051-1.881-.176A.983.983,0,0,0,35.9,6.27a.879.879,0,0,1-.619-.183c-.175-.151-.3-.176-1.025-.2-.7-.021-.822-.043-.806-.147.052-.341-.234-.4-1.1-.221-.509.1-.56.1-.7-.022-.166-.152-.481-.127-.98.077a2.549,2.549,0,0,1-.9.109,19.513,19.513,0,0,0-4.361.99,3.906,3.906,0,0,1-1.44.289c-.609-.086-.677.156-.783-1.419a32.173,32.173,0,0,0-.744-4.9C22.015.308,22.161,1.038,22.232,1.384Zm1.163,6.077c-.156.09-.867.035-.764-.059a.618.618,0,0,1,.344-.06c.144.007.262-.024.26-.07s.051-.042.134.021C23.478,7.377,23.483,7.41,23.395,7.461Zm1.21,4.656a2.3,2.3,0,0,1,.2.614l.064.371-.259-.439a1.377,1.377,0,0,1-.228-.615C24.424,11.821,24.441,11.827,24.605,12.117Zm.718,2.293c.146-.069.161-.031.2.512.024.322.011.556-.029.518-.163-.15-.667-1.265-.552-1.222.071.027.122-.014.128-.1s.029-.03.052.111C25.16,14.45,25.187,14.475,25.324,14.41Z" transform="translate(0 0)" fill="#019201"/></g><g transform="translate(50.431 445.528) rotate(-133)"><path d="M29.867-.348c.373,3.273.342,7.772-.026,7.792a2.834,2.834,0,0,1-.819-.387A23.7,23.7,0,0,0,25.76,5.444a.389.389,0,0,0-.254.191c-.091.155-.271.107-1.151-.307-.913-.429-1.076-.471-1.313-.335s-.385.1-1.11-.215c-.923-.407-1.035-.424-1.364-.207-.183.121-.314.1-.715-.122-.8-.438-.983-.454-1.089-.095-.05.169-.124.292-.163.272A4.084,4.084,0,0,0,16.82,4.1a8.948,8.948,0,0,1-3.007-.733,6.062,6.062,0,0,0-1.229-.349c-.145.146.15.444,1.264,1.28.663.5,1.3.991,1.414,1.1a4.884,4.884,0,0,0,.484.376.6.6,0,0,1,.266.448c-.008.2.141.333.646.567.414.192.6.339.512.4-.273.178-.028.439.609.65a3.66,3.66,0,0,0,.866.2c.26-.014.272.031.092.348-.113.2-.069.241.358.342a5.26,5.26,0,0,0,1.149.09c.615-.023.656-.007.587.227s-.017.254.772.284a4.442,4.442,0,0,0,1.24-.1c.315-.109.38-.1.326.024-.108.254.5.284,2.346.116L27.2,9.207l-1.182.475c-1.119.45-3.653,1.36-4.751,1.706-.277.087-.486.195-.465.239.077.159-.359.451-.757.507-.224.031-.864.161-1.422.289-.852.2-1.029.274-1.109.49a1.323,1.323,0,0,0-.088.384,2.549,2.549,0,0,1-1.01.393c-1.083.283-1.521.574-1.422.945.046.171-.02.233-.329.311-1.075.27-1.6.505-1.807.806s-.2.326-.023.527c.162.182.163.215.012.223a9.653,9.653,0,0,0-1.021.243c-.632.175-.892.305-1.038.521-.183.269-.179.3.067.5.144.119.223.226.174.239l-.176.044a8.506,8.506,0,0,0-2.184,1.077c-.283.3-.285.314-.078.461s.209.153-.013.24a6.835,6.835,0,0,0-1.5.789c-.232.214-.316.635-.124.625.31-.016.036.2-.6.478a3.1,3.1,0,0,0-.968.632l-.259.324.235.15c.224.143.2.172-.573.652-.876.545-1.019.691-.946.968.031.118-.066.239-.274.342-.5.252-1.251.9-1.225,1.067a9.977,9.977,0,0,1-2.8,2.231c-.938.587-1.184.787-.994.805a2.868,2.868,0,0,0,.87-.206c.723-.27,3.132-1.334,3.428-1.514a.514.514,0,0,1,.368-.069,2.437,2.437,0,0,0,.921-.37c.417-.234.8-.446.847-.47s.085.039.079.141.019.184.054.182a5.282,5.282,0,0,0,1.287-.8c.45-.365.462-.368.512-.128.028.135.093.243.144.241a7.53,7.53,0,0,0,1.486-1.271c.036-.086.111-.013.175.171l.113.323.391-.288a10.959,10.959,0,0,0,.966-.864l.574-.576.11.391c.06.215.137.39.171.388a13.717,13.717,0,0,0,1.822-1.742l.389-.476.1.346c.057.19.152.343.212.34a9.893,9.893,0,0,0,1.733-1.883c.1-.246.111-.245.238.059.072.173.2.31.273.306a7.985,7.985,0,0,0,1.653-1.753c.007-.078.082,0,.168.17s.2.31.243.308a11.122,11.122,0,0,0,1.607-1.836l.257-.4.1.308c.056.169.15.306.208.3a11.8,11.8,0,0,0,1.634-2.108c.006-.074.069-.024.139.112a.835.835,0,0,0,.2.281,14.487,14.487,0,0,0,1.8-2.265c.193-.35.2-.35.317-.1s.127.243.56-.213c.241-.254.663-.746.938-1.095a20.812,20.812,0,0,1,2.71-2.625l.42-.31-.279.381a2.169,2.169,0,0,0-.283.457,5.984,5.984,0,0,1-.495.776,21.4,21.4,0,0,1-2.9,3.039A5.637,5.637,0,0,0,23.8,15.722c-.154.352-.371.559-1.68,1.6a2.477,2.477,0,0,0-.78,1.017c0,.025.089.043.2.04.163,0,.144.038-.094.209a11.693,11.693,0,0,0-2.13,1.82c-.145.263-.142.317.021.4.1.055.162.122.129.15s-.438.325-.9.659c-1.07.774-1.538,1.3-1.132,1.283a.423.423,0,0,1,.276.118c.094.094-.047.243-.558.592a4.916,4.916,0,0,0-1.488,1.473c0,.055.124.126.281.158s.284.1.281.153a3.8,3.8,0,0,1-.74.648,4.308,4.308,0,0,0-.912.875c-.17.31-.164.323.166.38.438.075.427.166-.054.447a6.659,6.659,0,0,0-1.673,1.534c0,.078.125.206.285.284l.291.142-.5.344a6.472,6.472,0,0,0-1.461,1.326c0,.054.19.148.429.208l.434.11-1.074,1.068a6.418,6.418,0,0,0-1.084,1.257c-.006.123.13.208.392.244l.4.055-.772.764c-.962.952-1.068,1.169-.6,1.24a.77.77,0,0,1,.34.095c0,.024-.275.377-.609.785-.624.763-.849,1.2-.612,1.191a.661.661,0,0,1,.3.094c.14.084.128.133-.081.323a3.677,3.677,0,0,0-.926,1.29c-.007.13.088.188.29.178l.3-.016-.325.382A4.2,4.2,0,0,0,7.6,42.13c-.005.1.09.175.215.168.21-.011.2.038-.156.763-.39.794-.515,1.333-.273,1.175q.133-.087.045.155c-.048.133-.205.607-.349,1.053a23.733,23.733,0,0,1-1.046,2.392c-.431.869-.786,1.617-.789,1.663-.012.233.611-.551,1.7-2.133.665-.97,1.332-1.881,1.482-2.024a4.475,4.475,0,0,0,.616-.937c.189-.372.393-.647.453-.612s.192-.007.294-.094a5.181,5.181,0,0,0,.872-1.605l.1-.352.192.265.192.265.195-.27a5.2,5.2,0,0,0,.444-.97c.248-.7.382-.826.615-.592a.2.2,0,0,0,.238.048,3.61,3.61,0,0,0,.667-1.369l.086-.391.262.245c.254.237.266.238.4.015a9.25,9.25,0,0,0,.819-1.977l.1-.469.244.23a.777.777,0,0,0,.373.223,5.381,5.381,0,0,0,.6-1.969L16.2,34.7l.285.268c.276.259.29.26.456.039a2.228,2.228,0,0,0,.27-.724c.148-.74.263-.872.541-.621.126.113.254.18.285.149a11.362,11.362,0,0,0,.8-2.095,1.181,1.181,0,0,1,.177-.5,1.023,1.023,0,0,1,.324.236c.14.132.289.205.331.163a6.872,6.872,0,0,0,.488-1.887c.026-.466.143-.556.364-.281a.408.408,0,0,0,.228.163c.125-.007.356-.645.58-1.609.172-.737.2-.782.366-.614a.7.7,0,0,0,.234.179,11.874,11.874,0,0,0,.9-2.594l.1-.629.306.237c.228.177.321.2.363.079.031-.087.249-.679.483-1.317a15.427,15.427,0,0,0,.532-1.7l.105-.541.3.232.3.232.138-.449c.336-1.094.561-1.906.658-2.37.1-.5.233-.63.376-.384.095.163.332-.439.849-2.158a27.2,27.2,0,0,1,1.75-4.231l.251-.48-.1.938a9.674,9.674,0,0,1-.444,1.889c-.188.523-.443,1.349-.566,1.837-.2.77-.2.9-.064,1,.1.074.117.161.045.234a21.769,21.769,0,0,0-1.063,2.652c0,.054.121.068.276.031l.281-.068-.505,1.142a13.843,13.843,0,0,0-.6,1.559c-.092.391-.079.416.2.4a.636.636,0,0,1,.3.021c0,.02-.143.309-.316.642a9.889,9.889,0,0,0-.757,2.163c0,.071.155.121.354.11.3-.016.344.017.264.19-.319.693-.855,2.022-.932,2.31-.086.323-.072.337.328.316l.418-.022-.181.33a12.006,12.006,0,0,0-.764,2.135c-.007.13.084.158.347.106.291-.058.339-.037.264.119a21.029,21.029,0,0,0-.792,2.133l-.1.4.5-.11c.456-.1.489-.091.393.113a9.08,9.08,0,0,0-.7,2.117l-.112.667.419-.1.419-.1-.315.7a4.152,4.152,0,0,0-.338,1.093c-.022.38-.009.391.341.3.309-.078.351-.061.279.11-.6,1.4-.612,1.775-.076,1.693l.366-.056-.2.514a4.628,4.628,0,0,0-.249,1.1l-.047.585.448-.051c.386-.044.435-.022.351.156A7.81,7.81,0,0,0,26.5,44.1l-.113,1.1.424-.1c.418-.1.422-.1.293.21a2.548,2.548,0,0,0-.085,1.447.23.23,0,0,0,.284.076c.161-.069.184.024.154.607-.041.786.021,1.062.219.977.1-.042.117.131.063.6-.071.623-.061.653.173.567s.245-.046.219.455a2.618,2.618,0,0,0,.114.905,7.875,7.875,0,0,1,.213,1.58c.081,1.412.258,3.5.34,4l.056.347.1-.3a12.872,12.872,0,0,0,.188-1.753,19.6,19.6,0,0,1,.606-4.249,1.474,1.474,0,0,0,.111-.733c-.006-.595.013-.649.206-.6s.213-.009.219-.881.021-.938.238-.928.235-.059.268-.691a3.934,3.934,0,0,0-.046-.964c-.076-.242-.058-.258.231-.2l.313.063-.01-.989a4.643,4.643,0,0,0-.134-1.241c-.12-.243-.11-.25.286-.2l.41.056.024-.455a5.969,5.969,0,0,0-.312-1.813c-.082-.217.01-.219.627-.013.13.043.155-.084.136-.694a5.978,5.978,0,0,0-.175-1.248l-.151-.5.4.045c.275.031.421,0,.467-.114a7.188,7.188,0,0,0-.489-1.947c-.074-.19-.044-.206.278-.151.35.06.362.05.382-.339a5.545,5.545,0,0,0-.589-2.131c-.259-.47-.209-.545.267-.4l.362.11-.025-.58a4.3,4.3,0,0,0-.346-1.29A3.442,3.442,0,0,1,32.418,31a.753.753,0,0,1,.341.065c.648.219.539-.58-.353-2.583-.024-.054.117-.07.314-.036.345.059.358.047.376-.328a5.229,5.229,0,0,0-.332-1.362c-.193-.535-.351-.986-.351-1a.814.814,0,0,1,.3-.045c.276-.015.295-.045.241-.392a7.037,7.037,0,0,0-.41-1.193c-.193-.45-.35-.843-.348-.874s.106-.035.232-.008c.361.077.323-.493-.1-1.46-.2-.458-.36-.855-.359-.884s.131-.025.289.007c.238.048.289.016.3-.188.007-.136.065-.249.129-.253s.1.257.086.578c-.023.431.013.582.137.576a.345.345,0,0,0,.245-.129c.192-.3.4-.126.363.3a14.707,14.707,0,0,0,.093,2.384c.026.046.172,0,.323-.106l.276-.19.009,1.141c.011,1.284.073,1.583.309,1.476l.314-.142c.113-.051.173.252.234,1.18a9.076,9.076,0,0,0,.138,1.3c.031.031.207-.036.391-.149l.335-.205.028.946a10.3,10.3,0,0,0,.123,1.387l.1.441.4-.315.4-.315.041.631a7.051,7.051,0,0,0,.314,1.894c.08.137.14.129.4-.053l.31-.214-.022.441a4.229,4.229,0,0,0,.075.9c.172.814.164.8.408.577.34-.313.494-.256.471.173a4.7,4.7,0,0,0,.252,1.7,1.034,1.034,0,0,0,.312-.188c.348-.272.372-.248.362.356a3.732,3.732,0,0,0,.37,1.759.987.987,0,0,0,.325-.188c.337-.264.411-.241.393.121a2.6,2.6,0,0,0,.335,1.343c.149.2.171.2.386.005s.23-.19.271.295a4.436,4.436,0,0,0,.148.824c.1.31.115.313.4.114s.3-.2.283.08a2.728,2.728,0,0,0,.192.828c.158.413.241.508.35.4.21-.212.33-.183.316.077a1.867,1.867,0,0,0,.162.634c.131.3.228.384.388.325.136-.05.211-.019.205.084a3.913,3.913,0,0,0,.452.946,22.008,22.008,0,0,1,1.337,2.476c-.009.18.784,1.451.83,1.329a6.164,6.164,0,0,0-.446-1.846,16.239,16.239,0,0,1-.742-3.69c.189-.073.16-.526-.064-1.007-.249-.534-.248-.512-.03-.523.3-.016.228-.322-.408-1.773-.025-.056.091-.074.257-.04.274.056.3.03.319-.28a3.926,3.926,0,0,0-.379-1.206l-.4-.866.328-.017c.268-.014.33-.068.342-.3a5.407,5.407,0,0,0-.887-1.965c-.276-.376-.2-.5.332-.524.483-.025.253-.611-.585-1.485l-.585-.611.409-.14.409-.14-.22-.395a6.18,6.18,0,0,0-.776-.971l-.556-.576.316-.1c.447-.135.342-.448-.4-1.177a5.675,5.675,0,0,1-.594-.639c0-.027.11-.054.242-.061.455-.024.105-.747-.643-1.328l-.455-.353.3-.092c.167-.05.307-.142.31-.2a1.359,1.359,0,0,0-.316-.663c-.045-.03-.318-.272-.606-.538-.444-.41-.494-.5-.329-.6.29-.174.1-.48-.872-1.4-.748-.712-.8-.8-.575-.881s.243-.113.1-.414A4.644,4.644,0,0,0,39,20.544c-.737-.643-.854-.829-.53-.846.357-.019.066-.521-.812-1.4-.479-.48-.87-.892-.869-.916s.081-.047.176-.052c.2-.01.243-.2.071-.3a.121.121,0,0,1-.049-.168c.036-.056-.331-.432-.815-.836a4.219,4.219,0,0,1-.976-1.038,7.585,7.585,0,0,0-.918-1.309c-1.083-1.325-2.948-4.212-2.368-3.665A19.788,19.788,0,0,1,34.59,13.03c.737,1.133.828,1.224.995.991.095-.133.143-.144.18-.042a9.928,9.928,0,0,0,1.151,2.011c.449.61.564.7.678.55.188-.249.252-.235.314.07a3.506,3.506,0,0,0,.491.864c.241.333.485.687.541.788.093.166.12.162.281-.042s.195-.189.437.327a5.1,5.1,0,0,0,.592.942c.338.4.386.391.652-.093.039-.072.091-.062.127.025.054.128,1.176,1.806,1.294,1.934.025.027.163-.069.306-.213l.26-.262.219.439a3.983,3.983,0,0,0,1.122,1.341c.055,0,.171-.176.258-.384l.159-.379.3.462a4.926,4.926,0,0,0,1.229,1.365c.056,0,.172-.193.258-.422.172-.46.324-.539.411-.214a8,8,0,0,0,1.8,1.672c.059,0,.179-.154.269-.334.162-.328.162-.328.343-.1a6.735,6.735,0,0,0,1.77,1.24c.083,0,.156-.1.162-.222.018-.352.144-.379.429-.092a4.159,4.159,0,0,0,1.5.787c.066,0,.124-.093.13-.2.009-.174.029-.177.2-.026a1.9,1.9,0,0,0,1.047.452,12.945,12.945,0,0,1,1.876.649c2.029.816,2.1.84,2.1.715a3.4,3.4,0,0,0-.746-.681,10.4,10.4,0,0,1-2.272-2.171c.029-.181-.75-.864-1.276-1.118-.38-.184-.381-.186-.125-.373s.249-.2.061-.366a4.214,4.214,0,0,0-.851-.451c-.6-.249-.635-.289-.437-.442.322-.249.118-.506-.714-.9-.86-.408-.908-.454-.645-.612.439-.263-.183-.76-1.406-1.123-.2-.059-.2-.08-.015-.284.163-.179.175-.255.066-.4a5.987,5.987,0,0,0-1.973-.916c-.173.007-.161-.028.08-.219.58-.461-.015-.99-1.4-1.24-.628-.114-.724-.212-.4-.407.4-.238.01-.559-1.09-.9-1.532-.476-1.52-.468-1.255-.761.209-.23.208-.249-.01-.469a2.791,2.791,0,0,0-1.291-.395c-.956-.149-1.349-.332-1.349-.628a4.524,4.524,0,0,0-1-.4,4.185,4.185,0,0,1-1.229-.584c-.323-.35-.776-.548-3.323-1.452-1.219-.432-2.5-.923-2.836-1.091-.567-.278-.586-.3-.218-.256.221.027.928.172,1.569.322,1.708.4,1.979.426,1.991.194.009-.171.037-.174.262-.034a7.208,7.208,0,0,0,1.978.357c.063.005.1-.112.092-.26-.022-.249,0-.26.237-.14a11.494,11.494,0,0,0,1.954.468c.048,0,.093-.113.1-.249.01-.187.061-.23.212-.179a4.017,4.017,0,0,0,1.47.176.2.2,0,0,0,.111-.252c-.049-.146-.011-.162.209-.088a5.214,5.214,0,0,0,.89.143l.621.053-.042-.3-.042-.3.792.033c.756.031.793.021.805-.218s.074-.254.755-.29c.635-.033.741-.068.736-.243,0-.112.06-.194.139-.182a2.607,2.607,0,0,0,.643-.115c.274-.075.682-.178.907-.23a.942.942,0,0,0,.512-.267.426.426,0,0,1,.309-.185A10.462,10.462,0,0,0,53.31,5.632a13.692,13.692,0,0,0-2.246.042c-2.043.118-2.33.112-2.52-.059a1.1,1.1,0,0,0-.778-.163.98.98,0,0,1-.815-.206c-.219-.206-.391-.229-1.362-.183-.942.045-1.1.025-1.071-.132.11-.514-.27-.568-1.459-.21-.7.211-.768.214-.937.043-.206-.208-.636-.137-1.333.221a3.4,3.4,0,0,1-1.229.259,27.27,27.27,0,0,0-6,1.947,5.355,5.355,0,0,1-1.978.587c-.812-.062-.933.306-.895-2.03a50.039,50.039,0,0,0-.442-7.217C29.7-1.927,29.811-.856,29.867-.348Zm.873,8.93c-.22.151-1.175.146-1.025-.005a.854.854,0,0,1,.471-.127c.194,0,.356-.064.359-.132s.074-.068.178.017C30.862,8.447,30.865,8.5,30.74,8.582Zm1.1,6.807a3.263,3.263,0,0,1,.2.893l.043.546-.3-.626a1.935,1.935,0,0,1-.237-.891C31.629,14.968,31.651,14.974,31.84,15.389Zm.707,3.34c.205-.118.221-.064.214.741,0,.478-.049.827-.1.776a4.56,4.56,0,0,1-.605-1.761c.093.032.166-.034.184-.165s.042-.048.057.16C32.321,18.805,32.355,18.839,32.547,18.728Z" transform="translate(0 0)" fill="#019201"/></g></g><path d="M-2.476,71.2A389.671,389.671,0,0,0-7.09,112.99c-1.23,22.678,1.269,35.3,1.269,35.3" transform="translate(35.14 305.128)" fill="none" stroke="#035e03" stroke-width="1"/><path d="M-2.476,71.2A389.671,389.671,0,0,0-7.09,112.99c-1.23,22.678,1.269,35.3,1.269,35.3" transform="translate(36.14 305.128)" fill="none" stroke="#019201" stroke-width="1"/><g transform="translate(-83.368 13.711)" fill="none" stroke="red" stroke-width="1"><rect width="260" height="440" stroke="none"/><rect x="0.5" y="0.5" width="259" height="439" fill="none"/></g></g></svg>