<svg xmlns="http://www.w3.org/2000/svg" xmlns:xlink="http://www.w3.org/1999/xlink" width="160" height="246.719" viewBox="0 0 160 246.719"><defs><linearGradient id="a" x1="0.519" y1="1" x2="0.515" gradientUnits="objectBoundingBox"><stop offset="0" stop-color="#c57010"/><stop offset="1" stop-color="#844a08"/></linearGradient></defs><g transform="translate(-465 -816.507)"><g transform="translate(465 937)"><path d="M0,0H152.943L121.974,115.847H32.258Z" transform="translate(3.503 10.379)" fill="url(#a)"/><rect width="160" height="26" rx="2" fill="#773b1c"/></g><g transform="translate(516.993 482.079)"><g transform="matrix(-0.966, 0.259, -0.259, -0.966, 49.135, 372.178)"><path d="M20.125.819c.367,2.2.5,5.214.257,5.214a2.16,2.16,0,0,1-.566-.288A18.163,18.163,0,0,0,17.56,4.551a.228.228,0,0,0-.164.119c-.056.1-.179.062-.787-.246-.63-.319-.742-.353-.9-.27s-.256.057-.756-.183c-.637-.305-.713-.32-.927-.187-.119.074-.208.055-.487-.107-.553-.321-.679-.339-.738-.1-.028.112-.073.191-.1.176a3.015,3.015,0,0,0-1.22-.413,6.523,6.523,0,0,1-2.053-.6,4.466,4.466,0,0,0-.841-.277c-.093.092.117.3.9.9.465.356.911.709.992.783a3.829,3.829,0,0,0,.34.269.457.457,0,0,1,.2.309c0,.135.107.228.456.4.286.143.419.248.359.285-.178.11,0,.293.433.456a2.666,2.666,0,0,0,.591.164c.175,0,.184.03.074.236-.069.13-.038.159.254.242a3.686,3.686,0,0,0,.778.1c.414.006.442.018.4.172s0,.169.53.217a2.952,2.952,0,0,0,.832-.026c.209-.062.253-.056.22.028-.064.166.345.208,1.586.16l1.133-.043-.78.276c-.739.262-2.415.781-3.143.974-.184.049-.321.113-.3.143.058.109-.226.29-.493.312-.15.013-.577.077-.948.143-.567.1-.684.147-.73.289a.828.828,0,0,0-.046.254,1.55,1.55,0,0,1-.667.227c-.721.151-1.005.33-.925.582.037.116-.006.156-.211.2-.715.143-1.063.282-1.19.476s-.125.211,0,.352.118.149.016.149a6.145,6.145,0,0,0-.68.127c-.42.095-.591.173-.682.312-.114.174-.11.195.063.339.1.084.158.159.126.166l-.117.023a5.09,5.09,0,0,0-1.434.644c-.18.192-.181.2-.036.306s.146.109,0,.16a4.064,4.064,0,0,0-.985.475c-.149.135-.191.414-.061.414.208,0,.031.136-.389.3a1.813,1.813,0,0,0-.631.389l-.163.208.163.109c.156.1.14.122-.363.416-.572.334-.662.426-.6.615.025.08-.036.157-.172.22-.331.151-.811.56-.788.671A5.759,5.759,0,0,1,.683,18.781c-.611.36-.771.485-.642.5a1.83,1.83,0,0,0,.579-.107c.478-.155,2.064-.782,2.258-.893a.333.333,0,0,1,.245-.033,1.5,1.5,0,0,0,.608-.215c.273-.142.522-.27.554-.285s.059.029.059.1.019.124.043.124a3.107,3.107,0,0,0,.84-.489c.29-.228.3-.23.341-.067.024.091.071.166.105.166a4.337,4.337,0,0,0,.957-.8c.021-.056.074,0,.124.121l.087.22.254-.179a6.3,6.3,0,0,0,.621-.544l.367-.365.088.266a.625.625,0,0,0,.129.266,7.873,7.873,0,0,0,1.167-1.1l.246-.3L9.8,15.4c.045.129.115.235.155.235a5.673,5.673,0,0,0,1.1-1.2c.061-.161.066-.16.163.048.055.118.142.215.2.215a4.581,4.581,0,0,0,1.053-1.115c0-.052.056,0,.12.12s.143.215.175.215a6.377,6.377,0,0,0,1.019-1.172l.159-.261.08.21c.044.115.112.21.151.21a6.782,6.782,0,0,0,1.028-1.353c0-.05.045-.014.1.08a.649.649,0,0,0,.146.2,8.32,8.32,0,0,0,1.136-1.453c.118-.227.119-.228.21-.058s.095.167.37-.123c.153-.161.42-.476.594-.7a11.939,11.939,0,0,1,1.735-1.661l.272-.193-.175.245a1.263,1.263,0,0,0-.175.3,3.472,3.472,0,0,1-.306.5,12.269,12.269,0,0,1-1.845,1.932,3.235,3.235,0,0,0-.652.751c-.091.23-.231.361-1.076,1.012a1.431,1.431,0,0,0-.49.653c0,.016.061.032.137.034.11,0,.1.03-.056.137a6.729,6.729,0,0,0-1.372,1.143c-.089.171-.085.207.028.27.072.04.114.088.092.105s-.284.2-.585.41c-.694.48-.991.819-.718.819a.32.32,0,0,1,.19.089c.067.067-.023.161-.355.376-.424.275-.951.792-.951.934,0,.037.088.089.2.116s.2.077.2.112a2.185,2.185,0,0,1-.476.408,2.473,2.473,0,0,0-.584.554c-.1.2-.1.211.125.26.3.065.294.126-.021.3a3.828,3.828,0,0,0-1.074.968c0,.052.091.142.2.2l.2.105-.322.213a3.72,3.72,0,0,0-.939.836c0,.036.134.106.3.155l.3.089-.687.677a3.684,3.684,0,0,0-.687.8c0,.082.095.144.273.177l.273.051-.494.484c-.615.6-.679.745-.362.808a.572.572,0,0,1,.233.075,5.925,5.925,0,0,1-.383.5c-.394.488-.53.773-.371.776a.491.491,0,0,1,.2.074c.1.061.091.094-.043.213a2.126,2.126,0,0,0-.579.831c0,.087.066.129.2.129h.2l-.206.245a2.462,2.462,0,0,0-.51.962.138.138,0,0,0,.151.12c.142,0,.137.032-.078.505-.235.518-.3.874-.143.777q.086-.053.036.105c-.028.087-.117.4-.2.693a14.134,14.134,0,0,1-.621,1.564c-.26.566-.473,1.055-.473,1.085,0,.155.393-.347,1.069-1.368a15.413,15.413,0,0,1,.928-1.3,2.59,2.59,0,0,0,.382-.606c.115-.242.242-.419.284-.394a.2.2,0,0,0,.2-.053,3.036,3.036,0,0,0,.531-1.044l.056-.232.139.184L9,28.684l.122-.174a3.083,3.083,0,0,0,.265-.634c.143-.458.229-.54.394-.374a.145.145,0,0,0,.162.04,2.132,2.132,0,0,0,.4-.893l.044-.258.185.173c.18.168.188.169.271.024a5.533,5.533,0,0,0,.482-1.294l.052-.311.173.162a.6.6,0,0,0,.259.162,3.29,3.29,0,0,0,.333-1.3V23.8l.2.189c.195.183.2.184.309.042a1.342,1.342,0,0,0,.157-.475c.073-.49.146-.574.343-.4.089.08.178.13.2.11a6.83,6.83,0,0,0,.468-1.374.712.712,0,0,1,.1-.332.8.8,0,0,1,.227.169c.1.093.2.147.229.121a4.252,4.252,0,0,0,.263-1.246c0-.311.077-.367.235-.176a.317.317,0,0,0,.16.117c.084,0,.217-.419.335-1.057.09-.487.106-.517.225-.4a.543.543,0,0,0,.164.128,7.193,7.193,0,0,0,.513-1.7l.047-.417.215.169c.16.126.223.143.247.066.018-.057.144-.446.279-.864a9.432,9.432,0,0,0,.3-1.119l.052-.358.211.166.211.166.077-.3c.188-.72.311-1.256.36-1.563.052-.329.135-.413.24-.244.07.113.208-.282.5-1.414a16.269,16.269,0,0,1,1.031-2.77l.153-.312-.036.624a6.03,6.03,0,0,1-.233,1.249c-.108.343-.251.888-.317,1.209-.1.509-.105.6-.008.67.07.053.085.112.039.158a13.047,13.047,0,0,0-.623,1.737c0,.036.084.05.187.03l.187-.036-.3.746a8.328,8.328,0,0,0-.352,1.022c-.048.258-.039.276.152.276a.448.448,0,0,1,.2.024c0,.013-.086.2-.19.419a6,6,0,0,0-.434,1.421c0,.047.109.086.242.086.2,0,.233.023.185.137-.191.453-.505,1.323-.547,1.513-.047.213-.037.223.232.223h.281l-.11.215a7.266,7.266,0,0,0-.44,1.4c0,.087.062.109.237.083.194-.029.227-.013.182.089a12.68,12.68,0,0,0-.459,1.4l-.055.262.332-.056c.3-.051.327-.044.269.089a5.528,5.528,0,0,0-.4,1.392l-.052.442.279-.052.279-.052-.188.456a2.544,2.544,0,0,0-.19.72c0,.253.007.261.24.215.206-.041.235-.028.192.084-.352.917-.35,1.166.008,1.13l.245-.025-.118.337a2.892,2.892,0,0,0-.129.727l-.011.39.3-.018c.259-.016.292,0,.242.117a4.96,4.96,0,0,0-.1.867l-.038.732.282-.053c.279-.052.281-.05.2.151a1.679,1.679,0,0,0-.006.966.168.168,0,0,0,.194.061c.106-.041.125.022.125.411,0,.525.051.712.182.661.065-.025.083.092.064.4-.026.414-.018.435.137.386s.164-.022.164.312a1.823,1.823,0,0,0,.109.61,5.5,5.5,0,0,1,.2,1.065c.1.948.3,2.352.37,2.692l.05.234.057-.2a8.313,8.313,0,0,0,.065-1.166,12.508,12.508,0,0,1,.259-2.823.935.935,0,0,0,.049-.487c-.025-.4-.014-.434.118-.392s.143,0,.117-.582-.019-.627.128-.613.156-.031.156-.453a2.678,2.678,0,0,0-.065-.647c-.06-.165-.048-.175.148-.125l.213.053-.041-.662a3.222,3.222,0,0,0-.134-.835c-.089-.167-.083-.171.186-.121l.278.052v-.3a4.2,4.2,0,0,0-.274-1.225c-.063-.148,0-.146.422.013.089.034.1-.051.067-.459a4.178,4.178,0,0,0-.162-.841l-.12-.341.271.044c.187.03.284.012.311-.06a5.162,5.162,0,0,0-.4-1.321c-.057-.13-.037-.14.182-.091.238.052.246.046.246-.213a4.012,4.012,0,0,0-.472-1.447c-.191-.324-.16-.372.166-.259l.248.086-.037-.389a3.11,3.11,0,0,0-.278-.875,2.545,2.545,0,0,1-.217-.51.54.54,0,0,1,.232.056c.445.169.343-.369-.329-1.741-.018-.037.077-.043.211-.013.235.052.243.044.242-.206a3.75,3.75,0,0,0-.272-.923c-.149-.365-.271-.672-.272-.683a.527.527,0,0,1,.2-.019c.186,0,.2-.019.149-.254a5.176,5.176,0,0,0-.318-.813c-.146-.308-.266-.577-.266-.6s.07-.019.156,0c.246.064.2-.319-.117-.981-.15-.313-.273-.585-.273-.6s.088-.012.2.015c.162.041.2.021.2-.116,0-.09.035-.165.078-.165s.078.176.078.39c0,.288.029.39.112.39a.206.206,0,0,0,.161-.078c.119-.193.265-.07.256.215a9.971,9.971,0,0,0,.147,1.6c.019.032.116,0,.214-.06l.179-.117.047.764c.052.86.105,1.062.26,1l.207-.084c.074-.03.126.175.2.8a6.292,6.292,0,0,0,.139.878c.022.022.138-.017.258-.086l.219-.125.052.634a7.092,7.092,0,0,0,.132.933l.08.3.258-.2.258-.2.05.424a4.977,4.977,0,0,0,.279,1.279c.059.094.1.091.271-.021l.2-.132v.294a2.9,2.9,0,0,0,.082.607c.144.551.139.543.3.4.218-.2.324-.154.324.132a3.305,3.305,0,0,0,.23,1.144.611.611,0,0,0,.2-.115c.225-.17.242-.153.257.251a2.671,2.671,0,0,0,.311,1.19.585.585,0,0,0,.212-.115c.218-.165.268-.147.269.1a1.869,1.869,0,0,0,.273.911c.108.141.123.142.261.017s.148-.119.193.207a3.136,3.136,0,0,0,.129.557c.08.211.088.214.277.09s.194-.121.194.063a1.95,1.95,0,0,0,.159.561c.121.282.181.349.25.28.134-.134.216-.111.216.062a1.343,1.343,0,0,0,.132.43c.1.207.167.265.273.231.09-.029.141-.006.141.064a2.947,2.947,0,0,0,.338.649,16.763,16.763,0,0,1,.989,1.7,3.039,3.039,0,0,0,.606.919,4.408,4.408,0,0,0-.366-1.251,11.516,11.516,0,0,1-.63-2.5c.125-.042.09-.347-.078-.676-.187-.366-.185-.351-.039-.351.2,0,.143-.207-.338-1.2-.019-.038.059-.046.172-.018.186.047.205.031.205-.176a2.863,2.863,0,0,0-.3-.821l-.3-.593h.22c.18,0,.22-.034.22-.187a4.055,4.055,0,0,0-.667-1.346c-.2-.261-.152-.339.205-.339.325,0,.149-.4-.447-1.014l-.416-.429L31.149,23l.271-.079-.162-.272a4.821,4.821,0,0,0-.557-.677l-.4-.405.21-.053c.3-.074.215-.288-.308-.8a4.449,4.449,0,0,1-.423-.449c0-.018.073-.032.161-.032.306,0,.045-.5-.48-.912l-.319-.252.2-.051c.111-.028.2-.084.2-.125a1.024,1.024,0,0,0-.237-.455c-.031-.021-.224-.193-.427-.381-.313-.29-.351-.353-.243-.414.189-.106.05-.318-.638-.971-.529-.5-.57-.562-.419-.61s.16-.067.053-.273a3.637,3.637,0,0,0-.624-.668c-.52-.456-.6-.585-.387-.585.24,0,.026-.346-.6-.966-.34-.338-.618-.628-.618-.644s.053-.029.117-.029c.133,0,.157-.122.038-.2a.086.086,0,0,1-.039-.114A2.362,2.362,0,0,0,24.951,12a3.3,3.3,0,0,1-.695-.729,5.876,5.876,0,0,0-.665-.909c-.777-.925-2.136-2.923-1.726-2.536a15.5,15.5,0,0,1,1.915,2.111c.537.784.6.848.706.7.059-.085.092-.091.12-.022A7.6,7.6,0,0,0,25.453,12c.325.424.4.49.477.392.118-.16.162-.148.214.058a2.678,2.678,0,0,0,.362.6c.174.231.351.477.393.546.069.114.087.112.188-.018s.125-.119.306.234a3.929,3.929,0,0,0,.432.652c.242.278.274.275.436-.039.024-.047.059-.038.086.021.041.087.857,1.25.94,1.34.018.019.107-.04.2-.132l.166-.166.163.3a3.111,3.111,0,0,0,.8.937c.037,0,.109-.112.16-.248l.094-.248.216.32a3.858,3.858,0,0,0,.876.957c.038,0,.109-.123.159-.273.1-.3.2-.349.269-.129a6.279,6.279,0,0,0,1.273,1.182c.039,0,.116-.1.169-.214.1-.214.1-.214.228-.054a5.254,5.254,0,0,0,1.237.892c.056,0,.1-.064.1-.143,0-.235.084-.249.286-.046a3.2,3.2,0,0,0,1.038.58c.044,0,.081-.058.081-.129,0-.116.014-.117.137-.01a1.436,1.436,0,0,0,.722.34,9.679,9.679,0,0,1,1.287.5c1.4.618,1.444.636,1.444.553a2.664,2.664,0,0,0-.527-.482,8.158,8.158,0,0,1-1.608-1.533c.013-.12-.536-.6-.9-.793-.263-.136-.264-.138-.1-.254s.161-.123.028-.243a3.248,3.248,0,0,0-.59-.332c-.41-.188-.438-.216-.31-.311.208-.155.062-.335-.513-.628-.594-.3-.628-.336-.457-.432.287-.16-.15-.515-.987-.8-.137-.047-.138-.06-.02-.191.1-.114.109-.164.03-.268a4.568,4.568,0,0,0-1.363-.682c-.117,0-.109-.024.046-.144.375-.288-.045-.663-.985-.879-.427-.1-.5-.168-.284-.286.26-.146-.013-.374-.767-.641-1.05-.373-1.041-.367-.873-.553.132-.146.132-.159-.023-.314a2.08,2.08,0,0,0-.884-.31c-.65-.133-.921-.27-.932-.468a3.432,3.432,0,0,0-.685-.3,3.2,3.2,0,0,1-.849-.434c-.23-.246-.542-.394-2.292-1.089-.837-.332-1.715-.706-1.951-.83-.392-.206-.406-.222-.156-.179.15.026.631.148,1.069.271,1.166.328,1.35.355,1.35.2,0-.114.019-.115.176-.014a5.211,5.211,0,0,0,1.346.308c.043.006.067-.071.053-.171-.023-.167-.011-.174.155-.085a8.41,8.41,0,0,0,1.334.382c.032,0,.059-.073.059-.163,0-.124.033-.152.136-.112a2.839,2.839,0,0,0,1,.17.123.123,0,0,0,.066-.165c-.038-.1-.013-.109.138-.052a3.743,3.743,0,0,0,.6.127l.42.057-.039-.2-.039-.2.535.05c.511.048.535.042.535-.117s.041-.167.5-.167c.427,0,.5-.02.488-.137-.006-.075.033-.128.087-.117a1.692,1.692,0,0,0,.429-.054c.182-.041.454-.1.6-.122a.561.561,0,0,0,.335-.16.253.253,0,0,1,.2-.113,6.282,6.282,0,0,0,2.153-.933A9.343,9.343,0,0,0,34.628,5.6c-1.373.007-1.567-.007-1.7-.128a.8.8,0,0,0-.531-.137.719.719,0,0,1-.556-.167c-.155-.146-.272-.167-.924-.17-.634,0-.744-.022-.727-.126.056-.34-.2-.39-.991-.192-.464.117-.51.116-.63,0-.146-.146-.433-.114-.891.1a2.174,2.174,0,0,1-.819.13A16.99,16.99,0,0,0,22.878,6a3.372,3.372,0,0,1-1.313.323c-.55-.07-.618.172-.675-1.39A34.119,34.119,0,0,0,20.338.083C19.956-.243,20.069.477,20.125.819Zm.9,6.007c-.143.093-.787.056-.691-.04a.536.536,0,0,1,.313-.069c.131,0,.238-.03.238-.076s.047-.043.121.018C21.105,6.741,21.109,6.774,21.028,6.827Zm.981,4.594a2.336,2.336,0,0,1,.167.6l.048.367L22,11.964a1.391,1.391,0,0,1-.191-.6C21.852,11.132,21.868,11.137,22.009,11.421Zm.594,2.26c.134-.072.147-.035.171.5.014.32,0,.552-.04.516a3.347,3.347,0,0,1-.47-1.2c.064.025.111-.017.118-.1s.027-.031.044.109C22.454,13.725,22.478,13.749,22.6,13.682Z" transform="translate(0 0)" fill="#035e03"/></g><g transform="translate(45.393 445.528) rotate(-133)"><path d="M28.462,1.159c.519,3.117.713,7.374.364,7.374a3.055,3.055,0,0,1-.8-.407,25.688,25.688,0,0,0-3.191-1.689A.322.322,0,0,0,24.6,6.6c-.079.142-.253.088-1.112-.348-.892-.452-1.05-.5-1.268-.382s-.362.08-1.07-.259c-.9-.431-1.008-.453-1.311-.264-.168.105-.294.077-.688-.151-.783-.455-.96-.479-1.044-.144-.04.158-.1.27-.142.249a4.264,4.264,0,0,0-1.725-.584,9.226,9.226,0,0,1-2.9-.844,6.317,6.317,0,0,0-1.189-.392c-.131.131.165.428,1.269,1.275.657.5,1.288,1,1.4,1.107a5.413,5.413,0,0,0,.48.38.646.646,0,0,1,.276.438c0,.191.151.322.644.569.4.2.592.351.508.4-.251.155-.005.414.613.645a3.77,3.77,0,0,0,.835.231c.247,0,.261.043.1.334-.1.183-.054.225.359.342a5.213,5.213,0,0,0,1.1.143c.585.009.625.026.571.244s0,.239.75.307a4.175,4.175,0,0,0,1.177-.037c.3-.088.357-.08.312.039-.09.235.488.294,2.243.227l1.6-.062-1.1.391c-1.045.37-3.415,1.1-4.445,1.378-.26.069-.454.16-.431.2.082.155-.32.409-.7.442-.212.018-.816.109-1.341.2-.8.143-.968.208-1.033.408a1.171,1.171,0,0,0-.065.359,2.192,2.192,0,0,1-.944.321c-1.019.214-1.422.467-1.309.823.052.164-.008.22-.3.278-1.012.2-1.5.4-1.683.673s-.176.3,0,.5c.163.18.166.211.022.211a8.692,8.692,0,0,0-.961.179c-.594.134-.835.245-.964.441-.161.246-.156.276.089.48.143.119.224.225.178.235l-.165.033a7.2,7.2,0,0,0-2.028.911c-.254.271-.256.283-.052.432s.207.155,0,.227a5.747,5.747,0,0,0-1.392.672c-.211.191-.27.586-.087.586.295,0,.044.192-.55.423a2.564,2.564,0,0,0-.892.55l-.231.294.231.153c.221.147.2.173-.514.589-.808.472-.937.6-.854.87.035.113-.051.223-.244.311-.468.213-1.147.792-1.115.949A8.145,8.145,0,0,1,.967,26.562c-.865.509-1.09.686-.908.713a2.588,2.588,0,0,0,.819-.151c.676-.219,2.92-1.106,3.194-1.263a.471.471,0,0,1,.347-.047,2.115,2.115,0,0,0,.86-.3c.386-.2.738-.382.784-.4s.083.041.083.137.027.175.061.175a4.395,4.395,0,0,0,1.187-.692c.411-.323.422-.325.482-.1.034.129.1.235.149.235a6.134,6.134,0,0,0,1.354-1.129c.03-.08.1-.006.176.171l.124.311.359-.253a8.907,8.907,0,0,0,.878-.77l.519-.516.124.376a.883.883,0,0,0,.183.376,11.134,11.134,0,0,0,1.651-1.558l.347-.431.116.332c.064.183.162.332.219.332a8.023,8.023,0,0,0,1.559-1.7c.087-.228.094-.226.23.068.077.167.2.3.276.3a6.478,6.478,0,0,0,1.489-1.577c0-.074.079,0,.169.169s.2.3.247.3a9.019,9.019,0,0,0,1.441-1.658l.225-.37.113.3c.062.163.158.3.214.3a9.592,9.592,0,0,0,1.454-1.914c0-.07.064-.019.138.113a.917.917,0,0,0,.207.276,11.766,11.766,0,0,0,1.607-2.054c.167-.322.169-.322.3-.082s.134.237.523-.173c.217-.228.595-.673.84-.99a16.885,16.885,0,0,1,2.453-2.35l.385-.273-.247.347a1.786,1.786,0,0,0-.247.418,4.911,4.911,0,0,1-.433.709,17.352,17.352,0,0,1-2.61,2.732,4.575,4.575,0,0,0-.922,1.063c-.129.325-.326.51-1.522,1.432a2.023,2.023,0,0,0-.693.924c0,.023.087.045.193.048.155,0,.139.043-.08.193a9.517,9.517,0,0,0-1.941,1.616c-.125.241-.12.293.04.382.1.057.161.124.131.149s-.4.285-.827.579c-.982.679-1.4,1.158-1.015,1.158a.452.452,0,0,1,.269.126c.094.094-.032.228-.5.532-.6.388-1.345,1.12-1.345,1.32,0,.052.124.126.276.164s.276.109.276.158a3.09,3.09,0,0,1-.673.577,3.5,3.5,0,0,0-.826.783c-.147.285-.141.3.177.368.421.092.415.179-.029.42a5.414,5.414,0,0,0-1.519,1.369c0,.074.129.2.285.283l.284.149-.455.3a5.26,5.26,0,0,0-1.327,1.182c0,.051.189.15.42.219l.419.126-.971.958a5.21,5.21,0,0,0-.971,1.136c0,.116.134.2.386.251l.386.072-.7.685c-.87.853-.96,1.054-.512,1.143a.808.808,0,0,1,.329.107,8.381,8.381,0,0,1-.541.713c-.557.691-.749,1.094-.524,1.1a.694.694,0,0,1,.29.1c.138.087.128.132-.061.3a3.007,3.007,0,0,0-.818,1.175c0,.123.093.183.286.183h.286l-.291.346a3.482,3.482,0,0,0-.722,1.36.2.2,0,0,0,.214.17c.2,0,.193.046-.11.715-.332.733-.425,1.236-.2,1.1q.122-.076.051.149c-.039.123-.165.564-.281.979a19.99,19.99,0,0,1-.879,2.212c-.368.8-.669,1.492-.669,1.535,0,.22.555-.491,1.511-1.934a21.8,21.8,0,0,1,1.312-1.842,3.663,3.663,0,0,0,.541-.856c.162-.343.343-.593.4-.557a.283.283,0,0,0,.276-.075,4.294,4.294,0,0,0,.752-1.476l.079-.328.2.26.2.26.172-.246a4.36,4.36,0,0,0,.375-.9c.2-.647.324-.763.557-.529a.205.205,0,0,0,.229.057,3.015,3.015,0,0,0,.568-1.263l.063-.365.262.245c.254.237.266.238.383.034a7.825,7.825,0,0,0,.682-1.83l.074-.439.244.229a.848.848,0,0,0,.366.229,4.652,4.652,0,0,0,.471-1.834v-.3l.285.267c.276.259.29.261.437.06a1.9,1.9,0,0,0,.222-.671c.1-.693.207-.812.485-.561.125.114.251.183.279.155a9.66,9.66,0,0,0,.661-1.943,1.007,1.007,0,0,1,.144-.469,1.128,1.128,0,0,1,.321.24c.14.132.286.209.324.171a6.013,6.013,0,0,0,.372-1.762c0-.439.108-.519.333-.248a.448.448,0,0,0,.226.165c.119,0,.307-.593.473-1.494.127-.689.15-.731.318-.563a.767.767,0,0,0,.232.181,10.172,10.172,0,0,0,.725-2.411l.067-.59.3.239c.227.179.316.2.35.093.025-.08.2-.63.4-1.222a13.341,13.341,0,0,0,.422-1.583l.074-.507.3.235.3.235.109-.418c.266-1.019.44-1.776.509-2.211.074-.465.191-.584.339-.345.1.159.294-.4.7-2a23.009,23.009,0,0,1,1.458-3.918l.216-.441-.051.883a8.529,8.529,0,0,1-.33,1.766c-.153.486-.355,1.255-.448,1.711-.148.719-.149.843-.011.947.1.075.12.159.055.224a18.452,18.452,0,0,0-.882,2.457c0,.051.119.07.265.043l.265-.051L27,21.376a11.778,11.778,0,0,0-.5,1.445c-.069.365-.055.39.215.39a.634.634,0,0,1,.288.035c0,.019-.121.285-.269.592a8.484,8.484,0,0,0-.614,2.01c0,.067.154.122.343.122.284,0,.329.033.262.193-.269.64-.714,1.871-.773,2.14-.066.3-.052.316.329.316h.4l-.156.3a10.276,10.276,0,0,0-.622,1.983c0,.123.088.153.336.117.275-.04.322-.018.258.125a17.934,17.934,0,0,0-.649,1.98l-.077.37.469-.079c.43-.073.462-.062.381.126a7.818,7.818,0,0,0-.565,1.969l-.074.625.394-.074.394-.074-.265.645a3.6,3.6,0,0,0-.268,1.018c0,.358.011.37.34.3.291-.058.332-.04.271.118-.5,1.3-.5,1.649.012,1.6l.347-.035-.167.476a4.089,4.089,0,0,0-.183,1.028l-.016.552.425-.026c.366-.022.413,0,.343.165a7.015,7.015,0,0,0-.135,1.227L27.417,44.1l.4-.075c.394-.074.4-.071.29.213A2.374,2.374,0,0,0,28.1,45.6a.237.237,0,0,0,.274.086c.15-.057.177.032.177.582,0,.742.073,1.006.257.935.091-.035.118.13.09.57-.036.586-.026.615.193.546s.232-.031.232.441a2.578,2.578,0,0,0,.154.863,7.784,7.784,0,0,1,.282,1.507c.148,1.34.421,3.327.524,3.807l.071.331.081-.276a11.755,11.755,0,0,0,.092-1.65,17.69,17.69,0,0,1,.366-3.992,1.322,1.322,0,0,0,.069-.689c-.035-.563-.02-.614.167-.555s.2,0,.165-.823-.027-.887.181-.867.221-.044.221-.641a3.787,3.787,0,0,0-.092-.915c-.084-.233-.068-.247.21-.177l.3.076-.058-.937a4.557,4.557,0,0,0-.189-1.181c-.126-.236-.117-.242.263-.171l.394.074v-.43a5.947,5.947,0,0,0-.387-1.732c-.089-.21,0-.207.6.018.126.048.144-.072.095-.65a5.909,5.909,0,0,0-.229-1.19l-.169-.482.384.062c.264.043.4.017.44-.085a7.3,7.3,0,0,0-.563-1.868c-.08-.183-.052-.2.258-.129.337.074.348.065.348-.3a5.674,5.674,0,0,0-.668-2.047c-.27-.458-.226-.526.235-.366l.351.122-.053-.55a4.4,4.4,0,0,0-.394-1.238,3.6,3.6,0,0,1-.307-.721.764.764,0,0,1,.329.079c.629.239.485-.522-.465-2.463-.025-.052.109-.06.3-.019.332.073.344.062.342-.292a5.3,5.3,0,0,0-.384-1.305c-.21-.516-.383-.95-.384-.966a.746.746,0,0,1,.283-.028c.263,0,.279-.028.21-.359a7.32,7.32,0,0,0-.45-1.15c-.207-.435-.376-.816-.376-.845s.1-.028.221,0c.348.091.283-.451-.166-1.387-.212-.443-.386-.828-.386-.854s.124-.017.276.021c.229.058.276.03.276-.163,0-.128.05-.233.11-.233s.11.248.11.552c0,.407.042.552.159.552a.292.292,0,0,0,.227-.11c.168-.272.374-.1.361.3a14.1,14.1,0,0,0,.207,2.261c.027.045.164.007.3-.084l.253-.166.066,1.08c.074,1.216.149,1.5.368,1.413l.293-.119c.1-.043.178.247.282,1.128a8.9,8.9,0,0,0,.2,1.242c.031.031.2-.024.365-.121l.309-.177.074.9a10.031,10.031,0,0,0,.187,1.319l.113.422.365-.279.365-.279.07.6a7.039,7.039,0,0,0,.394,1.809c.083.133.14.129.383-.03l.285-.187v.416a4.106,4.106,0,0,0,.116.858c.2.779.2.768.418.567.308-.279.458-.218.458.187a4.674,4.674,0,0,0,.325,1.619.864.864,0,0,0,.288-.162c.318-.24.342-.216.363.355a3.777,3.777,0,0,0,.44,1.683.827.827,0,0,0,.3-.162c.308-.233.38-.208.38.134a2.643,2.643,0,0,0,.386,1.288c.152.2.173.2.369.024s.21-.169.273.293a4.437,4.437,0,0,0,.183.787c.113.3.125.3.391.128s.274-.172.274.09a2.758,2.758,0,0,0,.225.793c.171.4.255.493.353.4.19-.19.305-.157.305.088a1.9,1.9,0,0,0,.186.608c.14.293.236.375.386.327.127-.04.2-.008.2.09a4.168,4.168,0,0,0,.478.918,23.707,23.707,0,0,1,1.4,2.41,4.3,4.3,0,0,0,.858,1.3,6.235,6.235,0,0,0-.518-1.769,16.287,16.287,0,0,1-.891-3.53c.177-.059.127-.49-.111-.956-.264-.518-.262-.5-.055-.5.284,0,.2-.293-.478-1.7-.026-.054.083-.066.243-.026.264.066.29.044.29-.249a4.048,4.048,0,0,0-.422-1.161l-.422-.839h.311c.255,0,.311-.048.311-.265a5.734,5.734,0,0,0-.944-1.9c-.282-.37-.215-.48.291-.48.459,0,.21-.566-.631-1.435l-.588-.607.383-.112.383-.112-.229-.385a6.819,6.819,0,0,0-.788-.958l-.559-.573.3-.074c.419-.105.3-.407-.436-1.134a6.291,6.291,0,0,1-.6-.635c0-.025.1-.046.228-.046.433,0,.063-.7-.679-1.289l-.451-.357.286-.072c.157-.039.286-.119.286-.177a1.449,1.449,0,0,0-.335-.643c-.044-.03-.316-.273-.6-.54-.443-.41-.5-.5-.343-.585.268-.15.071-.45-.9-1.373-.749-.711-.806-.795-.592-.862s.227-.095.076-.386a5.144,5.144,0,0,0-.882-.944c-.735-.645-.855-.827-.548-.827.339,0,.037-.49-.844-1.366-.481-.478-.874-.888-.874-.91s.074-.041.166-.041c.188,0,.222-.173.053-.277a.122.122,0,0,1-.055-.161,3.341,3.341,0,0,0-.819-.832,4.673,4.673,0,0,1-.983-1.031,8.311,8.311,0,0,0-.94-1.285c-1.1-1.308-3.021-4.134-2.44-3.587a21.915,21.915,0,0,1,2.708,2.985c.759,1.109.851,1.2,1,.988.084-.121.13-.129.17-.031A10.743,10.743,0,0,0,36,16.974c.459.6.572.693.674.555.167-.227.229-.21.3.082a3.787,3.787,0,0,0,.511.843c.246.327.5.674.556.773.1.161.122.159.266-.026s.176-.169.433.331a5.556,5.556,0,0,0,.611.921c.342.393.388.389.617-.055.034-.066.083-.054.122.03.057.124,1.212,1.768,1.33,1.9.025.027.152-.057.281-.186l.235-.235.231.426A4.4,4.4,0,0,0,43.3,23.653c.052,0,.154-.158.227-.351l.132-.351.306.452a5.456,5.456,0,0,0,1.24,1.353c.054,0,.155-.174.225-.386.141-.427.282-.494.381-.182a8.88,8.88,0,0,0,1.8,1.672c.056,0,.163-.136.239-.3.138-.3.139-.3.322-.076a7.43,7.43,0,0,0,1.749,1.262c.079,0,.143-.091.143-.2,0-.332.118-.352.4-.066a4.518,4.518,0,0,0,1.468.82c.063,0,.114-.082.114-.183,0-.165.019-.166.193-.014a2.031,2.031,0,0,0,1.021.48,13.689,13.689,0,0,1,1.821.708c1.975.874,2.042.9,2.042.782a3.768,3.768,0,0,0-.745-.682,11.537,11.537,0,0,1-2.274-2.169c.019-.17-.758-.855-1.273-1.122-.372-.193-.373-.2-.138-.36s.227-.174.04-.343a4.594,4.594,0,0,0-.834-.47c-.58-.266-.62-.305-.438-.44.295-.219.087-.473-.726-.888-.84-.429-.889-.475-.646-.611.405-.227-.213-.728-1.4-1.133-.193-.066-.2-.086-.028-.27.146-.161.154-.232.043-.379a6.461,6.461,0,0,0-1.927-.965c-.165,0-.155-.035.065-.2.53-.408-.064-.938-1.392-1.244-.6-.139-.7-.237-.4-.4.368-.206-.018-.529-1.084-.907-1.485-.527-1.473-.519-1.234-.783.187-.207.186-.225-.033-.444a2.942,2.942,0,0,0-1.25-.438c-.919-.188-1.3-.382-1.318-.662a4.854,4.854,0,0,0-.969-.429,4.533,4.533,0,0,1-1.2-.614c-.325-.347-.767-.557-3.241-1.54-1.184-.47-2.425-1-2.759-1.174-.555-.292-.574-.314-.221-.253.212.037.893.209,1.513.383,1.649.463,1.909.5,1.909.283,0-.161.026-.163.248-.019a7.37,7.37,0,0,0,1.9.436c.061.008.094-.1.074-.242-.033-.236-.016-.246.219-.12A11.893,11.893,0,0,0,39.5,11.4c.046,0,.083-.1.083-.231,0-.176.047-.215.193-.159a4.015,4.015,0,0,0,1.41.24.174.174,0,0,0,.093-.233c-.054-.141-.019-.154.195-.073a5.294,5.294,0,0,0,.856.18l.595.081-.055-.288-.055-.288.757.07c.722.067.757.06.757-.166s.058-.237.705-.237c.6,0,.7-.028.69-.193-.008-.106.047-.181.123-.165a2.393,2.393,0,0,0,.607-.077c.257-.058.642-.135.854-.172a.794.794,0,0,0,.474-.227.358.358,0,0,1,.285-.159,8.885,8.885,0,0,0,3.045-1.319,13.214,13.214,0,0,0-2.139-.072c-1.942.01-2.216-.01-2.406-.181a1.133,1.133,0,0,0-.75-.193,1.016,1.016,0,0,1-.787-.236c-.219-.206-.384-.236-1.307-.241-.9,0-1.052-.031-1.028-.178.079-.481-.286-.551-1.4-.271-.657.165-.721.165-.892-.006-.207-.207-.613-.161-1.26.143a3.074,3.074,0,0,1-1.159.184A24.029,24.029,0,0,0,32.355,8.48a4.77,4.77,0,0,1-1.857.457c-.777-.1-.874.243-.954-1.966A48.254,48.254,0,0,0,28.763.117C28.223-.344,28.383.675,28.462,1.159Zm1.277,8.5c-.2.132-1.113.08-.977-.056a.758.758,0,0,1,.443-.1c.185.005.336-.043.336-.107s.067-.061.171.025C29.849,9.534,29.854,9.581,29.74,9.655Zm1.388,6.5a3.3,3.3,0,0,1,.236.855l.069.519-.316-.607a1.967,1.967,0,0,1-.27-.855C30.9,15.744,30.927,15.751,31.127,16.153Zm.84,3.2c.19-.1.208-.049.241.712.02.452-.005.78-.056.729a4.733,4.733,0,0,1-.665-1.7c.09.035.157-.024.168-.147s.038-.043.062.154C31.757,19.411,31.79,19.444,31.968,19.349Z" transform="translate(0 0)" fill="#035e03"/></g><path d="M-2.971,71.2s-3.046,19.112-4.153,41.79,1.143,35.3,1.143,35.3" transform="translate(32.372 305.128)" fill="none" stroke="#035e03" stroke-width="1"/></g></g></svg>