<svg xmlns="http://www.w3.org/2000/svg" width="260" height="440" viewBox="0 0 260 440"><g transform="translate(68.332 200)"><path d="M9.613,71.2A599.418,599.418,0,0,0-4.893,162.047c-3.868,49.3-2.163,76.612-2.163,76.612" transform="translate(52.064 1.06)" fill="none" stroke="#035e03" stroke-width="1"/><path d="M9.613,71.2A599.418,599.418,0,0,0-4.893,162.047c-3.868,49.3-2.163,76.612-2.163,76.612" transform="translate(53.064 1.06)" fill="none" stroke="#019201" stroke-width="1"/><g transform="matrix(-0.966, 0.259, -0.259, -0.966, 81.273, 149.812)"><path d="M33.808,1.377c.616,3.7.847,8.759.432,8.759a3.629,3.629,0,0,1-.95-.484A30.512,30.512,0,0,0,29.5,7.645a.383.383,0,0,0-.276.2c-.094.168-.3.1-1.321-.413-1.059-.536-1.247-.593-1.507-.454s-.43.1-1.27-.308c-1.069-.512-1.2-.538-1.557-.314-.2.125-.349.092-.818-.18-.93-.54-1.14-.569-1.24-.171-.047.188-.123.321-.168.3a5.065,5.065,0,0,0-2.049-.694,10.958,10.958,0,0,1-3.45-1,7.5,7.5,0,0,0-1.412-.466c-.155.155.2.508,1.508,1.514.781.6,1.53,1.191,1.666,1.315a6.431,6.431,0,0,0,.57.451.767.767,0,0,1,.328.52c0,.227.179.383.765.676.48.24.7.417.6.478-.3.184-.006.492.728.767a4.478,4.478,0,0,0,.992.275c.294,0,.31.051.125.4-.116.218-.064.267.426.406a6.191,6.191,0,0,0,1.307.169c.695.01.743.031.678.29s0,.284.891.365a4.959,4.959,0,0,0,1.4-.043c.351-.1.424-.095.37.047-.107.28.58.349,2.664.269l1.9-.073-1.311.464c-1.241.44-4.057,1.312-5.28,1.637-.309.082-.539.19-.512.241.1.184-.38.486-.828.525-.252.022-.969.13-1.593.241-.953.169-1.149.247-1.227.485a1.391,1.391,0,0,0-.077.427,2.6,2.6,0,0,1-1.121.382c-1.21.254-1.689.555-1.554.978.062.195-.009.261-.354.33-1.2.24-1.785.473-2,.8s-.209.354,0,.591c.194.214.2.251.026.251a10.325,10.325,0,0,0-1.142.213c-.705.159-.992.291-1.145.524-.191.292-.185.328.106.57.17.142.266.267.212.279l-.2.039a8.551,8.551,0,0,0-2.409,1.082c-.3.322-.3.336-.061.513s.245.184,0,.269a6.827,6.827,0,0,0-1.654.8c-.251.227-.32.7-.1.7.35,0,.053.228-.654.5a3.045,3.045,0,0,0-1.059.653l-.275.349.275.182c.262.174.235.205-.61.7-.96.561-1.113.716-1.014,1.033.042.134-.06.264-.29.369-.556.253-1.363.94-1.324,1.127.052.248-1.465,1.419-3.035,2.343-1.027.6-1.295.815-1.078.847a3.074,3.074,0,0,0,.973-.18c.8-.26,3.468-1.314,3.793-1.5a.559.559,0,0,1,.412-.056A2.512,2.512,0,0,0,6.27,30.3c.458-.239.877-.454.931-.479s.1.049.1.163.032.208.072.208a5.22,5.22,0,0,0,1.41-.822c.488-.384.5-.386.572-.113.04.154.12.279.177.279A7.286,7.286,0,0,0,11.139,28.2c.035-.095.125-.008.209.2l.147.369.426-.3a10.58,10.58,0,0,0,1.042-.914l.617-.613.147.447a1.049,1.049,0,0,0,.217.446,13.225,13.225,0,0,0,1.961-1.85l.413-.512.138.395c.076.217.193.395.26.395a9.53,9.53,0,0,0,1.852-2.014c.1-.271.111-.268.273.081.092.2.239.36.328.36a7.7,7.7,0,0,0,1.769-1.873c0-.088.093,0,.2.2s.24.361.293.361a10.713,10.713,0,0,0,1.712-1.97l.267-.439.134.352c.074.194.188.352.254.352A11.393,11.393,0,0,0,25.525,19.4c0-.083.076-.023.164.135a1.089,1.089,0,0,0,.246.328,13.976,13.976,0,0,0,1.908-2.44c.2-.382.2-.383.353-.1s.159.281.622-.206c.257-.271.706-.8,1-1.176a20.056,20.056,0,0,1,2.914-2.791l.457-.324-.293.412a2.121,2.121,0,0,0-.293.5,5.833,5.833,0,0,1-.514.843,20.611,20.611,0,0,1-3.1,3.245,5.434,5.434,0,0,0-1.1,1.262c-.154.386-.387.606-1.808,1.7a2.4,2.4,0,0,0-.823,1.1c0,.028.1.054.229.057.184.006.165.051-.094.229a11.3,11.3,0,0,0-2.305,1.92c-.149.287-.142.348.048.454.121.068.191.147.155.177s-.477.339-.982.688c-1.167.807-1.665,1.375-1.206,1.375a.537.537,0,0,1,.32.149c.112.112-.038.271-.6.632-.712.461-1.6,1.33-1.6,1.568,0,.062.147.149.328.195s.328.13.328.188a3.67,3.67,0,0,1-.8.685,4.154,4.154,0,0,0-.981.93c-.175.338-.167.354.21.437.5.11.493.212-.034.5a6.43,6.43,0,0,0-1.8,1.626c0,.088.153.239.339.337l.338.177-.541.358a6.248,6.248,0,0,0-1.577,1.4c0,.061.224.178.5.26l.5.149-1.154,1.137a6.188,6.188,0,0,0-1.154,1.349c0,.138.159.241.458.3l.458.086-.829.813c-1.033,1.013-1.14,1.252-.609,1.358a.961.961,0,0,1,.391.127,9.954,9.954,0,0,1-.643.846c-.661.82-.89,1.3-.623,1.3a.824.824,0,0,1,.344.124c.163.1.152.157-.072.358a3.572,3.572,0,0,0-.972,1.4c0,.146.111.217.339.217H12.3l-.346.411a4.136,4.136,0,0,0-.857,1.616.231.231,0,0,0,.254.2c.238,0,.229.054-.131.849-.395.87-.5,1.469-.24,1.305q.145-.09.061.177c-.047.147-.2.67-.333,1.163a23.743,23.743,0,0,1-1.044,2.627c-.437.952-.795,1.772-.795,1.823,0,.261.659-.583,1.8-2.3a25.893,25.893,0,0,1,1.558-2.188,4.351,4.351,0,0,0,.643-1.017c.193-.407.407-.7.477-.662a.336.336,0,0,0,.328-.089,5.1,5.1,0,0,0,.893-1.753l.094-.39.233.309.233.309.2-.292a5.178,5.178,0,0,0,.445-1.065c.24-.769.384-.906.662-.629a.244.244,0,0,0,.272.068,3.581,3.581,0,0,0,.674-1.5l.074-.434.311.29c.3.282.315.283.455.041a9.3,9.3,0,0,0,.81-2.174l.088-.522.29.273a1.007,1.007,0,0,0,.435.273,5.526,5.526,0,0,0,.559-2.179v-.357l.338.318c.327.308.344.31.519.071a2.254,2.254,0,0,0,.263-.8c.123-.823.246-.965.576-.666.149.135.3.218.332.184a11.474,11.474,0,0,0,.786-2.308,1.2,1.2,0,0,1,.171-.557,1.34,1.34,0,0,1,.381.285c.167.157.34.248.385.2a7.142,7.142,0,0,0,.441-2.093c0-.522.129-.616.4-.295a.532.532,0,0,0,.268.2c.141,0,.365-.7.562-1.775.151-.819.179-.868.378-.668a.912.912,0,0,0,.276.215,12.083,12.083,0,0,0,.862-2.864l.079-.7.361.284c.269.212.375.24.416.111.03-.1.241-.749.469-1.452a15.846,15.846,0,0,0,.5-1.88l.087-.6.354.279.354.279.129-.5c.316-1.21.523-2.11.6-2.626.087-.552.227-.694.4-.41.117.189.35-.474.834-2.376a27.331,27.331,0,0,1,1.732-4.654l.256-.524-.061,1.049a10.13,10.13,0,0,1-.391,2.1c-.182.577-.422,1.491-.533,2.032-.175.854-.177,1-.013,1.125.118.089.143.188.065.266a21.917,21.917,0,0,0-1.047,2.919c0,.061.142.084.315.051l.315-.06-.5,1.254a13.991,13.991,0,0,0-.591,1.717c-.081.434-.065.463.255.463a.753.753,0,0,1,.342.041c0,.023-.144.339-.32.7a10.078,10.078,0,0,0-.729,2.388c0,.08.183.145.407.145.337,0,.391.039.311.229-.32.76-.849,2.223-.919,2.542-.079.358-.062.375.39.375h.473l-.185.36a12.206,12.206,0,0,0-.739,2.355c0,.146.1.182.4.139.327-.048.382-.021.306.149a21.3,21.3,0,0,0-.771,2.352l-.092.44.557-.094c.511-.086.549-.074.452.15a9.286,9.286,0,0,0-.672,2.339l-.087.743.469-.088.468-.088-.315.767a4.274,4.274,0,0,0-.318,1.209c0,.425.013.439.4.361.345-.069.394-.048.322.14-.591,1.541-.588,1.959.014,1.9l.412-.041-.2.566a4.858,4.858,0,0,0-.217,1.221l-.019.655.5-.03c.434-.026.491,0,.407.2a8.332,8.332,0,0,0-.161,1.457l-.063,1.23.474-.089c.468-.088.472-.084.344.253a2.82,2.82,0,0,0-.01,1.622.281.281,0,0,0,.326.1c.178-.068.21.037.21.691,0,.881.086,1.2.306,1.111.109-.042.14.155.107.677-.043.7-.031.731.229.648s.275-.037.275.524a3.063,3.063,0,0,0,.183,1.025,9.246,9.246,0,0,1,.335,1.789c.175,1.592.5,3.951.622,4.523l.084.393.1-.328a13.965,13.965,0,0,0,.109-1.959,21.012,21.012,0,0,1,.435-4.742,1.57,1.57,0,0,0,.082-.818c-.042-.669-.024-.729.2-.659s.241,0,.2-.977-.032-1.053.215-1.029.263-.053.263-.761a4.5,4.5,0,0,0-.109-1.087c-.1-.277-.081-.293.249-.21l.358.09-.069-1.112a5.412,5.412,0,0,0-.225-1.4c-.15-.281-.139-.288.312-.2l.467.088v-.51a7.064,7.064,0,0,0-.46-2.057c-.106-.249,0-.246.709.022.15.056.171-.086.113-.772a7.019,7.019,0,0,0-.272-1.413l-.2-.573.456.074c.314.051.477.02.523-.1a8.671,8.671,0,0,0-.669-2.218c-.1-.218-.062-.234.306-.153.4.088.413.077.413-.358a6.74,6.74,0,0,0-.793-2.431c-.321-.544-.269-.625.279-.435l.417.145-.063-.654a5.224,5.224,0,0,0-.468-1.47,4.275,4.275,0,0,1-.365-.857.907.907,0,0,1,.39.094c.747.284.576-.62-.553-2.925-.03-.062.129-.072.354-.022.394.087.409.074.407-.347a6.3,6.3,0,0,0-.457-1.551c-.25-.613-.455-1.129-.457-1.147a.886.886,0,0,1,.336-.033c.312,0,.331-.033.25-.426a8.7,8.7,0,0,0-.535-1.366c-.245-.517-.446-.969-.446-1s.118-.033.262,0c.413.108.336-.536-.2-1.648-.252-.527-.459-.983-.459-1.015s.147-.02.328.025c.272.068.328.035.328-.194,0-.152.059-.276.131-.276s.131.295.131.655c0,.483.05.655.189.655a.347.347,0,0,0,.27-.131c.2-.324.444-.118.429.36a16.751,16.751,0,0,0,.246,2.686c.032.053.194.008.36-.1l.3-.2.078,1.283c.088,1.444.177,1.784.437,1.678l.348-.142c.125-.051.211.294.335,1.34a10.571,10.571,0,0,0,.234,1.475c.037.037.232-.028.434-.144l.367-.211.088,1.065a11.914,11.914,0,0,0,.222,1.567l.134.5.434-.331.434-.331.084.712a8.361,8.361,0,0,0,.468,2.148c.1.158.166.153.455-.036l.339-.222v.495a4.877,4.877,0,0,0,.138,1.019c.243.925.233.912.5.673.366-.332.544-.259.544.222a5.552,5.552,0,0,0,.386,1.923,1.026,1.026,0,0,0,.342-.193c.378-.285.407-.257.431.422a4.487,4.487,0,0,0,.523,2,.983.983,0,0,0,.357-.192c.366-.277.451-.247.452.16a3.139,3.139,0,0,0,.459,1.53c.181.237.206.239.438.029s.249-.2.324.347a5.27,5.27,0,0,0,.217.935c.135.354.148.359.465.152s.326-.2.326.106a3.276,3.276,0,0,0,.267.942c.2.474.3.586.42.47.226-.226.362-.186.362.1a2.256,2.256,0,0,0,.221.722c.166.348.281.445.459.389.151-.048.237-.009.237.107a4.951,4.951,0,0,0,.568,1.09,28.159,28.159,0,0,1,1.661,2.862,5.106,5.106,0,0,0,1.019,1.544,7.405,7.405,0,0,0-.615-2.1,19.345,19.345,0,0,1-1.059-4.193c.21-.07.151-.582-.132-1.136-.314-.615-.311-.59-.065-.59.338,0,.24-.348-.568-2.018-.031-.064.1-.078.288-.03.313.079.345.052.345-.3a4.809,4.809,0,0,0-.5-1.379l-.5-1h.37c.3,0,.37-.057.37-.314a6.812,6.812,0,0,0-1.121-2.262c-.334-.439-.255-.57.345-.57.546,0,.25-.672-.75-1.7l-.7-.721.454-.133.454-.133-.272-.457a8.1,8.1,0,0,0-.936-1.137l-.664-.681.352-.088c.5-.125.36-.483-.518-1.347a7.475,7.475,0,0,1-.711-.754c0-.03.122-.055.271-.055.514,0,.075-.833-.807-1.532l-.536-.424.339-.085c.187-.047.339-.142.339-.211a1.721,1.721,0,0,0-.4-.764c-.053-.036-.376-.324-.718-.641-.527-.487-.589-.594-.408-.7.318-.178.084-.534-1.071-1.631-.889-.844-.958-.944-.7-1.024s.269-.113.09-.459a6.11,6.11,0,0,0-1.048-1.122c-.873-.767-1.016-.982-.651-.982.4,0,.044-.582-1-1.623-.571-.568-1.038-1.055-1.038-1.081s.088-.048.2-.048c.224,0,.263-.206.063-.329a.145.145,0,0,1-.065-.192,3.968,3.968,0,0,0-.973-.988,5.551,5.551,0,0,1-1.167-1.225,9.871,9.871,0,0,0-1.117-1.527c-1.3-1.554-3.588-4.91-2.9-4.26A26.031,26.031,0,0,1,39.949,16.7c.9,1.317,1.011,1.425,1.186,1.173.1-.144.154-.154.2-.037a12.762,12.762,0,0,0,1.422,2.329c.545.713.68.824.8.659.2-.269.272-.249.36.1a4.5,4.5,0,0,0,.607,1c.293.388.59.8.66.918.116.192.145.189.316-.031s.21-.2.514.393a6.6,6.6,0,0,0,.726,1.094c.406.467.46.462.733-.066.04-.078.1-.064.145.036.068.147,1.439,2.1,1.58,2.251.03.032.18-.068.334-.221l.279-.279.274.506a5.226,5.226,0,0,0,1.35,1.574c.062,0,.183-.188.269-.417l.157-.417.363.537A6.48,6.48,0,0,0,53.7,29.406c.064,0,.184-.206.267-.459.167-.507.335-.587.453-.216a10.548,10.548,0,0,0,2.138,1.986c.066,0,.194-.162.284-.36.164-.359.165-.359.383-.09a8.826,8.826,0,0,0,2.078,1.5c.094,0,.17-.108.17-.24,0-.395.14-.418.48-.078a5.367,5.367,0,0,0,1.744.974c.074,0,.135-.1.135-.217,0-.2.023-.2.229-.017a2.412,2.412,0,0,0,1.213.57,16.26,16.26,0,0,1,2.163.841c2.346,1.038,2.425,1.068,2.425.928a4.476,4.476,0,0,0-.885-.81,13.7,13.7,0,0,1-2.7-2.576c.023-.2-.9-1.016-1.512-1.332-.442-.229-.443-.232-.164-.427s.27-.206.048-.408a5.456,5.456,0,0,0-.991-.558c-.689-.316-.736-.363-.521-.523.35-.26.1-.562-.862-1.055-1-.51-1.056-.564-.767-.726.482-.269-.252-.865-1.658-1.346-.229-.078-.232-.1-.034-.32.174-.192.183-.276.051-.45a7.674,7.674,0,0,0-2.289-1.146c-.2,0-.184-.041.077-.242.63-.484-.076-1.114-1.654-1.477-.718-.165-.833-.282-.477-.481.437-.245-.022-.628-1.288-1.078-1.764-.626-1.749-.617-1.466-.93.223-.246.221-.267-.039-.528a3.5,3.5,0,0,0-1.485-.52c-1.091-.224-1.548-.453-1.565-.786a5.766,5.766,0,0,0-1.151-.51,5.384,5.384,0,0,1-1.427-.729c-.386-.413-.911-.662-3.85-1.829-1.406-.558-2.881-1.186-3.277-1.395-.659-.347-.681-.372-.262-.3.252.043,1.061.248,1.8.455,1.959.55,2.267.6,2.267.336,0-.191.031-.194.295-.023a8.754,8.754,0,0,0,2.261.518c.072.01.112-.12.088-.287-.039-.281-.019-.292.26-.143a14.128,14.128,0,0,0,2.241.642c.054,0,.1-.122.1-.274,0-.209.056-.255.229-.188a4.769,4.769,0,0,0,1.675.285.207.207,0,0,0,.111-.277c-.064-.167-.022-.183.232-.087a6.288,6.288,0,0,0,1.016.214l.706.1-.065-.342-.065-.342.9.083c.858.08.9.071.9-.2s.069-.281.838-.281c.717,0,.835-.033.819-.229-.01-.126.056-.214.147-.2a2.843,2.843,0,0,0,.721-.091c.306-.068.762-.16,1.014-.2a.943.943,0,0,0,.564-.269.425.425,0,0,1,.339-.189,10.553,10.553,0,0,0,3.617-1.567A15.7,15.7,0,0,0,58.172,9.4c-2.307.012-2.632-.012-2.858-.216a1.346,1.346,0,0,0-.891-.229,1.207,1.207,0,0,1-.935-.28c-.26-.245-.456-.281-1.553-.286-1.065-.005-1.25-.037-1.221-.212.094-.571-.34-.655-1.665-.322-.78.2-.857.2-1.059-.007-.246-.246-.728-.191-1.5.17a3.652,3.652,0,0,1-1.376.219,28.541,28.541,0,0,0-6.685,1.834,5.665,5.665,0,0,1-2.206.543c-.923-.118-1.038.289-1.133-2.335A57.317,57.317,0,0,0,34.165.139C33.523-.409,33.714.8,33.808,1.377Zm1.517,10.092c-.241.156-1.322.095-1.161-.066a.9.9,0,0,1,.526-.115c.22.006.4-.051.4-.127s.08-.073.2.03C35.455,11.324,35.461,11.38,35.325,11.468Zm1.648,7.718a3.924,3.924,0,0,1,.28,1.016l.081.617L36.96,20.1a2.337,2.337,0,0,1-.321-1.016C36.709,18.7,36.735,18.709,36.974,19.187Zm1,3.8c.226-.121.247-.059.287.846.024.537-.006.927-.066.866a5.622,5.622,0,0,1-.79-2.016c.107.041.186-.028.2-.175s.045-.052.074.183C37.721,23.057,37.761,23.1,37.972,22.984Z" transform="translate(0 0)" fill="#035e03"/></g><g transform="translate(75.216 227.874) rotate(-133)"><path d="M43.375,1.766C44.166,6.516,44.462,13,43.93,13a4.656,4.656,0,0,1-1.219-.621,39.148,39.148,0,0,0-4.863-2.575.491.491,0,0,0-.354.256c-.121.216-.385.133-1.7-.53-1.359-.688-1.6-.761-1.933-.582s-.552.122-1.63-.395c-1.372-.657-1.536-.691-2-.4-.257.16-.448.118-1.049-.231C28,7.231,27.726,7.194,27.6,7.7c-.06.241-.158.411-.216.379a6.5,6.5,0,0,0-2.629-.89,14.06,14.06,0,0,1-4.426-1.286,9.626,9.626,0,0,0-1.812-.6c-.2.2.251.652,1.934,1.942,1,.768,1.963,1.528,2.137,1.688a8.248,8.248,0,0,0,.732.579.984.984,0,0,1,.42.667c0,.291.23.491.982.867.616.308.9.535.774.614-.383.237-.008.631.934.984A5.745,5.745,0,0,0,27.7,13c.377,0,.4.065.16.509-.149.279-.083.343.547.521a7.944,7.944,0,0,0,1.676.217c.891.013.953.04.87.372s-.006.365,1.143.468a6.363,6.363,0,0,0,1.794-.056c.45-.133.544-.121.475.06-.138.359.744.448,3.418.345l2.441-.094-1.682.6c-1.592.564-5.2,1.684-6.774,2.1-.4.105-.692.244-.657.309.125.236-.488.624-1.062.673-.323.028-1.243.167-2.044.309-1.223.217-1.475.317-1.574.622a1.785,1.785,0,0,0-.1.548,3.341,3.341,0,0,1-1.438.49c-1.553.326-2.167.712-1.994,1.255.079.25-.012.335-.454.424-1.542.308-2.291.607-2.565,1.025s-.269.454.006.758c.249.275.254.322.034.322a13.245,13.245,0,0,0-1.465.273c-.9.2-1.273.373-1.469.672-.246.375-.237.42.136.731.219.182.341.343.271.358s-.183.037-.252.05a10.971,10.971,0,0,0-3.091,1.388c-.388.413-.39.431-.078.659s.315.236,0,.346a8.758,8.758,0,0,0-2.122,1.023c-.322.291-.411.893-.132.893.449,0,.068.293-.839.644a3.907,3.907,0,0,0-1.359.838l-.352.448.352.234c.337.223.3.263-.783.9-1.232.72-1.428.919-1.3,1.325.054.172-.078.339-.371.473-.714.325-1.749,1.206-1.7,1.446.067.318-1.879,1.82-3.894,3.006C.155,41.255-.188,41.525.089,41.566a3.944,3.944,0,0,0,1.248-.231C2.368,41,5.787,39.649,6.2,39.411a.718.718,0,0,1,.529-.072,3.223,3.223,0,0,0,1.31-.464c.588-.306,1.125-.582,1.195-.614s.126.063.126.209.042.266.092.266a6.7,6.7,0,0,0,1.81-1.054c.626-.492.643-.5.734-.145.052.2.154.358.227.358a9.348,9.348,0,0,0,2.063-1.721c.045-.122.16-.01.268.261l.188.474.546-.386a13.574,13.574,0,0,0,1.337-1.173l.791-.787.189.573a1.346,1.346,0,0,0,.279.573,16.968,16.968,0,0,0,2.516-2.374l.53-.657.177.507c.1.279.248.507.334.507a12.227,12.227,0,0,0,2.376-2.585c.132-.348.143-.344.351.1.118.254.307.462.42.462a9.872,9.872,0,0,0,2.27-2.4c0-.112.12,0,.258.258s.307.463.376.463a13.745,13.745,0,0,0,2.2-2.527l.343-.563.172.452c.095.249.241.452.326.452a14.617,14.617,0,0,0,2.215-2.917c0-.107.1-.029.21.173a1.4,1.4,0,0,0,.315.421,17.932,17.932,0,0,0,2.448-3.131c.254-.49.257-.491.453-.125s.2.361.8-.264c.33-.348.906-1.026,1.279-1.508a25.732,25.732,0,0,1,3.738-3.581l.586-.416-.376.528a2.722,2.722,0,0,0-.376.638,7.485,7.485,0,0,1-.66,1.081,26.444,26.444,0,0,1-3.977,4.163,6.972,6.972,0,0,0-1.405,1.619c-.2.5-.5.778-2.32,2.182a3.083,3.083,0,0,0-1.056,1.408c0,.036.132.069.294.074.236.007.212.065-.121.294a14.5,14.5,0,0,0-2.958,2.463c-.191.368-.183.446.061.582.155.087.245.189.2.227s-.612.435-1.26.883c-1.5,1.035-2.136,1.765-1.547,1.765a.689.689,0,0,1,.41.192c.143.143-.049.348-.765.811-.914.592-2.05,1.707-2.05,2.012,0,.079.189.192.42.25s.421.167.421.241a4.709,4.709,0,0,1-1.026.879,5.33,5.33,0,0,0-1.259,1.194c-.224.434-.214.454.269.56.642.141.633.273-.044.641a8.25,8.25,0,0,0-2.315,2.086c0,.113.2.307.435.432l.433.227-.693.459a8.017,8.017,0,0,0-2.023,1.8c0,.078.288.228.639.333l.639.192-1.48,1.459a7.939,7.939,0,0,0-1.48,1.731c0,.177.2.31.588.382l.588.11L17.717,51.4c-1.326,1.3-1.463,1.606-.781,1.742a1.232,1.232,0,0,1,.5.162,12.771,12.771,0,0,1-.825,1.086c-.848,1.053-1.142,1.667-.8,1.672a1.057,1.057,0,0,1,.441.159c.21.132.2.2-.093.46a4.583,4.583,0,0,0-1.247,1.791c0,.187.142.278.435.278h.435l-.443.527a5.306,5.306,0,0,0-1.1,2.073.3.3,0,0,0,.326.259c.305,0,.294.07-.168,1.089-.506,1.116-.647,1.884-.308,1.674q.186-.115.078.227c-.06.188-.252.86-.428,1.493A30.465,30.465,0,0,1,12.4,69.464c-.561,1.221-1.02,2.273-1.02,2.339,0,.335.846-.748,2.3-2.948a33.224,33.224,0,0,1,2-2.808,5.582,5.582,0,0,0,.824-1.305c.247-.522.522-.9.612-.849a.432.432,0,0,0,.421-.114,6.543,6.543,0,0,0,1.145-2.249l.121-.5.3.4.3.4.263-.375a6.644,6.644,0,0,0,.571-1.366c.307-.987.493-1.163.849-.807a.313.313,0,0,0,.35.087,4.594,4.594,0,0,0,.865-1.924l.1-.557.4.373c.388.362.4.363.584.052a11.926,11.926,0,0,0,1.04-2.789l.113-.669.372.35a1.292,1.292,0,0,0,.558.35,7.09,7.09,0,0,0,.717-2.8v-.459l.434.408c.42.395.441.4.666.091a2.892,2.892,0,0,0,.338-1.023c.158-1.056.316-1.238.739-.854.191.173.383.279.426.237a14.721,14.721,0,0,0,1.008-2.961,1.535,1.535,0,0,1,.219-.715,1.719,1.719,0,0,1,.489.365c.214.2.436.318.494.26a9.164,9.164,0,0,0,.566-2.685c0-.67.165-.791.507-.378a.682.682,0,0,0,.344.252c.182,0,.468-.9.721-2.277.194-1.05.229-1.113.485-.858a1.17,1.17,0,0,0,.354.276,15.5,15.5,0,0,0,1.105-3.674l.1-.9.463.365c.345.272.481.308.533.142.039-.122.31-.961.6-1.863a20.332,20.332,0,0,0,.644-2.412l.112-.772.454.358.454.358.166-.637c.405-1.553.671-2.707.776-3.37.112-.708.291-.891.517-.526.15.243.449-.609,1.069-3.048a35.064,35.064,0,0,1,2.222-5.971l.329-.673-.078,1.345a13,13,0,0,1-.5,2.691c-.233.74-.541,1.913-.683,2.607-.225,1.1-.227,1.285-.017,1.444.152.114.183.242.084.341a28.121,28.121,0,0,0-1.343,3.745c0,.078.182.107.4.065l.4-.077-.647,1.609a17.95,17.95,0,0,0-.759,2.2c-.1.557-.084.594.328.594a.966.966,0,0,1,.439.053c0,.029-.185.435-.41.9a12.93,12.93,0,0,0-.935,3.063c0,.1.235.186.523.186.433,0,.5.05.4.294-.411.976-1.089,2.852-1.179,3.261-.1.46-.079.481.5.481h.606l-.238.462A15.66,15.66,0,0,0,39.47,47.1c0,.187.135.234.512.179.419-.062.49-.027.393.191a27.329,27.329,0,0,0-.99,3.017l-.118.564.715-.121c.656-.111.7-.095.58.193a11.914,11.914,0,0,0-.862,3l-.112.953.6-.113.6-.113-.4.984a5.484,5.484,0,0,0-.408,1.551c0,.546.016.564.518.463.443-.089.506-.061.413.18-.758,1.977-.754,2.514.018,2.436l.528-.053-.254.726a6.232,6.232,0,0,0-.278,1.567l-.024.841.648-.039c.557-.034.63,0,.522.252a10.69,10.69,0,0,0-.206,1.87L41.782,67.2l.608-.114c.6-.113.606-.108.442.325a3.618,3.618,0,0,0-.013,2.081.361.361,0,0,0,.418.131c.228-.088.269.048.269.887,0,1.131.111,1.534.392,1.425.139-.054.179.2.138.868-.055.893-.04.938.294.832s.353-.048.353.673a3.929,3.929,0,0,0,.235,1.315,11.862,11.862,0,0,1,.43,2.3c.225,2.042.641,5.07.8,5.8l.108.5.123-.42a17.914,17.914,0,0,0,.14-2.514c.02-2.54.332-5.941.559-6.084a2.014,2.014,0,0,0,.106-1.049c-.054-.858-.03-.936.254-.845s.309,0,.251-1.254-.041-1.351.276-1.321.337-.068.337-.976a5.772,5.772,0,0,0-.14-1.394c-.128-.355-.1-.376.32-.27l.459.115-.089-1.427a6.944,6.944,0,0,0-.289-1.8c-.193-.36-.179-.369.4-.26l.6.113v-.655a9.063,9.063,0,0,0-.59-2.64c-.136-.319,0-.315.91.028.192.072.219-.11.145-.99a9.005,9.005,0,0,0-.349-1.813l-.258-.735.585.095c.4.065.611.025.671-.129a11.125,11.125,0,0,0-.858-2.846c-.122-.28-.08-.3.393-.2.514.113.53.1.53-.459a8.648,8.648,0,0,0-1.018-3.119c-.412-.7-.345-.8.357-.558l.534.186-.081-.839a6.7,6.7,0,0,0-.6-1.887,5.486,5.486,0,0,1-.469-1.1,1.164,1.164,0,0,1,.5.12c.959.365.739-.8-.709-3.753-.039-.079.165-.092.454-.029.506.111.524.1.522-.445a8.082,8.082,0,0,0-.586-1.989c-.321-.786-.584-1.448-.586-1.472a1.137,1.137,0,0,1,.431-.042c.4,0,.425-.042.32-.547a11.156,11.156,0,0,0-.686-1.753c-.315-.663-.572-1.243-.572-1.288s.151-.042.336.006c.53.139.431-.687-.252-2.114-.324-.676-.589-1.261-.589-1.3s.189-.026.42.032c.349.088.421.045.421-.249,0-.2.076-.355.168-.355s.168.378.168.841c0,.62.064.841.242.841a.445.445,0,0,0,.346-.168c.257-.415.57-.152.551.462a21.49,21.49,0,0,0,.316,3.446c.042.068.249.01.462-.129l.386-.253.1,1.646c.113,1.853.227,2.289.561,2.153l.446-.182c.16-.065.271.377.43,1.719a13.561,13.561,0,0,0,.3,1.893c.047.047.3-.036.557-.185l.471-.27.113,1.367a15.286,15.286,0,0,0,.285,2.01l.172.643.557-.425.557-.425.107.914a10.727,10.727,0,0,0,.6,2.757c.126.2.213.2.583-.046l.435-.285v.635a6.257,6.257,0,0,0,.177,1.307c.311,1.187.3,1.17.637.864.47-.425.7-.332.7.285a7.124,7.124,0,0,0,.5,2.467,1.316,1.316,0,0,0,.439-.247c.484-.366.522-.33.553.541a5.756,5.756,0,0,0,.671,2.565,1.261,1.261,0,0,0,.458-.247c.469-.355.579-.317.58.2a4.028,4.028,0,0,0,.588,1.963c.232.3.264.306.562.037s.32-.257.416.446a6.762,6.762,0,0,0,.278,1.2c.173.455.19.46.6.195s.418-.262.418.137a4.2,4.2,0,0,0,.342,1.209c.26.608.389.752.538.6.29-.29.465-.239.465.135a2.894,2.894,0,0,0,.284.926c.213.446.36.571.589.5.194-.062.3-.012.3.137a6.353,6.353,0,0,0,.729,1.4,36.129,36.129,0,0,1,2.131,3.673,6.55,6.55,0,0,0,1.307,1.98,9.5,9.5,0,0,0-.789-2.7,24.82,24.82,0,0,1-1.358-5.379c.269-.09.193-.747-.169-1.458-.4-.789-.4-.757-.084-.757.433,0,.307-.447-.728-2.589-.04-.082.127-.1.37-.039.4.1.442.066.442-.379a6.17,6.17,0,0,0-.643-1.769L68.457,56.9h.475c.389,0,.475-.073.475-.4a8.739,8.739,0,0,0-1.438-2.9c-.429-.563-.327-.731.443-.731.7,0,.321-.862-.962-2.186l-.9-.925.583-.171.583-.171-.349-.586a10.392,10.392,0,0,0-1.2-1.459l-.852-.873.452-.113c.639-.16.462-.62-.664-1.728a9.588,9.588,0,0,1-.912-.967c0-.038.156-.07.348-.07.66,0,.1-1.069-1.036-1.965l-.687-.544L63.253,41c.239-.06.435-.182.435-.27a2.208,2.208,0,0,0-.51-.98c-.068-.046-.482-.416-.921-.822-.676-.625-.756-.762-.523-.892.408-.228.108-.685-1.374-2.093-1.141-1.083-1.229-1.211-.9-1.314s.345-.144.115-.589A7.84,7.84,0,0,0,58.228,32.6c-1.12-.984-1.3-1.26-.835-1.26.517,0,.056-.746-1.286-2.082-.733-.729-1.332-1.353-1.332-1.388s.113-.062.252-.062c.287,0,.338-.264.081-.422a.186.186,0,0,1-.084-.246,5.091,5.091,0,0,0-1.248-1.267,7.121,7.121,0,0,1-1.5-1.572,12.665,12.665,0,0,0-1.433-1.959c-1.674-1.994-4.6-6.3-3.719-5.466a33.4,33.4,0,0,1,4.127,4.55c1.157,1.69,1.3,1.829,1.521,1.5.128-.184.2-.2.258-.048a16.373,16.373,0,0,0,1.825,2.988c.7.914.872,1.057,1.028.846.254-.345.349-.32.462.125a5.772,5.772,0,0,0,.779,1.284c.376.5.756,1.028.847,1.177.148.246.186.242.4-.039s.269-.257.66.5a8.468,8.468,0,0,0,.931,1.4c.522.6.591.593.94-.084.052-.1.127-.082.186.046.087.188,1.846,2.7,2.027,2.888.038.041.231-.087.428-.284l.358-.359.352.65a6.7,6.7,0,0,0,1.732,2.02c.079,0,.234-.241.346-.535l.2-.535.466.689A8.314,8.314,0,0,0,68.9,37.727c.082,0,.236-.265.343-.589.215-.65.43-.753.581-.278a13.533,13.533,0,0,0,2.743,2.548c.085,0,.249-.208.365-.462.21-.461.211-.461.491-.115a11.323,11.323,0,0,0,2.666,1.923c.12,0,.219-.139.219-.308,0-.507.18-.536.616-.1A6.885,6.885,0,0,0,79.156,41.6c.1,0,.174-.125.174-.278,0-.251.029-.253.294-.022a3.1,3.1,0,0,0,1.556.732,20.859,20.859,0,0,1,2.775,1.079c3.01,1.332,3.111,1.37,3.111,1.191a5.742,5.742,0,0,0-1.135-1.04,17.582,17.582,0,0,1-3.466-3.3c.029-.259-1.156-1.3-1.94-1.71-.567-.294-.568-.3-.21-.548s.347-.265.061-.523a7,7,0,0,0-1.271-.716c-.884-.4-.945-.465-.668-.671.449-.334.133-.721-1.106-1.354-1.28-.654-1.355-.724-.984-.931.618-.346-.324-1.11-2.128-1.727-.294-.1-.3-.13-.043-.411.223-.246.235-.354.065-.578A9.846,9.846,0,0,0,71.3,29.314c-.251,0-.236-.053.1-.31.808-.621-.1-1.43-2.122-1.9-.921-.212-1.069-.361-.611-.617.561-.314-.028-.806-1.653-1.382-2.263-.8-2.244-.791-1.881-1.193.286-.316.284-.343-.05-.677a4.484,4.484,0,0,0-1.906-.668c-1.4-.287-1.986-.581-2.008-1.009a7.4,7.4,0,0,0-1.477-.654,6.907,6.907,0,0,1-1.83-.936c-.5-.53-1.169-.849-4.939-2.347-1.8-.716-3.7-1.522-4.2-1.789-.845-.445-.874-.478-.336-.385.324.056,1.361.318,2.305.584,2.513.706,2.909.765,2.909.431,0-.246.04-.249.378-.029a11.231,11.231,0,0,0,2.9.665c.092.012.144-.154.113-.369-.05-.36-.024-.375.333-.183a18.125,18.125,0,0,0,2.875.824c.07,0,.126-.157.126-.351,0-.268.071-.327.294-.242a6.119,6.119,0,0,0,2.149.365.265.265,0,0,0,.142-.355c-.082-.214-.028-.235.3-.111a8.067,8.067,0,0,0,1.3.274l.906.124-.084-.438-.084-.438,1.154.107c1.1.1,1.154.091,1.154-.253s.088-.36,1.075-.36c.92,0,1.071-.042,1.051-.294-.013-.162.072-.275.188-.252a3.647,3.647,0,0,0,.925-.117c.392-.088.978-.206,1.3-.262a1.21,1.21,0,0,0,.723-.346.545.545,0,0,1,.434-.243,13.54,13.54,0,0,0,4.641-2.01,20.138,20.138,0,0,0-3.26-.11c-2.96.016-3.377-.016-3.666-.277a1.727,1.727,0,0,0-1.144-.294,1.549,1.549,0,0,1-1.2-.359c-.334-.314-.586-.36-1.992-.367-1.366-.007-1.6-.048-1.567-.271.12-.733-.436-.84-2.136-.413-1,.251-1.1.251-1.359-.009-.315-.315-.934-.245-1.92.218a4.685,4.685,0,0,1-1.766.281c-1.28,0-4.33.841-8.577,2.353a7.269,7.269,0,0,1-2.83.7c-1.185-.151-1.332.371-1.454-3A73.537,73.537,0,0,0,43.834.178C43.01-.525,43.255,1.029,43.375,1.766Zm1.947,12.948c-.309.2-1.7.121-1.489-.085a1.156,1.156,0,0,1,.675-.148c.282.008.512-.065.512-.163s.1-.093.26.038C45.488,14.529,45.5,14.6,45.322,14.714Zm2.115,9.9a5.034,5.034,0,0,1,.36,1.3l.1.791-.482-.925a3,3,0,0,1-.412-1.3C47.1,23.994,47.131,24,47.437,24.616Zm1.28,4.871c.289-.155.316-.075.368,1.085.03.689-.008,1.189-.085,1.111A7.213,7.213,0,0,1,47.987,29.1c.138.053.239-.036.255-.225.015-.172.057-.066.095.234C48.4,29.582,48.447,29.633,48.717,29.488Z" transform="translate(0 0)" fill="#035e03"/></g><g transform="translate(57.975 49.656) rotate(30)"><path d="M21.425,40.733c.391-2.346.537-5.551.274-5.551a2.3,2.3,0,0,0-.6.307,19.337,19.337,0,0,1-2.4,1.272.242.242,0,0,1-.175-.127c-.06-.107-.19-.066-.837.262-.671.34-.79.376-.955.288s-.273-.06-.805.195c-.678.325-.759.341-.987.2-.127-.079-.221-.058-.518.114-.589.342-.722.361-.786.109-.03-.119-.078-.2-.107-.187a3.21,3.21,0,0,1-1.3.44,6.945,6.945,0,0,0-2.186.635,4.755,4.755,0,0,1-.895.3c-.1-.1.124-.322.955-.959.495-.38.97-.755,1.056-.834a4.076,4.076,0,0,1,.361-.286.486.486,0,0,0,.208-.329c0-.144.114-.243.485-.428.3-.152.446-.264.382-.3-.189-.117,0-.312.461-.486a2.838,2.838,0,0,1,.629-.174c.186,0,.2-.032.079-.251-.074-.138-.041-.169.27-.257a3.924,3.924,0,0,1,.828-.107c.44-.007.471-.02.43-.184s0-.18.565-.231a3.143,3.143,0,0,1,.886.028c.222.066.269.06.235-.03-.068-.177.368-.221,1.688-.171l1.206.046-.831-.294c-.786-.279-2.571-.832-3.346-1.037-.2-.052-.342-.121-.325-.153.062-.117-.241-.308-.525-.333-.16-.014-.614-.082-1.01-.153-.6-.107-.728-.156-.777-.307a.882.882,0,0,1-.049-.27,1.65,1.65,0,0,0-.711-.242c-.767-.161-1.07-.352-.985-.62.039-.124-.006-.166-.224-.209-.762-.152-1.131-.3-1.267-.506s-.133-.224,0-.374.125-.159.017-.159a6.543,6.543,0,0,1-.724-.135c-.447-.1-.629-.184-.726-.332-.121-.185-.117-.208.067-.361.108-.09.168-.17.134-.177l-.125-.025a5.419,5.419,0,0,1-1.527-.685c-.192-.2-.193-.213-.039-.325s.155-.117,0-.171a4.326,4.326,0,0,1-1.048-.506c-.159-.144-.2-.441-.065-.441.222,0,.033-.145-.414-.318a1.93,1.93,0,0,1-.671-.414l-.174-.221.174-.116c.166-.11.149-.13-.387-.443-.609-.356-.705-.454-.643-.655.026-.085-.038-.168-.184-.234-.352-.161-.864-.6-.839-.714A6.131,6.131,0,0,0,.728,21.611c-.651-.383-.821-.516-.683-.537a1.948,1.948,0,0,1,.617.114c.509.165,2.2.833,2.4.95a.355.355,0,0,0,.261.035,1.592,1.592,0,0,1,.647.229c.29.151.556.288.59.3s.062-.031.062-.1.021-.132.046-.132a3.308,3.308,0,0,1,.894.521c.309.243.318.245.363.072.025-.1.076-.177.112-.177a4.617,4.617,0,0,1,1.019.85c.022.06.079,0,.132-.129l.093-.234.27.191a6.705,6.705,0,0,1,.661.579l.391.389L8.7,24.25a.665.665,0,0,1,.138-.283,8.381,8.381,0,0,1,1.243,1.173l.262.325.087-.25c.048-.138.122-.25.165-.25a6.04,6.04,0,0,1,1.174,1.277c.065.172.071.17.173-.051.058-.126.152-.228.208-.228a4.876,4.876,0,0,1,1.121,1.187c0,.055.059,0,.127-.128s.152-.229.186-.229a6.789,6.789,0,0,1,1.085,1.248l.169.278.085-.223c.047-.123.119-.223.161-.223a7.22,7.22,0,0,1,1.094,1.441c0,.053.048.014.1-.085a.69.69,0,0,1,.156-.208,8.857,8.857,0,0,1,1.209,1.546c.126.242.127.242.224.062s.1-.178.394.13c.163.172.448.507.632.745a12.71,12.71,0,0,0,1.847,1.769l.29.205-.186-.261a1.344,1.344,0,0,1-.186-.315,3.7,3.7,0,0,0-.326-.534,13.062,13.062,0,0,0-1.965-2.057,3.444,3.444,0,0,1-.694-.8c-.1-.245-.246-.384-1.146-1.078a1.523,1.523,0,0,1-.522-.7c0-.018.065-.034.145-.036.117,0,.1-.032-.06-.145a7.164,7.164,0,0,1-1.461-1.217c-.094-.182-.09-.22.03-.288.077-.043.121-.093.1-.112s-.3-.215-.622-.436c-.739-.511-1.055-.872-.764-.872a.34.34,0,0,0,.2-.095c.071-.071-.024-.172-.378-.4-.451-.292-1.013-.843-1.013-.994,0-.039.093-.095.208-.123s.208-.082.208-.119a2.326,2.326,0,0,0-.507-.434,2.633,2.633,0,0,1-.622-.59c-.111-.214-.106-.224.133-.277.317-.07.313-.135-.022-.316a4.075,4.075,0,0,1-1.143-1.031c0-.056.1-.152.215-.213l.214-.112-.343-.227a3.96,3.96,0,0,1-1-.89c0-.038.142-.113.316-.165l.316-.095-.731-.721a3.922,3.922,0,0,1-.731-.855c0-.087.1-.153.29-.189l.29-.054-.526-.516c-.655-.642-.723-.793-.386-.861a.609.609,0,0,0,.248-.08,6.309,6.309,0,0,0-.407-.536c-.419-.52-.564-.823-.395-.826a.522.522,0,0,0,.218-.078c.1-.065.1-.1-.046-.227a2.264,2.264,0,0,1-.616-.885c0-.093.07-.138.215-.138H7.8l-.219-.26A2.621,2.621,0,0,1,7.035,11.3a.147.147,0,0,1,.161-.128c.151,0,.145-.034-.083-.538-.25-.551-.32-.931-.152-.827Q7.053,9.865,7,9.7c-.029-.093-.125-.425-.211-.737a15.047,15.047,0,0,0-.661-1.665c-.277-.6-.5-1.123-.5-1.155,0-.165.418.369,1.138,1.456a16.41,16.41,0,0,0,.988,1.387,2.757,2.757,0,0,1,.407.645c.122.258.258.447.3.419a.213.213,0,0,1,.208.056,3.232,3.232,0,0,1,.566,1.111l.06.247.148-.2.148-.2.13.185a3.282,3.282,0,0,1,.282.675c.152.487.244.574.419.4a.155.155,0,0,1,.173-.043,2.269,2.269,0,0,1,.427.95l.047.275.2-.184c.191-.179.2-.179.289-.026a5.891,5.891,0,0,1,.514,1.378l.056.331.184-.173a.638.638,0,0,1,.276-.173,3.5,3.5,0,0,1,.354,1.381v.227l.214-.2c.208-.195.218-.2.329-.045a1.429,1.429,0,0,1,.167.505c.078.522.156.611.365.422.094-.086.189-.138.21-.117a7.272,7.272,0,0,1,.5,1.463.758.758,0,0,0,.108.353.849.849,0,0,0,.242-.18c.106-.1.215-.157.244-.128a4.526,4.526,0,0,1,.28,1.326c0,.331.081.391.251.187a.337.337,0,0,1,.17-.125c.09,0,.231.446.356,1.125.1.519.113.55.24.424a.578.578,0,0,1,.175-.136,7.657,7.657,0,0,1,.546,1.815l.05.444.229-.18c.171-.134.238-.152.263-.07.019.06.153.475.3.92a10.042,10.042,0,0,1,.318,1.192l.055.381.224-.177.224-.177.082.314c.2.767.331,1.337.383,1.664.055.35.144.44.255.26.074-.12.222.3.528,1.506a17.32,17.32,0,0,0,1.1,2.949l.162.332-.038-.665a6.42,6.42,0,0,0-.248-1.329c-.115-.365-.267-.945-.338-1.288-.111-.542-.112-.635-.008-.713.075-.056.09-.119.041-.168a13.89,13.89,0,0,1-.664-1.85c0-.039.09-.053.2-.032l.2.038-.32-.795a8.867,8.867,0,0,1-.375-1.088c-.052-.275-.041-.293.162-.293a.477.477,0,0,0,.217-.026c0-.014-.091-.215-.2-.446a6.387,6.387,0,0,1-.462-1.513c0-.051.116-.092.258-.092.214,0,.248-.025.2-.145-.2-.482-.538-1.409-.582-1.611-.05-.227-.039-.238.247-.238h.3l-.117-.228a7.735,7.735,0,0,1-.468-1.493c0-.092.066-.116.253-.088.207.03.242.013.194-.094a13.5,13.5,0,0,1-.489-1.49L19.4,16.39l.353.06c.324.055.348.047.287-.1a5.885,5.885,0,0,1-.426-1.482l-.055-.471.3.056.3.056-.2-.486a2.709,2.709,0,0,1-.2-.766c0-.27.008-.278.256-.229.219.044.25.03.2-.089-.375-.976-.373-1.242.009-1.2l.261.026-.126-.358a3.079,3.079,0,0,1-.138-.774l-.012-.415.32.019c.275.017.311,0,.258-.125a5.28,5.28,0,0,1-.1-.923l-.04-.78.3.056c.3.056.3.054.218-.16a1.787,1.787,0,0,1-.006-1.028.178.178,0,0,1,.206-.065c.113.043.133-.024.133-.438,0-.559.055-.758.194-.7.069.026.089-.1.068-.429-.027-.441-.02-.463.145-.411s.174.024.174-.332a1.941,1.941,0,0,1,.116-.649A5.86,5.86,0,0,0,22.4,3.115c.111-1.009.317-2.5.394-2.866L22.847,0l.061.208a8.849,8.849,0,0,1,.069,1.242,13.316,13.316,0,0,0,.276,3.005,1,1,0,0,1,.052.518c-.026.424-.015.462.125.418s.152,0,.124.619-.02.668.136.652.167.033.166.482a2.851,2.851,0,0,1-.069.689c-.063.175-.051.186.158.133l.227-.057-.044.705a3.43,3.43,0,0,1-.143.889c-.1.178-.088.182.2.129l.3-.056V9.9a4.477,4.477,0,0,1-.292,1.3c-.067.158,0,.156.449-.014.095-.036.108.054.071.489a4.448,4.448,0,0,1-.172.9l-.127.363.289-.047c.2-.032.3-.012.331.064a5.5,5.5,0,0,1-.424,1.406c-.06.138-.039.149.194.1.254-.056.262-.049.262.227a4.272,4.272,0,0,1-.5,1.541c-.2.345-.17.4.177.275L25,16.409l-.04.414a3.311,3.311,0,0,1-.3.932,2.71,2.71,0,0,0-.231.543.575.575,0,0,0,.247-.059c.474-.18.365.393-.35,1.854-.019.039.082.045.224.014.25-.055.259-.047.258.22a3.992,3.992,0,0,1-.289.983c-.158.388-.289.715-.289.727a.562.562,0,0,0,.213.021c.2,0,.21.021.158.27a5.51,5.51,0,0,1-.339.866c-.156.328-.283.614-.283.636s.075.021.166,0c.262-.069.213.34-.125,1.044-.16.334-.291.623-.291.643s.093.013.208-.016c.172-.043.208-.022.208.123,0,.1.037.175.083.175s.083-.187.083-.415c0-.306.031-.415.12-.415a.22.22,0,0,1,.171.083c.127.205.282.075.272-.228a10.616,10.616,0,0,1,.156-1.7c.021-.034.123-.005.228.064l.191.125.05-.813c.056-.915.112-1.13.277-1.063l.22.09c.079.032.134-.186.212-.849a6.7,6.7,0,0,1,.148-.935c.023-.023.147.018.275.091l.233.134.056-.675a7.551,7.551,0,0,1,.141-.993l.085-.318.275.21.275.21.053-.451a5.3,5.3,0,0,1,.3-1.362c.062-.1.105-.1.288.023l.215.141V16.43a3.091,3.091,0,0,1,.088-.646c.154-.586.148-.578.315-.427.232.21.345.164.345-.141A3.519,3.519,0,0,1,29.544,14a.65.65,0,0,1,.217.122c.239.181.258.163.273-.267a2.843,2.843,0,0,1,.331-1.267.623.623,0,0,1,.226.122c.232.175.286.156.286-.1a1.99,1.99,0,0,1,.291-.969c.115-.15.131-.151.277-.018s.158.127.205-.22a3.339,3.339,0,0,1,.137-.593c.085-.225.094-.227.294-.1s.206.129.206-.067a2.076,2.076,0,0,1,.169-.6c.129-.3.192-.371.266-.3.143.143.23.118.23-.067a1.43,1.43,0,0,1,.14-.458c.105-.22.178-.282.291-.246.1.03.15.006.15-.068a3.138,3.138,0,0,1,.36-.691A17.845,17.845,0,0,0,34.948,6.4a3.236,3.236,0,0,1,.646-.978,4.693,4.693,0,0,1-.39,1.332,12.26,12.26,0,0,0-.671,2.657c.133.045.1.369-.084.72-.2.39-.2.374-.042.374.214,0,.152.221-.36,1.279-.02.041.063.049.183.019.2-.05.218-.033.218.187a3.048,3.048,0,0,1-.317.874l-.318.632h.234c.192,0,.234.036.234.2a4.317,4.317,0,0,1-.71,1.433c-.212.278-.162.361.219.361.346,0,.158.426-.475,1.08l-.443.457.288.084.288.084-.172.29a5.133,5.133,0,0,1-.593.721l-.421.431.223.056c.316.079.228.306-.328.854a4.737,4.737,0,0,0-.45.478c0,.019.077.035.172.035.326,0,.048.528-.511.971l-.34.269.215.054c.118.03.215.09.215.133a1.091,1.091,0,0,1-.252.484c-.033.023-.238.206-.455.406-.334.309-.374.376-.259.441.2.113.053.338-.679,1.034-.564.535-.607.6-.446.649s.171.071.057.291a3.872,3.872,0,0,1-.664.711c-.553.486-.644.622-.413.622.255,0,.028.369-.635,1.029-.362.36-.658.668-.658.685s.056.031.125.031c.142,0,.167.13.04.209a.092.092,0,0,0-.042.122,2.515,2.515,0,0,1-.617.626,3.517,3.517,0,0,0-.74.776,6.256,6.256,0,0,1-.708.967c-.827.985-2.274,3.112-1.837,2.7a16.5,16.5,0,0,0,2.039-2.247c.571-.835.64-.9.751-.743.063.091.1.1.128.024a8.087,8.087,0,0,1,.9-1.476c.345-.452.431-.522.508-.418.125.171.172.158.228-.062a2.851,2.851,0,0,1,.385-.634c.185-.246.374-.508.418-.582.073-.122.092-.12.2.019s.133.127.326-.249a4.183,4.183,0,0,1,.46-.694c.258-.3.292-.293.464.042.026.05.063.04.092-.023.043-.093.912-1.331,1-1.427.019-.02.114.043.212.14l.177.177.174-.321a3.312,3.312,0,0,1,.856-1c.039,0,.116.119.171.264l.1.264.23-.341a4.107,4.107,0,0,1,.933-1.018c.04,0,.116.131.169.291.106.321.212.372.287.137a6.685,6.685,0,0,1,1.355-1.259c.042,0,.123.1.18.228.1.228.1.228.243.057a5.593,5.593,0,0,1,1.317-.95c.059,0,.108.069.108.152,0,.25.089.265.3.049A3.4,3.4,0,0,1,39.1,21.06c.047,0,.086.062.086.137,0,.124.014.125.145.011a1.529,1.529,0,0,1,.768-.361,10.3,10.3,0,0,0,1.371-.533c1.487-.658,1.537-.677,1.537-.588a2.836,2.836,0,0,1-.561.513,8.685,8.685,0,0,0-1.712,1.632c.014.128-.571.644-.958.844-.28.145-.281.147-.1.271s.171.131.03.258a3.458,3.458,0,0,1-.628.353c-.437.2-.467.23-.33.331.222.165.066.356-.546.669-.632.323-.669.358-.486.46.305.171-.16.548-1.051.853-.145.05-.147.064-.021.2.11.121.116.175.032.285a4.863,4.863,0,0,1-1.451.727c-.124,0-.116.026.049.153.4.307-.048.706-1.048.936-.455.1-.528.178-.3.3.277.155-.014.4-.816.683-1.118.4-1.109.391-.929.589.141.156.14.169-.025.334a2.215,2.215,0,0,1-.941.33c-.691.142-.981.287-.992.5a3.654,3.654,0,0,1-.73.323,3.412,3.412,0,0,0-.9.462c-.245.262-.577.419-2.44,1.159-.891.354-1.826.752-2.077.884-.417.22-.432.236-.166.19.16-.028.672-.157,1.139-.288,1.241-.349,1.437-.378,1.437-.213,0,.121.02.123.187.014a5.548,5.548,0,0,1,1.433-.328c.046-.006.071.076.056.182-.025.178-.012.185.165.091a8.953,8.953,0,0,1,1.42-.407c.034,0,.062.077.062.174,0,.133.035.161.145.119A3.022,3.022,0,0,1,31,33.136a.131.131,0,0,1,.07.175c-.041.106-.014.116.147.055a3.985,3.985,0,0,1,.644-.136l.448-.061-.041.217-.041.217.57-.053c.544-.051.57-.045.57.125s.044.178.531.178c.455,0,.529.021.519.145-.006.08.035.136.093.124a1.8,1.8,0,0,1,.457.058c.194.043.483.1.643.13a.6.6,0,0,1,.357.171.269.269,0,0,0,.215.12,6.688,6.688,0,0,1,2.293.993,9.949,9.949,0,0,1-1.611.054c-1.462-.008-1.668.008-1.811.137a.853.853,0,0,1-.565.145.765.765,0,0,0-.592.177c-.165.155-.289.178-.984.181-.675,0-.792.024-.774.134.059.362-.215.415-1.055.2-.494-.124-.543-.124-.671,0-.156.156-.461.121-.948-.108a2.314,2.314,0,0,0-.872-.139,18.088,18.088,0,0,1-4.237-1.162,3.59,3.59,0,0,0-1.4-.344c-.585.075-.658-.183-.718,1.48a36.324,36.324,0,0,1-.588,5.159C21.245,41.865,21.366,41.1,21.425,40.733Zm.962-6.4c-.153-.1-.838-.06-.736.042a.571.571,0,0,0,.333.073c.139,0,.253.032.253.08s.05.046.129-.019C22.469,34.429,22.473,34.394,22.387,34.338Zm1.045-4.891a2.487,2.487,0,0,0,.178-.644l.052-.391-.238.457a1.481,1.481,0,0,0-.2.644C23.264,29.754,23.281,29.749,23.432,29.447Zm.632-2.406c.143.077.156.037.182-.536.015-.34,0-.587-.042-.549a3.563,3.563,0,0,0-.5,1.277c.068-.026.118.018.126.111s.028.033.047-.116C23.905,26.994,23.93,26.969,24.064,27.04Z" transform="translate(0 0)" fill="#035e03"/></g><g transform="translate(-14.332 67.41) rotate(-47)"><path d="M34.287,65.186c.625-3.754.859-8.883.438-8.883a3.68,3.68,0,0,0-.964.491,30.945,30.945,0,0,1-3.844,2.035.388.388,0,0,1-.28-.2c-.1-.171-.3-.105-1.34.419-1.074.544-1.264.6-1.528.46s-.436-.1-1.288.312c-1.084.52-1.214.546-1.579.318-.2-.127-.354-.093-.829.182-.943.548-1.156.577-1.257.174-.048-.19-.125-.325-.171-.3a5.137,5.137,0,0,1-2.078.7,11.114,11.114,0,0,0-3.5,1.016,7.609,7.609,0,0,1-1.432.472c-.158-.158.2-.515,1.529-1.535.792-.607,1.552-1.208,1.69-1.334a6.523,6.523,0,0,1,.578-.458.778.778,0,0,0,.332-.527c0-.23.182-.388.776-.685.487-.244.713-.423.612-.485-.3-.187-.006-.5.738-.778A4.541,4.541,0,0,1,21.9,56.3c.3,0,.314-.051.126-.4-.118-.221-.065-.271.432-.412a6.279,6.279,0,0,1,1.325-.172c.7-.011.753-.031.688-.294s0-.288.9-.37a5.03,5.03,0,0,1,1.418.044c.356.105.43.1.375-.047-.109-.284.588-.354,2.7-.273l1.929.074-1.329-.471c-1.258-.446-4.114-1.331-5.355-1.66-.313-.083-.547-.193-.52-.244.1-.187-.385-.493-.84-.532-.256-.022-.983-.132-1.616-.244-.967-.172-1.166-.25-1.244-.492a1.411,1.411,0,0,1-.078-.433,2.641,2.641,0,0,0-1.137-.387c-1.228-.258-1.713-.563-1.577-.992.063-.2-.009-.265-.359-.335-1.219-.244-1.811-.48-2.027-.811s-.212-.359,0-.6c.2-.217.2-.255.027-.255a10.471,10.471,0,0,1-1.158-.216c-.715-.162-1.006-.295-1.162-.532-.194-.3-.187-.332.107-.578.173-.144.269-.271.214-.283l-.2-.039a8.672,8.672,0,0,1-2.444-1.1c-.307-.326-.308-.34-.062-.521s.249-.187,0-.273a6.923,6.923,0,0,1-1.677-.809c-.254-.23-.325-.706-.1-.706.355,0,.053-.232-.663-.509a3.089,3.089,0,0,1-1.075-.663l-.278-.354.278-.185c.266-.177.239-.208-.619-.709-.974-.569-1.128-.727-1.029-1.047.042-.136-.061-.268-.294-.374-.564-.257-1.382-.954-1.343-1.143.053-.251-1.486-1.439-3.078-2.376-1.042-.613-1.313-.826-1.094-.859a3.118,3.118,0,0,1,.987.182c.815.264,3.517,1.333,3.847,1.521a.567.567,0,0,0,.418.057,2.547,2.547,0,0,1,1.036.367c.465.242.89.46.944.485s.1-.049.1-.165.033-.211.073-.211a5.294,5.294,0,0,1,1.43.833c.495.389.508.392.581.115.041-.156.121-.283.179-.283a7.389,7.389,0,0,1,1.631,1.36c.036.1.126.008.211-.206l.149-.375.432.305a10.73,10.73,0,0,1,1.057.927l.625.622.149-.453a1.064,1.064,0,0,1,.22-.453,13.413,13.413,0,0,1,1.989,1.877l.419.52.14-.4c.077-.22.2-.4.264-.4a9.665,9.665,0,0,1,1.878,2.043c.1.275.113.272.277-.082.093-.2.243-.366.332-.366a7.8,7.8,0,0,1,1.794,1.9c0,.089.095,0,.2-.2s.243-.366.3-.366a10.865,10.865,0,0,1,1.736,2l.271.445.136-.357c.075-.2.191-.357.257-.357a11.555,11.555,0,0,1,1.751,2.306c0,.085.077.023.166-.137a1.1,1.1,0,0,1,.249-.332,14.174,14.174,0,0,1,1.935,2.475c.2.387.2.388.358.1s.161-.285.631.209c.261.275.716.811,1.011,1.192a20.34,20.34,0,0,0,2.955,2.83l.464.329-.3-.418a2.151,2.151,0,0,1-.3-.5,5.916,5.916,0,0,0-.522-.855A20.9,20.9,0,0,0,29.4,48.506a5.511,5.511,0,0,1-1.111-1.28c-.156-.392-.393-.615-1.834-1.725a2.437,2.437,0,0,1-.835-1.113c0-.028.1-.054.233-.058.187-.006.168-.052-.1-.233a11.464,11.464,0,0,1-2.338-1.947c-.151-.291-.144-.352.049-.46.123-.069.193-.149.157-.179s-.484-.344-1-.7C21.442,40,20.936,39.419,21.4,39.419a.545.545,0,0,0,.324-.152c.113-.113-.039-.275-.6-.641-.723-.468-1.62-1.349-1.62-1.591,0-.063.149-.151.332-.2s.332-.132.332-.191a3.722,3.722,0,0,0-.811-.695,4.213,4.213,0,0,1-1-.944c-.177-.343-.17-.359.213-.443.507-.111.5-.215-.035-.506a6.522,6.522,0,0,1-1.83-1.649c0-.089.156-.243.344-.341l.342-.179-.548-.363a6.337,6.337,0,0,1-1.6-1.424c0-.062.227-.18.505-.263l.505-.151-1.17-1.153a6.276,6.276,0,0,1-1.17-1.368c0-.14.162-.245.465-.3l.465-.087-.841-.825c-1.048-1.028-1.156-1.269-.617-1.377a.974.974,0,0,0,.4-.128,10.1,10.1,0,0,0-.652-.858c-.671-.832-.9-1.318-.632-1.321a.836.836,0,0,0,.349-.125c.166-.1.155-.16-.073-.364a3.623,3.623,0,0,1-.986-1.416c0-.148.112-.22.344-.22h.344l-.351-.417a4.194,4.194,0,0,1-.87-1.639.235.235,0,0,1,.258-.2c.241,0,.233-.055-.133-.861-.4-.882-.512-1.489-.243-1.324q.147.091.061-.179c-.047-.149-.2-.68-.338-1.18A24.08,24.08,0,0,0,9.8,11.673C9.361,10.708,9,9.876,9,9.824c0-.265.669.591,1.821,2.33a26.261,26.261,0,0,0,1.58,2.219,4.412,4.412,0,0,1,.652,1.032c.2.413.413.715.483.671a.341.341,0,0,1,.332.09,5.172,5.172,0,0,1,.905,1.778l.1.4.236-.313.236-.313.208.3A5.252,5.252,0,0,1,16,19.09c.243.78.39.919.671.638a.248.248,0,0,1,.276-.069,3.632,3.632,0,0,1,.684,1.521l.075.44.316-.295c.306-.286.32-.287.462-.041a9.427,9.427,0,0,1,.822,2.2l.089.529.294-.276a1.021,1.021,0,0,1,.441-.276,5.6,5.6,0,0,1,.567,2.21v.362l.343-.322c.332-.312.349-.314.526-.072a2.286,2.286,0,0,1,.267.809c.125.835.249.979.585.675.151-.137.3-.221.337-.187a11.637,11.637,0,0,1,.8,2.341,1.213,1.213,0,0,0,.173.565,1.359,1.359,0,0,0,.387-.289c.169-.159.345-.251.39-.206a7.244,7.244,0,0,1,.448,2.123c0,.529.13.625.4.3a.539.539,0,0,1,.272-.2c.143,0,.37.714.57,1.8.153.83.181.88.383.678a.925.925,0,0,1,.28-.218,12.254,12.254,0,0,1,.874,2.9l.081.711.366-.288c.273-.215.38-.244.422-.112.031.1.245.759.476,1.473a16.07,16.07,0,0,1,.509,1.907l.089.61.359-.283.359-.283.131.5c.32,1.227.53,2.14.613,2.664.089.56.23.7.409.415.118-.192.355.481.845,2.41a27.717,27.717,0,0,0,1.756,4.72l.26.532-.061-1.064a10.274,10.274,0,0,0-.4-2.127c-.184-.585-.428-1.512-.54-2.061-.178-.867-.18-1.016-.013-1.141.12-.09.145-.191.066-.27a22.228,22.228,0,0,1-1.062-2.96c0-.062.144-.085.319-.051l.319.061-.512-1.272a14.189,14.189,0,0,1-.6-1.741c-.083-.44-.066-.47.259-.47a.763.763,0,0,0,.347-.042c0-.023-.146-.344-.324-.713a10.221,10.221,0,0,1-.739-2.422c0-.081.186-.147.413-.147.342,0,.4-.04.315-.233-.325-.771-.861-2.254-.932-2.578-.08-.363-.062-.38.4-.38h.479l-.188-.366a12.379,12.379,0,0,1-.749-2.389c0-.148.106-.185.4-.141.331.049.387.021.311-.151a21.6,21.6,0,0,1-.782-2.385l-.093-.446.565.1c.518.088.557.075.459-.152a9.418,9.418,0,0,1-.681-2.372l-.089-.753.475.089.475.089-.32-.777a4.335,4.335,0,0,1-.323-1.226c0-.432.013-.446.41-.366.35.07.4.049.327-.142-.6-1.563-.6-1.987.014-1.926l.418.042-.2-.574a4.926,4.926,0,0,1-.22-1.238l-.019-.665.512.031c.44.026.5,0,.413-.2a8.45,8.45,0,0,1-.163-1.478l-.064-1.248.481.09c.475.089.479.086.349-.257a2.86,2.86,0,0,1-.01-1.645.285.285,0,0,1,.33-.1c.18.069.213-.038.213-.7,0-.894.088-1.212.31-1.127.11.042.142-.157.109-.686-.044-.706-.031-.741.233-.657s.279.038.279-.532A3.106,3.106,0,0,1,35.507,6.8a9.377,9.377,0,0,0,.34-1.815c.178-1.615.507-4.007.631-4.587l.085-.4.1.332a14.161,14.161,0,0,1,.11,1.987,21.311,21.311,0,0,0,.442,4.809,1.592,1.592,0,0,1,.084.83c-.042.678-.024.74.2.668s.244,0,.2.991-.032,1.068.218,1.044.267.053.266.772a4.563,4.563,0,0,1-.11,1.1c-.1.281-.082.3.253.213l.363-.091-.07,1.128a5.489,5.489,0,0,1-.228,1.423c-.152.285-.141.292.316.206l.474-.089v.518a7.164,7.164,0,0,1-.467,2.087c-.107.252,0,.249.719-.022.152-.057.173.087.114.783a7.118,7.118,0,0,1-.276,1.433l-.2.581.462-.075c.318-.052.483-.02.53.1a8.794,8.794,0,0,1-.678,2.25c-.1.221-.063.238.311.156.406-.089.419-.078.419.363a6.836,6.836,0,0,1-.8,2.465c-.325.552-.272.634.283.441l.422-.147-.064.663a5.3,5.3,0,0,1-.474,1.491,4.337,4.337,0,0,0-.37.869.92.92,0,0,0,.4-.095c.758-.288.585.629-.56,2.967-.031.063.131.073.359.023.4-.088.415-.075.412.352a6.388,6.388,0,0,1-.463,1.573c-.253.622-.462,1.145-.463,1.163a.9.9,0,0,0,.341.033c.317,0,.336.033.253.432a8.818,8.818,0,0,1-.542,1.386c-.249.524-.453.982-.453,1.018s.12.033.266-.005c.419-.11.341.543-.2,1.671-.256.534-.465,1-.465,1.029s.149.021.332-.025c.276-.069.332-.036.332.2,0,.154.06.28.133.28s.133-.3.133-.665c0-.49.05-.665.192-.665a.351.351,0,0,1,.274.133c.2.328.451.12.435-.366a16.988,16.988,0,0,1,.25-2.724c.033-.054.2-.008.365.1l.305.2.079-1.3c.089-1.464.179-1.809.444-1.7l.352.144c.126.052.214-.3.34-1.359a10.72,10.72,0,0,1,.237-1.5c.037-.037.235.029.44.146l.373.214.089-1.081a12.084,12.084,0,0,1,.225-1.589l.136-.508.44.336.44.336.085-.722a8.48,8.48,0,0,1,.475-2.179c.1-.161.169-.155.461.036l.344.225v-.5a4.946,4.946,0,0,1,.14-1.033c.246-.938.236-.925.5-.683.372.336.552.262.552-.226a5.631,5.631,0,0,1,.392-1.95,1.04,1.04,0,0,1,.347.2c.383.29.412.261.437-.428a4.55,4.55,0,0,1,.53-2.027,1,1,0,0,1,.362.2c.371.281.457.25.458-.162a3.184,3.184,0,0,1,.465-1.551c.184-.241.209-.242.444-.029s.253.2.329-.352a5.344,5.344,0,0,1,.22-.948c.137-.359.15-.364.471-.154s.33.207.33-.108a3.323,3.323,0,0,1,.271-.956c.206-.48.308-.594.425-.476.229.229.368.189.368-.106a2.288,2.288,0,0,1,.225-.732c.168-.353.285-.452.465-.394.154.049.241.01.241-.108a5.022,5.022,0,0,1,.576-1.106,28.558,28.558,0,0,0,1.684-2.9,5.178,5.178,0,0,1,1.033-1.565,7.51,7.51,0,0,1-.623,2.131,19.619,19.619,0,0,0-1.074,4.252c.213.071.153.59-.134,1.152-.318.624-.315.6-.066.6.342,0,.243.353-.576,2.046-.032.065.1.079.292.031.318-.08.35-.052.35.3a4.877,4.877,0,0,1-.508,1.4L54.114,21.6h.375c.307,0,.375.058.375.319a6.908,6.908,0,0,1-1.137,2.294c-.339.445-.259.578.35.578.553,0,.253.682-.761,1.728l-.708.731.461.135.461.135-.276.463a8.214,8.214,0,0,1-.949,1.153l-.673.69.357.09c.505.127.365.49-.525,1.366a7.58,7.58,0,0,0-.721.764c0,.03.124.055.275.055.522,0,.076.845-.819,1.553l-.543.43.344.086c.189.047.344.144.344.214a1.745,1.745,0,0,1-.4.774c-.053.037-.381.329-.728.65-.534.494-.6.6-.414.705.323.181.085.542-1.086,1.654-.9.856-.971.957-.714,1.039s.273.114.091.466a6.2,6.2,0,0,1-1.063,1.138c-.886.778-1.03,1-.66,1,.409,0,.044.59-1.017,1.646-.579.576-1.053,1.07-1.053,1.1s.09.049.2.049c.227,0,.267.208.064.334a.147.147,0,0,0-.066.195,4.025,4.025,0,0,1-.987,1,5.629,5.629,0,0,0-1.184,1.242,10.012,10.012,0,0,1-1.133,1.548c-1.323,1.576-3.639,4.98-2.94,4.321a26.4,26.4,0,0,0,3.263-3.6c.914-1.336,1.025-1.446,1.2-1.19.1.146.156.156.2.038a12.942,12.942,0,0,1,1.443-2.362c.553-.723.689-.835.812-.668.2.273.276.253.365-.1a4.563,4.563,0,0,1,.616-1.015c.3-.394.6-.812.669-.931.117-.195.147-.192.32.031s.213.2.522-.4a6.694,6.694,0,0,1,.736-1.11c.412-.473.467-.469.743.067.041.079.1.065.147-.036.069-.149,1.46-2.13,1.6-2.283.03-.032.183.068.338.224l.283.283.278-.514a5.3,5.3,0,0,1,1.369-1.6c.063,0,.185.19.273.423l.16.423.368-.545a6.572,6.572,0,0,1,1.493-1.63c.065,0,.186.209.271.465.17.514.34.6.459.22a10.7,10.7,0,0,1,2.168-2.014c.067,0,.2.164.288.365.166.364.167.365.388.091a8.951,8.951,0,0,1,2.107-1.52c.1,0,.173.11.173.244,0,.4.142.424.487.079a5.443,5.443,0,0,1,1.769-.987c.075,0,.137.1.137.22,0,.2.023.2.233.017a2.447,2.447,0,0,1,1.23-.578,16.489,16.489,0,0,0,2.194-.853c2.379-1.053,2.46-1.083,2.46-.942a4.539,4.539,0,0,1-.9.822A13.9,13.9,0,0,0,65.187,35c.023.2-.914,1.03-1.533,1.351-.448.232-.449.235-.166.433s.274.209.048.413a5.534,5.534,0,0,1-1,.566c-.7.32-.747.368-.528.53.355.264.105.57-.874,1.07-1.012.517-1.071.572-.778.736.488.273-.256.878-1.682,1.365-.233.08-.235.1-.034.325.176.194.186.28.051.457a7.783,7.783,0,0,1-2.322,1.163c-.2,0-.186.042.078.245.638.491-.077,1.13-1.677,1.5-.728.168-.845.286-.483.488.443.248-.022.637-1.306,1.093-1.789.635-1.774.625-1.487.943.226.249.224.271-.04.535a3.544,3.544,0,0,1-1.506.528c-1.107.227-1.57.46-1.588.8a5.847,5.847,0,0,1-1.168.517,5.46,5.46,0,0,0-1.447.74c-.392.419-.924.671-3.9,1.855-1.426.566-2.921,1.2-3.324,1.414-.668.351-.691.378-.266.3.256-.044,1.076-.252,1.822-.461,1.986-.558,2.3-.6,2.3-.341,0,.194.032.2.3.023a8.878,8.878,0,0,1,2.293-.525c.073-.01.113.121.09.291-.04.285-.019.3.264.145a14.328,14.328,0,0,1,2.272-.651c.055,0,.1.124.1.278,0,.212.056.258.232.191a4.837,4.837,0,0,1,1.7-.289.21.21,0,0,1,.112.281c-.065.169-.022.185.235.088a6.377,6.377,0,0,1,1.031-.217l.716-.1-.066.347-.066.347.912-.085c.87-.081.912-.072.912.2s.07.285.849.285c.727,0,.847.033.831.233-.01.128.057.217.149.2a2.883,2.883,0,0,1,.731.092c.31.069.773.163,1.028.207a.956.956,0,0,1,.572.273.431.431,0,0,0,.343.192,10.7,10.7,0,0,1,3.669,1.589A15.919,15.919,0,0,1,59,57.048c-2.34-.013-2.669.012-2.9.219a1.365,1.365,0,0,1-.9.233,1.224,1.224,0,0,0-.948.284c-.264.248-.463.285-1.575.29-1.08.005-1.267.038-1.238.214.095.579-.344.664-1.688.327-.791-.2-.869-.2-1.074.007-.249.249-.738.194-1.518-.172a3.7,3.7,0,0,0-1.4-.222,28.946,28.946,0,0,1-6.78-1.86,5.746,5.746,0,0,0-2.237-.55c-.937.119-1.053-.293-1.149,2.369a58.129,58.129,0,0,1-.941,8.256C34,67,34.192,65.769,34.287,65.186Zm1.539-10.235c-.244-.159-1.341-.1-1.177.067a.914.914,0,0,0,.533.117c.223-.006.405.052.405.129s.081.074.206-.03C35.957,55.1,35.964,55.041,35.826,54.951ZM37.5,47.124a3.979,3.979,0,0,0,.284-1.03l.083-.626-.381.731a2.37,2.37,0,0,0-.326,1.03C37.23,47.616,37.256,47.608,37.5,47.124Zm1.012-3.851c.229.123.25.06.291-.858.024-.545-.006-.94-.067-.878a5.7,5.7,0,0,0-.8,2.044c.109-.042.189.029.2.178s.045.052.075-.185C38.256,43.2,38.3,43.158,38.51,43.273Z" transform="translate(0 0)" fill="#035e03"/></g><g transform="translate(5)"><g transform="matrix(-0.966, 0.259, -0.259, -0.966, 81.273, 149.812)"><path d="M33.808,1.377c.616,3.7.847,8.759.432,8.759a3.629,3.629,0,0,1-.95-.484A30.512,30.512,0,0,0,29.5,7.645a.383.383,0,0,0-.276.2c-.094.168-.3.1-1.321-.413-1.059-.536-1.247-.593-1.507-.454s-.43.1-1.27-.308c-1.069-.512-1.2-.538-1.557-.314-.2.125-.349.092-.818-.18-.93-.54-1.14-.569-1.24-.171-.047.188-.123.321-.168.3a5.065,5.065,0,0,0-2.049-.694,10.958,10.958,0,0,1-3.45-1,7.5,7.5,0,0,0-1.412-.466c-.155.155.2.508,1.508,1.514.781.6,1.53,1.191,1.666,1.315a6.431,6.431,0,0,0,.57.451.767.767,0,0,1,.328.52c0,.227.179.383.765.676.48.24.7.417.6.478-.3.184-.006.492.728.767a4.478,4.478,0,0,0,.992.275c.294,0,.31.051.125.4-.116.218-.064.267.426.406a6.191,6.191,0,0,0,1.307.169c.695.01.743.031.678.29s0,.284.891.365a4.959,4.959,0,0,0,1.4-.043c.351-.1.424-.095.37.047-.107.28.58.349,2.664.269l1.9-.073-1.311.464c-1.241.44-4.057,1.312-5.28,1.637-.309.082-.539.19-.512.241.1.184-.38.486-.828.525-.252.022-.969.13-1.593.241-.953.169-1.149.247-1.227.485a1.391,1.391,0,0,0-.077.427,2.6,2.6,0,0,1-1.121.382c-1.21.254-1.689.555-1.554.978.062.195-.009.261-.354.33-1.2.24-1.785.473-2,.8s-.209.354,0,.591c.194.214.2.251.026.251a10.325,10.325,0,0,0-1.142.213c-.705.159-.992.291-1.145.524-.191.292-.185.328.106.57.17.142.266.267.212.279l-.2.039a8.551,8.551,0,0,0-2.409,1.082c-.3.322-.3.336-.061.513s.245.184,0,.269a6.827,6.827,0,0,0-1.654.8c-.251.227-.32.7-.1.7.35,0,.053.228-.654.5a3.045,3.045,0,0,0-1.059.653l-.275.349.275.182c.262.174.235.205-.61.7-.96.561-1.113.716-1.014,1.033.042.134-.06.264-.29.369-.556.253-1.363.94-1.324,1.127.052.248-1.465,1.419-3.035,2.343-1.027.6-1.295.815-1.078.847a3.074,3.074,0,0,0,.973-.18c.8-.26,3.468-1.314,3.793-1.5a.559.559,0,0,1,.412-.056A2.512,2.512,0,0,0,6.27,30.3c.458-.239.877-.454.931-.479s.1.049.1.163.032.208.072.208a5.22,5.22,0,0,0,1.41-.822c.488-.384.5-.386.572-.113.04.154.12.279.177.279A7.286,7.286,0,0,0,11.139,28.2c.035-.095.125-.008.209.2l.147.369.426-.3a10.58,10.58,0,0,0,1.042-.914l.617-.613.147.447a1.049,1.049,0,0,0,.217.446,13.225,13.225,0,0,0,1.961-1.85l.413-.512.138.395c.076.217.193.395.26.395a9.53,9.53,0,0,0,1.852-2.014c.1-.271.111-.268.273.081.092.2.239.36.328.36a7.7,7.7,0,0,0,1.769-1.873c0-.088.093,0,.2.2s.24.361.293.361a10.713,10.713,0,0,0,1.712-1.97l.267-.439.134.352c.074.194.188.352.254.352A11.393,11.393,0,0,0,25.525,19.4c0-.083.076-.023.164.135a1.089,1.089,0,0,0,.246.328,13.976,13.976,0,0,0,1.908-2.44c.2-.382.2-.383.353-.1s.159.281.622-.206c.257-.271.706-.8,1-1.176a20.056,20.056,0,0,1,2.914-2.791l.457-.324-.293.412a2.121,2.121,0,0,0-.293.5,5.833,5.833,0,0,1-.514.843,20.611,20.611,0,0,1-3.1,3.245,5.434,5.434,0,0,0-1.1,1.262c-.154.386-.387.606-1.808,1.7a2.4,2.4,0,0,0-.823,1.1c0,.028.1.054.229.057.184.006.165.051-.094.229a11.3,11.3,0,0,0-2.305,1.92c-.149.287-.142.348.048.454.121.068.191.147.155.177s-.477.339-.982.688c-1.167.807-1.665,1.375-1.206,1.375a.537.537,0,0,1,.32.149c.112.112-.038.271-.6.632-.712.461-1.6,1.33-1.6,1.568,0,.062.147.149.328.195s.328.13.328.188a3.67,3.67,0,0,1-.8.685,4.154,4.154,0,0,0-.981.93c-.175.338-.167.354.21.437.5.11.493.212-.034.5a6.43,6.43,0,0,0-1.8,1.626c0,.088.153.239.339.337l.338.177-.541.358a6.248,6.248,0,0,0-1.577,1.4c0,.061.224.178.5.26l.5.149-1.154,1.137a6.188,6.188,0,0,0-1.154,1.349c0,.138.159.241.458.3l.458.086-.829.813c-1.033,1.013-1.14,1.252-.609,1.358a.961.961,0,0,1,.391.127,9.954,9.954,0,0,1-.643.846c-.661.82-.89,1.3-.623,1.3a.824.824,0,0,1,.344.124c.163.1.152.157-.072.358a3.572,3.572,0,0,0-.972,1.4c0,.146.111.217.339.217H12.3l-.346.411a4.136,4.136,0,0,0-.857,1.616.231.231,0,0,0,.254.2c.238,0,.229.054-.131.849-.395.87-.5,1.469-.24,1.305q.145-.09.061.177c-.047.147-.2.67-.333,1.163a23.743,23.743,0,0,1-1.044,2.627c-.437.952-.795,1.772-.795,1.823,0,.261.659-.583,1.8-2.3a25.893,25.893,0,0,1,1.558-2.188,4.351,4.351,0,0,0,.643-1.017c.193-.407.407-.7.477-.662a.336.336,0,0,0,.328-.089,5.1,5.1,0,0,0,.893-1.753l.094-.39.233.309.233.309.2-.292a5.178,5.178,0,0,0,.445-1.065c.24-.769.384-.906.662-.629a.244.244,0,0,0,.272.068,3.581,3.581,0,0,0,.674-1.5l.074-.434.311.29c.3.282.315.283.455.041a9.3,9.3,0,0,0,.81-2.174l.088-.522.29.273a1.007,1.007,0,0,0,.435.273,5.526,5.526,0,0,0,.559-2.179v-.357l.338.318c.327.308.344.31.519.071a2.254,2.254,0,0,0,.263-.8c.123-.823.246-.965.576-.666.149.135.3.218.332.184a11.474,11.474,0,0,0,.786-2.308,1.2,1.2,0,0,1,.171-.557,1.34,1.34,0,0,1,.381.285c.167.157.34.248.385.2a7.142,7.142,0,0,0,.441-2.093c0-.522.129-.616.4-.295a.532.532,0,0,0,.268.2c.141,0,.365-.7.562-1.775.151-.819.179-.868.378-.668a.912.912,0,0,0,.276.215,12.083,12.083,0,0,0,.862-2.864l.079-.7.361.284c.269.212.375.24.416.111.03-.1.241-.749.469-1.452a15.846,15.846,0,0,0,.5-1.88l.087-.6.354.279.354.279.129-.5c.316-1.21.523-2.11.6-2.626.087-.552.227-.694.4-.41.117.189.35-.474.834-2.376a27.331,27.331,0,0,1,1.732-4.654l.256-.524-.061,1.049a10.13,10.13,0,0,1-.391,2.1c-.182.577-.422,1.491-.533,2.032-.175.854-.177,1-.013,1.125.118.089.143.188.065.266a21.917,21.917,0,0,0-1.047,2.919c0,.061.142.084.315.051l.315-.06-.5,1.254a13.991,13.991,0,0,0-.591,1.717c-.081.434-.065.463.255.463a.753.753,0,0,1,.342.041c0,.023-.144.339-.32.7a10.078,10.078,0,0,0-.729,2.388c0,.08.183.145.407.145.337,0,.391.039.311.229-.32.76-.849,2.223-.919,2.542-.079.358-.062.375.39.375h.473l-.185.36a12.206,12.206,0,0,0-.739,2.355c0,.146.1.182.4.139.327-.048.382-.021.306.149a21.3,21.3,0,0,0-.771,2.352l-.092.44.557-.094c.511-.086.549-.074.452.15a9.286,9.286,0,0,0-.672,2.339l-.087.743.469-.088.468-.088-.315.767a4.274,4.274,0,0,0-.318,1.209c0,.425.013.439.4.361.345-.069.394-.048.322.14-.591,1.541-.588,1.959.014,1.9l.412-.041-.2.566a4.858,4.858,0,0,0-.217,1.221l-.019.655.5-.03c.434-.026.491,0,.407.2a8.332,8.332,0,0,0-.161,1.457l-.063,1.23.474-.089c.468-.088.472-.084.344.253a2.82,2.82,0,0,0-.01,1.622.281.281,0,0,0,.326.1c.178-.068.21.037.21.691,0,.881.086,1.2.306,1.111.109-.042.14.155.107.677-.043.7-.031.731.229.648s.275-.037.275.524a3.063,3.063,0,0,0,.183,1.025,9.246,9.246,0,0,1,.335,1.789c.175,1.592.5,3.951.622,4.523l.084.393.1-.328a13.965,13.965,0,0,0,.109-1.959,21.012,21.012,0,0,1,.435-4.742,1.57,1.57,0,0,0,.082-.818c-.042-.669-.024-.729.2-.659s.241,0,.2-.977-.032-1.053.215-1.029.263-.053.263-.761a4.5,4.5,0,0,0-.109-1.087c-.1-.277-.081-.293.249-.21l.358.09-.069-1.112a5.412,5.412,0,0,0-.225-1.4c-.15-.281-.139-.288.312-.2l.467.088v-.51a7.064,7.064,0,0,0-.46-2.057c-.106-.249,0-.246.709.022.15.056.171-.086.113-.772a7.019,7.019,0,0,0-.272-1.413l-.2-.573.456.074c.314.051.477.02.523-.1a8.671,8.671,0,0,0-.669-2.218c-.1-.218-.062-.234.306-.153.4.088.413.077.413-.358a6.74,6.74,0,0,0-.793-2.431c-.321-.544-.269-.625.279-.435l.417.145-.063-.654a5.224,5.224,0,0,0-.468-1.47,4.275,4.275,0,0,1-.365-.857.907.907,0,0,1,.39.094c.747.284.576-.62-.553-2.925-.03-.062.129-.072.354-.022.394.087.409.074.407-.347a6.3,6.3,0,0,0-.457-1.551c-.25-.613-.455-1.129-.457-1.147a.886.886,0,0,1,.336-.033c.312,0,.331-.033.25-.426a8.7,8.7,0,0,0-.535-1.366c-.245-.517-.446-.969-.446-1s.118-.033.262,0c.413.108.336-.536-.2-1.648-.252-.527-.459-.983-.459-1.015s.147-.02.328.025c.272.068.328.035.328-.194,0-.152.059-.276.131-.276s.131.295.131.655c0,.483.05.655.189.655a.347.347,0,0,0,.27-.131c.2-.324.444-.118.429.36a16.751,16.751,0,0,0,.246,2.686c.032.053.194.008.36-.1l.3-.2.078,1.283c.088,1.444.177,1.784.437,1.678l.348-.142c.125-.051.211.294.335,1.34a10.571,10.571,0,0,0,.234,1.475c.037.037.232-.028.434-.144l.367-.211.088,1.065a11.914,11.914,0,0,0,.222,1.567l.134.5.434-.331.434-.331.084.712a8.361,8.361,0,0,0,.468,2.148c.1.158.166.153.455-.036l.339-.222v.495a4.877,4.877,0,0,0,.138,1.019c.243.925.233.912.5.673.366-.332.544-.259.544.222a5.552,5.552,0,0,0,.386,1.923,1.026,1.026,0,0,0,.342-.193c.378-.285.407-.257.431.422a4.487,4.487,0,0,0,.523,2,.983.983,0,0,0,.357-.192c.366-.277.451-.247.452.16a3.139,3.139,0,0,0,.459,1.53c.181.237.206.239.438.029s.249-.2.324.347a5.27,5.27,0,0,0,.217.935c.135.354.148.359.465.152s.326-.2.326.106a3.276,3.276,0,0,0,.267.942c.2.474.3.586.42.47.226-.226.362-.186.362.1a2.256,2.256,0,0,0,.221.722c.166.348.281.445.459.389.151-.048.237-.009.237.107a4.951,4.951,0,0,0,.568,1.09,28.159,28.159,0,0,1,1.661,2.862,5.106,5.106,0,0,0,1.019,1.544,7.405,7.405,0,0,0-.615-2.1,19.345,19.345,0,0,1-1.059-4.193c.21-.07.151-.582-.132-1.136-.314-.615-.311-.59-.065-.59.338,0,.24-.348-.568-2.018-.031-.064.1-.078.288-.03.313.079.345.052.345-.3a4.809,4.809,0,0,0-.5-1.379l-.5-1h.37c.3,0,.37-.057.37-.314a6.812,6.812,0,0,0-1.121-2.262c-.334-.439-.255-.57.345-.57.546,0,.25-.672-.75-1.7l-.7-.721.454-.133.454-.133-.272-.457a8.1,8.1,0,0,0-.936-1.137l-.664-.681.352-.088c.5-.125.36-.483-.518-1.347a7.475,7.475,0,0,1-.711-.754c0-.03.122-.055.271-.055.514,0,.075-.833-.807-1.532l-.536-.424.339-.085c.187-.047.339-.142.339-.211a1.721,1.721,0,0,0-.4-.764c-.053-.036-.376-.324-.718-.641-.527-.487-.589-.594-.408-.7.318-.178.084-.534-1.071-1.631-.889-.844-.958-.944-.7-1.024s.269-.113.09-.459a6.11,6.11,0,0,0-1.048-1.122c-.873-.767-1.016-.982-.651-.982.4,0,.044-.582-1-1.623-.571-.568-1.038-1.055-1.038-1.081s.088-.048.2-.048c.224,0,.263-.206.063-.329a.145.145,0,0,1-.065-.192,3.968,3.968,0,0,0-.973-.988,5.551,5.551,0,0,1-1.167-1.225,9.871,9.871,0,0,0-1.117-1.527c-1.3-1.554-3.588-4.91-2.9-4.26A26.031,26.031,0,0,1,39.949,16.7c.9,1.317,1.011,1.425,1.186,1.173.1-.144.154-.154.2-.037a12.762,12.762,0,0,0,1.422,2.329c.545.713.68.824.8.659.2-.269.272-.249.36.1a4.5,4.5,0,0,0,.607,1c.293.388.59.8.66.918.116.192.145.189.316-.031s.21-.2.514.393a6.6,6.6,0,0,0,.726,1.094c.406.467.46.462.733-.066.04-.078.1-.064.145.036.068.147,1.439,2.1,1.58,2.251.03.032.18-.068.334-.221l.279-.279.274.506a5.226,5.226,0,0,0,1.35,1.574c.062,0,.183-.188.269-.417l.157-.417.363.537A6.48,6.48,0,0,0,53.7,29.406c.064,0,.184-.206.267-.459.167-.507.335-.587.453-.216a10.548,10.548,0,0,0,2.138,1.986c.066,0,.194-.162.284-.36.164-.359.165-.359.383-.09a8.826,8.826,0,0,0,2.078,1.5c.094,0,.17-.108.17-.24,0-.395.14-.418.48-.078a5.367,5.367,0,0,0,1.744.974c.074,0,.135-.1.135-.217,0-.2.023-.2.229-.017a2.412,2.412,0,0,0,1.213.57,16.26,16.26,0,0,1,2.163.841c2.346,1.038,2.425,1.068,2.425.928a4.476,4.476,0,0,0-.885-.81,13.7,13.7,0,0,1-2.7-2.576c.023-.2-.9-1.016-1.512-1.332-.442-.229-.443-.232-.164-.427s.27-.206.048-.408a5.456,5.456,0,0,0-.991-.558c-.689-.316-.736-.363-.521-.523.35-.26.1-.562-.862-1.055-1-.51-1.056-.564-.767-.726.482-.269-.252-.865-1.658-1.346-.229-.078-.232-.1-.034-.32.174-.192.183-.276.051-.45a7.674,7.674,0,0,0-2.289-1.146c-.2,0-.184-.041.077-.242.63-.484-.076-1.114-1.654-1.477-.718-.165-.833-.282-.477-.481.437-.245-.022-.628-1.288-1.078-1.764-.626-1.749-.617-1.466-.93.223-.246.221-.267-.039-.528a3.5,3.5,0,0,0-1.485-.52c-1.091-.224-1.548-.453-1.565-.786a5.766,5.766,0,0,0-1.151-.51,5.384,5.384,0,0,1-1.427-.729c-.386-.413-.911-.662-3.85-1.829-1.406-.558-2.881-1.186-3.277-1.395-.659-.347-.681-.372-.262-.3.252.043,1.061.248,1.8.455,1.959.55,2.267.6,2.267.336,0-.191.031-.194.295-.023a8.754,8.754,0,0,0,2.261.518c.072.01.112-.12.088-.287-.039-.281-.019-.292.26-.143a14.128,14.128,0,0,0,2.241.642c.054,0,.1-.122.1-.274,0-.209.056-.255.229-.188a4.769,4.769,0,0,0,1.675.285.207.207,0,0,0,.111-.277c-.064-.167-.022-.183.232-.087a6.288,6.288,0,0,0,1.016.214l.706.1-.065-.342-.065-.342.9.083c.858.08.9.071.9-.2s.069-.281.838-.281c.717,0,.835-.033.819-.229-.01-.126.056-.214.147-.2a2.843,2.843,0,0,0,.721-.091c.306-.068.762-.16,1.014-.2a.943.943,0,0,0,.564-.269.425.425,0,0,1,.339-.189,10.553,10.553,0,0,0,3.617-1.567A15.7,15.7,0,0,0,58.172,9.4c-2.307.012-2.632-.012-2.858-.216a1.346,1.346,0,0,0-.891-.229,1.207,1.207,0,0,1-.935-.28c-.26-.245-.456-.281-1.553-.286-1.065-.005-1.25-.037-1.221-.212.094-.571-.34-.655-1.665-.322-.78.2-.857.2-1.059-.007-.246-.246-.728-.191-1.5.17a3.652,3.652,0,0,1-1.376.219,28.541,28.541,0,0,0-6.685,1.834,5.665,5.665,0,0,1-2.206.543c-.923-.118-1.038.289-1.133-2.335A57.317,57.317,0,0,0,34.165.139C33.523-.409,33.714.8,33.808,1.377Zm1.517,10.092c-.241.156-1.322.095-1.161-.066a.9.9,0,0,1,.526-.115c.22.006.4-.051.4-.127s.08-.073.2.03C35.455,11.324,35.461,11.38,35.325,11.468Zm1.648,7.718a3.924,3.924,0,0,1,.28,1.016l.081.617L36.96,20.1a2.337,2.337,0,0,1-.321-1.016C36.709,18.7,36.735,18.709,36.974,19.187Zm1,3.8c.226-.121.247-.059.287.846.024.537-.006.927-.066.866a5.622,5.622,0,0,1-.79-2.016c.107.041.186-.028.2-.175s.045-.052.074.183C37.721,23.057,37.761,23.1,37.972,22.984Z" transform="translate(0 0)" fill="#019201"/></g><g transform="translate(75.216 227.874) rotate(-133)"><path d="M43.375,1.766C44.166,6.516,44.462,13,43.93,13a4.656,4.656,0,0,1-1.219-.621,39.148,39.148,0,0,0-4.863-2.575.491.491,0,0,0-.354.256c-.121.216-.385.133-1.7-.53-1.359-.688-1.6-.761-1.933-.582s-.552.122-1.63-.395c-1.372-.657-1.536-.691-2-.4-.257.16-.448.118-1.049-.231C28,7.231,27.726,7.194,27.6,7.7c-.06.241-.158.411-.216.379a6.5,6.5,0,0,0-2.629-.89,14.06,14.06,0,0,1-4.426-1.286,9.626,9.626,0,0,0-1.812-.6c-.2.2.251.652,1.934,1.942,1,.768,1.963,1.528,2.137,1.688a8.248,8.248,0,0,0,.732.579.984.984,0,0,1,.42.667c0,.291.23.491.982.867.616.308.9.535.774.614-.383.237-.008.631.934.984A5.745,5.745,0,0,0,27.7,13c.377,0,.4.065.16.509-.149.279-.083.343.547.521a7.944,7.944,0,0,0,1.676.217c.891.013.953.04.87.372s-.006.365,1.143.468a6.363,6.363,0,0,0,1.794-.056c.45-.133.544-.121.475.06-.138.359.744.448,3.418.345l2.441-.094-1.682.6c-1.592.564-5.2,1.684-6.774,2.1-.4.105-.692.244-.657.309.125.236-.488.624-1.062.673-.323.028-1.243.167-2.044.309-1.223.217-1.475.317-1.574.622a1.785,1.785,0,0,0-.1.548,3.341,3.341,0,0,1-1.438.49c-1.553.326-2.167.712-1.994,1.255.079.25-.012.335-.454.424-1.542.308-2.291.607-2.565,1.025s-.269.454.006.758c.249.275.254.322.034.322a13.245,13.245,0,0,0-1.465.273c-.9.2-1.273.373-1.469.672-.246.375-.237.42.136.731.219.182.341.343.271.358s-.183.037-.252.05a10.971,10.971,0,0,0-3.091,1.388c-.388.413-.39.431-.078.659s.315.236,0,.346a8.758,8.758,0,0,0-2.122,1.023c-.322.291-.411.893-.132.893.449,0,.068.293-.839.644a3.907,3.907,0,0,0-1.359.838l-.352.448.352.234c.337.223.3.263-.783.9-1.232.72-1.428.919-1.3,1.325.054.172-.078.339-.371.473-.714.325-1.749,1.206-1.7,1.446.067.318-1.879,1.82-3.894,3.006C.155,41.255-.188,41.525.089,41.566a3.944,3.944,0,0,0,1.248-.231C2.368,41,5.787,39.649,6.2,39.411a.718.718,0,0,1,.529-.072,3.223,3.223,0,0,0,1.31-.464c.588-.306,1.125-.582,1.195-.614s.126.063.126.209.042.266.092.266a6.7,6.7,0,0,0,1.81-1.054c.626-.492.643-.5.734-.145.052.2.154.358.227.358a9.348,9.348,0,0,0,2.063-1.721c.045-.122.16-.01.268.261l.188.474.546-.386a13.574,13.574,0,0,0,1.337-1.173l.791-.787.189.573a1.346,1.346,0,0,0,.279.573,16.968,16.968,0,0,0,2.516-2.374l.53-.657.177.507c.1.279.248.507.334.507a12.227,12.227,0,0,0,2.376-2.585c.132-.348.143-.344.351.1.118.254.307.462.42.462a9.872,9.872,0,0,0,2.27-2.4c0-.112.12,0,.258.258s.307.463.376.463a13.745,13.745,0,0,0,2.2-2.527l.343-.563.172.452c.095.249.241.452.326.452a14.617,14.617,0,0,0,2.215-2.917c0-.107.1-.029.21.173a1.4,1.4,0,0,0,.315.421,17.932,17.932,0,0,0,2.448-3.131c.254-.49.257-.491.453-.125s.2.361.8-.264c.33-.348.906-1.026,1.279-1.508a25.732,25.732,0,0,1,3.738-3.581l.586-.416-.376.528a2.722,2.722,0,0,0-.376.638,7.485,7.485,0,0,1-.66,1.081,26.444,26.444,0,0,1-3.977,4.163,6.972,6.972,0,0,0-1.405,1.619c-.2.5-.5.778-2.32,2.182a3.083,3.083,0,0,0-1.056,1.408c0,.036.132.069.294.074.236.007.212.065-.121.294a14.5,14.5,0,0,0-2.958,2.463c-.191.368-.183.446.061.582.155.087.245.189.2.227s-.612.435-1.26.883c-1.5,1.035-2.136,1.765-1.547,1.765a.689.689,0,0,1,.41.192c.143.143-.049.348-.765.811-.914.592-2.05,1.707-2.05,2.012,0,.079.189.192.42.25s.421.167.421.241a4.709,4.709,0,0,1-1.026.879,5.33,5.33,0,0,0-1.259,1.194c-.224.434-.214.454.269.56.642.141.633.273-.044.641a8.25,8.25,0,0,0-2.315,2.086c0,.113.2.307.435.432l.433.227-.693.459a8.017,8.017,0,0,0-2.023,1.8c0,.078.288.228.639.333l.639.192-1.48,1.459a7.939,7.939,0,0,0-1.48,1.731c0,.177.2.31.588.382l.588.11L17.717,51.4c-1.326,1.3-1.463,1.606-.781,1.742a1.232,1.232,0,0,1,.5.162,12.771,12.771,0,0,1-.825,1.086c-.848,1.053-1.142,1.667-.8,1.672a1.057,1.057,0,0,1,.441.159c.21.132.2.2-.093.46a4.583,4.583,0,0,0-1.247,1.791c0,.187.142.278.435.278h.435l-.443.527a5.306,5.306,0,0,0-1.1,2.073.3.3,0,0,0,.326.259c.305,0,.294.07-.168,1.089-.506,1.116-.647,1.884-.308,1.674q.186-.115.078.227c-.06.188-.252.86-.428,1.493A30.465,30.465,0,0,1,12.4,69.464c-.561,1.221-1.02,2.273-1.02,2.339,0,.335.846-.748,2.3-2.948a33.224,33.224,0,0,1,2-2.808,5.582,5.582,0,0,0,.824-1.305c.247-.522.522-.9.612-.849a.432.432,0,0,0,.421-.114,6.543,6.543,0,0,0,1.145-2.249l.121-.5.3.4.3.4.263-.375a6.644,6.644,0,0,0,.571-1.366c.307-.987.493-1.163.849-.807a.313.313,0,0,0,.35.087,4.594,4.594,0,0,0,.865-1.924l.1-.557.4.373c.388.362.4.363.584.052a11.926,11.926,0,0,0,1.04-2.789l.113-.669.372.35a1.292,1.292,0,0,0,.558.35,7.09,7.09,0,0,0,.717-2.8v-.459l.434.408c.42.395.441.4.666.091a2.892,2.892,0,0,0,.338-1.023c.158-1.056.316-1.238.739-.854.191.173.383.279.426.237a14.721,14.721,0,0,0,1.008-2.961,1.535,1.535,0,0,1,.219-.715,1.719,1.719,0,0,1,.489.365c.214.2.436.318.494.26a9.164,9.164,0,0,0,.566-2.685c0-.67.165-.791.507-.378a.682.682,0,0,0,.344.252c.182,0,.468-.9.721-2.277.194-1.05.229-1.113.485-.858a1.17,1.17,0,0,0,.354.276,15.5,15.5,0,0,0,1.105-3.674l.1-.9.463.365c.345.272.481.308.533.142.039-.122.31-.961.6-1.863a20.332,20.332,0,0,0,.644-2.412l.112-.772.454.358.454.358.166-.637c.405-1.553.671-2.707.776-3.37.112-.708.291-.891.517-.526.15.243.449-.609,1.069-3.048a35.064,35.064,0,0,1,2.222-5.971l.329-.673-.078,1.345a13,13,0,0,1-.5,2.691c-.233.74-.541,1.913-.683,2.607-.225,1.1-.227,1.285-.017,1.444.152.114.183.242.084.341a28.121,28.121,0,0,0-1.343,3.745c0,.078.182.107.4.065l.4-.077-.647,1.609a17.95,17.95,0,0,0-.759,2.2c-.1.557-.084.594.328.594a.966.966,0,0,1,.439.053c0,.029-.185.435-.41.9a12.93,12.93,0,0,0-.935,3.063c0,.1.235.186.523.186.433,0,.5.05.4.294-.411.976-1.089,2.852-1.179,3.261-.1.46-.079.481.5.481h.606l-.238.462A15.66,15.66,0,0,0,39.47,47.1c0,.187.135.234.512.179.419-.062.49-.027.393.191a27.329,27.329,0,0,0-.99,3.017l-.118.564.715-.121c.656-.111.7-.095.58.193a11.914,11.914,0,0,0-.862,3l-.112.953.6-.113.6-.113-.4.984a5.484,5.484,0,0,0-.408,1.551c0,.546.016.564.518.463.443-.089.506-.061.413.18-.758,1.977-.754,2.514.018,2.436l.528-.053-.254.726a6.232,6.232,0,0,0-.278,1.567l-.024.841.648-.039c.557-.034.63,0,.522.252a10.69,10.69,0,0,0-.206,1.87L41.782,67.2l.608-.114c.6-.113.606-.108.442.325a3.618,3.618,0,0,0-.013,2.081.361.361,0,0,0,.418.131c.228-.088.269.048.269.887,0,1.131.111,1.534.392,1.425.139-.054.179.2.138.868-.055.893-.04.938.294.832s.353-.048.353.673a3.929,3.929,0,0,0,.235,1.315,11.862,11.862,0,0,1,.43,2.3c.225,2.042.641,5.07.8,5.8l.108.5.123-.42a17.914,17.914,0,0,0,.14-2.514c.02-2.54.332-5.941.559-6.084a2.014,2.014,0,0,0,.106-1.049c-.054-.858-.03-.936.254-.845s.309,0,.251-1.254-.041-1.351.276-1.321.337-.068.337-.976a5.772,5.772,0,0,0-.14-1.394c-.128-.355-.1-.376.32-.27l.459.115-.089-1.427a6.944,6.944,0,0,0-.289-1.8c-.193-.36-.179-.369.4-.26l.6.113v-.655a9.063,9.063,0,0,0-.59-2.64c-.136-.319,0-.315.91.028.192.072.219-.11.145-.99a9.005,9.005,0,0,0-.349-1.813l-.258-.735.585.095c.4.065.611.025.671-.129a11.125,11.125,0,0,0-.858-2.846c-.122-.28-.08-.3.393-.2.514.113.53.1.53-.459a8.648,8.648,0,0,0-1.018-3.119c-.412-.7-.345-.8.357-.558l.534.186-.081-.839a6.7,6.7,0,0,0-.6-1.887,5.486,5.486,0,0,1-.469-1.1,1.164,1.164,0,0,1,.5.12c.959.365.739-.8-.709-3.753-.039-.079.165-.092.454-.029.506.111.524.1.522-.445a8.082,8.082,0,0,0-.586-1.989c-.321-.786-.584-1.448-.586-1.472a1.137,1.137,0,0,1,.431-.042c.4,0,.425-.042.32-.547a11.156,11.156,0,0,0-.686-1.753c-.315-.663-.572-1.243-.572-1.288s.151-.042.336.006c.53.139.431-.687-.252-2.114-.324-.676-.589-1.261-.589-1.3s.189-.026.42.032c.349.088.421.045.421-.249,0-.2.076-.355.168-.355s.168.378.168.841c0,.62.064.841.242.841a.445.445,0,0,0,.346-.168c.257-.415.57-.152.551.462a21.49,21.49,0,0,0,.316,3.446c.042.068.249.01.462-.129l.386-.253.1,1.646c.113,1.853.227,2.289.561,2.153l.446-.182c.16-.065.271.377.43,1.719a13.561,13.561,0,0,0,.3,1.893c.047.047.3-.036.557-.185l.471-.27.113,1.367a15.286,15.286,0,0,0,.285,2.01l.172.643.557-.425.557-.425.107.914a10.727,10.727,0,0,0,.6,2.757c.126.2.213.2.583-.046l.435-.285v.635a6.257,6.257,0,0,0,.177,1.307c.311,1.187.3,1.17.637.864.47-.425.7-.332.7.285a7.124,7.124,0,0,0,.5,2.467,1.316,1.316,0,0,0,.439-.247c.484-.366.522-.33.553.541a5.756,5.756,0,0,0,.671,2.565,1.261,1.261,0,0,0,.458-.247c.469-.355.579-.317.58.2a4.028,4.028,0,0,0,.588,1.963c.232.3.264.306.562.037s.32-.257.416.446a6.762,6.762,0,0,0,.278,1.2c.173.455.19.46.6.195s.418-.262.418.137a4.2,4.2,0,0,0,.342,1.209c.26.608.389.752.538.6.29-.29.465-.239.465.135a2.894,2.894,0,0,0,.284.926c.213.446.36.571.589.5.194-.062.3-.012.3.137a6.353,6.353,0,0,0,.729,1.4,36.129,36.129,0,0,1,2.131,3.673,6.55,6.55,0,0,0,1.307,1.98,9.5,9.5,0,0,0-.789-2.7,24.82,24.82,0,0,1-1.358-5.379c.269-.09.193-.747-.169-1.458-.4-.789-.4-.757-.084-.757.433,0,.307-.447-.728-2.589-.04-.082.127-.1.37-.039.4.1.442.066.442-.379a6.17,6.17,0,0,0-.643-1.769L68.457,56.9h.475c.389,0,.475-.073.475-.4a8.739,8.739,0,0,0-1.438-2.9c-.429-.563-.327-.731.443-.731.7,0,.321-.862-.962-2.186l-.9-.925.583-.171.583-.171-.349-.586a10.392,10.392,0,0,0-1.2-1.459l-.852-.873.452-.113c.639-.16.462-.62-.664-1.728a9.588,9.588,0,0,1-.912-.967c0-.038.156-.07.348-.07.66,0,.1-1.069-1.036-1.965l-.687-.544L63.253,41c.239-.06.435-.182.435-.27a2.208,2.208,0,0,0-.51-.98c-.068-.046-.482-.416-.921-.822-.676-.625-.756-.762-.523-.892.408-.228.108-.685-1.374-2.093-1.141-1.083-1.229-1.211-.9-1.314s.345-.144.115-.589A7.84,7.84,0,0,0,58.228,32.6c-1.12-.984-1.3-1.26-.835-1.26.517,0,.056-.746-1.286-2.082-.733-.729-1.332-1.353-1.332-1.388s.113-.062.252-.062c.287,0,.338-.264.081-.422a.186.186,0,0,1-.084-.246,5.091,5.091,0,0,0-1.248-1.267,7.121,7.121,0,0,1-1.5-1.572,12.665,12.665,0,0,0-1.433-1.959c-1.674-1.994-4.6-6.3-3.719-5.466a33.4,33.4,0,0,1,4.127,4.55c1.157,1.69,1.3,1.829,1.521,1.5.128-.184.2-.2.258-.048a16.373,16.373,0,0,0,1.825,2.988c.7.914.872,1.057,1.028.846.254-.345.349-.32.462.125a5.772,5.772,0,0,0,.779,1.284c.376.5.756,1.028.847,1.177.148.246.186.242.4-.039s.269-.257.66.5a8.468,8.468,0,0,0,.931,1.4c.522.6.591.593.94-.084.052-.1.127-.082.186.046.087.188,1.846,2.7,2.027,2.888.038.041.231-.087.428-.284l.358-.359.352.65a6.7,6.7,0,0,0,1.732,2.02c.079,0,.234-.241.346-.535l.2-.535.466.689A8.314,8.314,0,0,0,68.9,37.727c.082,0,.236-.265.343-.589.215-.65.43-.753.581-.278a13.533,13.533,0,0,0,2.743,2.548c.085,0,.249-.208.365-.462.21-.461.211-.461.491-.115a11.323,11.323,0,0,0,2.666,1.923c.12,0,.219-.139.219-.308,0-.507.18-.536.616-.1A6.885,6.885,0,0,0,79.156,41.6c.1,0,.174-.125.174-.278,0-.251.029-.253.294-.022a3.1,3.1,0,0,0,1.556.732,20.859,20.859,0,0,1,2.775,1.079c3.01,1.332,3.111,1.37,3.111,1.191a5.742,5.742,0,0,0-1.135-1.04,17.582,17.582,0,0,1-3.466-3.3c.029-.259-1.156-1.3-1.94-1.71-.567-.294-.568-.3-.21-.548s.347-.265.061-.523a7,7,0,0,0-1.271-.716c-.884-.4-.945-.465-.668-.671.449-.334.133-.721-1.106-1.354-1.28-.654-1.355-.724-.984-.931.618-.346-.324-1.11-2.128-1.727-.294-.1-.3-.13-.043-.411.223-.246.235-.354.065-.578A9.846,9.846,0,0,0,71.3,29.314c-.251,0-.236-.053.1-.31.808-.621-.1-1.43-2.122-1.9-.921-.212-1.069-.361-.611-.617.561-.314-.028-.806-1.653-1.382-2.263-.8-2.244-.791-1.881-1.193.286-.316.284-.343-.05-.677a4.484,4.484,0,0,0-1.906-.668c-1.4-.287-1.986-.581-2.008-1.009a7.4,7.4,0,0,0-1.477-.654,6.907,6.907,0,0,1-1.83-.936c-.5-.53-1.169-.849-4.939-2.347-1.8-.716-3.7-1.522-4.2-1.789-.845-.445-.874-.478-.336-.385.324.056,1.361.318,2.305.584,2.513.706,2.909.765,2.909.431,0-.246.04-.249.378-.029a11.231,11.231,0,0,0,2.9.665c.092.012.144-.154.113-.369-.05-.36-.024-.375.333-.183a18.125,18.125,0,0,0,2.875.824c.07,0,.126-.157.126-.351,0-.268.071-.327.294-.242a6.119,6.119,0,0,0,2.149.365.265.265,0,0,0,.142-.355c-.082-.214-.028-.235.3-.111a8.067,8.067,0,0,0,1.3.274l.906.124-.084-.438-.084-.438,1.154.107c1.1.1,1.154.091,1.154-.253s.088-.36,1.075-.36c.92,0,1.071-.042,1.051-.294-.013-.162.072-.275.188-.252a3.647,3.647,0,0,0,.925-.117c.392-.088.978-.206,1.3-.262a1.21,1.21,0,0,0,.723-.346.545.545,0,0,1,.434-.243,13.54,13.54,0,0,0,4.641-2.01,20.138,20.138,0,0,0-3.26-.11c-2.96.016-3.377-.016-3.666-.277a1.727,1.727,0,0,0-1.144-.294,1.549,1.549,0,0,1-1.2-.359c-.334-.314-.586-.36-1.992-.367-1.366-.007-1.6-.048-1.567-.271.12-.733-.436-.84-2.136-.413-1,.251-1.1.251-1.359-.009-.315-.315-.934-.245-1.92.218a4.685,4.685,0,0,1-1.766.281c-1.28,0-4.33.841-8.577,2.353a7.269,7.269,0,0,1-2.83.7c-1.185-.151-1.332.371-1.454-3A73.537,73.537,0,0,0,43.834.178C43.01-.525,43.255,1.029,43.375,1.766Zm1.947,12.948c-.309.2-1.7.121-1.489-.085a1.156,1.156,0,0,1,.675-.148c.282.008.512-.065.512-.163s.1-.093.26.038C45.488,14.529,45.5,14.6,45.322,14.714Zm2.115,9.9a5.034,5.034,0,0,1,.36,1.3l.1.791-.482-.925a3,3,0,0,1-.412-1.3C47.1,23.994,47.131,24,47.437,24.616Zm1.28,4.871c.289-.155.316-.075.368,1.085.03.689-.008,1.189-.085,1.111A7.213,7.213,0,0,1,47.987,29.1c.138.053.239-.036.255-.225.015-.172.057-.066.095.234C48.4,29.582,48.447,29.633,48.717,29.488Z" transform="translate(0 0)" fill="#019201"/></g><g transform="translate(57.975 49.656) rotate(30)"><path d="M21.425,40.733c.391-2.346.537-5.551.274-5.551a2.3,2.3,0,0,0-.6.307,19.337,19.337,0,0,1-2.4,1.272.242.242,0,0,1-.175-.127c-.06-.107-.19-.066-.837.262-.671.34-.79.376-.955.288s-.273-.06-.805.195c-.678.325-.759.341-.987.2-.127-.079-.221-.058-.518.114-.589.342-.722.361-.786.109-.03-.119-.078-.2-.107-.187a3.21,3.21,0,0,1-1.3.44,6.945,6.945,0,0,0-2.186.635,4.755,4.755,0,0,1-.895.3c-.1-.1.124-.322.955-.959.495-.38.97-.755,1.056-.834a4.076,4.076,0,0,1,.361-.286.486.486,0,0,0,.208-.329c0-.144.114-.243.485-.428.3-.152.446-.264.382-.3-.189-.117,0-.312.461-.486a2.838,2.838,0,0,1,.629-.174c.186,0,.2-.032.079-.251-.074-.138-.041-.169.27-.257a3.924,3.924,0,0,1,.828-.107c.44-.007.471-.02.43-.184s0-.18.565-.231a3.143,3.143,0,0,1,.886.028c.222.066.269.06.235-.03-.068-.177.368-.221,1.688-.171l1.206.046-.831-.294c-.786-.279-2.571-.832-3.346-1.037-.2-.052-.342-.121-.325-.153.062-.117-.241-.308-.525-.333-.16-.014-.614-.082-1.01-.153-.6-.107-.728-.156-.777-.307a.882.882,0,0,1-.049-.27,1.65,1.65,0,0,0-.711-.242c-.767-.161-1.07-.352-.985-.62.039-.124-.006-.166-.224-.209-.762-.152-1.131-.3-1.267-.506s-.133-.224,0-.374.125-.159.017-.159a6.543,6.543,0,0,1-.724-.135c-.447-.1-.629-.184-.726-.332-.121-.185-.117-.208.067-.361.108-.09.168-.17.134-.177l-.125-.025a5.419,5.419,0,0,1-1.527-.685c-.192-.2-.193-.213-.039-.325s.155-.117,0-.171a4.326,4.326,0,0,1-1.048-.506c-.159-.144-.2-.441-.065-.441.222,0,.033-.145-.414-.318a1.93,1.93,0,0,1-.671-.414l-.174-.221.174-.116c.166-.11.149-.13-.387-.443-.609-.356-.705-.454-.643-.655.026-.085-.038-.168-.184-.234-.352-.161-.864-.6-.839-.714A6.131,6.131,0,0,0,.728,21.611c-.651-.383-.821-.516-.683-.537a1.948,1.948,0,0,1,.617.114c.509.165,2.2.833,2.4.95a.355.355,0,0,0,.261.035,1.592,1.592,0,0,1,.647.229c.29.151.556.288.59.3s.062-.031.062-.1.021-.132.046-.132a3.308,3.308,0,0,1,.894.521c.309.243.318.245.363.072.025-.1.076-.177.112-.177a4.617,4.617,0,0,1,1.019.85c.022.06.079,0,.132-.129l.093-.234.27.191a6.705,6.705,0,0,1,.661.579l.391.389L8.7,24.25a.665.665,0,0,1,.138-.283,8.381,8.381,0,0,1,1.243,1.173l.262.325.087-.25c.048-.138.122-.25.165-.25a6.04,6.04,0,0,1,1.174,1.277c.065.172.071.17.173-.051.058-.126.152-.228.208-.228a4.876,4.876,0,0,1,1.121,1.187c0,.055.059,0,.127-.128s.152-.229.186-.229a6.789,6.789,0,0,1,1.085,1.248l.169.278.085-.223c.047-.123.119-.223.161-.223a7.22,7.22,0,0,1,1.094,1.441c0,.053.048.014.1-.085a.69.69,0,0,1,.156-.208,8.857,8.857,0,0,1,1.209,1.546c.126.242.127.242.224.062s.1-.178.394.13c.163.172.448.507.632.745a12.71,12.71,0,0,0,1.847,1.769l.29.205-.186-.261a1.344,1.344,0,0,1-.186-.315,3.7,3.7,0,0,0-.326-.534,13.062,13.062,0,0,0-1.965-2.057,3.444,3.444,0,0,1-.694-.8c-.1-.245-.246-.384-1.146-1.078a1.523,1.523,0,0,1-.522-.7c0-.018.065-.034.145-.036.117,0,.1-.032-.06-.145a7.164,7.164,0,0,1-1.461-1.217c-.094-.182-.09-.22.03-.288.077-.043.121-.093.1-.112s-.3-.215-.622-.436c-.739-.511-1.055-.872-.764-.872a.34.34,0,0,0,.2-.095c.071-.071-.024-.172-.378-.4-.451-.292-1.013-.843-1.013-.994,0-.039.093-.095.208-.123s.208-.082.208-.119a2.326,2.326,0,0,0-.507-.434,2.633,2.633,0,0,1-.622-.59c-.111-.214-.106-.224.133-.277.317-.07.313-.135-.022-.316a4.075,4.075,0,0,1-1.143-1.031c0-.056.1-.152.215-.213l.214-.112-.343-.227a3.96,3.96,0,0,1-1-.89c0-.038.142-.113.316-.165l.316-.095-.731-.721a3.922,3.922,0,0,1-.731-.855c0-.087.1-.153.29-.189l.29-.054-.526-.516c-.655-.642-.723-.793-.386-.861a.609.609,0,0,0,.248-.08,6.309,6.309,0,0,0-.407-.536c-.419-.52-.564-.823-.395-.826a.522.522,0,0,0,.218-.078c.1-.065.1-.1-.046-.227a2.264,2.264,0,0,1-.616-.885c0-.093.07-.138.215-.138H7.8l-.219-.26A2.621,2.621,0,0,1,7.035,11.3a.147.147,0,0,1,.161-.128c.151,0,.145-.034-.083-.538-.25-.551-.32-.931-.152-.827Q7.053,9.865,7,9.7c-.029-.093-.125-.425-.211-.737a15.047,15.047,0,0,0-.661-1.665c-.277-.6-.5-1.123-.5-1.155,0-.165.418.369,1.138,1.456a16.41,16.41,0,0,0,.988,1.387,2.757,2.757,0,0,1,.407.645c.122.258.258.447.3.419a.213.213,0,0,1,.208.056,3.232,3.232,0,0,1,.566,1.111l.06.247.148-.2.148-.2.13.185a3.282,3.282,0,0,1,.282.675c.152.487.244.574.419.4a.155.155,0,0,1,.173-.043,2.269,2.269,0,0,1,.427.95l.047.275.2-.184c.191-.179.2-.179.289-.026a5.891,5.891,0,0,1,.514,1.378l.056.331.184-.173a.638.638,0,0,1,.276-.173,3.5,3.5,0,0,1,.354,1.381v.227l.214-.2c.208-.195.218-.2.329-.045a1.429,1.429,0,0,1,.167.505c.078.522.156.611.365.422.094-.086.189-.138.21-.117a7.272,7.272,0,0,1,.5,1.463.758.758,0,0,0,.108.353.849.849,0,0,0,.242-.18c.106-.1.215-.157.244-.128a4.526,4.526,0,0,1,.28,1.326c0,.331.081.391.251.187a.337.337,0,0,1,.17-.125c.09,0,.231.446.356,1.125.1.519.113.55.24.424a.578.578,0,0,1,.175-.136,7.657,7.657,0,0,1,.546,1.815l.05.444.229-.18c.171-.134.238-.152.263-.07.019.06.153.475.3.92a10.042,10.042,0,0,1,.318,1.192l.055.381.224-.177.224-.177.082.314c.2.767.331,1.337.383,1.664.055.35.144.44.255.26.074-.12.222.3.528,1.506a17.32,17.32,0,0,0,1.1,2.949l.162.332-.038-.665a6.42,6.42,0,0,0-.248-1.329c-.115-.365-.267-.945-.338-1.288-.111-.542-.112-.635-.008-.713.075-.056.09-.119.041-.168a13.89,13.89,0,0,1-.664-1.85c0-.039.09-.053.2-.032l.2.038-.32-.795a8.867,8.867,0,0,1-.375-1.088c-.052-.275-.041-.293.162-.293a.477.477,0,0,0,.217-.026c0-.014-.091-.215-.2-.446a6.387,6.387,0,0,1-.462-1.513c0-.051.116-.092.258-.092.214,0,.248-.025.2-.145-.2-.482-.538-1.409-.582-1.611-.05-.227-.039-.238.247-.238h.3l-.117-.228a7.735,7.735,0,0,1-.468-1.493c0-.092.066-.116.253-.088.207.03.242.013.194-.094a13.5,13.5,0,0,1-.489-1.49L19.4,16.39l.353.06c.324.055.348.047.287-.1a5.885,5.885,0,0,1-.426-1.482l-.055-.471.3.056.3.056-.2-.486a2.709,2.709,0,0,1-.2-.766c0-.27.008-.278.256-.229.219.044.25.03.2-.089-.375-.976-.373-1.242.009-1.2l.261.026-.126-.358a3.079,3.079,0,0,1-.138-.774l-.012-.415.32.019c.275.017.311,0,.258-.125a5.28,5.28,0,0,1-.1-.923l-.04-.78.3.056c.3.056.3.054.218-.16a1.787,1.787,0,0,1-.006-1.028.178.178,0,0,1,.206-.065c.113.043.133-.024.133-.438,0-.559.055-.758.194-.7.069.026.089-.1.068-.429-.027-.441-.02-.463.145-.411s.174.024.174-.332a1.941,1.941,0,0,1,.116-.649A5.86,5.86,0,0,0,22.4,3.115c.111-1.009.317-2.5.394-2.866L22.847,0l.061.208a8.849,8.849,0,0,1,.069,1.242,13.316,13.316,0,0,0,.276,3.005,1,1,0,0,1,.052.518c-.026.424-.015.462.125.418s.152,0,.124.619-.02.668.136.652.167.033.166.482a2.851,2.851,0,0,1-.069.689c-.063.175-.051.186.158.133l.227-.057-.044.705a3.43,3.43,0,0,1-.143.889c-.1.178-.088.182.2.129l.3-.056V9.9a4.477,4.477,0,0,1-.292,1.3c-.067.158,0,.156.449-.014.095-.036.108.054.071.489a4.448,4.448,0,0,1-.172.9l-.127.363.289-.047c.2-.032.3-.012.331.064a5.5,5.5,0,0,1-.424,1.406c-.06.138-.039.149.194.1.254-.056.262-.049.262.227a4.272,4.272,0,0,1-.5,1.541c-.2.345-.17.4.177.275L25,16.409l-.04.414a3.311,3.311,0,0,1-.3.932,2.71,2.71,0,0,0-.231.543.575.575,0,0,0,.247-.059c.474-.18.365.393-.35,1.854-.019.039.082.045.224.014.25-.055.259-.047.258.22a3.992,3.992,0,0,1-.289.983c-.158.388-.289.715-.289.727a.562.562,0,0,0,.213.021c.2,0,.21.021.158.27a5.51,5.51,0,0,1-.339.866c-.156.328-.283.614-.283.636s.075.021.166,0c.262-.069.213.34-.125,1.044-.16.334-.291.623-.291.643s.093.013.208-.016c.172-.043.208-.022.208.123,0,.1.037.175.083.175s.083-.187.083-.415c0-.306.031-.415.12-.415a.22.22,0,0,1,.171.083c.127.205.282.075.272-.228a10.616,10.616,0,0,1,.156-1.7c.021-.034.123-.005.228.064l.191.125.05-.813c.056-.915.112-1.13.277-1.063l.22.09c.079.032.134-.186.212-.849a6.7,6.7,0,0,1,.148-.935c.023-.023.147.018.275.091l.233.134.056-.675a7.551,7.551,0,0,1,.141-.993l.085-.318.275.21.275.21.053-.451a5.3,5.3,0,0,1,.3-1.362c.062-.1.105-.1.288.023l.215.141V16.43a3.091,3.091,0,0,1,.088-.646c.154-.586.148-.578.315-.427.232.21.345.164.345-.141A3.519,3.519,0,0,1,29.544,14a.65.65,0,0,1,.217.122c.239.181.258.163.273-.267a2.843,2.843,0,0,1,.331-1.267.623.623,0,0,1,.226.122c.232.175.286.156.286-.1a1.99,1.99,0,0,1,.291-.969c.115-.15.131-.151.277-.018s.158.127.205-.22a3.339,3.339,0,0,1,.137-.593c.085-.225.094-.227.294-.1s.206.129.206-.067a2.076,2.076,0,0,1,.169-.6c.129-.3.192-.371.266-.3.143.143.23.118.23-.067a1.43,1.43,0,0,1,.14-.458c.105-.22.178-.282.291-.246.1.03.15.006.15-.068a3.138,3.138,0,0,1,.36-.691A17.845,17.845,0,0,0,34.948,6.4a3.236,3.236,0,0,1,.646-.978,4.693,4.693,0,0,1-.39,1.332,12.26,12.26,0,0,0-.671,2.657c.133.045.1.369-.084.72-.2.39-.2.374-.042.374.214,0,.152.221-.36,1.279-.02.041.063.049.183.019.2-.05.218-.033.218.187a3.048,3.048,0,0,1-.317.874l-.318.632h.234c.192,0,.234.036.234.2a4.317,4.317,0,0,1-.71,1.433c-.212.278-.162.361.219.361.346,0,.158.426-.475,1.08l-.443.457.288.084.288.084-.172.29a5.133,5.133,0,0,1-.593.721l-.421.431.223.056c.316.079.228.306-.328.854a4.737,4.737,0,0,0-.45.478c0,.019.077.035.172.035.326,0,.048.528-.511.971l-.34.269.215.054c.118.03.215.09.215.133a1.091,1.091,0,0,1-.252.484c-.033.023-.238.206-.455.406-.334.309-.374.376-.259.441.2.113.053.338-.679,1.034-.564.535-.607.6-.446.649s.171.071.057.291a3.872,3.872,0,0,1-.664.711c-.553.486-.644.622-.413.622.255,0,.028.369-.635,1.029-.362.36-.658.668-.658.685s.056.031.125.031c.142,0,.167.13.04.209a.092.092,0,0,0-.042.122,2.515,2.515,0,0,1-.617.626,3.517,3.517,0,0,0-.74.776,6.256,6.256,0,0,1-.708.967c-.827.985-2.274,3.112-1.837,2.7a16.5,16.5,0,0,0,2.039-2.247c.571-.835.64-.9.751-.743.063.091.1.1.128.024a8.087,8.087,0,0,1,.9-1.476c.345-.452.431-.522.508-.418.125.171.172.158.228-.062a2.851,2.851,0,0,1,.385-.634c.185-.246.374-.508.418-.582.073-.122.092-.12.2.019s.133.127.326-.249a4.183,4.183,0,0,1,.46-.694c.258-.3.292-.293.464.042.026.05.063.04.092-.023.043-.093.912-1.331,1-1.427.019-.02.114.043.212.14l.177.177.174-.321a3.312,3.312,0,0,1,.856-1c.039,0,.116.119.171.264l.1.264.23-.341a4.107,4.107,0,0,1,.933-1.018c.04,0,.116.131.169.291.106.321.212.372.287.137a6.685,6.685,0,0,1,1.355-1.259c.042,0,.123.1.18.228.1.228.1.228.243.057a5.593,5.593,0,0,1,1.317-.95c.059,0,.108.069.108.152,0,.25.089.265.3.049A3.4,3.4,0,0,1,39.1,21.06c.047,0,.086.062.086.137,0,.124.014.125.145.011a1.529,1.529,0,0,1,.768-.361,10.3,10.3,0,0,0,1.371-.533c1.487-.658,1.537-.677,1.537-.588a2.836,2.836,0,0,1-.561.513,8.685,8.685,0,0,0-1.712,1.632c.014.128-.571.644-.958.844-.28.145-.281.147-.1.271s.171.131.03.258a3.458,3.458,0,0,1-.628.353c-.437.2-.467.23-.33.331.222.165.066.356-.546.669-.632.323-.669.358-.486.46.305.171-.16.548-1.051.853-.145.05-.147.064-.021.2.11.121.116.175.032.285a4.863,4.863,0,0,1-1.451.727c-.124,0-.116.026.049.153.4.307-.048.706-1.048.936-.455.1-.528.178-.3.3.277.155-.014.4-.816.683-1.118.4-1.109.391-.929.589.141.156.14.169-.025.334a2.215,2.215,0,0,1-.941.33c-.691.142-.981.287-.992.5a3.654,3.654,0,0,1-.73.323,3.412,3.412,0,0,0-.9.462c-.245.262-.577.419-2.44,1.159-.891.354-1.826.752-2.077.884-.417.22-.432.236-.166.19.16-.028.672-.157,1.139-.288,1.241-.349,1.437-.378,1.437-.213,0,.121.02.123.187.014a5.548,5.548,0,0,1,1.433-.328c.046-.006.071.076.056.182-.025.178-.012.185.165.091a8.953,8.953,0,0,1,1.42-.407c.034,0,.062.077.062.174,0,.133.035.161.145.119A3.022,3.022,0,0,1,31,33.136a.131.131,0,0,1,.07.175c-.041.106-.014.116.147.055a3.985,3.985,0,0,1,.644-.136l.448-.061-.041.217-.041.217.57-.053c.544-.051.57-.045.57.125s.044.178.531.178c.455,0,.529.021.519.145-.006.08.035.136.093.124a1.8,1.8,0,0,1,.457.058c.194.043.483.1.643.13a.6.6,0,0,1,.357.171.269.269,0,0,0,.215.12,6.688,6.688,0,0,1,2.293.993,9.949,9.949,0,0,1-1.611.054c-1.462-.008-1.668.008-1.811.137a.853.853,0,0,1-.565.145.765.765,0,0,0-.592.177c-.165.155-.289.178-.984.181-.675,0-.792.024-.774.134.059.362-.215.415-1.055.2-.494-.124-.543-.124-.671,0-.156.156-.461.121-.948-.108a2.314,2.314,0,0,0-.872-.139,18.088,18.088,0,0,1-4.237-1.162,3.59,3.59,0,0,0-1.4-.344c-.585.075-.658-.183-.718,1.48a36.324,36.324,0,0,1-.588,5.159C21.245,41.865,21.366,41.1,21.425,40.733Zm.962-6.4c-.153-.1-.838-.06-.736.042a.571.571,0,0,0,.333.073c.139,0,.253.032.253.08s.05.046.129-.019C22.469,34.429,22.473,34.394,22.387,34.338Zm1.045-4.891a2.487,2.487,0,0,0,.178-.644l.052-.391-.238.457a1.481,1.481,0,0,0-.2.644C23.264,29.754,23.281,29.749,23.432,29.447Zm.632-2.406c.143.077.156.037.182-.536.015-.34,0-.587-.042-.549a3.563,3.563,0,0,0-.5,1.277c.068-.026.118.018.126.111s.028.033.047-.116C23.905,26.994,23.93,26.969,24.064,27.04Z" transform="translate(0 0)" fill="#019201"/></g><g transform="translate(-14.332 67.41) rotate(-47)"><path d="M34.287,65.186c.625-3.754.859-8.883.438-8.883a3.68,3.68,0,0,0-.964.491,30.945,30.945,0,0,1-3.844,2.035.388.388,0,0,1-.28-.2c-.1-.171-.3-.105-1.34.419-1.074.544-1.264.6-1.528.46s-.436-.1-1.288.312c-1.084.52-1.214.546-1.579.318-.2-.127-.354-.093-.829.182-.943.548-1.156.577-1.257.174-.048-.19-.125-.325-.171-.3a5.137,5.137,0,0,1-2.078.7,11.114,11.114,0,0,0-3.5,1.016,7.609,7.609,0,0,1-1.432.472c-.158-.158.2-.515,1.529-1.535.792-.607,1.552-1.208,1.69-1.334a6.523,6.523,0,0,1,.578-.458.778.778,0,0,0,.332-.527c0-.23.182-.388.776-.685.487-.244.713-.423.612-.485-.3-.187-.006-.5.738-.778A4.541,4.541,0,0,1,21.9,56.3c.3,0,.314-.051.126-.4-.118-.221-.065-.271.432-.412a6.279,6.279,0,0,1,1.325-.172c.7-.011.753-.031.688-.294s0-.288.9-.37a5.03,5.03,0,0,1,1.418.044c.356.105.43.1.375-.047-.109-.284.588-.354,2.7-.273l1.929.074-1.329-.471c-1.258-.446-4.114-1.331-5.355-1.66-.313-.083-.547-.193-.52-.244.1-.187-.385-.493-.84-.532-.256-.022-.983-.132-1.616-.244-.967-.172-1.166-.25-1.244-.492a1.411,1.411,0,0,1-.078-.433,2.641,2.641,0,0,0-1.137-.387c-1.228-.258-1.713-.563-1.577-.992.063-.2-.009-.265-.359-.335-1.219-.244-1.811-.48-2.027-.811s-.212-.359,0-.6c.2-.217.2-.255.027-.255a10.471,10.471,0,0,1-1.158-.216c-.715-.162-1.006-.295-1.162-.532-.194-.3-.187-.332.107-.578.173-.144.269-.271.214-.283l-.2-.039a8.672,8.672,0,0,1-2.444-1.1c-.307-.326-.308-.34-.062-.521s.249-.187,0-.273a6.923,6.923,0,0,1-1.677-.809c-.254-.23-.325-.706-.1-.706.355,0,.053-.232-.663-.509a3.089,3.089,0,0,1-1.075-.663l-.278-.354.278-.185c.266-.177.239-.208-.619-.709-.974-.569-1.128-.727-1.029-1.047.042-.136-.061-.268-.294-.374-.564-.257-1.382-.954-1.343-1.143.053-.251-1.486-1.439-3.078-2.376-1.042-.613-1.313-.826-1.094-.859a3.118,3.118,0,0,1,.987.182c.815.264,3.517,1.333,3.847,1.521a.567.567,0,0,0,.418.057,2.547,2.547,0,0,1,1.036.367c.465.242.89.46.944.485s.1-.049.1-.165.033-.211.073-.211a5.294,5.294,0,0,1,1.43.833c.495.389.508.392.581.115.041-.156.121-.283.179-.283a7.389,7.389,0,0,1,1.631,1.36c.036.1.126.008.211-.206l.149-.375.432.305a10.73,10.73,0,0,1,1.057.927l.625.622.149-.453a1.064,1.064,0,0,1,.22-.453,13.413,13.413,0,0,1,1.989,1.877l.419.52.14-.4c.077-.22.2-.4.264-.4a9.665,9.665,0,0,1,1.878,2.043c.1.275.113.272.277-.082.093-.2.243-.366.332-.366a7.8,7.8,0,0,1,1.794,1.9c0,.089.095,0,.2-.2s.243-.366.3-.366a10.865,10.865,0,0,1,1.736,2l.271.445.136-.357c.075-.2.191-.357.257-.357a11.555,11.555,0,0,1,1.751,2.306c0,.085.077.023.166-.137a1.1,1.1,0,0,1,.249-.332,14.174,14.174,0,0,1,1.935,2.475c.2.387.2.388.358.1s.161-.285.631.209c.261.275.716.811,1.011,1.192a20.34,20.34,0,0,0,2.955,2.83l.464.329-.3-.418a2.151,2.151,0,0,1-.3-.5,5.916,5.916,0,0,0-.522-.855A20.9,20.9,0,0,0,29.4,48.506a5.511,5.511,0,0,1-1.111-1.28c-.156-.392-.393-.615-1.834-1.725a2.437,2.437,0,0,1-.835-1.113c0-.028.1-.054.233-.058.187-.006.168-.052-.1-.233a11.464,11.464,0,0,1-2.338-1.947c-.151-.291-.144-.352.049-.46.123-.069.193-.149.157-.179s-.484-.344-1-.7C21.442,40,20.936,39.419,21.4,39.419a.545.545,0,0,0,.324-.152c.113-.113-.039-.275-.6-.641-.723-.468-1.62-1.349-1.62-1.591,0-.063.149-.151.332-.2s.332-.132.332-.191a3.722,3.722,0,0,0-.811-.695,4.213,4.213,0,0,1-1-.944c-.177-.343-.17-.359.213-.443.507-.111.5-.215-.035-.506a6.522,6.522,0,0,1-1.83-1.649c0-.089.156-.243.344-.341l.342-.179-.548-.363a6.337,6.337,0,0,1-1.6-1.424c0-.062.227-.18.505-.263l.505-.151-1.17-1.153a6.276,6.276,0,0,1-1.17-1.368c0-.14.162-.245.465-.3l.465-.087-.841-.825c-1.048-1.028-1.156-1.269-.617-1.377a.974.974,0,0,0,.4-.128,10.1,10.1,0,0,0-.652-.858c-.671-.832-.9-1.318-.632-1.321a.836.836,0,0,0,.349-.125c.166-.1.155-.16-.073-.364a3.623,3.623,0,0,1-.986-1.416c0-.148.112-.22.344-.22h.344l-.351-.417a4.194,4.194,0,0,1-.87-1.639.235.235,0,0,1,.258-.2c.241,0,.233-.055-.133-.861-.4-.882-.512-1.489-.243-1.324q.147.091.061-.179c-.047-.149-.2-.68-.338-1.18A24.08,24.08,0,0,0,9.8,11.673C9.361,10.708,9,9.876,9,9.824c0-.265.669.591,1.821,2.33a26.261,26.261,0,0,0,1.58,2.219,4.412,4.412,0,0,1,.652,1.032c.2.413.413.715.483.671a.341.341,0,0,1,.332.09,5.172,5.172,0,0,1,.905,1.778l.1.4.236-.313.236-.313.208.3A5.252,5.252,0,0,1,16,19.09c.243.78.39.919.671.638a.248.248,0,0,1,.276-.069,3.632,3.632,0,0,1,.684,1.521l.075.44.316-.295c.306-.286.32-.287.462-.041a9.427,9.427,0,0,1,.822,2.2l.089.529.294-.276a1.021,1.021,0,0,1,.441-.276,5.6,5.6,0,0,1,.567,2.21v.362l.343-.322c.332-.312.349-.314.526-.072a2.286,2.286,0,0,1,.267.809c.125.835.249.979.585.675.151-.137.3-.221.337-.187a11.637,11.637,0,0,1,.8,2.341,1.213,1.213,0,0,0,.173.565,1.359,1.359,0,0,0,.387-.289c.169-.159.345-.251.39-.206a7.244,7.244,0,0,1,.448,2.123c0,.529.13.625.4.3a.539.539,0,0,1,.272-.2c.143,0,.37.714.57,1.8.153.83.181.88.383.678a.925.925,0,0,1,.28-.218,12.254,12.254,0,0,1,.874,2.9l.081.711.366-.288c.273-.215.38-.244.422-.112.031.1.245.759.476,1.473a16.07,16.07,0,0,1,.509,1.907l.089.61.359-.283.359-.283.131.5c.32,1.227.53,2.14.613,2.664.089.56.23.7.409.415.118-.192.355.481.845,2.41a27.717,27.717,0,0,0,1.756,4.72l.26.532-.061-1.064a10.274,10.274,0,0,0-.4-2.127c-.184-.585-.428-1.512-.54-2.061-.178-.867-.18-1.016-.013-1.141.12-.09.145-.191.066-.27a22.228,22.228,0,0,1-1.062-2.96c0-.062.144-.085.319-.051l.319.061-.512-1.272a14.189,14.189,0,0,1-.6-1.741c-.083-.44-.066-.47.259-.47a.763.763,0,0,0,.347-.042c0-.023-.146-.344-.324-.713a10.221,10.221,0,0,1-.739-2.422c0-.081.186-.147.413-.147.342,0,.4-.04.315-.233-.325-.771-.861-2.254-.932-2.578-.08-.363-.062-.38.4-.38h.479l-.188-.366a12.379,12.379,0,0,1-.749-2.389c0-.148.106-.185.4-.141.331.049.387.021.311-.151a21.6,21.6,0,0,1-.782-2.385l-.093-.446.565.1c.518.088.557.075.459-.152a9.418,9.418,0,0,1-.681-2.372l-.089-.753.475.089.475.089-.32-.777a4.335,4.335,0,0,1-.323-1.226c0-.432.013-.446.41-.366.35.07.4.049.327-.142-.6-1.563-.6-1.987.014-1.926l.418.042-.2-.574a4.926,4.926,0,0,1-.22-1.238l-.019-.665.512.031c.44.026.5,0,.413-.2a8.45,8.45,0,0,1-.163-1.478l-.064-1.248.481.09c.475.089.479.086.349-.257a2.86,2.86,0,0,1-.01-1.645.285.285,0,0,1,.33-.1c.18.069.213-.038.213-.7,0-.894.088-1.212.31-1.127.11.042.142-.157.109-.686-.044-.706-.031-.741.233-.657s.279.038.279-.532A3.106,3.106,0,0,1,35.507,6.8a9.377,9.377,0,0,0,.34-1.815c.178-1.615.507-4.007.631-4.587l.085-.4.1.332a14.161,14.161,0,0,1,.11,1.987,21.311,21.311,0,0,0,.442,4.809,1.592,1.592,0,0,1,.084.83c-.042.678-.024.74.2.668s.244,0,.2.991-.032,1.068.218,1.044.267.053.266.772a4.563,4.563,0,0,1-.11,1.1c-.1.281-.082.3.253.213l.363-.091-.07,1.128a5.489,5.489,0,0,1-.228,1.423c-.152.285-.141.292.316.206l.474-.089v.518a7.164,7.164,0,0,1-.467,2.087c-.107.252,0,.249.719-.022.152-.057.173.087.114.783a7.118,7.118,0,0,1-.276,1.433l-.2.581.462-.075c.318-.052.483-.02.53.1a8.794,8.794,0,0,1-.678,2.25c-.1.221-.063.238.311.156.406-.089.419-.078.419.363a6.836,6.836,0,0,1-.8,2.465c-.325.552-.272.634.283.441l.422-.147-.064.663a5.3,5.3,0,0,1-.474,1.491,4.337,4.337,0,0,0-.37.869.92.92,0,0,0,.4-.095c.758-.288.585.629-.56,2.967-.031.063.131.073.359.023.4-.088.415-.075.412.352a6.388,6.388,0,0,1-.463,1.573c-.253.622-.462,1.145-.463,1.163a.9.9,0,0,0,.341.033c.317,0,.336.033.253.432a8.818,8.818,0,0,1-.542,1.386c-.249.524-.453.982-.453,1.018s.12.033.266-.005c.419-.11.341.543-.2,1.671-.256.534-.465,1-.465,1.029s.149.021.332-.025c.276-.069.332-.036.332.2,0,.154.06.28.133.28s.133-.3.133-.665c0-.49.05-.665.192-.665a.351.351,0,0,1,.274.133c.2.328.451.12.435-.366a16.988,16.988,0,0,1,.25-2.724c.033-.054.2-.008.365.1l.305.2.079-1.3c.089-1.464.179-1.809.444-1.7l.352.144c.126.052.214-.3.34-1.359a10.72,10.72,0,0,1,.237-1.5c.037-.037.235.029.44.146l.373.214.089-1.081a12.084,12.084,0,0,1,.225-1.589l.136-.508.44.336.44.336.085-.722a8.48,8.48,0,0,1,.475-2.179c.1-.161.169-.155.461.036l.344.225v-.5a4.946,4.946,0,0,1,.14-1.033c.246-.938.236-.925.5-.683.372.336.552.262.552-.226a5.631,5.631,0,0,1,.392-1.95,1.04,1.04,0,0,1,.347.2c.383.29.412.261.437-.428a4.55,4.55,0,0,1,.53-2.027,1,1,0,0,1,.362.2c.371.281.457.25.458-.162a3.184,3.184,0,0,1,.465-1.551c.184-.241.209-.242.444-.029s.253.2.329-.352a5.344,5.344,0,0,1,.22-.948c.137-.359.15-.364.471-.154s.33.207.33-.108a3.323,3.323,0,0,1,.271-.956c.206-.48.308-.594.425-.476.229.229.368.189.368-.106a2.288,2.288,0,0,1,.225-.732c.168-.353.285-.452.465-.394.154.049.241.01.241-.108a5.022,5.022,0,0,1,.576-1.106,28.558,28.558,0,0,0,1.684-2.9,5.178,5.178,0,0,1,1.033-1.565,7.51,7.51,0,0,1-.623,2.131,19.619,19.619,0,0,0-1.074,4.252c.213.071.153.59-.134,1.152-.318.624-.315.6-.066.6.342,0,.243.353-.576,2.046-.032.065.1.079.292.031.318-.08.35-.052.35.3a4.877,4.877,0,0,1-.508,1.4L54.114,21.6h.375c.307,0,.375.058.375.319a6.908,6.908,0,0,1-1.137,2.294c-.339.445-.259.578.35.578.553,0,.253.682-.761,1.728l-.708.731.461.135.461.135-.276.463a8.214,8.214,0,0,1-.949,1.153l-.673.69.357.09c.505.127.365.49-.525,1.366a7.58,7.58,0,0,0-.721.764c0,.03.124.055.275.055.522,0,.076.845-.819,1.553l-.543.43.344.086c.189.047.344.144.344.214a1.745,1.745,0,0,1-.4.774c-.053.037-.381.329-.728.65-.534.494-.6.6-.414.705.323.181.085.542-1.086,1.654-.9.856-.971.957-.714,1.039s.273.114.091.466a6.2,6.2,0,0,1-1.063,1.138c-.886.778-1.03,1-.66,1,.409,0,.044.59-1.017,1.646-.579.576-1.053,1.07-1.053,1.1s.09.049.2.049c.227,0,.267.208.064.334a.147.147,0,0,0-.066.195,4.025,4.025,0,0,1-.987,1,5.629,5.629,0,0,0-1.184,1.242,10.012,10.012,0,0,1-1.133,1.548c-1.323,1.576-3.639,4.98-2.94,4.321a26.4,26.4,0,0,0,3.263-3.6c.914-1.336,1.025-1.446,1.2-1.19.1.146.156.156.2.038a12.942,12.942,0,0,1,1.443-2.362c.553-.723.689-.835.812-.668.2.273.276.253.365-.1a4.563,4.563,0,0,1,.616-1.015c.3-.394.6-.812.669-.931.117-.195.147-.192.32.031s.213.2.522-.4a6.694,6.694,0,0,1,.736-1.11c.412-.473.467-.469.743.067.041.079.1.065.147-.036.069-.149,1.46-2.13,1.6-2.283.03-.032.183.068.338.224l.283.283.278-.514a5.3,5.3,0,0,1,1.369-1.6c.063,0,.185.19.273.423l.16.423.368-.545a6.572,6.572,0,0,1,1.493-1.63c.065,0,.186.209.271.465.17.514.34.6.459.22a10.7,10.7,0,0,1,2.168-2.014c.067,0,.2.164.288.365.166.364.167.365.388.091a8.951,8.951,0,0,1,2.107-1.52c.1,0,.173.11.173.244,0,.4.142.424.487.079a5.443,5.443,0,0,1,1.769-.987c.075,0,.137.1.137.22,0,.2.023.2.233.017a2.447,2.447,0,0,1,1.23-.578,16.489,16.489,0,0,0,2.194-.853c2.379-1.053,2.46-1.083,2.46-.942a4.539,4.539,0,0,1-.9.822A13.9,13.9,0,0,0,65.187,35c.023.2-.914,1.03-1.533,1.351-.448.232-.449.235-.166.433s.274.209.048.413a5.534,5.534,0,0,1-1,.566c-.7.32-.747.368-.528.53.355.264.105.57-.874,1.07-1.012.517-1.071.572-.778.736.488.273-.256.878-1.682,1.365-.233.08-.235.1-.034.325.176.194.186.28.051.457a7.783,7.783,0,0,1-2.322,1.163c-.2,0-.186.042.078.245.638.491-.077,1.13-1.677,1.5-.728.168-.845.286-.483.488.443.248-.022.637-1.306,1.093-1.789.635-1.774.625-1.487.943.226.249.224.271-.04.535a3.544,3.544,0,0,1-1.506.528c-1.107.227-1.57.46-1.588.8a5.847,5.847,0,0,1-1.168.517,5.46,5.46,0,0,0-1.447.74c-.392.419-.924.671-3.9,1.855-1.426.566-2.921,1.2-3.324,1.414-.668.351-.691.378-.266.3.256-.044,1.076-.252,1.822-.461,1.986-.558,2.3-.6,2.3-.341,0,.194.032.2.3.023a8.878,8.878,0,0,1,2.293-.525c.073-.01.113.121.09.291-.04.285-.019.3.264.145a14.328,14.328,0,0,1,2.272-.651c.055,0,.1.124.1.278,0,.212.056.258.232.191a4.837,4.837,0,0,1,1.7-.289.21.21,0,0,1,.112.281c-.065.169-.022.185.235.088a6.377,6.377,0,0,1,1.031-.217l.716-.1-.066.347-.066.347.912-.085c.87-.081.912-.072.912.2s.07.285.849.285c.727,0,.847.033.831.233-.01.128.057.217.149.2a2.883,2.883,0,0,1,.731.092c.31.069.773.163,1.028.207a.956.956,0,0,1,.572.273.431.431,0,0,0,.343.192,10.7,10.7,0,0,1,3.669,1.589A15.919,15.919,0,0,1,59,57.048c-2.34-.013-2.669.012-2.9.219a1.365,1.365,0,0,1-.9.233,1.224,1.224,0,0,0-.948.284c-.264.248-.463.285-1.575.29-1.08.005-1.267.038-1.238.214.095.579-.344.664-1.688.327-.791-.2-.869-.2-1.074.007-.249.249-.738.194-1.518-.172a3.7,3.7,0,0,0-1.4-.222,28.946,28.946,0,0,1-6.78-1.86,5.746,5.746,0,0,0-2.237-.55c-.937.119-1.053-.293-1.149,2.369a58.129,58.129,0,0,1-.941,8.256C34,67,34.192,65.769,34.287,65.186Zm1.539-10.235c-.244-.159-1.341-.1-1.177.067a.914.914,0,0,0,.533.117c.223-.006.405.052.405.129s.081.074.206-.03C35.957,55.1,35.964,55.041,35.826,54.951ZM37.5,47.124a3.979,3.979,0,0,0,.284-1.03l.083-.626-.381.731a2.37,2.37,0,0,0-.326,1.03C37.23,47.616,37.256,47.608,37.5,47.124Zm1.012-3.851c.229.123.25.06.291-.858.024-.545-.006-.94-.067-.878a5.7,5.7,0,0,0-.8,2.044c.109-.042.189.029.2.178s.045.052.075-.185C38.256,43.2,38.3,43.158,38.51,43.273Z" transform="translate(0 0)" fill="#019201"/></g></g><path d="M0,0" transform="translate(12.777)" fill="none" stroke="#035e03" stroke-width="1"/><g transform="translate(-68.332 -200)" fill="none" stroke="red" stroke-width="1"><rect width="260" height="440" stroke="none"/><rect x="0.5" y="0.5" width="259" height="439" fill="none"/></g></g></svg>